<svg xmlns="http://www.w3.org/2000/svg" xmlns:xlink="http://www.w3.org/1999/xlink" fill="none" version="1.1" width="64" height="64" viewBox="0 0 64 64"><g style="mix-blend-mode:passthrough"><g style="mix-blend-mode:passthrough" transform="matrix(0.7071067690849304,0.7071067690849304,-0.7071067690849304,0.7071067690849304,10.666542876770265,-22.091516855289385)"><path d="M74.66769155273437,7.163017165298462C74.66769155273437,4.2174371652984615,72.27989155273437,1.829538554298462,69.33419155273438,1.829493362298462L37.33353155273438,1.829002425298462C34.38795155273438,1.8289572362984619,32.00012154373437,4.216787165298462,32.000158539534375,7.162367165298462L32.00056046073438,39.162997165298464C32.00059745773437,42.10879716529846,34.38849155273437,44.496497165298464,37.33407155273437,44.49659716529846L69.33469155273437,44.49699716529846C72.28049155273438,44.49709716529846,74.66819155273438,42.10939716529846,74.66809155273438,39.16369716529846L74.66769155273437,7.163017165298462ZM37.33394155273437,5.829427165298462L69.33459155273437,5.829917165298462L69.40129155273438,5.831547165298462C70.10659155273437,5.866237165298462,70.66799155273438,6.449217165298462,70.66799155273438,7.163297165298462L70.66839155273438,39.16399716529846L70.66669155273438,39.23059716529846C70.63209155273438,39.93599716529846,70.04909155273438,40.49729716529846,69.33499155273438,40.49729716529846L37.334371552734375,40.49679716529846L37.26783155273438,40.49509716529846C36.56235155273438,40.46049716529846,36.001011552734376,39.877497165298465,36.00100155273437,39.16339716529846L36.00059155273438,7.162767165298462L36.00223155273437,7.096217165298462C36.036891552734374,6.390747165298462,36.61986155273438,5.829417165298462,37.33394155273437,5.829427165298462Z" fill-rule="evenodd" fill="#00B9E3" fill-opacity="1"/></g><g style="mix-blend-mode:passthrough"><ellipse cx="32.00017261505127" cy="32.00228023529053" rx="9.00005054473877" ry="9.000327110290527" fill="#00B9E3" fill-opacity="1"/></g></g></svg>