<?xml version="1.0" encoding="utf-8"?>
<!-- Generator: Adobe Illustrator 25.0.1, SVG Export Plug-In . SVG Version: 6.00 Build 0)  -->
<svg version="1.1" id="图层_1" xmlns="http://www.w3.org/2000/svg" xmlns:xlink="http://www.w3.org/1999/xlink" x="0px" y="0px"
	 viewBox="0 0 1504.7 292.5" style="enable-background:new 0 0 1504.7 292.5;" xml:space="preserve">
<style type="text/css">
	.st0{fill:#FFFFFF;}
	.st1{opacity:0.5;}
	.st2{fill-rule:evenodd;clip-rule:evenodd;fill:#C3D0D6;}
	.st3{opacity:0.5;fill-rule:evenodd;clip-rule:evenodd;fill:url(#SVGID_1_);enable-background:new    ;}
	.st4{opacity:0.48;fill-rule:evenodd;clip-rule:evenodd;fill:#FFFFFF;enable-background:new    ;}
	.st5{opacity:0.5;fill-rule:evenodd;clip-rule:evenodd;fill:url(#SVGID_2_);enable-background:new    ;}
	.st6{opacity:0.5;fill-rule:evenodd;clip-rule:evenodd;fill:url(#SVGID_3_);enable-background:new    ;}
	.st7{opacity:0.5;fill-rule:evenodd;clip-rule:evenodd;fill:url(#SVGID_4_);enable-background:new    ;}
	.st8{opacity:0.5;fill-rule:evenodd;clip-rule:evenodd;fill:url(#SVGID_5_);enable-background:new    ;}
	.st9{opacity:0.5;fill-rule:evenodd;clip-rule:evenodd;fill:url(#SVGID_6_);enable-background:new    ;}
	.st10{opacity:0.5;fill-rule:evenodd;clip-rule:evenodd;fill:url(#SVGID_7_);enable-background:new    ;}
	.st11{opacity:0.5;fill-rule:evenodd;clip-rule:evenodd;fill:url(#SVGID_8_);enable-background:new    ;}
	.st12{opacity:0.5;fill-rule:evenodd;clip-rule:evenodd;fill:url(#SVGID_9_);enable-background:new    ;}
	.st13{opacity:0.5;fill-rule:evenodd;clip-rule:evenodd;fill:url(#SVGID_10_);enable-background:new    ;}
	.st14{opacity:0.5;fill-rule:evenodd;clip-rule:evenodd;fill:url(#SVGID_11_);enable-background:new    ;}
	.st15{opacity:0.5;fill-rule:evenodd;clip-rule:evenodd;fill:url(#SVGID_12_);enable-background:new    ;}
	.st16{opacity:0.5;fill-rule:evenodd;clip-rule:evenodd;fill:url(#SVGID_13_);enable-background:new    ;}
	.st17{fill:url(#SVGID_14_);}
	.st18{fill:url(#SVGID_15_);}
	.st19{opacity:0.88;fill:#0F2F47;enable-background:new    ;}
	.st20{font-family:'Poppins-SemiBold';}
	.st21{font-size:31.8783px;}
	.st22{fill:#0F2F47;}
	.st23{font-family:'Poppins-Light';}
	.st24{font-size:16.6832px;}
	.st25{font-family:'AdobeSongStd-Light-GBpc-EUC-H';}
	.st26{fill-rule:evenodd;clip-rule:evenodd;fill:#FFFFFF;fill-opacity:0.78;}
	.st27{fill-rule:evenodd;clip-rule:evenodd;fill:#23AED4;}
	.st28{opacity:0.6;}
	.st29{opacity:0.78;}
	.st30{fill-rule:evenodd;clip-rule:evenodd;fill:#FFFFFF;}
	.st31{opacity:0.6392;fill-rule:evenodd;clip-rule:evenodd;fill:#23AED4;enable-background:new    ;}
	.st32{opacity:0.7;}
	.st33{opacity:0.6392;fill-rule:evenodd;clip-rule:evenodd;fill:#FFFFFF;enable-background:new    ;}
	.st34{opacity:0.78;fill-rule:evenodd;clip-rule:evenodd;fill:#FFFFFF;enable-background:new    ;}
	.st35{clip-path:url(#SVGID_17_);}
	.st36{opacity:0.5;fill-rule:evenodd;clip-rule:evenodd;fill:url(#SVGID_18_);enable-background:new    ;}
	.st37{opacity:0.5;fill-rule:evenodd;clip-rule:evenodd;fill:url(#SVGID_19_);enable-background:new    ;}
	.st38{opacity:0.5;fill-rule:evenodd;clip-rule:evenodd;fill:url(#SVGID_20_);enable-background:new    ;}
	.st39{opacity:0.5;fill-rule:evenodd;clip-rule:evenodd;fill:#FFFFFF;enable-background:new    ;}
	.st40{fill:#98A7B3;}
	.st41{opacity:0.5;fill-rule:evenodd;clip-rule:evenodd;fill:url(#SVGID_21_);enable-background:new    ;}
	.st42{opacity:0.5;fill-rule:evenodd;clip-rule:evenodd;fill:url(#SVGID_22_);enable-background:new    ;}
	.st43{opacity:0.5;fill-rule:evenodd;clip-rule:evenodd;fill:url(#SVGID_23_);enable-background:new    ;}
	.st44{opacity:0.5;fill-rule:evenodd;clip-rule:evenodd;fill:url(#SVGID_24_);enable-background:new    ;}
	.st45{opacity:0.4;fill-rule:evenodd;clip-rule:evenodd;fill:url(#SVGID_25_);enable-background:new    ;}
	.st46{fill:url(#SVGID_26_);}
	.st47{fill:url(#SVGID_27_);}
	.st48{fill:url(#SVGID_28_);}
	.st49{fill:url(#SVGID_29_);}
	.st50{fill:url(#SVGID_30_);}
	.st51{fill:#86A8BB;}
	.st52{fill:url(#SVGID_31_);}
	.st53{fill:url(#SVGID_32_);}
	.st54{fill:url(#SVGID_33_);}
	.st55{fill:url(#SVGID_34_);}
	.st56{fill:url(#SVGID_35_);}
	.st57{fill:url(#SVGID_36_);}
	.st58{fill-rule:evenodd;clip-rule:evenodd;fill:url(#SVGID_37_);}
	.st59{fill:#7ACAE7;}
	.st60{fill:url(#SVGID_38_);}
	.st61{fill-rule:evenodd;clip-rule:evenodd;fill:#32B3E8;}
	.st62{fill:#51B6E9;}
	.st63{fill:#6CBFE6;}
	.st64{fill:#98D6EF;}
	.st65{fill:url(#SVGID_39_);}
	.st66{fill:url(#SVGID_40_);}
	.st67{fill:url(#SVGID_41_);}
	.st68{fill:url(#SVGID_42_);fill-opacity:0.5;}
	.st69{fill:url(#SVGID_43_);}
	.st70{fill:url(#SVGID_44_);}
	.st71{fill:url(#SVGID_45_);}
	.st72{fill:url(#SVGID_46_);}
	.st73{fill-rule:evenodd;clip-rule:evenodd;fill:url(#SVGID_47_);}
	.st74{fill:#E6F2F7;}
	.st75{fill:#2B4758;}
	.st76{fill:url(#SVGID_48_);}
	.st77{fill:url(#SVGID_49_);}
	.st78{fill:url(#SVGID_50_);}
	.st79{fill:url(#SVGID_51_);}
	.st80{fill:url(#SVGID_52_);}
	.st81{fill:url(#SVGID_53_);}
	.st82{fill:url(#SVGID_54_);}
	.st83{fill:url(#SVGID_55_);}
	.st84{fill:url(#SVGID_56_);}
	.st85{fill:#C5E1E9;}
	.st86{fill:url(#SVGID_57_);}
	.st87{fill:#C7E2EB;}
	.st88{fill:url(#SVGID_58_);}
	.st89{fill:url(#SVGID_59_);}
	.st90{fill:url(#SVGID_60_);}
	.st91{fill:url(#SVGID_61_);}
	.st92{fill:url(#SVGID_62_);}
	.st93{fill:url(#SVGID_63_);}
	.st94{fill:#E49F8A;}
	.st95{fill:url(#SVGID_64_);}
	.st96{fill:#FEFFFF;}
	.st97{fill:#4F7E99;}
	.st98{fill:#4E8DAC;}
	.st99{fill:url(#SVGID_65_);}
	.st100{fill:url(#SVGID_66_);}
</style>
<rect x="-0.4" class="st0" width="1505.2" height="292.5"/>
<g class="st1">
	<g class="st1">
		<path class="st2" d="M1128.5,140.5c-1.4-0.8-2.3-2.4-2.3-4.2v-22.2c0-1.8,0.9-3.3,2.3-4.2v-0.7h-84.7c-2.7,0-4.8,2.1-4.8,4.8v22.2
			c0,2.7,2.1,4.8,4.8,4.8h84.7V140.5z"/>
		
			<linearGradient id="SVGID_1_" gradientUnits="userSpaceOnUse" x1="1080.2096" y1="188.821" x2="1080.2096" y2="152.3951" gradientTransform="matrix(1 0 0 -1 0 292)">
			<stop  offset="0" style="stop-color:#FFFFFF"/>
			<stop  offset="1" style="stop-color:#98B7C5"/>
		</linearGradient>
		<path class="st3" d="M1121.1,109.9h7.5v-0.8h-4.8h-6.2h-80.9c-2.7,0-4.8,2.1-4.8,4.8v22.2c0,2.7,2.1,4.8,4.8,4.8h80.9h6.2h4.8
			v-0.6h-7.5c-1.3-0.8-2.2-2.3-2.2-4.1V114C1118.9,112.3,1119.7,110.8,1121.1,109.9z"/>
		<path class="st4" d="M1127.2,111.2h-7.4c-0.6,0.8-0.9,1.8-0.9,2.9v22.2c0,0.9,0.3,1.9,0.7,2.6h7.4c-0.4-0.6-0.6-1.5-0.6-2.2v-22.9
			C1126.5,112.8,1126.7,111.9,1127.2,111.2z"/>
	</g>
	<g class="st1">
		<path class="st2" d="M1146,108.2c-1.4-0.8-2.3-2.4-2.3-4.2V81.8c0-1.8,0.9-3.3,2.3-4.2v-0.7h-84.7c-2.7,0-4.8,2.1-4.8,4.8V104
			c0,2.7,2.1,4.8,4.8,4.8h84.7V108.2z"/>
		
			<linearGradient id="SVGID_2_" gradientUnits="userSpaceOnUse" x1="1097.6364" y1="221.0792" x2="1097.6364" y2="184.6534" gradientTransform="matrix(1 0 0 -1 0 292)">
			<stop  offset="0" style="stop-color:#FFFFFF"/>
			<stop  offset="1" style="stop-color:#98B7C5"/>
		</linearGradient>
		<path class="st5" d="M1138.5,77.6h7.5v-0.8h-4.8h-6.2h-80.9c-2.7,0-4.8,2.1-4.8,4.8v22.2c0,2.7,2.1,4.8,4.8,4.8h80.9h6.2h4.8v-0.8
			h-7.5c-1.3-0.8-2.2-2.3-2.2-4.1V81.5C1136.4,80.1,1137.2,78.6,1138.5,77.6z"/>
		<path class="st4" d="M1144.6,78.9h-7.4c-0.6,0.8-0.9,1.8-0.9,2.9v22.2c0,0.9,0.3,1.9,0.7,2.6h7.4c-0.4-0.6-0.6-1.5-0.6-2.2V81.5
			C1144,80.5,1144.2,79.7,1144.6,78.9z"/>
	</g>
	<g class="st1">
		<path class="st2" d="M1131.7,204.4c-1.4-0.8-2.3-2.4-2.3-4.2v-22.2c0-1.8,0.9-3.3,2.3-4.2V173h-84.7c-2.7,0-4.8,2.1-4.8,4.8v22.2
			c0,2.7,2.1,4.8,4.8,4.8h84.7V204.4z"/>
		
			<linearGradient id="SVGID_3_" gradientUnits="userSpaceOnUse" x1="1083.2686" y1="124.9448" x2="1083.2686" y2="88.5191" gradientTransform="matrix(1 0 0 -1 0 292)">
			<stop  offset="0" style="stop-color:#FFFFFF"/>
			<stop  offset="1" style="stop-color:#98B7C5"/>
		</linearGradient>
		<path class="st6" d="M1124.1,173.9h7.5V173h-4.8h-6.2h-80.9c-2.7,0-4.8,2.1-4.8,4.8v22.2c0,2.7,2.1,4.8,4.8,4.8h80.9h6.2h4.8v-0.8
			h-7.5c-1.3-0.8-2.2-2.3-2.2-4.1v-22.2C1121.9,176.2,1122.8,174.7,1124.1,173.9z"/>
		<path class="st4" d="M1130.3,175.1h-7.4c-0.6,0.8-0.9,1.8-0.9,2.9v22.2c0,0.9,0.3,1.9,0.7,2.6h7.4c-0.4-0.6-0.6-1.5-0.6-2.2v-22.9
			C1129.5,176.6,1129.8,175.8,1130.3,175.1z"/>
	</g>
	<g class="st1">
		<path class="st2" d="M1118,172.2c-1.4-0.8-2.3-2.4-2.3-4.2v-22.2c0-1.8,0.9-3.3,2.3-4.2v-0.7h-84.7c-2.7,0-4.8,2.1-4.8,4.8v22.2
			c0,2.7,2.1,4.8,4.8,4.8h84.7V172.2z"/>
		
			<linearGradient id="SVGID_4_" gradientUnits="userSpaceOnUse" x1="1069.6423" y1="157.0528" x2="1069.6423" y2="120.627" gradientTransform="matrix(1 0 0 -1 0 292)">
			<stop  offset="0" style="stop-color:#FFFFFF"/>
			<stop  offset="1" style="stop-color:#98B7C5"/>
		</linearGradient>
		<path class="st7" d="M1110.5,141.7h7.5v-0.8h-4.8h-6.2h-80.9c-2.7,0-4.8,2.1-4.8,4.8v22.2c0,2.7,2.1,4.8,4.8,4.8h80.9h6.2h4.8
			v-0.8h-7.5c-1.3-0.8-2.2-2.3-2.2-4.1v-22.2C1108.3,144.1,1109.2,142.6,1110.5,141.7z"/>
		<path class="st4" d="M1116.6,142.9h-7.4c-0.6,0.8-0.9,1.8-0.9,2.9V168c0,0.9,0.3,1.9,0.7,2.6h7.4c-0.4-0.6-0.6-1.5-0.6-2.2v-22.9
			C1116,144.6,1116.2,143.7,1116.6,142.9z"/>
	</g>
</g>
<g class="st1">
	<g class="st1">
		<path class="st2" d="M483.6,266.4c-1.1-0.7-1.9-1.9-1.9-3.3v-17.9c0-1.4,0.8-2.7,1.9-3.3v-0.6H362.9c-2.2,0-3.9,1.8-3.9,3.9V263
			c0,2.2,1.8,3.9,3.9,3.9h120.7L483.6,266.4L483.6,266.4z"/>
		
			<linearGradient id="SVGID_5_" gradientUnits="userSpaceOnUse" x1="421.3" y1="55.6323" x2="421.3" y2="26.3317" gradientTransform="matrix(1 0 0 -1 0 292)">
			<stop  offset="0" style="stop-color:#FFFFFF"/>
			<stop  offset="1" style="stop-color:#98B7C5"/>
		</linearGradient>
		<path class="st8" d="M477.6,241.8h6v-0.6h-3.9h-5H362.9c-2.2,0-3.9,1.8-3.9,3.9V263c0,2.2,1.8,3.9,3.9,3.9h111.8h5h3.9v-0.6h-6
			c-1.1-0.7-1.8-1.9-1.8-3.3v-17.9C475.8,243.7,476.5,242.5,477.6,241.8z"/>
		<path class="st4" d="M482.5,242.8h-6c-0.5,0.6-0.7,1.4-0.7,2.3V263c0,0.8,0.2,1.5,0.6,2.1h5.9c-0.3-0.5-0.4-1.2-0.4-1.8v-18.4
			C481.9,244.1,482.2,243.4,482.5,242.8z"/>
	</g>
	<g class="st1">
		<path class="st2" d="M508.3,292.1c-1.1-0.7-1.9-1.9-1.9-3.3v-17.9c0-1.4,0.8-2.7,1.9-3.3V267H387.6c-2.2,0-3.9,1.8-3.9,3.9v17.9
			c0,2.2,1.8,3.9,3.9,3.9h120.7V292.1z"/>
		
			<linearGradient id="SVGID_6_" gradientUnits="userSpaceOnUse" x1="446" y1="29.8731" x2="446" y2="0.5725" gradientTransform="matrix(1 0 0 -1 0 292)">
			<stop  offset="0" style="stop-color:#FFFFFF"/>
			<stop  offset="1" style="stop-color:#98B7C5"/>
		</linearGradient>
		<path class="st9" d="M502.3,267.6h6V267h-3.9h-5H387.6c-2.2,0-3.9,1.8-3.9,3.9v17.9c0,2.2,1.8,3.9,3.9,3.9h111.8h5h3.9V292h-6
			c-1.1-0.7-1.8-1.9-1.8-3.3v-17.9C500.5,269.5,501.2,268.3,502.3,267.6z"/>
		<path class="st4" d="M507.2,268.6h-6c-0.5,0.6-0.7,1.4-0.7,2.3v17.9c0,0.8,0.2,1.5,0.6,2.1h5.9c-0.3-0.5-0.4-1.2-0.4-1.8v-18.4
			C506.6,269.9,506.8,269.2,507.2,268.6z"/>
	</g>
	<g class="st1">
		<path class="st2" d="M512.2,214.8c-1.1-0.7-1.9-1.9-1.9-3.3v-17.9c0-1.4,0.8-2.7,1.9-3.3v-0.6H391.5c-2.2,0-3.9,1.8-3.9,3.9v17.9
			c0,2.2,1.8,3.9,3.9,3.9h120.7V214.8z"/>
		
			<linearGradient id="SVGID_7_" gradientUnits="userSpaceOnUse" x1="449.9" y1="107.1507" x2="449.9" y2="77.8501" gradientTransform="matrix(1 0 0 -1 0 292)">
			<stop  offset="0" style="stop-color:#FFFFFF"/>
			<stop  offset="1" style="stop-color:#98B7C5"/>
		</linearGradient>
		<path class="st10" d="M506.2,190.3h6v-0.6h-3.9h-5H391.5c-2.2,0-3.9,1.8-3.9,3.9v17.9c0,2.2,1.8,3.9,3.9,3.9h111.8h5h3.9v-0.6h-6
			c-1.1-0.7-1.8-1.9-1.8-3.3v-17.9C504.4,192.2,505.1,191,506.2,190.3z"/>
		<path class="st4" d="M511.1,191.3h-6c-0.5,0.6-0.7,1.4-0.7,2.3v17.9c0,0.8,0.2,1.5,0.6,2.1h5.9c-0.3-0.5-0.4-1.2-0.4-1.8v-18.4
			C510.5,192.6,510.7,191.9,511.1,191.3z"/>
	</g>
	<g class="st1">
		<path class="st2" d="M536.9,240.6c-1.1-0.7-1.9-1.9-1.9-3.3v-17.9c0-1.4,0.8-2.7,1.9-3.3v-0.6H416.2c-2.2,0-3.9,1.8-3.9,3.9v17.9
			c0,2.2,1.8,3.9,3.9,3.9h120.7V240.6z"/>
		
			<linearGradient id="SVGID_8_" gradientUnits="userSpaceOnUse" x1="474.6" y1="81.3915" x2="474.6" y2="52.0909" gradientTransform="matrix(1 0 0 -1 0 292)">
			<stop  offset="0" style="stop-color:#FFFFFF"/>
			<stop  offset="1" style="stop-color:#98B7C5"/>
		</linearGradient>
		<path class="st11" d="M530.8,216.1h6v-0.6H533h-5H416.2c-2.2,0-3.9,1.8-3.9,3.9v17.9c0,2.2,1.8,3.9,3.9,3.9H528h5h3.9v-0.6h-6
			c-1.1-0.7-1.8-1.9-1.8-3.3v-17.9C529.1,218,529.8,216.8,530.8,216.1z"/>
		<path class="st4" d="M535.8,217h-6c-0.5,0.6-0.7,1.4-0.7,2.3v17.9c0,0.8,0.2,1.5,0.6,2.1h5.9c-0.3-0.5-0.4-1.2-0.4-1.8v-18.4
			C535.2,218.4,535.4,217.6,535.8,217z"/>
	</g>
	<g class="st1">
		<path class="st2" d="M513.7,163.6c-1.1-0.7-1.9-1.9-1.9-3.3v-17.9c0-1.4,0.8-2.7,1.9-3.3v-0.6H393c-2.2,0-3.9,1.8-3.9,3.9v17.9
			c0,2.2,1.8,3.9,3.9,3.9h120.7V163.6z"/>
		
			<linearGradient id="SVGID_9_" gradientUnits="userSpaceOnUse" x1="451.4" y1="158.3912" x2="451.4" y2="129.0906" gradientTransform="matrix(1 0 0 -1 0 292)">
			<stop  offset="0" style="stop-color:#FFFFFF"/>
			<stop  offset="1" style="stop-color:#98B7C5"/>
		</linearGradient>
		<path class="st12" d="M507.7,139.1h6v-0.6h-3.9h-5H393c-2.2,0-3.9,1.8-3.9,3.9v17.9c0,2.2,1.8,3.9,3.9,3.9h111.8h5h3.9v-0.6h-6
			c-1.1-0.7-1.8-1.9-1.8-3.3v-17.9C505.9,141,506.6,139.8,507.7,139.1z"/>
		<path class="st4" d="M512.6,140h-6c-0.5,0.6-0.7,1.4-0.7,2.3v17.9c0,0.8,0.2,1.5,0.6,2.1h5.9c-0.3-0.5-0.4-1.2-0.4-1.8v-18.4
			C512,141.4,512.2,140.6,512.6,140z"/>
	</g>
	<g class="st1">
		<path class="st2" d="M538.4,189.4c-1.1-0.7-1.9-1.9-1.9-3.3v-17.9c0-1.4,0.8-2.7,1.9-3.3v-0.6H417.7c-2.2,0-3.9,1.8-3.9,3.9V186
			c0,2.2,1.8,3.9,3.9,3.9h120.7V189.4z"/>
		
			<linearGradient id="SVGID_10_" gradientUnits="userSpaceOnUse" x1="476.1" y1="132.632" x2="476.1" y2="103.3314" gradientTransform="matrix(1 0 0 -1 0 292)">
			<stop  offset="0" style="stop-color:#FFFFFF"/>
			<stop  offset="1" style="stop-color:#98B7C5"/>
		</linearGradient>
		<path class="st13" d="M532.3,164.8h6v-0.6h-3.9h-5H417.7c-2.2,0-3.9,1.8-3.9,3.9V186c0,2.2,1.8,3.9,3.9,3.9h111.8h5h3.9v-0.6h-6
			c-1.1-0.7-1.8-1.9-1.8-3.3v-17.9C530.6,166.7,531.3,165.5,532.3,164.8z"/>
		<path class="st4" d="M537.3,165.8h-6c-0.5,0.6-0.7,1.4-0.7,2.3V186c0,0.8,0.2,1.5,0.6,2.1h5.9c-0.3-0.5-0.4-1.2-0.4-1.8v-18.4
			C536.7,167.1,536.9,166.4,537.3,165.8z"/>
	</g>
</g>
<g class="st1">
	<path class="st2" d="M1149.2,236.3c-1.4-0.8-2.3-2.4-2.3-4.2v-22.2c0-1.8,0.9-3.3,2.3-4.2V205H910.8c-2.7,0-4.8,2.1-4.8,4.8v22.2
		c0,2.7,2.1,4.8,4.8,4.8h238.4V236.3z"/>
	
		<linearGradient id="SVGID_11_" gradientUnits="userSpaceOnUse" x1="1027.6052" y1="92.9225" x2="1027.6052" y2="56.4967" gradientTransform="matrix(1 0 0 -1 0 292)">
		<stop  offset="0" style="stop-color:#FFFFFF"/>
		<stop  offset="1" style="stop-color:#98B7C5"/>
	</linearGradient>
	<path class="st14" d="M1141.8,205.8h7.5V205h-4.8h-6.2H910.8c-2.7,0-4.8,2.1-4.8,4.8v22.2c0,2.7,2.1,4.8,4.8,4.8h227.4h6.2h4.8
		v-0.8h-7.5c-1.3-0.8-2.2-2.3-2.2-4.1v-22.2C1139.5,208.3,1140.4,206.7,1141.8,205.8z"/>
	<path class="st4" d="M1147.9,207.1h-7.4c-0.6,0.8-0.9,1.8-0.9,2.9v22.2c0,0.9,0.3,1.9,0.7,2.6h7.4c-0.4-0.6-0.6-1.5-0.6-2.2v-22.9
		C1147.1,208.7,1147.4,207.8,1147.9,207.1z"/>
</g>
<g class="st1">
	<path class="st2" d="M1126.7,268.4c-1.4-0.8-2.3-2.4-2.3-4.2V242c0-1.8,0.9-3.3,2.3-4.2v-0.7H888.3c-2.7,0-4.8,2.1-4.8,4.8v22.2
		c0,2.7,2.1,4.8,4.8,4.8h238.4V268.4z"/>
	
		<linearGradient id="SVGID_12_" gradientUnits="userSpaceOnUse" x1="1005.1266" y1="60.9002" x2="1005.1266" y2="24.4744" gradientTransform="matrix(1 0 0 -1 0 292)">
		<stop  offset="0" style="stop-color:#FFFFFF"/>
		<stop  offset="1" style="stop-color:#98B7C5"/>
	</linearGradient>
	<path class="st15" d="M1119.2,237.9h7.5v-0.8h-4.8h-6.2H888.3c-2.7,0-4.8,2.1-4.8,4.8v22.2c0,2.7,2.1,4.8,4.8,4.8h227.4h6.2h4.8
		v-0.7h-7.5c-1.3-0.8-2.2-2.3-2.2-4.1v-22.2C1117.1,240.2,1117.9,238.8,1119.2,237.9z"/>
	<path class="st4" d="M1125.4,239.1h-7.4c-0.6,0.8-0.9,1.8-0.9,2.9v22.2c0,0.9,0.3,1.9,0.7,2.6h7.4c-0.4-0.6-0.6-1.5-0.6-2.2v-22.9
		C1124.7,240.7,1125,239.9,1125.4,239.1z"/>
</g>
<g class="st1">
	<path class="st2" d="M1165.2,300.4c-1.4-0.8-2.3-2.4-2.3-4.2V274c0-1.8,0.9-3.3,2.3-4.2v-0.6H926.7c-2.7,0-4.8,2.1-4.8,4.8v22.2
		c0,2.7,2.1,4.8,4.8,4.8h238.4L1165.2,300.4L1165.2,300.4z"/>
	
		<linearGradient id="SVGID_13_" gradientUnits="userSpaceOnUse" x1="1043.5487" y1="28.8778" x2="1043.5487" y2="-7.548" gradientTransform="matrix(1 0 0 -1 0 292)">
		<stop  offset="0" style="stop-color:#FFFFFF"/>
		<stop  offset="1" style="stop-color:#98B7C5"/>
	</linearGradient>
	<path class="st16" d="M1157.7,269.9h7.5v-0.8h-4.8h-6.2H926.7c-2.7,0-4.8,2.1-4.8,4.8v22.2c0,2.7,2.1,4.8,4.8,4.8h227.4h6.2h4.8
		v-0.8h-7.5c-1.3-0.8-2.2-2.3-2.2-4.1v-22.2C1155.5,272.2,1156.4,270.7,1157.7,269.9z"/>
	<path class="st4" d="M1163.8,271.1h-7.4c-0.6,0.8-0.9,1.8-0.9,2.9v22.2c0,0.9,0.3,1.9,0.7,2.6h7.4c-0.4-0.6-0.6-1.5-0.6-2.2v-22.9
		C1163.1,272.8,1163.4,271.8,1163.8,271.1z"/>
</g>
<linearGradient id="SVGID_14_" gradientUnits="userSpaceOnUse" x1="1687.0144" y1="138.1619" x2="1687.0144" y2="122.9332" gradientTransform="matrix(-1 0 0 1 2744.6064 -58.7351)">
	<stop  offset="0" style="stop-color:#FFFFFF"/>
	<stop  offset="1" style="stop-color:#98B7C5"/>
</linearGradient>
<path class="st17" d="M1016.5,76.4c0,0-6.3-12.9-13.9-12.9h95.4c7.6,0,13.9,5.5,14.5,12.3h0.1c0,0.2,0,0.4,0,0.6c0,0.2,0,0.4,0,0.6
	L1016.5,76.4z"/>
<linearGradient id="SVGID_15_" gradientUnits="userSpaceOnUse" x1="1011.4299" y1="254.8513" x2="1011.4299" y2="93.6788" gradientTransform="matrix(1 0 0 -1 0 292)">
	<stop  offset="0" style="stop-color:#FFFFFF"/>
	<stop  offset="1" style="stop-color:#5FABC9"/>
</linearGradient>
<path class="st18" d="M1087,187.4c0,9.7-8,17.7-17.7,17.7h-144c5.2,0,9.4-4.3,9.4-9.4V86.9c0-12.9,10.5-23.4,23.4-23.4h139.5
	c-5.6,0-10.1,4.5-10.1,10.1L1087,187.4z"/>
<text transform="matrix(1 0 0 1 374.4765 123.2331)" class="st19 st20 st21">Welcome to zenlayer Docs</text>
<text transform="matrix(1 0 0 1 337.3712 153.5876)" class="st22 st23 st24">Find user guides</text>
<text transform="matrix(1 0 0 1 471.6712 152.9233)" class="st22 st25 st24">，</text>
<text transform="matrix(1 0 0 1 488.3712 153.5876)" class="st22 st23 st24">API references, tutorials, and more.</text>
<g>
	<g>
		
			<g transform="matrix(0.7071067690849304,0.7071067690849304,-0.7071067690849304,0.7071067690849304,10.665370212220296,-22.09223012318398)">
			<path class="st26" d="M757-604c0.1-1.3-0.8-2.4-2-2.5l-13.7-1.2c-1.3-0.1-2.4,0.8-2.5,2l-1.2,13.7c-0.1,1.3,0.8,2.4,2,2.5
				l13.7,1.2c1.3,0.1,2.4-0.8,2.5-2L757-604z M741.6-605.4l12.6,1.1l0,0c0.3,0,0.5,0.3,0.5,0.6l-1.1,12.6l0,0c0,0.3-0.3,0.5-0.6,0.5
				l-12.6-1.1l0,0c-0.3,0-0.5-0.3-0.5-0.6L741-605l0,0C741.1-605.2,741.3-605.4,741.6-605.4z"/>
		</g>
		<circle class="st27" cx="961.9" cy="83.7" r="3.2"/>
	</g>
</g>
<g>
	<g>
		
			<g transform="matrix(0.7071067690849304,0.7071067690849304,-0.7071067690849304,0.7071067690849304,10.665370212220296,-22.09223012318398)">
			<path class="st26" d="M775.9-581c0-1.3-1-2.3-2.3-2.3h-13.7c-1.3,0-2.3,1-2.3,2.3v13.7c0,1.3,1,2.3,2.3,2.3h13.7
				c1.3,0,2.3-1,2.3-2.3V-581z M760.5-581h12.7l0,0c0.3,0,0.5,0.3,0.5,0.6v12.7l0,0c0,0.3-0.3,0.5-0.6,0.5h-12.7l0,0
				c-0.3,0-0.5-0.3-0.5-0.6v-12.7l0,0C759.9-580.7,760.2-581,760.5-581z"/>
		</g>
		<g>
			<g>
				<path class="st27" d="M958.9,109.9c0.3,0,0.6,0.1,0.8,0.2h0.1l0,0c0.1,0,0.1,0.1,0.2,0.1c0.1,0,0.1,0.1,0.2,0.1l0.1,0.1l0,0
					c0.4,0.3,0.6,0.7,0.7,1.2v0.1c0,0.1,0,0.3,0,0.4v0.1v0.6l0.6,0.1c1.1,0.2,1.9,1.1,1.9,2.2c0,0.6-0.2,1-0.6,1.5l-0.1,0.1
					c0,0,0,0-0.1,0.1l-0.1,0.1c-0.1,0.1-0.2,0.2-0.3,0.3c-0.4,0.3-0.8,0.5-1.3,0.5h-5c-0.9,0-1.8-0.6-2.1-1.4c0-0.1-0.1-0.1-0.1-0.2
					c0-0.1,0-0.2-0.1-0.2c0-0.1,0-0.2,0-0.2c0-0.1,0-0.2,0-0.3s0-0.3,0-0.4c0-0.1,0-0.2,0-0.2c0-0.1,0-0.2,0.1-0.2
					c0.1-0.2,0.2-0.4,0.3-0.6c0-0.1,0.1-0.1,0.2-0.2l0.1-0.1c0.1-0.1,0.1-0.1,0.2-0.2c0.1,0,0.1-0.1,0.2-0.1
					c0.1-0.1,0.3-0.2,0.5-0.2c0,0,0.1,0,0.1-0.1c0.1,0,0.3-0.1,0.4-0.1l0.6-0.1v-0.6c0-0.8,0.5-1.6,1.1-1.9
					C957.9,110,958.3,109.9,958.9,109.9L958.9,109.9L958.9,109.9z"/>
			</g>
		</g>
	</g>
</g>
<g class="st28">
	<g>
		<g>
			<g>
				<g>
					<g class="st29">
						<path class="st30" d="M946.7,182.7c0-6.8,5.6-12.3,12.3-12.3s12.3,5.6,12.3,12.3s-5.6,12.3-12.3,12.3
							C952.2,195,946.7,189.4,946.7,182.7z M949.1,182.7c0,5.5,4.4,9.9,9.9,9.9c5.5,0,9.9-4.4,9.9-9.9c0-5.5-4.4-9.9-9.9-9.9
							C953.6,172.8,949.1,177.2,949.1,182.7z"/>
					</g>
				</g>
			</g>
			<g transform="matrix(0,1,-1,0,66.77197265625,-27.56689453125)">
				<g>
					<path class="st31" d="M211-899l4.4,3.8c0.6,0.5,0.6,1.2,0.1,1.8c0,0.1-0.1,0.1-0.1,0.1L215-893l-4-3.4c-0.5-0.4-1.1-0.4-1.6,0
						l0,0l-4,3.4l-0.5-0.4c-0.6-0.5-0.6-1.2-0.1-1.8c0-0.1,0.1-0.1,0.1-0.1l4.4-3.8C209.8-899.4,210.5-899.4,211-899L211-899z"/>
				</g>
			</g>
			<g transform="matrix(0,1,-1,0,57.89949035644531,-18.694412231445312)">
				<path class="st27" d="M202.1-903.8l4.4,3.8c0.6,0.5,0.6,1.2,0.1,1.8c0,0.1-0.1,0.1-0.1,0.1l-4.4,3.8c-0.5,0.4-1.1,0.4-1.6,0
					l-4.4-3.8c-0.6-0.5-0.6-1.2-0.1-1.8c0-0.1,0.1-0.1,0.1-0.1l4.4-3.8C200.9-904.1,201.6-904.1,202.1-903.8L202.1-903.8z"/>
			</g>
		</g>
	</g>
</g>
<g class="st32">
	<g>
		<g>
			<g>
				<g>
					<path class="st33" d="M965.5,151.5l2.5,1.1c1,0.5,1.5,1.6,1,2.6c-0.2,0.5-0.6,0.8-1,1H968l-8.8,3.7c-0.5,0.2-1,0.2-1.5,0h-0.1
						l-8.8-3.7c-1-0.5-1.5-1.6-1-2.6c0.2-0.5,0.6-0.8,1-1h0.1l2.5-1.1l2.1,0.9c0,0,0,0-0.1,0l-4,1.7c-0.1,0-0.1,0.1-0.2,0.2
						c-0.1,0.1,0,0.3,0.1,0.4l0,0l8.8,3.7c0.1,0,0.1,0,0.2,0l0,0l8.8-3.7c0.1,0,0.1-0.1,0.2-0.2c0.1-0.1,0-0.3-0.1-0.4l0,0l-3.9-1.7
						c0,0-0.1,0-0.1-0.1L965.5,151.5z"/>
				</g>
			</g>
		</g>
		<g>
			<g>
				<g>
					<path class="st34" d="M952.8,145.8l-4.4,1.9c-0.1,0-0.1,0.1-0.2,0.2c-0.1,0.2,0,0.4,0.2,0.4l0,0l10,4.3c0.1,0,0.2,0,0.2,0l0,0
						l10-4.3c0.1,0,0.1-0.1,0.2-0.2c0.1-0.2,0-0.4-0.2-0.4l0,0l-4.4-1.9c-0.4-0.2-0.6-0.6-0.4-1c0-0.1,0.1-0.1,0.1-0.2
						c0.4-0.5,1-0.6,1.6-0.4l3.8,1.7c1.1,0.5,1.7,1.9,1.2,3c-0.2,0.6-0.6,0.9-1.1,1.2h-0.1l-10,4.3c-0.6,0.3-1.2,0.3-1.8,0h-0.1
						l-10-4.3c-1.1-0.5-1.7-1.9-1.2-3c0.2-0.6,0.6-0.9,1.1-1.2h0.1l3.9-1.7c0.6-0.3,1.2-0.1,1.6,0.4
						C953.2,144.9,953.1,145.4,952.8,145.8C952.9,145.7,952.8,145.8,952.8,145.8z"/>
				</g>
			</g>
		</g>
		<g>
			<g>
				<path class="st27" d="M958.6,148.1c1.3-2.6,4.3-4.6,4.3-7c0-2.3-1.9-4.3-4.3-4.3s-4.3,1.9-4.3,4.3S957.3,145.6,958.6,148.1z"/>
			</g>
		</g>
	</g>
</g>
<g>
	<g>
		<defs>
			<rect id="SVGID_16_" x="922.4" y="63.6" width="86.4" height="13.9"/>
		</defs>
		<clipPath id="SVGID_17_">
			<use xlink:href="#SVGID_16_"  style="overflow:visible;"/>
		</clipPath>
		<g class="st35">
			<g>
				
					<g transform="matrix(0.7071067690849304,0.7071067690849304,-0.7071067690849304,0.7071067690849304,10.665370212220296,-22.09223012318398)">
					<path class="st26" d="M745.1-626.1c0.5-1.1,0-2.4-1.1-3l-12.3-5.4c-1.1-0.5-2.4,0-3,1.1l-5.5,12.3c-0.5,1.1,0,2.4,1.1,3
						l12.3,5.5c1.1,0.5,2.4,0,3-1.1L745.1-626.1z M731.2-632.2l11.3,5l0,0c0.3,0.1,0.4,0.4,0.3,0.6l-5,11.3l0,0
						c-0.1,0.3-0.4,0.4-0.6,0.3l-11.3-5l0,0c-0.3-0.1-0.4-0.5-0.3-0.6l5-11.3l0,0C730.7-632.2,731-632.3,731.2-632.2z"/>
				</g>
				<circle class="st27" cx="970.6" cy="56.3" r="3.2"/>
			</g>
		</g>
	</g>
</g>
<g class="st1">
	<g class="st1">
		<path class="st2" d="M201.6,320.8c-1.9-1.1-3.2-3.2-3.2-5.6v-29.9c0-2.4,1.3-4.4,3.2-5.6v-1H0c-3.6,0-6.5,2.9-6.5,6.5v29.9
			c0,3.6,2.9,6.5,6.5,6.5h201.6V320.8z"/>
		
			<linearGradient id="SVGID_18_" gradientUnits="userSpaceOnUse" x1="97.6" y1="21.2778" x2="97.6" y2="-27.6665" gradientTransform="matrix(1 0 0 -1 0 292)">
			<stop  offset="0" style="stop-color:#FFFFFF"/>
			<stop  offset="1" style="stop-color:#98B7C5"/>
		</linearGradient>
		<path class="st36" d="M191.6,279.8h10.1v-1.1h-6.5h-8.4H0c-3.6,0-6.5,2.9-6.5,6.5v29.9c0,3.6,2.9,6.5,6.5,6.5h186.8h8.4h6.5v-1.1
			h-10.1c-1.8-1.2-2.9-3.2-2.9-5.5v-29.9C188.6,283,189.8,281,191.6,279.8z"/>
		<path class="st4" d="M199.8,281.5h-10c-0.8,1.1-1.2,2.4-1.2,3.8v29.9c0,1.3,0.4,2.5,1,3.5h9.9c-0.5-0.9-0.7-1.9-0.7-3V285
			C198.8,283.7,199.2,282.5,199.8,281.5z"/>
	</g>
	<g class="st1">
		<path class="st2" d="M229.1,278.3c-1.9-1.1-3.2-3.2-3.2-5.6v-29.9c0-2.4,1.3-4.4,3.2-5.6v-1H27.5c-3.6,0-6.5,2.9-6.5,6.5v29.9
			c0,3.6,2.9,6.5,6.5,6.5h201.6V278.3z"/>
		
			<linearGradient id="SVGID_19_" gradientUnits="userSpaceOnUse" x1="125.1" y1="63.8096" x2="125.1" y2="14.8654" gradientTransform="matrix(1 0 0 -1 0 292)">
			<stop  offset="0" style="stop-color:#FFFFFF"/>
			<stop  offset="1" style="stop-color:#98B7C5"/>
		</linearGradient>
		<path class="st37" d="M219,237.3h10.1v-1.1h-6.5h-8.4H27.5c-3.6,0-6.5,2.9-6.5,6.5v29.9c0,3.6,2.9,6.5,6.5,6.5h186.8h8.4h6.5V278
			H219c-1.8-1.2-2.9-3.2-2.9-5.5v-29.9C216.1,240.5,217.3,238.5,219,237.3z"/>
		<path class="st4" d="M227.3,238.9h-10c-0.8,1.1-1.2,2.4-1.2,3.8v29.9c0,1.3,0.4,2.5,1,3.5h9.9c-0.5-0.9-0.7-1.9-0.7-3v-30.7
			C226.3,241.1,226.7,240,227.3,238.9z"/>
	</g>
	
		<linearGradient id="SVGID_20_" gradientUnits="userSpaceOnUse" x1="-46.6749" y1="321.828" x2="172.1371" y2="37.838" gradientTransform="matrix(1 0 0 -1 0 292)">
		<stop  offset="0" style="stop-color:#FFFFFF"/>
		<stop  offset="1" style="stop-color:#98B7C5"/>
	</linearGradient>
	<path class="st38" d="M176.7,49.4H-22.8c-5.9,0-10.6,4.8-10.6,10.6v141.2c0,5.9,4.8,10.6,10.6,10.6h94.1v20H27.4
		c-2.4,0-4.3,4.3-4.3,4.3h107.7c0,0-2-4.3-4.3-4.3H82.6v-20h94.1c5.9,0,10.6-4.8,10.6-10.6V60C187.3,54.2,182.5,49.4,176.7,49.4z"/>
	<rect x="-19.5" y="61.9" class="st39" width="192.9" height="128.1"/>
	<g class="st1">
		<path class="st40" d="M90.8,98.9h-6.7l8.3-18.6H99l8.3,18.6h-6.7L95.7,88L90.8,98.9z"/>
		<path class="st40" d="M132.6,105.9v6.5h-22.1v-6.5H132.6z"/>
		<path class="st40" d="M142.2,98.9h-6.7l8.3-18.6h6.6l8.3,18.6H152L147.1,88L142.2,98.9z"/>
	</g>
</g>
<g class="st1">
	<g class="st1">
		<path class="st2" d="M1586,251.9c-1.9-1.1-3.2-3.2-3.2-5.6v-29.9c0-2.4,1.3-4.4,3.2-5.6v-1h-201.6c-3.6,0-6.5,2.9-6.5,6.5v29.9
			c0,3.6,2.9,6.5,6.5,6.5H1586V251.9z"/>
		
			<linearGradient id="SVGID_21_" gradientUnits="userSpaceOnUse" x1="1481.9" y1="90.2015" x2="1481.9" y2="41.2572" gradientTransform="matrix(1 0 0 -1 0 292)">
			<stop  offset="0" style="stop-color:#FFFFFF"/>
			<stop  offset="1" style="stop-color:#98B7C5"/>
		</linearGradient>
		<path class="st41" d="M1575.9,210.9h10.1v-1.1h-6.5h-8.4h-186.8c-3.6,0-6.5,2.9-6.5,6.5v29.9c0,3.6,2.9,6.5,6.5,6.5h186.8h8.4h6.5
			v-1.1h-10.1c-1.8-1.2-2.9-3.2-2.9-5.5v-29.9C1572.9,214.1,1574.1,212.1,1575.9,210.9z"/>
		<path class="st4" d="M1584.1,212.5h-10c-0.8,1.1-1.2,2.4-1.2,3.8v29.9c0,1.3,0.4,2.5,1,3.5h9.9c-0.5-0.9-0.7-1.9-0.7-3V216
			C1583.2,214.7,1583.5,213.6,1584.1,212.5z"/>
	</g>
	<g class="st1">
		<path class="st2" d="M1551.1,294.9c-1.9-1.1-3.2-3.2-3.2-5.6v-29.9c0-2.4,1.3-4.4,3.2-5.6v-1h-201.6c-3.6,0-6.5,2.9-6.5,6.5v29.9
			c0,3.6,2.9,6.5,6.5,6.5h201.6V294.9z"/>
		
			<linearGradient id="SVGID_22_" gradientUnits="userSpaceOnUse" x1="1447.1" y1="47.1729" x2="1447.1" y2="-1.7714" gradientTransform="matrix(1 0 0 -1 0 292)">
			<stop  offset="0" style="stop-color:#FFFFFF"/>
			<stop  offset="1" style="stop-color:#98B7C5"/>
		</linearGradient>
		<path class="st42" d="M1541.1,253.9h10.1v-1.1h-6.5h-8.4h-186.8c-3.6,0-6.5,2.9-6.5,6.5v29.9c0,3.6,2.9,6.5,6.5,6.5h186.8h8.4h6.5
			v-1.1h-10.1c-1.8-1.2-2.9-3.2-2.9-5.5v-29.9C1538.1,257.1,1539.3,255.1,1541.1,253.9z"/>
		<path class="st4" d="M1549.3,255.6h-10c-0.8,1.1-1.2,2.4-1.2,3.8v29.9c0,1.3,0.4,2.5,1,3.5h9.9c-0.5-0.9-0.7-1.9-0.7-3V259
			C1548.4,257.8,1548.7,256.6,1549.3,255.6z"/>
	</g>
	<g class="st1">
		<path class="st2" d="M1538.1,209.4c-1.9-1.1-3.2-3.2-3.2-5.6v-29.9c0-2.4,1.3-4.4,3.2-5.6v-1h-201.6c-3.6,0-6.5,2.9-6.5,6.5v29.9
			c0,3.6,2.9,6.5,6.5,6.5h201.6V209.4z"/>
		
			<linearGradient id="SVGID_23_" gradientUnits="userSpaceOnUse" x1="1434.1" y1="132.7333" x2="1434.1" y2="83.7891" gradientTransform="matrix(1 0 0 -1 0 292)">
			<stop  offset="0" style="stop-color:#FFFFFF"/>
			<stop  offset="1" style="stop-color:#98B7C5"/>
		</linearGradient>
		<path class="st43" d="M1528.1,168.4h10.1v-1.1h-6.5h-8.4h-186.8c-3.6,0-6.5,2.9-6.5,6.5v29.9c0,3.6,2.9,6.5,6.5,6.5h186.8h8.4h6.5
			v-1.1h-10.1c-1.8-1.2-2.9-3.2-2.9-5.5v-29.9C1525.1,171.5,1526.3,169.5,1528.1,168.4z"/>
		<path class="st4" d="M1536.3,170h-10c-0.8,1.1-1.2,2.4-1.2,3.8v29.9c0,1.3,0.4,2.5,1,3.5h9.9c-0.5-0.9-0.7-1.9-0.7-3v-30.7
			C1535.4,172.2,1535.7,171,1536.3,170z"/>
	</g>
	
		<linearGradient id="SVGID_24_" gradientUnits="userSpaceOnUse" x1="1291.5393" y1="390.7505" x2="1510.3513" y2="106.7605" gradientTransform="matrix(1 0 0 -1 0 292)">
		<stop  offset="0" style="stop-color:#FFFFFF"/>
		<stop  offset="1" style="stop-color:#98B7C5"/>
	</linearGradient>
	<path class="st44" d="M1514.9-19.5h-199.5c-5.9,0-10.6,4.8-10.6,10.6v141.2c0,5.9,4.8,10.6,10.6,10.6h94.1v20h-43.9
		c-2.4,0-4.3,4.3-4.3,4.3H1469c0,0-2-4.3-4.3-4.3h-43.9v-20h94.1c5.9,0,10.6-4.8,10.6-10.6V-8.9
		C1525.5-14.8,1520.8-19.5,1514.9-19.5z"/>
	<rect x="1318.7" y="-7.1" class="st39" width="192.9" height="128.1"/>
	<g class="st1">
		<path class="st40" d="M1336.7,92.6h-6.7l8.3-18.6h6.6l8.3,18.6h-6.7l-4.8-10.9L1336.7,92.6z"/>
		<path class="st40" d="M1378.5,99.6v6.5h-22.1v-6.5H1378.5z"/>
		<path class="st40" d="M1388.1,92.6h-6.7l8.3-18.6h6.6l8.3,18.6h-6.7l-4.8-10.9L1388.1,92.6z"/>
	</g>
</g>
<g>
	<g>
		<g>
			
				<image style="overflow:visible;enable-background:new    ;" width="49" height="49" xlink:href="74C57230E3EBD133.png"  transform="matrix(0.9796 0 0 0.9796 329.003 87.6916)">
			</image>
		</g>
	</g>
</g>
<linearGradient id="SVGID_25_" gradientUnits="userSpaceOnUse" x1="1057.8718" y1="22.1683" x2="1055.9844" y2="113.3943" gradientTransform="matrix(1 0 0 -1 0 292)">
	<stop  offset="0" style="stop-color:#FFFFFF;stop-opacity:0"/>
	<stop  offset="1" style="stop-color:#9BB4C4"/>
</linearGradient>
<path class="st45" d="M1040.8,237.1c-5.9-4.7-9.7-12-9.7-20.1v-2.1c0-5.4,4.4-9.8,9.8-9.8h31.7c5.4,0,9.8,4.4,9.8,9.8v2.1
	c0,8.2-3.8,15.4-9.7,20.1H1040.8z"/>
<g>
	
		<linearGradient id="SVGID_26_" gradientUnits="userSpaceOnUse" x1="1099.2402" y1="-107.17" x2="1099.2219" y2="-106.7114" gradientTransform="matrix(220.2277 0 0 187.9136 -241024.2031 20216.2422)">
		<stop  offset="0" style="stop-color:#09678D"/>
		<stop  offset="1" style="stop-color:#39ABD8"/>
	</linearGradient>
	<path class="st46" d="M1107.1,125.8c-1.1,24.3-19.9,37.6-52.2,38c-32.3,0.4-49.6-18.4-48.4-42.7c1.1-24.3,24.7-44.8,52.5-43.5
		C1086.7,78.9,1108.2,101.5,1107.1,125.8z"/>
	<g>
		
			<linearGradient id="SVGID_27_" gradientUnits="userSpaceOnUse" x1="1096.5448" y1="-109.4967" x2="1096.5448" y2="-109.0179" gradientTransform="matrix(60.4455 0 0 65.7083 -65193.5781 7352.8687)">
			<stop  offset="0" style="stop-color:#C4C4C4"/>
			<stop  offset="1" style="stop-color:#77A1B0"/>
		</linearGradient>
		<path class="st47" d="M1102.1,163.7c-1.3,2.8-4.8-0.4-8.3,6.3v0.1c-3.5,6.7-8,15-13.3,18.2c-2.9,1.7-6.7,1.8-7.7,1.9v-6.4
			c3.9-2.1,7.4-5.1,10.2-8.6c2.9-3.7,6.3-15,11.3-16.8C1098.9,156.5,1103.8,159.8,1102.1,163.7z"/>
	</g>
	<g>
		
			<linearGradient id="SVGID_28_" gradientUnits="userSpaceOnUse" x1="1094.4626" y1="-109.5142" x2="1094.775" y2="-109.0767" gradientTransform="matrix(39.6426 0 0 64.6648 -42318.707 7238.2671)">
			<stop  offset="0" style="stop-color:#75BDD9"/>
			<stop  offset="1" style="stop-color:#C8E8F5"/>
		</linearGradient>
		<path class="st48" d="M1071,183.7c-1.2-2.8-1.9-14.9-6.2-20.7l5.3-7.2c4.5,4.4,15.9,13.3,14,16.1c-4.3,6.4-0.8,11.3-3.2,13.7
			C1078.6,188,1073.4,189.2,1071,183.7z"/>
	</g>
	<g>
		
			<linearGradient id="SVGID_29_" gradientUnits="userSpaceOnUse" x1="1094.637" y1="-111.4705" x2="1094.5421" y2="-111.0207" gradientTransform="matrix(34.6393 0 0 45.1212 -36870.875 5210.9077)">
			<stop  offset="0" style="stop-color:#69BAD9"/>
			<stop  offset="0.66" style="stop-color:#E5F2F6"/>
			<stop  offset="1" style="stop-color:#E5F2F6"/>
		</linearGradient>
		<path class="st49" d="M1049.6,202c0,0,1.4-4.2,2.2-5.7c0.6-1.7,1.2-3.3,1.7-5.1l-14.3-11c-0.9,1.8-1.2,1.6-1.9,5.8
			c-0.6,4-2,12,1.3,14C1041.8,201.9,1048.3,202.7,1049.6,202z"/>
	</g>
	<g>
		
			<linearGradient id="SVGID_30_" gradientUnits="userSpaceOnUse" x1="1095.2393" y1="-116.5111" x2="1095.2216" y2="-116.0473" gradientTransform="matrix(38.265 0 0 24.4096 -40865.5625 3038.0229)">
			<stop  offset="0" style="stop-color:#C4C4C4"/>
			<stop  offset="1" style="stop-color:#ADDAEA"/>
		</linearGradient>
		<path class="st50" d="M1034,202.5c0.7,2.1,5.7,3,8.2,3.1c5.8,0.4,9.2-0.6,9.9-1.5c0.7-1,0.4-2.1,0-3.3c0.3-1.3,0.6-2.6,0.7-3.9
			c0-0.6-0.1-1.5-0.6-1.9c-1.1,0.2-3.5,1.1-7.4,0.8c-3.8-0.2-7.6-1.5-8.3-2.2c-0.2,0.1-0.4,0.2-0.5,0.4c-0.1,0.2-0.3,0.4-0.3,0.6
			c-0.1,0.2-0.1,0.4,0,0.6c0.1,0.3,0.1,0.4,0.2,0.6c0.6,1,0.5,2.6,0.4,3.2C1035.6,199.5,1033.6,200.9,1034,202.5z"/>
	</g>
	<g>
		<path class="st51" d="M1037.7,204.5c-2.2-0.6-4-3-0.7-4.8c2.1,0.8,4.3,1.4,6.5,1.7c2.7,0.3,7.1,0.3,8.2,0
			C1054.9,206.4,1042,205.8,1037.7,204.5z"/>
	</g>
	<g>
		<path class="st51" d="M1052.4,196.7c-1.5,0.8-6.4,1.3-9.3,0.9c-2.8-0.5-5.6-1.3-6.5-1.9c2.3,0.9,4.8,1.6,7.2,1.9l0,0
			C1046.7,197.8,1049.6,197.5,1052.4,196.7z"/>
	</g>
	<g>
		
			<linearGradient id="SVGID_31_" gradientUnits="userSpaceOnUse" x1="1093.9922" y1="-111.8549" x2="1093.9922" y2="-111.371" gradientTransform="matrix(35 0 0 42.4867 -37222.3125 4933.7397)">
			<stop  offset="0" style="stop-color:#69BAD9"/>
			<stop  offset="0.66" style="stop-color:#E5F2F6"/>
			<stop  offset="1" style="stop-color:#E5F2F6"/>
		</linearGradient>
		<path class="st52" d="M1061.3,201.4c-0.6-1.2-1.1-2.4-1.5-3.6c-0.5-1.9-0.7-3.7-1-5.6l16.2-10.8c0.6,1.9,1,1.8,1,6.1
			c0,4.1-1.7,12.4-5.2,13.9C1067.3,202.9,1062.5,202.3,1061.3,201.4z"/>
	</g>
	<g>
		
			<linearGradient id="SVGID_32_" gradientUnits="userSpaceOnUse" x1="1094.4836" y1="-116.9366" x2="1094.4836" y2="-116.4552" gradientTransform="matrix(37.7471 0 0 23.56 -40245.6953 2949.4688)">
			<stop  offset="0" style="stop-color:#C4C4C4"/>
			<stop  offset="1" style="stop-color:#ADDAEA"/>
		</linearGradient>
		<path class="st53" d="M1077.1,203.5c-0.8,2-5.8,2.6-8.3,2.6c-5.8,0-9.1-1.1-9.7-2c-0.7-1-0.2-2.2,0.2-3.3c-0.3-1.3-0.4-2.7-0.5-4
			c0-0.6,0.2-1.5,0.6-1.8c1.1,0.3,3.5,1.3,7.3,1.3c3.8,0,7.7-1,8.4-1.8c0.2,0.1,0.4,0.2,0.5,0.4c0.1,0.2,0.2,0.4,0.3,0.6
			c0.1,0.2,0.1,0.4,0,0.6s-0.1,0.4-0.3,0.6c-0.6,1-0.6,2.6-0.6,3.2C1075.7,200.5,1077.6,202,1077.1,203.5z"/>
	</g>
	<g>
		<path class="st51" d="M1073.4,205.4c2.2-0.5,4.2-2.7,1-4.7c-2.1,0.7-4.4,1.1-6.7,1.2c-2.7,0.1-7.1-0.2-8.2-0.6
			C1056,206.1,1068.9,206.2,1073.4,205.4z"/>
	</g>
	<g>
		<path class="st51" d="M1059.1,196.6c1.4,0.9,6.3,1.8,9.2,1.5c2.9-0.3,5.7-0.9,6.6-1.6c-2.4,0.8-4.8,1.3-7.4,1.5l0,0
			C1064.6,198.1,1061.8,197.6,1059.1,196.6z"/>
	</g>
	
		<g transform="matrix(0.9904614090919495,-0.1377902776002884,0.1377902776002884,0.9904614090919495,-32.08120720248576,28.985719996386706)">
		
			<linearGradient id="SVGID_33_" gradientUnits="userSpaceOnUse" x1="1080.2335" y1="-113.613" x2="1080.2335" y2="-113.1213" gradientTransform="matrix(3.7799 -1.358089e-05 4.101208e-05 5.06 -3023.6992 894.6378)">
			<stop  offset="0" style="stop-color:#CBE2EB"/>
			<stop  offset="1" style="stop-color:#ACDDF5"/>
		</linearGradient>
		<path class="st54" d="M1058.6,319.7c0,0.6,0.4,1.2,0.9,1.2s0.9-0.6,0.9-1.2c0-0.6-0.4-1.2-0.9-1.2S1058.6,319.1,1058.6,319.7z"/>
	</g>
	<g>
		
			<linearGradient id="SVGID_34_" gradientUnits="userSpaceOnUse" x1="987.3023" y1="-182.085" x2="987.4214" y2="-181.5658" gradientTransform="matrix(2.0642 0 0 3.3812 -976.9509 814.686)">
			<stop  offset="0" style="stop-color:#6BBAE2"/>
			<stop  offset="1" style="stop-color:#ACDDF5"/>
		</linearGradient>
		<path class="st55" d="M1060.9,199.2c0.1-0.1,0.1-0.1,0.2-0.1s0.2,0,0.2,0c0.1,0,0.1,0.1,0.2,0.2c0.1,0.2,0.2,0.4,0.2,0.6
			c0,0.2,0,0.5-0.1,0.6c0,0.1-0.1,0.1-0.1,0.2c-0.1,0.1-0.1,0.1-0.2,0.1s-0.2,0-0.2,0c-0.1,0-0.1-0.1-0.2-0.2
			c-0.1-0.2-0.2-0.4-0.3-0.6c0-0.2,0-0.5,0.1-0.6C1060.8,199.3,1060.8,199.2,1060.9,199.2z"/>
		<path class="st0" d="M1060.7,199.4c0-0.1,0.1-0.2,0.1-0.2c0.1-0.1,0.1-0.1,0.2-0.1l0,0l0,0c0.1,0,0.2,0,0.3,0.1
			c0.1,0,0.1,0.1,0.2,0.2l0,0l0,0c0.1,0.2,0.2,0.4,0.3,0.6h-0.1h0.1c0,0.2,0,0.5-0.1,0.6l0,0h0.1c0,0.1-0.1,0.2-0.1,0.2
			s-0.1,0.1-0.2,0.1l0,0l0,0c-0.1,0-0.2,0-0.3-0.1c-0.1,0-0.1-0.1-0.2-0.2l0,0l0,0c-0.1-0.2-0.2-0.4-0.3-0.6h0.1h-0.1
			C1060.7,199.7,1060.7,199.5,1060.7,199.4L1060.7,199.4L1060.7,199.4z M1060.8,199.4L1060.8,199.4L1060.8,199.4
			c-0.1,0.2-0.1,0.4-0.1,0.6l0,0l0,0c0,0.2,0.1,0.4,0.2,0.6l0,0l0,0c0,0.1,0.1,0.1,0.2,0.1s0.1,0,0.2,0v0.1v-0.1
			c0.1,0,0.1-0.1,0.2-0.1c0.1,0,0.1-0.1,0.1-0.2l0,0l0,0c0.1-0.2,0.1-0.4,0.1-0.6l0,0l0,0c0-0.2-0.1-0.4-0.2-0.6l0,0l0,0
			c0-0.1-0.1-0.1-0.2-0.1s-0.1,0-0.2,0V199v0.1c-0.1,0-0.1,0-0.2,0.1C1060.8,199.3,1060.8,199.3,1060.8,199.4z"/>
	</g>
	<g>
		
			<linearGradient id="SVGID_35_" gradientUnits="userSpaceOnUse" x1="1092.7656" y1="-117.7759" x2="1092.7172" y2="-117.6335" gradientTransform="matrix(30.7191 0 0 19.5387 -32493.8672 2480.4746)">
			<stop  offset="0" style="stop-color:#4F7E9A"/>
			<stop  offset="1" style="stop-color:#4DA1C4"/>
		</linearGradient>
		<path class="st56" d="M1082.6,181.6c0.1,0.4,0.1,0.8-0.1,1.2c-0.1,0.2-0.3,0.4-0.4,0.5c-0.2,0.1-0.4,0.2-0.6,0.3
			c-0.2,0.1-0.4,0.1-0.6,0.1c-0.2,0-0.4-0.1-0.6-0.2l-12-6.4c-0.2-0.1-0.4-0.3-0.5-0.4c-0.1-0.2-0.2-0.4-0.3-0.6
			c-0.1-0.2-0.1-0.4-0.1-0.6c0-0.2,0.1-0.4,0.2-0.6l0,0c0.1-0.2,0.2-0.4,0.4-0.5c0.2-0.1,0.4-0.2,0.6-0.3c0.2-0.1,0.4-0.1,0.6-0.1
			c0.2,0,0.4,0.1,0.6,0.2l12,6.4l0,0C1082.2,180.8,1082.5,181.2,1082.6,181.6z"/>
	</g>
	<g>
		
			<linearGradient id="SVGID_36_" gradientUnits="userSpaceOnUse" x1="1092.7439" y1="-111.354" x2="1092.9249" y2="-110.8816" gradientTransform="matrix(31.3358 0 0 42.25 -33165.4883 4865.7568)">
			<stop  offset="0" style="stop-color:#FFFFFF"/>
			<stop  offset="1" style="stop-color:#CCE2EB"/>
		</linearGradient>
		<path class="st57" d="M1071,166.8l3.5,9.4l0.9,1l3.1,1.8l3.8,2.1c4.2-2,4.9-9.6,3.3-12.4c-1.9-3.2-6.8-7.3-9.4-8.4L1071,166.8z"/>
	</g>
	<g>
		
			<linearGradient id="SVGID_37_" gradientUnits="userSpaceOnUse" x1="1098.0494" y1="-109.2327" x2="1098.0494" y2="-109.164" gradientTransform="matrix(81.6838 0 0 72.08 -88635.3125 8032.4912)">
			<stop  offset="0" style="stop-color:#FFFFFF"/>
			<stop  offset="1" style="stop-color:#C6E0E8"/>
		</linearGradient>
		<path class="st58" d="M1076.9,173.4c0.5,1.4,0.6,2.9,0.6,4.4c1.3,12.9-9,16.7-20,16.7c-11,0-20.8-3.5-20-16.7
			c0-0.7,0.1-1.5,0.2-2.2l2.5-16.5h33.9L1076.9,173.4z"/>
	</g>
	<g>
		<path class="st59" d="M1037.5,175.7C1037.5,175.6,1037.5,175.6,1037.5,175.7c-0.1-0.1-0.1-0.1-0.1-0.2v-0.1c0-0.1,0.1-0.1,0.1-0.2
			s0.1,0,0.2,0L1037.5,175.7C1037.6,175.7,1037.6,175.7,1037.5,175.7z M1042.4,176.8v-0.3V176.8z M1046.2,173.6l0.1,0.2
			L1046.2,173.6z M1040.2,176.1c0.5,0.2,0.9,0.3,1.3,0.4c0.3,0.1,0.6,0.2,0.9,0.2v0.5c-0.4,0-0.7-0.1-1-0.2
			c-0.4-0.1-0.8-0.3-1.4-0.4c-0.9-0.3-1.9-0.6-2.4-0.7l0.1-0.5C1038.3,175.4,1039.2,175.8,1040.2,176.1z M1043.3,176.2
			c0.4-0.3,0.7-0.6,1-1l0.5-0.6c0.2-0.2,0.4-0.4,0.5-0.6c0.2-0.2,0.3-0.3,0.5-0.5c0.1-0.1,0.3-0.2,0.4-0.3l0.2,0.5
			c-0.1,0.1-0.2,0.1-0.3,0.2c-0.1,0.1-0.2,0.3-0.4,0.4c-0.2,0.2-0.4,0.4-0.5,0.6c-0.2,0.2-0.4,0.4-0.6,0.6c-0.4,0.4-0.7,0.7-1.1,1
			c-0.3,0.3-0.7,0.5-1.2,0.5l0.1-0.6C1042.8,176.6,1043,176.4,1043.3,176.2z M1046.7,173.2c0.3,0,0.5,0,0.7,0.1
			c0.6,0.1,1.2,0.2,1.9,0.4c1.4,0.3,3.1,0.7,4.1,1l-0.1,0.5c-1-0.3-2.6-0.6-4.1-0.9c-0.7-0.2-1.4-0.3-1.9-0.3c-0.2,0-0.5,0-0.6,0
			c-0.1,0-0.2,0-0.3,0l-0.2-0.5C1046.3,173.2,1046.5,173.2,1046.7,173.2z"/>
	</g>
	<g>
		<path class="st59" d="M1077.5,176C1077.6,176,1077.6,175.9,1077.5,176c0.1-0.1,0.1-0.1,0.1-0.2v-0.1c0,0,0-0.1-0.1-0.1
			s0,0-0.1-0.1h-0.1h-0.1L1077.5,176L1077.5,176z M1072.7,176.8v-0.3V176.8z M1068.8,173.6l-0.1,0.2L1068.8,173.6z M1074.9,176.2
			c-0.7,0.2-1.5,0.3-2.3,0.4v0.5c0.8-0.1,1.6-0.2,2.4-0.4c0.9-0.2,1.9-0.5,2.4-0.6l-0.1-0.5C1076.8,175.7,1075.9,176,1074.9,176.2z
			 M1071.8,176.2c-0.4-0.3-0.7-0.6-1-1l-0.5-0.6c-0.2-0.2-0.4-0.4-0.5-0.6c-0.2-0.2-0.3-0.3-0.5-0.5c-0.1-0.1-0.3-0.2-0.4-0.3
			l-0.2,0.5c0.1,0.1,0.2,0.1,0.3,0.2c0.1,0.1,0.2,0.3,0.4,0.4c0.2,0.2,0.4,0.4,0.5,0.6c0.2,0.2,0.4,0.4,0.6,0.6
			c0.4,0.4,0.7,0.7,1.1,1c0.3,0.3,0.7,0.5,1.2,0.5v-0.6C1072.3,176.6,1072.1,176.4,1071.8,176.2z M1068.4,173.2
			c-0.3,0-0.5,0-0.7,0.1c-0.6,0.1-1.2,0.2-1.9,0.4c-1.4,0.3-3.1,0.7-4.1,1l0.1,0.5c1-0.3,2.6-0.6,4.1-0.9c0.7-0.2,1.4-0.3,1.9-0.3
			c0.2,0,0.5,0,0.6,0c0.1,0,0.2,0,0.3,0l0.2-0.5C1068.8,173.2,1068.6,173.2,1068.4,173.2z"/>
	</g>
	<g>
		
			<linearGradient id="SVGID_38_" gradientUnits="userSpaceOnUse" x1="1094.1277" y1="-112.9373" x2="1094.1277" y2="-112.4456" gradientTransform="matrix(34.22 0 0 34.22 -36383.1797 4037.0969)">
			<stop  offset="0" style="stop-color:#193449"/>
			<stop  offset="1" style="stop-color:#387EA3"/>
		</linearGradient>
		<path class="st60" d="M1049.4,180.8c0,4.6,3.8,8.4,8.4,8.4s8.4-3.8,8.4-8.4c0-4.6-3.8-8.4-8.4-8.4
			C1053.2,172.4,1049.4,176.2,1049.4,180.8z"/>
	</g>
	<g>
		<path class="st61" d="M1051,179.7L1051,179.7c-0.1,0.4-0.1,0.6-0.1,1v0.1c0.1,1.4,0.6,2.7,1.7,3.6c1,0.9,2.3,1.5,3.7,1.4
			c0.9,0,1.8-0.2,2.6-0.6c0.8-0.4,1.5-1,1.9-1.8c-0.4,0.6-0.8,0.9-1.5,1.2c-0.6,0.3-1.2,0.5-1.9,0.5c-1,0-2-0.4-2.8-1.1
			c-0.7-0.6-1.2-1.6-1.3-2.6c-0.3-0.6-0.4-1.3-0.3-2s0.4-1.3,0.7-1.9c0.4-0.6,0.9-1,1.6-1.3c0.6-0.3,1.3-0.5,2-0.5h0.3
			c0.5,0,0.9,0.1,1.4,0.3c1.2,0.4,2.3,1.2,3.1,2.2c0.7,1,1.2,2.3,1.2,3.6c0,1.1-0.3,2.1-0.9,3.2c-0.6,0.9-1.4,1.7-2.3,2.2
			c1.3-0.5,2.4-1.3,3.2-2.4c0.7-1.1,1.2-2.4,1.2-3.8c0-1.8-0.7-3.5-2-4.7c-1.3-1.2-3.1-1.9-4.8-1.9c-1.4,0-2.8,0.4-3.9,1.2
			c-1.1,0.7-2,1.9-2.6,3.2l0,0C1051.2,179.1,1051.1,179.3,1051,179.7z"/>
	</g>
	<g>
		<path class="st62" d="M1062.6,176.3c1.3,1.2,2,3,2,4.7c0,1.4-0.5,2.7-1.2,3.8c-0.7,1.1-1.9,1.9-3.2,2.4c0.9-0.6,1.8-1.3,2.3-2.2
			c0.6-0.9,0.8-2,0.9-3.2c0-1.3-0.5-2.6-1.2-3.6c-0.7-1-1.9-1.9-3.1-2.2c-0.5-0.2-0.9-0.3-1.4-0.3h-0.2c-0.2,0-0.4,0-0.6,0
			c-1.3,0-2.5,0.4-3.5,1c-1,0.6-1.9,1.7-2.4,2.8l-0.1,0.2c0.1-0.4,0.2-0.6,0.4-1c0.6-1.3,1.4-2.4,2.6-3.2c1.1-0.7,2.5-1.2,3.9-1.2
			l0,0C1059.5,174.3,1061.3,175.1,1062.6,176.3z"/>
	</g>
	<g>
		<path class="st63" d="M1059.4,184.7c0.6-0.3,1.1-0.7,1.5-1.2c-0.5,0.7-1.2,1.4-1.9,1.8c-0.8,0.5-1.7,0.6-2.6,0.6
			c-1.4,0-2.7-0.5-3.7-1.4c-1-0.9-1.6-2.2-1.7-3.6v-0.1c0-0.4,0-0.6,0.1-1c0-0.1,0.1-0.1,0.1-0.2c0.6-1.1,1.4-2.1,2.4-2.8
			c1-0.6,2.3-1,3.5-1c0.2,0,0.4,0,0.6,0h0.2h-0.3c-0.7,0-1.4,0.2-2,0.5c-0.6,0.3-1.2,0.7-1.6,1.3c-0.4,0.6-0.6,1.2-0.7,1.9
			c-0.1,0.6,0,1.4,0.3,2c0.1,1,0.6,1.9,1.3,2.6s1.8,1.1,2.8,1.1l0,0C1058.1,185.2,1058.8,185.1,1059.4,184.7z"/>
	</g>
	<g>
		<path class="st64" d="M1062.3,178.3c0.7,1,1.2,2.3,1.2,3.6c0,1.1-0.3,2.1-0.9,3.2c-0.6,0.9-1.4,1.7-2.3,2.2
			c-0.8,0.3-1.7,0.5-2.5,0.5c-1.8,0-3.5-0.6-4.8-1.9c-1.3-1.2-2-3-2-4.7V181c0.1,1.4,0.6,2.7,1.7,3.6c1,0.9,2.3,1.5,3.7,1.4
			c0.9,0,1.8-0.2,2.6-0.6c0.8-0.4,1.5-1,1.9-1.8c0.3-0.4,0.5-0.7,0.6-1.2c0-0.1,0.1-0.3,0.1-0.4c0.1-0.6,0.1-1.1-0.1-1.6
			c-0.1-0.6-0.4-1-0.7-1.5c-0.4-0.5-0.7-0.7-1.3-1c-0.5-0.3-1-0.4-1.6-0.5c-0.6,0-1.1,0-1.7,0.2c-0.6,0.2-1,0.5-1.4,0.8
			c-0.5,0.4-0.7,0.8-1,1.3c-0.2,0.5-0.4,1-0.4,1.6c0,0.1,0,0.2,0,0.2c-0.3-0.6-0.4-1.3-0.3-2c0.1-0.6,0.4-1.3,0.7-1.9
			c0.4-0.6,0.9-1,1.6-1.3s1.3-0.5,2-0.5h0.3c0.5,0,0.9,0.1,1.4,0.3l0,0C1060.5,176.5,1061.5,177.2,1062.3,178.3z"/>
	</g>
	<g>
		
			<linearGradient id="SVGID_39_" gradientUnits="userSpaceOnUse" x1="1097.9288" y1="-118.4136" x2="1097.9288" y2="-117.9216" gradientTransform="matrix(78.4 0 0 17.9 -85019.8438 2281.2612)">
			<stop  offset="0" style="stop-color:#20445C"/>
			<stop  offset="1" style="stop-color:#2D5F7D"/>
		</linearGradient>
		<path class="st65" d="M1061.2,166.9l15.9-5.3h-38.6l15.9,6l3.3,2.8L1061.2,166.9z"/>
	</g>
	<g>
		
			<linearGradient id="SVGID_40_" gradientUnits="userSpaceOnUse" x1="1095.9858" y1="-114.7876" x2="1095.9858" y2="-114.2712" gradientTransform="matrix(44.9079 0 0 25.1258 -48171.7188 3044.407)">
			<stop  offset="0" style="stop-color:#6E97AF"/>
			<stop  offset="1" style="stop-color:#2F6585"/>
		</linearGradient>
		<path class="st66" d="M1054.6,171.2c1.7,0.8,3.2,0.6,3.2-0.5c0-0.9-1.6-1.8-3.8-4.5c-1.4-1.7-7.5-2.2-9.6-2.9
			c-2.7-0.8-6.3-5-8.2-3.7c-1.9,1.3,1.4,3.7,4.4,5.1c2,0.9,7,2.4,10.5,3.4C1052,169.4,1053.2,170.4,1054.6,171.2z"/>
	</g>
	<g>
		
			<linearGradient id="SVGID_41_" gradientUnits="userSpaceOnUse" x1="1095.5038" y1="-114.7876" x2="1095.5038" y2="-114.2712" gradientTransform="matrix(44.9079 0 0 25.1258 -48128.8555 3044.407)">
			<stop  offset="0" style="stop-color:#6E97AF"/>
			<stop  offset="1" style="stop-color:#2F6585"/>
		</linearGradient>
		<path class="st67" d="M1060,171.2c-1.7,0.8-3.2,0.6-3.2-0.5c0-0.9,1.6-1.8,3.8-4.5c1.4-1.7,7.5-2.2,9.6-2.9c2.7-0.8,6.3-5,8.2-3.7
			c1.9,1.4-1.4,3.7-4.4,5.1c-2,0.9-7,2.4-10.5,3.4C1062.6,169.4,1061.4,170.4,1060,171.2z"/>
	</g>
	<g>
		<path class="st0" d="M1030.5,152.8c0,6.6,12.1,12,27.1,12s27.1-5.4,27.1-12c0-6.6-12.1-12-27.1-12S1030.5,146.2,1030.5,152.8z"/>
	</g>
	<g>
		
			<linearGradient id="SVGID_42_" gradientUnits="userSpaceOnUse" x1="1099.7407" y1="-109.6486" x2="1099.6581" y2="-108.8998" gradientTransform="matrix(196.84 0 0 60.61 -215407.5156 6756.1108)">
			<stop  offset="0" style="stop-color:#1A1A1A;stop-opacity:0.37"/>
			<stop  offset="1" style="stop-color:#161717;stop-opacity:0.18"/>
		</linearGradient>
		<path class="st68" d="M1056.1,160.4c-30.3,0-47-14-47-29.8c6.5,9.2,20.8,14.8,44.1,16.4c18.7,1.2,46-2.4,52.7-15.1
			C1104.6,141.1,1100,160.4,1056.1,160.4z"/>
	</g>
	<g>
		
			<linearGradient id="SVGID_43_" gradientUnits="userSpaceOnUse" x1="1096.689" y1="-109.242" x2="1096.9386" y2="-108.563" gradientTransform="matrix(50.548 0 0 51.1631 -54404.9727 5685.6299)">
			<stop  offset="0" style="stop-color:#D7EEF8"/>
			<stop  offset="1" style="stop-color:#45636D"/>
		</linearGradient>
		<path class="st69" d="M1047.3,108.1c-3.7-6-17.8-13-22.8-9.3c-4.9,3.6,0,20.2,5.1,24.2L1047.3,108.1z"/>
	</g>
	<g>
		
			<linearGradient id="SVGID_44_" gradientUnits="userSpaceOnUse" x1="1096.0354" y1="-109.1004" x2="1095.4109" y2="-108.7168" gradientTransform="matrix(50.0064 0 0 51.5499 -53713.1836 5729.7925)">
			<stop  offset="0" style="stop-color:#D7EEF8"/>
			<stop  offset="1" style="stop-color:#45636D"/>
		</linearGradient>
		<path class="st70" d="M1087.8,124.6c5-4.9,8.8-20.2,4.2-24.3s-19.7,4.4-22.5,10.2L1087.8,124.6z"/>
	</g>
	<g>
		
			<linearGradient id="SVGID_45_" gradientUnits="userSpaceOnUse" x1="1095.5658" y1="-109.9468" x2="1094.9191" y2="-109.4105" gradientTransform="matrix(45.5496 0 0 41.6576 -48809.5195 4687.5376)">
			<stop  offset="0" style="stop-color:#FDEEE5"/>
			<stop  offset="1" style="stop-color:#F9CEAE"/>
		</linearGradient>
		<path class="st71" d="M1084.8,124.1c4.9-5,9.4-17.9,5.5-20.1c-3.8-2.2-18.1,7.6-20.9,12.9L1084.8,124.1z"/>
	</g>
	<g>
		
			<linearGradient id="SVGID_46_" gradientUnits="userSpaceOnUse" x1="1096.0342" y1="-109.8811" x2="1096.6812" y2="-109.345" gradientTransform="matrix(45.5253 0 0 41.6673 -48874.4727 4683.3286)">
			<stop  offset="0" style="stop-color:#FDEEE5"/>
			<stop  offset="1" style="stop-color:#F9CEAE"/>
		</linearGradient>
		<path class="st72" d="M1031.2,121.6c-4.9-5-9.4-17.9-5.5-20.1c3.8-2.2,18.1,7.6,20.9,12.9L1031.2,121.6z"/>
	</g>
	<g>
		
			<linearGradient id="SVGID_47_" gradientUnits="userSpaceOnUse" x1="1099.3778" y1="-107.5055" x2="1099.3778" y2="-106.7523" gradientTransform="matrix(153.98 0 0 124.85 -168225.2031 13522.3066)">
			<stop  offset="0" style="stop-color:#FFFFFF"/>
			<stop  offset="1" style="stop-color:#8CC1D2"/>
		</linearGradient>
		<path class="st73" d="M1094.9,144.9c0,10.8-15.6,17.9-37.7,17.9c-22.2,0-38-7.1-38-17.9c0-2.1,0.6-4.2,1.8-6
			c-0.2-1.4-0.3-2.8-0.3-4.3c0-19.9,16.2-33.2,36.2-33.2c19.9,0,36.2,13.3,36.2,33.2c0,1.2-0.1,2.4-0.2,3.6l0,0
			C1094.1,140.2,1094.9,142.5,1094.9,144.9z"/>
	</g>
	<g>
		<path class="st74" d="M1040,157.6c0.5,3.1,1.2,9.5,0,11.1c-1.5,1.9-4.6,3.1-9.2,1.5c-4.5-1.6-5.8-7.5-6.2-10.1
			c-0.4-2-0.6-3.9,0-4.8c0.4,0.7,3.9,1.8,7.7,2.3l0,0C1034.8,158,1037.4,158,1040,157.6z"/>
	</g>
	<g>
		<path class="st75" d="M1065.2,150.7c-0.2,0.4-0.6,0.6-1.2,0.9c-0.7,0.4-1.6,0.5-2.6,0.5v-0.3v0.3c-1.7,0-3.2-0.4-4.4-1.3l0.1-0.2
			l0.2,0.2c-0.4,0.3-0.8,0.6-1.5,0.8c-0.9,0.3-1.9,0.5-2.9,0.6c-1,0-1.9-0.2-2.7-0.5c-0.6-0.3-1-0.6-1.2-0.9l0,0c0,0,0,0,0-0.1
			c0,0,0,0,0-0.1c0,0,0,0,0-0.1l0,0l0,0l0,0l0,0l0,0c0,0,0,0,0.1,0c0.1,0,0,0,0.1,0c0,0,0,0,0.1,0l0,0l0,0l0,0l0,0
			c0.2,0.3,0.5,0.5,1,0.7c0.6,0.3,1.5,0.5,2.5,0.5s1.9-0.2,2.8-0.5c0.6-0.2,1-0.5,1.4-0.7l0.2-0.1l0.2,0.1c1.3,0.8,2.7,1.3,4.2,1.2
			l0,0l0,0c0.9,0,1.8-0.2,2.4-0.5c0.5-0.2,0.8-0.5,0.9-0.7l0,0l0,0l0,0l0,0c0,0,0,0,0.1,0c0.1,0,0,0,0.1,0c0,0,0,0,0.1,0l0,0l0,0
			l0,0l0,0l0,0C1065.1,150.5,1065.1,150.5,1065.2,150.7C1065.3,150.5,1065.3,150.6,1065.2,150.7
			C1065.3,150.6,1065.3,150.6,1065.2,150.7C1065.3,150.6,1065.2,150.7,1065.2,150.7z"/>
	</g>
	<g>
		
			<linearGradient id="SVGID_48_" gradientUnits="userSpaceOnUse" x1="1090.6874" y1="-143.0251" x2="1090.3015" y2="-143.4099" gradientTransform="matrix(19.2667 0 0 5.2802 -19984.8203 897.8954)">
			<stop  offset="0" style="stop-color:#69BAE1;stop-opacity:0"/>
			<stop  offset="1" style="stop-color:#383434"/>
		</linearGradient>
		<path class="st76" d="M1022.2,140.8L1022.2,140.8l-0.2,0.1v0.1l0,0c0,0.1,0,0.2,0,0.2c0,0.1,0.1,0.1,0.2,0.1l8.9,2h0.1h0.1
			l0.1-0.1v-0.1l0,0c0-0.1,0-0.2,0-0.2c0-0.1-0.1-0.1-0.2-0.1L1022.2,140.8L1022.2,140.8C1022.3,140.8,1022.3,140.8,1022.2,140.8z"
			/>
	</g>
	<g>
		
			<linearGradient id="SVGID_49_" gradientUnits="userSpaceOnUse" x1="1087.2231" y1="-143.0851" x2="1087.6093" y2="-143.4697" gradientTransform="matrix(19.2744 0 0 5.2743 -19872.248 897.8661)">
			<stop  offset="0" style="stop-color:#69BAE1;stop-opacity:0"/>
			<stop  offset="1" style="stop-color:#383434"/>
		</linearGradient>
		<path class="st77" d="M1090.9,141.1c0.1,0,0.1,0.1,0.1,0.2l0,0c0,0.1,0,0.2,0,0.2s-0.1,0.1-0.2,0.1l-8.9,2c-0.1,0-0.2,0-0.2,0
			s-0.1-0.1-0.1-0.2l0,0c0-0.1,0-0.2,0-0.2c0-0.1,0.1-0.1,0.2-0.1l8.9-2l0,0C1090.7,141.1,1090.8,141.1,1090.9,141.1z"/>
	</g>
	<g>
		
			<linearGradient id="SVGID_50_" gradientUnits="userSpaceOnUse" x1="1090.8849" y1="-175.4288" x2="1090.4574" y2="-175.7026" gradientTransform="matrix(19.6238 0 0 2.8837 -20378.7617 651.6354)">
			<stop  offset="0" style="stop-color:#69BAE1;stop-opacity:0"/>
			<stop  offset="1" style="stop-color:#383434"/>
		</linearGradient>
		<path class="st78" d="M1021.7,144.9C1021.7,144.9,1021.6,144.9,1021.7,144.9l-0.2,0.2v0.1l0,0c0,0.1,0,0.2,0.1,0.2
			c0.1,0.1,0.1,0.1,0.2,0.1l9.1,0.8h0.1c0,0,0.1,0,0.1-0.1l0.1-0.1V146l0,0v-0.1c0,0,0-0.1-0.1-0.1l-0.1-0.1h-0.1L1021.7,144.9
			L1021.7,144.9C1021.8,144.9,1021.7,144.9,1021.7,144.9z"/>
	</g>
	<g>
		
			<linearGradient id="SVGID_51_" gradientUnits="userSpaceOnUse" x1="1087.5625" y1="-175.5461" x2="1087.9897" y2="-175.8216" gradientTransform="matrix(19.6332 0 0 2.8846 -20266.4121 652.3661)">
			<stop  offset="0" style="stop-color:#69BAE1;stop-opacity:0"/>
			<stop  offset="1" style="stop-color:#383434"/>
		</linearGradient>
		<path class="st79" d="M1091.2,145.2C1091.2,145.2,1091.3,145.2,1091.2,145.2l0.2,0.2v0.1l0,0v0.1c0,0,0,0.1-0.1,0.1l-0.1,0.1h-0.1
			l-9.1,0.8c-0.1,0-0.2,0-0.2-0.1s-0.1-0.1-0.1-0.2l0,0c0-0.1,0-0.2,0.1-0.2c0.1-0.1,0.1-0.1,0.2-0.1L1091.2,145.2L1091.2,145.2
			C1091.2,145.2,1091.2,145.2,1091.2,145.2z"/>
	</g>
	<g>
		
			<linearGradient id="SVGID_52_" gradientUnits="userSpaceOnUse" x1="1091.1918" y1="-180.1198" x2="1090.7595" y2="-179.8562" gradientTransform="matrix(19.636 0 0 2.7646 -20391.3047 646.4271)">
			<stop  offset="0" style="stop-color:#69BAE1;stop-opacity:0"/>
			<stop  offset="1" style="stop-color:#383434"/>
		</linearGradient>
		<path class="st80" d="M1022.1,149.3C1022.1,149.4,1022,149.4,1022.1,149.3c-0.1,0.1-0.1,0.1-0.2,0.2v0.1l0,0v0.1
			c0,0,0,0.1,0.1,0.1c0,0,0.1,0,0.1,0.1h0.1l9.1-0.7c0.1,0,0.2,0,0.2-0.1c0.1-0.1,0.1-0.1,0.1-0.2l0,0v-0.1c0,0,0-0.1-0.1-0.1
			c0,0-0.1,0-0.1-0.1h-0.1L1022.1,149.3L1022.1,149.3L1022.1,149.3z"/>
	</g>
	<g>
		
			<linearGradient id="SVGID_53_" gradientUnits="userSpaceOnUse" x1="1087.5205" y1="-180.5561" x2="1087.9525" y2="-180.2889" gradientTransform="matrix(19.6438 0 0 2.7455 -20278.957 645.0212)">
			<stop  offset="0" style="stop-color:#69BAE1;stop-opacity:0"/>
			<stop  offset="1" style="stop-color:#383434"/>
		</linearGradient>
		<path class="st81" d="M1091,149.7c0.1,0.1,0.1,0.1,0.1,0.2l0,0v0.1c0,0,0,0.1-0.1,0.1c0,0-0.1,0-0.1,0.1h-0.1l-9.1-0.7h-0.1
			c0,0-0.1,0-0.1-0.1c0-0.1,0-0.1-0.1-0.1s0-0.1,0-0.1l0,0V149c0,0,0-0.1,0.1-0.1c0,0,0.1,0,0.1-0.1h0.1l9.1,0.7l0,0
			C1090.9,149.6,1090.9,149.7,1091,149.7z"/>
	</g>
	<g>
		
			<linearGradient id="SVGID_54_" gradientUnits="userSpaceOnUse" x1="1093.792" y1="-111.1107" x2="1093.792" y2="-110.619" gradientTransform="matrix(30.7198 0 0 36.9317 -32556.0137 4228.1855)">
			<stop  offset="0" style="stop-color:#FFFFFF"/>
			<stop  offset="1" style="stop-color:#F6F3E4"/>
		</linearGradient>
		<path class="st82" d="M1052.6,142.5v-5.9c0-5.1-2.9-12.8-8.8-11.8c-6,1-7.3,10.9-5.5,15.2C1039.7,143.5,1048.1,143,1052.6,142.5z"
			/>
	</g>
	<g>
		
			<linearGradient id="SVGID_55_" gradientUnits="userSpaceOnUse" x1="1093.0192" y1="-111.1107" x2="1093.0192" y2="-110.619" gradientTransform="matrix(30.8058 0 0 36.9317 -32602.8477 4228.1855)">
			<stop  offset="0" style="stop-color:#FFFFFF"/>
			<stop  offset="1" style="stop-color:#F6F3E4"/>
		</linearGradient>
		<path class="st83" d="M1060.9,142.5v-5.9c0-5.1,2.8-12.8,8.8-11.8c6.1,1,7.3,10.9,5.6,15.2C1073.9,143.5,1065.5,143,1060.9,142.5z
			"/>
	</g>
	<g>
		
			<linearGradient id="SVGID_56_" gradientUnits="userSpaceOnUse" x1="1087.649" y1="-112.9604" x2="1087.649" y2="-112.4688" gradientTransform="matrix(16.72 0 0 27.86 -17137.0762 3278.9526)">
			<stop  offset="0" style="stop-color:#383434"/>
			<stop  offset="1" style="stop-color:#23526B"/>
		</linearGradient>
		<path class="st84" d="M1044.3,138.7c0,3.8,1.9,6.9,4.1,6.9c2.2,0,4.1-3.1,4.1-6.9s-1.9-6.9-4.1-6.9
			C1046.2,131.9,1044.3,134.9,1044.3,138.7z"/>
	</g>
	<g>
		<path class="st85" d="M1047,147c-3.7-0.1-6.1-3.9-6.9-5.1c1.4,0.5,4.7,0.7,6.9,0.7c2.8,0,4.7,0.2,5.8,0
			C1052.5,143.6,1050.7,147.2,1047,147z"/>
	</g>
	<g>
		
			<linearGradient id="SVGID_57_" gradientUnits="userSpaceOnUse" x1="1087.0499" y1="-113.0235" x2="1087.0499" y2="-112.5318" gradientTransform="matrix(17.26 0 0 27.6 -17697.0098 3251.3228)">
			<stop  offset="0" style="stop-color:#383434"/>
			<stop  offset="1" style="stop-color:#23526B"/>
		</linearGradient>
		<path class="st86" d="M1061.2,138.6c0,3.7,1.9,6.8,4.3,6.8s4.3-3.1,4.3-6.8s-1.9-6.8-4.3-6.8S1061.2,134.9,1061.2,138.6z"/>
	</g>
	<g>
		<path class="st87" d="M1067.5,146.8c-3.7,0.3-6.2-3.2-7-4.4c2.3,0.4,4.7,0.6,7,0.4c2.8-0.3,4.7-0.4,5.8-0.6
			C1073.1,143.2,1071.3,146.5,1067.5,146.8z"/>
	</g>
	<g>
		<path class="st0" d="M1044.3,137.5c0,1,0.5,1.8,1.1,1.8s1.1-0.8,1.1-1.8c0-1-0.5-1.8-1.1-1.8S1044.3,136.5,1044.3,137.5z"/>
	</g>
	<g>
		<path class="st0" d="M1061.2,137.5c0,1,0.5,1.8,1.1,1.8s1.1-0.8,1.1-1.8c0-1-0.5-1.8-1.1-1.8S1061.2,136.5,1061.2,137.5z"/>
	</g>
	<g>
		
			<linearGradient id="SVGID_58_" gradientUnits="userSpaceOnUse" x1="1069.8793" y1="-136.1598" x2="1069.8793" y2="-135.6674" gradientTransform="matrix(6.94 0 0 7.5 -6382.3862 1189.2312)">
			<stop  offset="0" style="stop-color:#B1DEEE"/>
			<stop  offset="1" style="stop-color:#AAD7E8"/>
		</linearGradient>
		<path class="st88" d="M1040.9,169.9c0,1,0.7,1.9,1.7,1.9c0.9,0,1.7-0.8,1.7-1.9s-0.7-1.9-1.7-1.9
			C1041.6,168,1040.9,168.9,1040.9,169.9z"/>
	</g>
	<g>
		
			<linearGradient id="SVGID_59_" gradientUnits="userSpaceOnUse" x1="1065.4182" y1="-135.9133" x2="1065.4182" y2="-135.4209" gradientTransform="matrix(6.94 0 0 7.5 -6321.4863 1189.2312)">
			<stop  offset="0" style="stop-color:#B1DEEE"/>
			<stop  offset="1" style="stop-color:#AAD7E8"/>
		</linearGradient>
		<path class="st89" d="M1070.8,169.9c0,1,0.7,1.9,1.7,1.9c0.9,0,1.7-0.8,1.7-1.9s-0.7-1.9-1.7-1.9
			C1071.6,168,1070.8,168.9,1070.8,169.9z"/>
	</g>
	<g>
		
			<linearGradient id="SVGID_60_" gradientUnits="userSpaceOnUse" x1="1046.9354" y1="-153.9322" x2="1046.9354" y2="-153.4404" gradientTransform="matrix(3.98 0 0 4.72 -3124.4128 895.316)">
			<stop  offset="0" style="stop-color:#4B7B97"/>
			<stop  offset="1" style="stop-color:#E4F1F5"/>
		</linearGradient>
		<path class="st90" d="M1041.4,169.9c0,0.6,0.5,1.2,1,1.2s1-0.6,1-1.2s-0.5-1.2-1-1.2S1041.4,169.2,1041.4,169.9z"/>
	</g>
	<g>
		
			<linearGradient id="SVGID_61_" gradientUnits="userSpaceOnUse" x1="1038.9897" y1="-153.6863" x2="1038.9897" y2="-153.1956" gradientTransform="matrix(3.98 0 0 4.72 -3062.2927 895.316)">
			<stop  offset="0" style="stop-color:#4B7B97"/>
			<stop  offset="1" style="stop-color:#E4F1F5"/>
		</linearGradient>
		<path class="st91" d="M1071.9,169.9c0,0.6,0.5,1.2,1,1.2s1-0.6,1-1.2s-0.5-1.2-1-1.2S1071.9,169.2,1071.9,169.9z"/>
	</g>
	
		<g transform="matrix(0.19645963609218597,-0.9805119037628174,0.9805119037628174,0.19645963609218597,-108.46366791895571,368.690733322946)">
		
			<linearGradient id="SVGID_62_" gradientUnits="userSpaceOnUse" x1="1126.1891" y1="362.4671" x2="1125.6974" y2="362.4671" gradientTransform="matrix(5.06 9.757662e-06 1.158131e-05 3.78 -5305.1401 -266.8799)">
			<stop  offset="0" style="stop-color:#CBE2EB"/>
			<stop  offset="1" style="stop-color:#ACDDF5"/>
		</linearGradient>
		<path class="st92" d="M392.1,1103c0,0.6,0.6,0.9,1.2,0.9c0.6,0,1.2-0.4,1.2-0.9s-0.6-0.9-1.2-0.9
			C392.7,1102.1,392.1,1102.6,392.1,1103z"/>
	</g>
	<g>
		
			<linearGradient id="SVGID_63_" gradientUnits="userSpaceOnUse" x1="994.5261" y1="-182.7867" x2="994.3597" y2="-182.2672" gradientTransform="matrix(2.0981 0 0 3.35 -1035.8822 811.3097)">
			<stop  offset="0" style="stop-color:#6BBAE2"/>
			<stop  offset="1" style="stop-color:#ACDDF5"/>
		</linearGradient>
		<path class="st93" d="M1051,199.4c0-0.1-0.1-0.1-0.1-0.2c-0.1-0.1-0.1-0.1-0.2-0.1s-0.2,0-0.2,0c-0.1,0-0.1,0.1-0.2,0.1
			c-0.1,0.2-0.2,0.4-0.3,0.6c0,0.2,0,0.5,0,0.6c0,0.1,0.1,0.1,0.1,0.2c0.1,0.1,0.1,0.1,0.2,0.1c0.1,0,0.2,0,0.2,0s0.1-0.1,0.2-0.1
			c0.1-0.2,0.3-0.4,0.3-0.6l0,0C1051.1,199.7,1051.1,199.5,1051,199.4z"/>
		<path class="st0" d="M1051,199.9c0-0.2,0-0.4,0-0.6l0,0l0,0c0-0.1,0-0.1-0.1-0.2c0-0.1-0.1-0.1-0.2-0.1V199v0.1
			c-0.1,0-0.1,0-0.2,0s-0.1,0.1-0.2,0.1l0,0l0,0c-0.1,0.2-0.2,0.4-0.3,0.6l0,0l0,0c0,0.2,0,0.4,0,0.6l0,0l0,0c0,0.1,0.1,0.1,0.1,0.2
			c0,0.1,0.1,0.1,0.2,0.1v0.1v-0.1c0.1,0,0.1,0,0.2,0s0.1-0.1,0.2-0.1l0,0l0,0C1050.9,200.3,1051,200.1,1051,199.9L1051,199.9
			L1051,199.9z M1051.1,200L1051.1,200L1051.1,200c0,0.2-0.1,0.4-0.3,0.6l0,0l0,0c-0.1,0.1-0.1,0.1-0.2,0.2c-0.1,0-0.2,0-0.3,0l0,0
			l0,0c-0.1,0-0.2-0.1-0.2-0.1c-0.1-0.1-0.1-0.1-0.1-0.2h0.1h-0.1c-0.1-0.2-0.1-0.5,0-0.6h0.1h-0.1c0-0.2,0.1-0.4,0.3-0.6l0,0l0,0
			c0.1-0.1,0.1-0.1,0.2-0.2c0.1,0,0.2,0,0.3,0l0,0l0,0c0.1,0,0.2,0.1,0.2,0.1c0.1,0.1,0.1,0.1,0.1,0.2h-0.1h0.1
			C1051.2,199.5,1051.2,199.7,1051.1,200z"/>
	</g>
	<g>
		<path class="st94" d="M1055.7,142.9c0,0.6,0.6,1.2,1.2,1.2s1.2-0.6,1.2-1.2s-0.6-1.2-1.2-1.2S1055.7,142.3,1055.7,142.9z"/>
	</g>
	<g>
		
			<linearGradient id="SVGID_64_" gradientUnits="userSpaceOnUse" x1="1093.9176" y1="-111.6621" x2="1093.5504" y2="-111.2348" gradientTransform="matrix(31.6424 0 0 26.8878 -33552.4375 3100.2373)">
			<stop  offset="0" style="stop-color:#D9EBF1"/>
			<stop  offset="1" style="stop-color:#FEFFFF"/>
		</linearGradient>
		<path class="st95" d="M1059.3,105.4c-4.2,3.2-9.6,2.8-12.6,2.3c1.9-1,6.7-3.2,8.8-5.7c2-2.1,4.4-5.3,5.2-7.3
			C1062.5,96.9,1063.4,102.2,1059.3,105.4z"/>
	</g>
	<g>
		<path class="st96" d="M1059.1,104.3c-4.2,2.9-9.6,2.6-12.6,2.1c1.9-0.9,6.7-3.1,8.8-5.2c2-2,4.4-4.9,5.2-6.8
			C1062.3,96.6,1063.2,101.4,1059.1,104.3z"/>
	</g>
	<g>
		<path class="st97" d="M1042.1,124.1c-1.7,0-3.2,0.3-4.6,0.9c-1.5,0.6-2.7,1.5-3.8,2.6c-1.1,1.1-1.9,2.4-2.6,3.9
			c-0.6,1.5-0.9,3.2-0.9,4.8c0,1.7,0.3,3.2,0.9,4.8c0.6,1.5,1.5,2.8,2.6,3.9c1.1,1.1,2.4,2,3.8,2.6c1.5,0.6,3.1,0.9,4.6,0.9
			c1.7,0,3.2-0.3,4.6-0.9c1.4-0.6,2.7-1.5,3.8-2.6s1.9-2.4,2.6-3.9c0.6-1.5,0.9-3.2,0.9-4.8c0-1.7-0.3-3.2-0.9-4.8
			c-0.6-1.5-1.5-2.8-2.6-3.9c-1.1-1.1-2.4-2-3.8-2.6C1045.4,124.5,1043.8,124.1,1042.1,124.1z M1042.1,121.7c1.9,0,3.8,0.4,5.7,1.2
			c1.8,0.7,3.2,1.8,4.6,3.2c1.3,1.4,2.4,3,3.1,4.7c0.7,1.9,1.1,3.7,1.1,5.7s-0.4,3.9-1.1,5.7c-0.7,1.8-1.8,3.3-3.1,4.7
			s-2.9,2.4-4.6,3.2c-1.8,0.7-3.7,1.2-5.7,1.2c-1.9,0-3.8-0.4-5.7-1.2c-1.8-0.7-3.2-1.8-4.6-3.2c-1.3-1.4-2.4-3-3.1-4.7
			c-0.7-1.9-1.1-3.7-1.1-5.7s0.4-3.9,1.1-5.7c0.7-1.8,1.8-3.3,3.1-4.7c1.3-1.4,2.9-2.4,4.6-3.2
			C1038.3,122,1040.2,121.7,1042.1,121.7z"/>
	</g>
	<g>
		<path class="st97" d="M1071.8,124.1c-1.7,0-3.2,0.3-4.6,0.9c-1.4,0.6-2.7,1.5-3.8,2.6c-1.1,1.1-1.9,2.4-2.6,3.9
			c-0.6,1.5-0.9,3.2-0.9,4.8c0,1.7,0.3,3.2,0.9,4.8c0.6,1.5,1.5,2.8,2.6,3.9c1.1,1.1,2.4,2,3.8,2.6c1.5,0.6,3.1,0.9,4.6,0.9
			c1.7,0,3.2-0.3,4.6-0.9c1.5-0.6,2.7-1.5,3.8-2.6s1.9-2.4,2.6-3.9c0.6-1.5,0.9-3.2,0.9-4.8c0-1.7-0.3-3.2-0.9-4.8
			c-0.6-1.5-1.5-2.8-2.6-3.9c-1.1-1.1-2.4-2-3.8-2.6C1074.9,124.5,1073.4,124.1,1071.8,124.1z M1071.8,121.7c1.9,0,3.8,0.4,5.7,1.2
			c1.8,0.7,3.2,1.8,4.6,3.2c1.3,1.4,2.4,3,3.1,4.7c0.7,1.9,1.1,3.7,1.1,5.7s-0.4,3.9-1.1,5.7c-0.7,1.8-1.8,3.3-3.1,4.7
			c-1.3,1.4-2.9,2.4-4.6,3.2c-1.8,0.7-3.7,1.2-5.7,1.2s-3.8-0.4-5.7-1.2c-1.8-0.7-3.2-1.8-4.6-3.2c-1.3-1.4-2.4-3-3.1-4.7
			c-0.7-1.9-1.1-3.7-1.1-5.7s0.4-3.9,1.1-5.7c0.7-1.8,1.8-3.3,3.1-4.7c1.3-1.4,2.9-2.4,4.6-3.2
			C1067.9,122,1069.8,121.7,1071.8,121.7z"/>
	</g>
	
		<g transform="matrix(0.15074323117733002,-0.9885729551315308,0.9885729551315308,0.15074323117733002,-67.93685231149675,257.403780876906)">
		<path class="st98" d="M260.4,1071.9c0,4.9,2,8.9,4.4,8.9c2.5,0,4.4-4,4.4-8.9c0-4.9-2-8.9-4.4-8.9
			C262.4,1063,260.4,1067,260.4,1071.9z"/>
	</g>
	<g>
		<path class="st0" d="M1001.6,126.6L1001.6,126.6c0.3-0.3,0.5-0.5,0.7-0.5s0.6,0,0.7,0.2l27.5,21.8l-2.9,3.2l-26-23.4
			c-0.2-0.2-0.3-0.4-0.4-0.6S1001.4,126.8,1001.6,126.6z"/>
	</g>
	<g>
		
			<linearGradient id="SVGID_65_" gradientUnits="userSpaceOnUse" x1="1095.1532" y1="-113.1316" x2="1095.1174" y2="-112.7744" gradientTransform="matrix(35.5339 0 0 28.8517 -37882.5625 3410.6699)">
			<stop  offset="0" style="stop-color:#E1F2F9"/>
			<stop  offset="0.35" style="stop-color:#E1F2F9"/>
			<stop  offset="1" style="stop-color:#A1D4E8"/>
		</linearGradient>
		<path class="st99" d="M1023.1,151.3c-0.6,3.2,2.5,7,7.5,7.6c5,0.6,9.4-1.7,9.9-4.8s-5-6.8-9.3-8.7
			C1027.2,143.6,1022.7,146.5,1023.1,151.3z"/>
	</g>
</g>
<linearGradient id="SVGID_66_" gradientUnits="userSpaceOnUse" x1="975.2789" y1="114.7063" x2="975.2789" y2="87.9939" gradientTransform="matrix(1 0 0 -1 0 292)">
	<stop  offset="0" style="stop-color:#FFFFFF"/>
	<stop  offset="1" style="stop-color:#8CB4CC"/>
</linearGradient>
<path class="st100" d="M1032.7,193.4L1032.7,193.4c0-6.5,5.3-11.8,11.7-11.8H918.5c-6.4,0-11.7,5-12.1,11.2h-0.1c0,0.2,0,0.3,0,0.5
	c0,0.2,0,0.3,0,0.5h0.1c0.5,6.3,5.7,11.2,12.1,11.2h125.9C1037.9,205.1,1032.7,199.8,1032.7,193.4z"/>
</svg>
