<svg xmlns="http://www.w3.org/2000/svg" xmlns:xlink="http://www.w3.org/1999/xlink" fill="none" version="1.1" width="240" height="240" viewBox="0 0 240 240"><defs><clipPath id="master_svg0_70_35"><rect x="0" y="0" width="240" height="240" rx="0"/></clipPath></defs><g style="mix-blend-mode:passthrough" clip-path="url(#master_svg0_70_35)"><g style="mix-blend-mode:passthrough"><g><path d="M120.0001220703125,19.9990234375C146.5221220703125,19.9990234375,171.9571220703125,30.5347234375,190.7111220703125,49.2883234375C209.4641220703125,68.0420234375,220.0001220703125,93.4774234375,220.0001220703125,119.9990234375C220.0001220703125,175.2270234375,175.2281220703125,219.9990234375,120.0001220703125,219.9990234375C64.7716220703125,219.9990234375,20.0001220703125,175.2270234375,20.0001220703125,119.9990234375C20.0001220703125,64.7705234375,64.7716220703125,19.9990234375,120.0001220703125,19.9990234375ZM120.0001220703125,34.9990234375C73.0759220703125,35.0472234375,35.0483220703125,73.0748234375,35.0001220703125,119.9990234375C35.0001220703125,166.9430234375,73.0559220703125,204.9990234375,120.0001220703125,204.9990234375C166.9441220703125,204.9990234375,205.0001220703125,166.9430234375,205.0001220703125,119.9990234375C205.0001220703125,73.0548234375,166.9441220703125,34.9990234375,120.0001220703125,34.9990234375ZM120.0001220703125,97.4115234375C124.1421220703125,97.4115234375,127.5001220703125,100.7694234375,127.5001220703125,104.9115234375L127.5001220703125,169.9110234375C127.5001220703125,174.0540234375,124.1421220703125,177.4110234375,120.0001220703125,177.4110234375C115.8580220703125,177.4110234375,112.5001220703125,174.0540234375,112.5001220703125,169.9110234375L112.5001220703125,104.9115234375C112.5001220703125,100.7694234375,115.8580220703125,97.4115234375,120.0001220703125,97.4115234375ZM120.0001220703125,62.6365234375C125.5231220703125,62.6365234375,130.0001220703125,67.1137234375,130.0001220703125,72.6365234375C130.0001220703125,78.1593234375,125.5231220703125,82.6365234375,120.0001220703125,82.6365234375C114.4772220703125,82.6365234375,110.0001220703125,78.1593234375,110.0001220703125,72.6365234375C110.0001220703125,67.1137234375,114.4772220703125,62.6365234375,120.0001220703125,62.6365234375Z" fill-rule="evenodd" fill="#3C6CD8" fill-opacity="1"/></g></g></g></svg>