<svg xmlns="http://www.w3.org/2000/svg" xmlns:xlink="http://www.w3.org/1999/xlink" fill="none" version="1.1" width="712" height="400" viewBox="0 0 712 400"><defs><clipPath id="master_svg0_31_6982"><rect x="0" y="0" width="712" height="400" rx="0"/></clipPath><clipPath id="master_svg1_31_09114"><rect x="198" y="40" width="315.52447509765625" height="320" rx="0"/></clipPath><linearGradient x1="0.5" y1="-3.552713678800501e-15" x2="0.5" y2="1" id="master_svg2_31_01890"><stop offset="0%" stop-color="#97E3FF" stop-opacity="1"/><stop offset="100%" stop-color="#97E3FF" stop-opacity="0"/></linearGradient><linearGradient x1="0.4574396312236786" y1="0.9915673136711121" x2="0.4904654920101166" y2="0.3257157504558563" id="master_svg3_31_01842"><stop offset="0%" stop-color="#68D7FF" stop-opacity="1"/><stop offset="100%" stop-color="#AAE8FF" stop-opacity="0"/></linearGradient><linearGradient x1="0.6143373847007751" y1="-0.05971958860754967" x2="0.41435542702674866" y2="1.0993248224258423" id="master_svg4_31_01915"><stop offset="0%" stop-color="#C4C4C4" stop-opacity="1"/><stop offset="100%" stop-color="#79A5B6" stop-opacity="1"/></linearGradient><linearGradient x1="0.653994083404541" y1="-0.014993728138506413" x2="0.35686933994293213" y2="0.9096196293830872" id="master_svg5_31_01826"><stop offset="0%" stop-color="#75C5E4" stop-opacity="1"/><stop offset="100%" stop-color="#C8F2FF" stop-opacity="1"/></linearGradient><linearGradient x1="0.11910924315452576" y1="1.0532594919204712" x2="0.7991694211959839" y2="0.08419238030910492" id="master_svg6_31_01874"><stop offset="0%" stop-color="#75C5E4" stop-opacity="1"/><stop offset="100%" stop-color="#C8F2FF" stop-opacity="1"/></linearGradient><linearGradient x1="0.5395084023475647" y1="0.026894770562648773" x2="0.44676846265792847" y2="0.977100670337677" id="master_svg7_31_01859"><stop offset="0%" stop-color="#69C3E5" stop-opacity="1"/><stop offset="66.00000262260437%" stop-color="#E6F3F7" stop-opacity="1"/><stop offset="100%" stop-color="#E6F3F7" stop-opacity="1"/></linearGradient><linearGradient x1="0.49415746331214905" y1="-0.012366737239062786" x2="0.4991912543773651" y2="0.9718549847602844" id="master_svg8_31_01836"><stop offset="0%" stop-color="#C4C4C4" stop-opacity="1"/><stop offset="100%" stop-color="#B0DFF0" stop-opacity="1"/></linearGradient><linearGradient x1="0.44043126702308655" y1="0.038422077894210815" x2="0.5771269798278809" y2="0.9720112085342407" id="master_svg9_31_01818"><stop offset="0%" stop-color="#69C3E5" stop-opacity="1"/><stop offset="66.00000262260437%" stop-color="#E6F3F7" stop-opacity="1"/><stop offset="100%" stop-color="#E6F3F7" stop-opacity="1"/></linearGradient><linearGradient x1="0.4668128192424774" y1="0.05784894898533821" x2="0.5327808260917664" y2="0.9602139592170715" id="master_svga_31_01804"><stop offset="0%" stop-color="#C4C4C4" stop-opacity="1"/><stop offset="100%" stop-color="#B0DFF0" stop-opacity="1"/></linearGradient><linearGradient x1="0.5000000596046448" y1="0.5" x2="0.5000000596046448" y2="1.5" id="master_svgb_31_01903"><stop offset="0%" stop-color="#CDE5EE" stop-opacity="1"/><stop offset="100%" stop-color="#AEE3FC" stop-opacity="1"/></linearGradient><linearGradient x1="0.29377347230911255" y1="-0.023842396214604378" x2="0.7109135389328003" y2="1.0210362672805786" id="master_svgc_31_01871"><stop offset="0%" stop-color="#6AC3EE" stop-opacity="1"/><stop offset="100%" stop-color="#AEE3FC" stop-opacity="1"/></linearGradient><linearGradient x1="0.5549384951591492" y1="0.39718225598335266" x2="0.44572213292121887" y2="0.6653474569320679" id="master_svgd_31_01839"><stop offset="0%" stop-color="#4F82A0" stop-opacity="1"/><stop offset="100%" stop-color="#4CAACF" stop-opacity="1"/></linearGradient><linearGradient x1="0.5371595025062561" y1="0.04181913658976555" x2="0.43163183331489563" y2="1.0679560899734497" id="master_svge_31_01813"><stop offset="0%" stop-color="#FFFFFF" stop-opacity="1"/><stop offset="100%" stop-color="#CEE5EF" stop-opacity="1"/></linearGradient><linearGradient x1="0.24278311431407928" y1="0.9474724531173706" x2="0.844312846660614" y2="-0.025416582822799683" id="master_svgf_31_01829"><stop offset="0%" stop-color="#FFFFFF" stop-opacity="1"/><stop offset="100%" stop-color="#CEE5EF" stop-opacity="1"/></linearGradient><linearGradient x1="1.0015552043914795" y1="0.5001469254493713" x2="0.0015552043914794922" y2="0.5001469254493713" id="master_svgg_31_01921"><stop offset="0%" stop-color="#4F82A0" stop-opacity="1"/><stop offset="100%" stop-color="#4CAACF" stop-opacity="1"/></linearGradient><linearGradient x1="0.4785816967487335" y1="0.019974086433649063" x2="0.48396384716033936" y2="0.15653161704540253" id="master_svgh_31_01850"><stop offset="0%" stop-color="#FFFFFF" stop-opacity="1"/><stop offset="100%" stop-color="#C8E3EC" stop-opacity="1"/></linearGradient><linearGradient x1="0.5255990624427795" y1="0.01386323943734169" x2="0.5655990839004517" y2="1.013863205909729" id="master_svgi_31_01847"><stop offset="0%" stop-color="#1A354A" stop-opacity="1"/><stop offset="100%" stop-color="#3783AB" stop-opacity="1"/></linearGradient><linearGradient x1="0.5003219246864319" y1="0.2364574372768402" x2="0.5327752828598022" y2="0.9982802867889404" id="master_svgj_31_01906"><stop offset="0%" stop-color="#20455E" stop-opacity="1"/><stop offset="100%" stop-color="#2B6181" stop-opacity="1"/></linearGradient><linearGradient x1="0.4671197533607483" y1="-0.05027575418353081" x2="0.5457663536071777" y2="1.2989274263381958" id="master_svgk_31_01856"><stop offset="0%" stop-color="#709CB5" stop-opacity="1"/><stop offset="100%" stop-color="#2E688A" stop-opacity="1"/></linearGradient><linearGradient x1="0.46268171072006226" y1="0.14948756992816925" x2="0.5521518588066101" y2="1.0055266618728638" id="master_svgl_31_01863"><stop offset="0%" stop-color="#709CB5" stop-opacity="1"/><stop offset="100%" stop-color="#2E688A" stop-opacity="1"/></linearGradient><linearGradient x1="0.4311729967594147" y1="0.007081466261297464" x2="0.5599321722984314" y2="0.9888536334037781" id="master_svgm_31_01800"><stop offset="0%" stop-color="#006B93" stop-opacity="1"/><stop offset="100%" stop-color="#30B5E7" stop-opacity="1"/></linearGradient><linearGradient x1="0.5489456057548523" y1="-0.4164574444293976" x2="0.45248010754585266" y2="0.8731134533882141" id="master_svgn_31_01928"><stop offset="0%" stop-color="#1A1A1A" stop-opacity="0.3700000047683716"/><stop offset="100%" stop-color="#171717" stop-opacity="0.18000000715255737"/></linearGradient><linearGradient x1="0.2714170813560486" y1="-0.06173623725771904" x2="0.9723594188690186" y2="1.246403694152832" id="master_svgo_31_01880"><stop offset="0%" stop-color="#D9F4FD" stop-opacity="1"/><stop offset="100%" stop-color="#45656F" stop-opacity="1"/></linearGradient><linearGradient x1="1.0422790050506592" y1="0.21192710101604462" x2="-0.11824087053537369" y2="1.1720564365386963" id="master_svgp_31_01935"><stop offset="0%" stop-color="#D9F4FD" stop-opacity="1"/><stop offset="100%" stop-color="#45656F" stop-opacity="1"/></linearGradient><linearGradient x1="1.056963324546814" y1="0.1503840535879135" x2="-0.17471051216125488" y2="1.4196302890777588" id="master_svgq_31_01931"><stop offset="0%" stop-color="#FFF0E6" stop-opacity="1"/><stop offset="100%" stop-color="#FFD1AF" stop-opacity="1"/></linearGradient><linearGradient x1="-0.05496762692928314" y1="0.22614629566669464" x2="1.3203620910644531" y2="1.1223976612091064" id="master_svgr_31_01886"><stop offset="0%" stop-color="#FFF0E6" stop-opacity="1"/><stop offset="100%" stop-color="#FFD1AF" stop-opacity="1"/></linearGradient><linearGradient x1="0.41333699226379395" y1="-0.011741453781723976" x2="0.6009561419487" y2="1.4825206995010376" id="master_svgs_31_01823"><stop offset="0%" stop-color="#FFFFFF" stop-opacity="1"/><stop offset="100%" stop-color="#8EC8DA" stop-opacity="1"/></linearGradient><linearGradient x1="0.9597973823547363" y1="-0.05649609491229057" x2="0.17039579153060913" y2="-0.7800814509391785" id="master_svgt_31_01877"><stop offset="0%" stop-color="#69C3ED" stop-opacity="0"/><stop offset="100%" stop-color="#383434" stop-opacity="1"/></linearGradient><linearGradient x1="0.4572356343269348" y1="-0.5274816751480103" x2="1.2297046184539795" y2="-1.3175380229949951" id="master_svgu_31_01810"><stop offset="0%" stop-color="#69C3ED" stop-opacity="0"/><stop offset="100%" stop-color="#383434" stop-opacity="1"/></linearGradient><linearGradient x1="1.2181365489959717" y1="-0.9878684878349304" x2="0.35023021697998047" y2="-0.5716979503631592" id="master_svgv_31_01899"><stop offset="0%" stop-color="#69C3ED" stop-opacity="0"/><stop offset="100%" stop-color="#383434" stop-opacity="1"/></linearGradient><linearGradient x1="-0.2048695683479309" y1="1.260072112083435" x2="0.6572111248970032" y2="0.5195494890213013" id="master_svgw_31_01893"><stop offset="0%" stop-color="#69C3ED" stop-opacity="0"/><stop offset="100%" stop-color="#383434" stop-opacity="1"/></linearGradient><linearGradient x1="0.7533900737762451" y1="1.2075896263122559" x2="-0.11932969093322754" y2="1.9462958574295044" id="master_svgx_31_01883"><stop offset="0%" stop-color="#69C3ED" stop-opacity="0"/><stop offset="100%" stop-color="#383434" stop-opacity="1"/></linearGradient><linearGradient x1="0.12600518763065338" y1="0.5879890322685242" x2="1.0051636695861816" y2="0.13005074858665466" id="master_svgy_31_01896"><stop offset="0%" stop-color="#69C3ED" stop-opacity="0"/><stop offset="100%" stop-color="#383434" stop-opacity="1"/></linearGradient><linearGradient x1="0.5" y1="0" x2="0.5" y2="1.0013333559036255" id="master_svgz_31_01200"><stop offset="0%" stop-color="#B3E4F5" stop-opacity="1"/><stop offset="100%" stop-color="#ACDDEF" stop-opacity="1"/></linearGradient><linearGradient x1="0.5000000596046448" y1="0.5" x2="0.5000000596046448" y2="1.5013333559036255" id="master_svg10_31_01543"><stop offset="0%" stop-color="#B3E4F5" stop-opacity="1"/><stop offset="100%" stop-color="#ACDDEF" stop-opacity="1"/></linearGradient><linearGradient x1="0.4999999701976776" y1="0.002118644304573536" x2="0.4999999701976776" y2="1" id="master_svg11_31_01807"><stop offset="0%" stop-color="#4B7F9D" stop-opacity="1"/><stop offset="100%" stop-color="#E5F2F6" stop-opacity="1"/></linearGradient><linearGradient x1="0.5" y1="0.5" x2="0.5" y2="1.5" id="master_svg12_31_01924"><stop offset="0%" stop-color="#4B7F9D" stop-opacity="1"/><stop offset="100%" stop-color="#E5F2F6" stop-opacity="1"/></linearGradient><linearGradient x1="1.0019762516021729" y1="0.5" x2="0.0019762516021728516" y2="0.5" id="master_svg13_31_01868"><stop offset="0%" stop-color="#CDE5EE" stop-opacity="1"/><stop offset="100%" stop-color="#AEE3FC" stop-opacity="1"/></linearGradient><linearGradient x1="0.6112568378448486" y1="-0.026493245735764503" x2="0.38751402497291565" y2="1.028046727180481" id="master_svg14_31_01909"><stop offset="0%" stop-color="#6AC3EE" stop-opacity="1"/><stop offset="100%" stop-color="#AEE3FC" stop-opacity="1"/></linearGradient><linearGradient x1="0.9703466296195984" y1="0.23496316373348236" x2="0.22402338683605194" y2="1.103806495666504" id="master_svg15_31_01833"><stop offset="0%" stop-color="#DAEDF3" stop-opacity="1"/><stop offset="100%" stop-color="#FDFEFF" stop-opacity="1"/></linearGradient></defs><g style="mix-blend-mode:passthrough" clip-path="url(#master_svg0_31_6982)"><rect x="0" y="0" width="712" height="400" rx="0" fill="#F2F4F7" fill-opacity="1"/><g style="mix-blend-mode:passthrough" clip-path="url(#master_svg1_31_09114)"><g style="mix-blend-mode:passthrough"><g style="mix-blend-mode:passthrough"><g style="mix-blend-mode:passthrough"><path d="M271.3956298828125,346.75563046875C271.3956298828125,354.07033046875,309.8728298828125,360.00013046875,357.3368298828125,360.00013046875C404.8006298828125,360.00013046875,443.2776298828125,354.07033046875,443.2776298828125,346.75563046875C443.2776298828125,339.44096046875,404.8006298828125,333.51123046875,357.3368298828125,333.51123046875C309.8728298828125,333.51123046875,271.3956298828125,339.44096046875,271.3956298828125,346.75563046875Z" fill="url(#master_svg2_31_01890)" fill-opacity="1"/></g><g style="mix-blend-mode:passthrough"><path d="M459.912,128.13692968750001C492.957,136.8584796875,509.419,147.9950796875,513.524,152.4667796875C513.524,152.4667796875,434.155,341.0631796875,434.155,341.0631796875C434.155,341.0631796875,437.44100000000003,349.0171796875,359.206,349.0171796875C280.9712,349.0171796875,278.2232,341.0631796875,278.2232,341.0631796875C278.2232,341.0631796875,198,145.8189796875,198,145.8189796875C205.91137,140.1780796875,229.6369,127.6505096875,261.2824,122.2571596875C300.831,115.5495996875,418.605,117.2222196875,459.912,128.13692968750001Z" fill="url(#master_svg3_31_01842)" fill-opacity="0.20000000298023224"/></g><g style="mix-blend-mode:passthrough"><path d="M435.2556873046875,278.4511609375C432.8575873046875,283.2130609375,427.9758873046875,278.8095609375,419.9791873046875,288.2650609375C411.9824873046875,297.7204609375,400.8109873046875,305.7678609375,391.2012873046875,308.9253609375C387.2981373046875,310.1871609375,383.1947573046875,310.7137609375,379.0994873046875,310.4784609375C379.0994873046875,310.4784609375,381.4379073046875,300.1184609375,381.4379073046875,300.1184609375C388.4755173046875,298.0191609375,395.0238873046875,294.5377609375,400.6999873046875,289.8778609375C406.6313873046875,284.9197609375,415.0633873046875,266.6318569375,424.8095873046875,266.8366676275C434.55588730468753,267.0414789375,437.6538873046875,273.6893109375,435.2556873046875,278.4511609375Z" fill="url(#master_svg4_31_01915)" fill-opacity="1"/></g><g style="mix-blend-mode:passthrough"><path d="M323.4554046875,303.890421875C324.7099046875,298.676221875,340.52410468749997,278.33172187499997,346.1142046875,267.237721875C346.1142046875,267.237721875,334.8573046875,256.544921875,334.8573046875,256.544921875C328.4053046875,265.445661875,311.0890646875,284.109021875,307.6753146875,288.973321875C301.0697046875,298.462921875,304.0994156875,307.653821875,308.8274646875,311.007521875C313.5555046875,314.361321875,321.0316046875,313.943221875,323.4554046875,303.890421875Z" fill="url(#master_svg5_31_01826)" fill-opacity="1"/></g><g style="mix-blend-mode:passthrough"><path d="M415.65234550781247,245.11844703125C412.0166455078125,249.05252703125,388.5727455078125,259.24185703125,378.3741455078125,266.20545703125C378.3741455078125,266.20545703125,382.5815855078125,280.82385703125,382.5815855078125,280.82385703125C392.4558455078125,276.12175703125,416.3435455078125,268.13405703125,421.6007455078125,265.52275703125C431.8420455078125,260.41095703125,433.85614550781247,251.02385703125,431.5262455078125,245.86942703125C429.1963455078125,240.71502103125,422.6760455078125,237.53191703125,415.65234550781247,245.11844703125Z" fill="url(#master_svg6_31_01874)" fill-opacity="1"/></g><g style="mix-blend-mode:passthrough"><path d="M349.203580859375,334.39854296875C350.404680859375,332.46474296875,351.432880859375,330.42864296875,352.275980859375,328.31394296875C353.266280859375,325.17294296875,354.081180859375,321.97924296875,354.716780859375,318.74764296875003C354.716780859375,318.74764296875003,328.029790859375,298.01904296875,328.029790859375,298.01904296875C326.681360859375,301.21068296875,326.118083859375,300.90345296875,325.546280859375,308.40464296875C325.008614859375,315.44504296875,326.715500859375,330.16584296875,332.672490859375,333.13554296875C338.629480859375,336.10534296875,347.052880859375,335.88344296875,349.203580859375,334.39854296875Z" fill="url(#master_svg7_31_01859)" fill-opacity="1"/></g><g style="mix-blend-mode:passthrough"><path d="M323.64307055078126,337.39386484375C325.1024495507813,340.90976484375,333.73923955078124,341.76316484375,338.09173955078126,341.76316484375C348.2988395507812,341.68636484374997,353.9059395507812,339.81746484375,355.0325395507813,338.11076484375C356.27003955078123,336.27596484375,355.3482395507813,334.29616484375,354.65703955078123,332.35036484375C355.03713955078126,330.05628484375,355.29063955078124,327.74297484375,355.41653955078124,325.42098484375C355.40803955078127,324.28598484375,355.0581395507812,322.82671484375,354.2558395507813,322.35735684375C352.33563955078125,322.84378484375,348.22203955078123,324.61026484375,341.54823955078126,324.67000484375C334.87433955078126,324.72974484375,328.18335955078123,323.04860484375,326.86905955078123,321.75146484375C326.54425955078125,321.90211784375,326.25791955078125,322.12457084375,326.0316595507812,322.40204684375C325.80538955078123,322.67952184375,325.64511955078126,323.00475484375,325.56292955078123,323.35321484375C325.48073955078127,323.70167484375,325.47877955078127,324.06428484375,325.55719955078126,324.41361484375C325.63561955078126,324.76294484375,325.79236955078125,325.08987484375,326.0156295507812,325.36978484375C327.17629955078127,327.06800484375,326.9970795507812,329.86709484375,327.05681955078126,331.05328484375C325.97295955078124,332.06876484375,322.54213555078127,334.72276484375,323.64307055078126,337.39386484375Z" fill="url(#master_svg8_31_01836)" fill-opacity="1"/></g><g style="mix-blend-mode:passthrough"><path d="M330.009750078125,340.525696875C326.169278078125,339.766186875,322.704330078125,335.908916875,328.098060078125,332.341796875C331.812080078125,333.586816875,335.687380078125,334.285346875,339.602380078125,334.415496875C344.23658007812503,334.509376875,352.002880078125,333.963206875,353.726780078125,333.399976875C360.110480078125,341.686286875,337.605380078125,342.027646875,330.009750078125,340.525696875Z" fill="#88ADC1" fill-opacity="1"/></g><g style="mix-blend-mode:passthrough"><path d="M354.55458564453124,325.1911593075C352.09668564453125,326.8381771875,343.60498564453127,328.2974571875,338.68068564453125,327.8536971875C333.75631564453124,327.4099371875,328.87466564453126,326.2664071875,327.16778564453125,325.1826171875C331.3072956445312,326.5569271875,335.6133356445313,327.3664171875,339.96938564453126,327.5891471875C339.96938564453126,327.5891471875,339.96938564453126,327.5891471875,339.96938564453126,327.5891471875C344.94318564453124,327.7839271875,349.9049856445313,326.9681671875,354.55458564453124,325.1911593075Z" fill="#88ADC1" fill-opacity="1"/></g><g style="mix-blend-mode:passthrough"><path d="M369.7885259765625,334.76583359375C368.5189859765625,332.87553359375,367.4194459765625,330.87653359374997,366.5027959765625,328.79213359375C365.4045959765625,325.68523359375,364.4786309765625,322.52003359375,363.7291259765625,319.31113359375C363.7291259765625,319.31113359375,389.6395259765625,297.66943359375,389.6395259765625,297.66943359375C391.0989259765625,300.81840359375,391.6280259765625,300.49411359375,392.4814259765625,307.96113359375C393.2666259765625,314.97593359375,392.0803259765625,329.71383359375,386.2428259765625,332.92253359375C380.4053259765625,336.13123359375,371.9818659765625,336.17393359375,369.7885259765625,334.76583359375Z" fill="url(#master_svg9_31_01818)" fill-opacity="1"/></g><g style="mix-blend-mode:passthrough"><path d="M397.1923578125,335.49947109375C396.1597578125,339.19457109375,387.6850578125,341.08057109375,383.3581578125,341.55847109375C373.2193278125,342.69347109375,367.4159478125,341.47317109375,366.1016578125,339.94557109375C364.6593438125,338.27297109375,365.3335578125,336.19927109375,365.7944178125,334.18527109375C365.1448828125,331.93987109375,364.6178148125,329.66083109375,364.2155503125,327.35824109375C364.0875346125,326.23178109375,364.2582206125,324.73836109375,365.0007118125,324.17513109375C366.9636178125,324.43968109375,371.2478778125,325.71121109375,377.8876578125,324.96877109375C384.5273578125,324.22633109375,390.9708578125,321.76008109375,392.1229578125,320.31787109375C392.4625578125,320.43111009375,392.7719578125,320.61996709375,393.0278578125,320.87021809375C393.2838578125,321.12047009375,393.4795578125,321.42557109375,393.6003578125,321.76250109375C393.7211578125,322.09944109375,393.7639578125,322.45940109375,393.7253578125,322.81524109375C393.6866578125,323.17109109375,393.5677578125,323.51351109375,393.3775578125,323.81670109375C392.3875578125,325.64293109375,392.8910578125,328.44202109375,393.0276578125,329.61115109375C394.2394578125,330.49017109375,397.9604578125,332.71747109375,397.1923578125,335.49947109375Z" fill="url(#master_svga_31_01804)" fill-opacity="1"/></g><g style="mix-blend-mode:passthrough"><path d="M391.150120703125,339.356543125C394.871020703125,338.144743125,397.858120703125,333.903443125,392.071820703125,331.001953125C388.532920703125,332.674703125,384.769820703125,333.824543125,380.900320703125,334.415473125C376.308820703125,335.064033125,368.525440703125,335.448063125,366.758823703125,335.089643125C361.399230703125,344.084253125,383.784920703125,341.754553125,391.150120703125,339.356543125Z" fill="#88ADC1" fill-opacity="1"/></g><g style="mix-blend-mode:passthrough"><path d="M364.9921875,327.00011453125C367.6293075,328.33992453125,376.2489875,328.76660453125,381.0709875,327.74255453125C385.89288750000003,326.71849453125,390.5867875,325.00321453125,392.1656875,323.72314453125C388.2168875,325.58467453125,384.0338875,326.90234453125,379.7310875,327.64015453125C379.7310875,327.64015453125,379.7310875,327.64015453125,379.7310875,327.64015453125C374.8250775,328.42049453125003,369.8120475,328.20280453125,364.9921875,327.00011453125Z" fill="#88ADC1" fill-opacity="1"/></g><g style="mix-blend-mode:passthrough" transform="matrix(0.969099223613739,-0.2467910349369049,0.24686871469020844,0.9690183997154236,-70.14973447258672,100.91933778454404)"><path d="M367.479248046875,332.31475171875C367.479248046875,333.50713171875,368.201429046875,334.47375171875,369.092288046875,334.47375171875C369.983138046875,334.47375171875,370.705328046875,333.50713171875,370.705328046875,332.31475171875C370.705328046875,331.12237471875,369.983138046875,330.15576171875,369.092288046875,330.15576171875C368.201429046875,330.15576171875,367.479248046875,331.12237471875,367.479248046875,332.31475171875Z" fill="url(#master_svgb_31_01903)" fill-opacity="1"/></g><g style="mix-blend-mode:passthrough"><path d="M368.397554528125,331.34357021875C368.426022328125,331.22019621875,368.484544328125,331.10576821875,368.567927328125,331.01048021875C368.651309328125,330.91519221875,368.756965328125,330.84201291875,368.875477328125,330.79742166875C369.001692328125,330.77776531875,369.130842328125,330.79098703875,369.250445328125,330.83583521875C369.370046328125,330.88068331875,369.476066328125,330.95563021875,369.558226328125,331.05342521875C369.810046328125,331.31473021875,369.986906328125,331.63897321875,370.070286328125,331.99214421875C370.169046328125,332.34376421875,370.169046328125,332.71579421875,370.070286328125,333.06741421875C370.056346328125,333.19691421875,370.003226328125,333.31907421875,369.918016328125,333.41758421875C369.832806328125,333.51610421875,369.719566328125,333.58628421875,369.593416328125,333.61874421875C369.467266328125,333.65120421875,369.334216328125,333.64441421875,369.212029328125,333.59926421875C369.089844328125,333.55411421875,368.984337328125,333.47276421875,368.909609328125,333.36607421875C368.656106328125,333.10264421875,368.479099328125,332.77520421875,368.397554528125,332.41883421875C368.397554528125,332.41883421875,368.397554528125,332.41883421875,368.397554528125,332.41883421875C368.298796928125,332.06721421875,368.298796928125,331.69518821875,368.397554528125,331.34357021875Z" fill="url(#master_svgc_31_01871)" fill-opacity="1"/><path d="M368.301279828125,332.44587421875Q368.142682328125,331.88120421875,368.301279828125,331.31653021875L368.397554528125,331.34357021875L368.300114828125,331.32108721875Q368.349130728125,331.10866221875,368.492671328125,330.94462721875Q368.636197328125,330.78060870875,368.840262328125,330.70382751875L368.849907328125,330.70019851875L368.860089328125,330.69861271875Q369.078570328125,330.66458721875,369.285555328125,330.74220141875Q369.492566328125,330.81982691875,369.634796328125,330.98909621875L369.558226328125,331.05342521875L369.630236328125,330.98403421875Q370.033936328125,331.40294421875,370.167606328125,331.96917421875L370.070286328125,331.99214421875L370.166556328125,331.96510421875Q370.325156328125,332.52978421875,370.166556328125,333.09445421875L370.070286328125,333.06741421875L370.169706328125,333.07811421875Q370.144956328125,333.30806421875,369.993646328125,333.48300421875Q369.842336328125,333.65794421875,369.618336328125,333.71558421875Q369.394336328125,333.77323421875,369.177370328125,333.69306421875Q368.960406328125,333.61289421875,368.827703328125,333.42344421875L368.909609328125,333.36607421875L368.837554328125,333.43541421875Q368.430888328125,333.01282421875,368.300073928125,332.44114421875L368.397554528125,332.41883421875L368.301279828125,332.44587421875ZM368.493829328125,332.39179421875L368.494490328125,332.39414421875L368.495035328125,332.39653421875Q368.613472328125,332.91413421875,368.981664328125,333.29673421875L368.987054328125,333.30233421875L368.991515328125,333.30870421875Q369.088357328125,333.44696421875,369.246688328125,333.50546421875Q369.405026328125,333.56396421875,369.568496328125,333.52190421875Q369.731956328125,333.47983421875,369.842376328125,333.35216421875Q369.952796328125,333.22451421875,369.970856328125,333.05671421875L369.971756328125,333.04841421875L369.974006328125,333.04037421875Q370.117416328125,332.52978421875,369.974006328125,332.01918421875L369.973446328125,332.01716421875L369.972956328125,332.01512421875Q369.851876328125,331.50225221875,369.486226328125,331.12281621875L369.483856328125,331.12036221875L369.481666328125,331.11775321875Q369.373206328125,330.98866721875,369.215335328125,330.92946921875Q369.057490328125,330.87028101875,368.890865328125,330.89623021875L368.875477328125,330.79742166875L368.910693328125,330.89101621875Q368.753634328125,330.95011021875,368.643182328125,331.07633321875Q368.532717328125,331.20257021875,368.494994328125,331.36605421875L368.494465328125,331.36834621875L368.493829328125,331.37061121875Q368.350420728125,331.88120421875,368.493829328125,332.39179421875Z" fill="#FFFFFF" fill-opacity="1"/></g><g style="mix-blend-mode:passthrough"><path d="M303.7408992890625,289.51108765625C303.7408992890625,289.51108765625,303.7408992890625,289.51108765625,303.7408992890625,289.51108765625C303.3676976890625,290.13496765625,303.2569456890625,290.88129765625,303.4328991890625,291.58665765625C303.6088522890625,292.29202765625,304.0571702890625,292.89894765625,304.6796762890625,293.27448765625C304.6796762890625,293.27448765625,324.8036962890625,305.40094765625,324.8036962890625,305.40094765625C325.4289962890625,305.77454765625,326.1766962890625,305.88554765625,326.8834962890625,305.70964765625C327.5902962890625,305.53374765625,328.1987962890625,305.08534765625,328.5758962890625,304.46224765625C328.5758962890625,304.46224765625,328.5758962890625,304.46224765625,328.5758962890625,304.46224765625C328.9540962890625,303.84074765625,329.0702962890625,303.09464765625,328.8990962890625,302.38754765625C328.7278962890625,301.68044765625,328.2832962890625,301.07014765625,327.6627962890625,300.69034765625C327.6627962890625,300.69034765625,307.4789562890625,288.57236165625,307.4789562890625,288.57236165625C306.8572862890625,288.20723285625,306.1170262890625,288.10101565625,305.4177662890625,288.27661665625C304.7185062890625,288.45221765625,304.1162682890625,288.89557565625,303.7408992890625,289.51108765625Z" fill="url(#master_svgd_31_01839)" fill-opacity="1"/></g><g style="mix-blend-mode:passthrough"><path d="M338.45032373046877,274.2955390625C338.45032373046877,274.2955390625,326.86912373046874,300.5028390625,326.86912373046874,300.5028390625C326.86912373046874,300.5028390625,306.18182373046875,288.1458390625,306.18182373046875,288.1458390625C306.43785473046876,287.1986390625,308.9981637304688,283.2133390625,311.50727373046874,279.7401390625C314.40896373046877,275.6865490625,319.5381237304687,270.2163990625,323.65172373046875,267.8525390625C323.65172373046875,267.8525390625,338.45032373046877,274.2955390625,338.45032373046877,274.2955390625Z" fill="url(#master_svge_31_01813)" fill-opacity="1"/></g><g style="mix-blend-mode:passthrough"><path d="M387.420654296875,259.4634265625C387.420654296875,259.4634265625,401.374354296875,252.6364065625,401.374354296875,252.6364065625C401.374354296875,252.6364065625,411.205954296875,246.7822265625,411.205954296875,246.7822265625C411.205954296875,246.7822265625,422.01045429687497,266.2392265625,422.01045429687497,266.2392265625C421.276554296875,266.9987265625,412.281254296875,271.7947265625,407.160654296875,273.6210265625C402.253454296875,275.3533265625,393.497134296875,276.7187265625,388.743484296875,277.0003265625C388.743484296875,277.0003265625,387.420654296875,259.4634265625,387.420654296875,259.4634265625Z" fill="url(#master_svgf_31_01829)" fill-opacity="1"/></g><g style="mix-blend-mode:passthrough" transform="matrix(0.9256551265716553,-0.37833550572395325,0.3783155679702759,0.9256901144981384,-62.0011273867276,173.05930021965105)"><path d="M409.4300537109375,270.6398796875C409.4300537109375,272.1574796875,410.6584637109375,273.38777968750003,412.1737937109375,273.38777968750003C412.1737937109375,273.38777968750003,412.1737937109375,273.38777968750003,412.1737937109375,273.38777968750003C413.6891237109375,273.38777968750003,414.9175337109375,272.1574796875,414.9175337109375,270.6398796875C414.9175337109375,270.6398796875,414.9175337109375,247.0946196875,414.9175337109375,247.0946196875C414.9175337109375,245.5769796875,413.6891237109375,244.3466796875,412.1737937109375,244.3466796875C412.1737937109375,244.3466796875,412.1737937109375,244.3466796875,412.1737937109375,244.3466796875C410.6584637109375,244.3466796875,409.4300537109375,245.5769796875,409.4300537109375,247.0946196875C409.4300537109375,247.0946196875,409.4300537109375,270.6398796875,409.4300537109375,270.6398796875Z" fill="url(#master_svgg_31_01921)" fill-opacity="1"/></g><g style="mix-blend-mode:passthrough"><path d="M323.95890044140623,288.16244375C323.95890044140623,288.16244375,326.8093824414062,261.02498375,326.8093824414062,261.02498375C326.8093824414062,261.02498375,385.56860244140626,258.46484375,385.56860244140626,258.46484375C385.56860244140626,258.46484375,391.5597024414062,283.75044375,391.5597024414062,283.75044375C392.09400244140625,285.29644375,392.47420244140625,286.89154375,392.69480244140624,288.51234375C392.69480244140624,288.51234375,392.92520244140627,289.45954375,392.92520244140627,289.45954375C392.92520244140627,289.45954375,392.80570244140625,289.45954375,392.80570244140625,289.45954375C392.8484024414063,289.87774375,392.89110244140625,290.30444375,392.89110244140625,290.73114375C396.09150244140625,312.96164375,378.6387024414063,320.35184375,359.47040244140624,321.18814375C340.3022024414063,322.02454375,323.19934144140626,316.65674375,323.50657942140623,293.77764375C323.50657942140623,293.35094375,323.50657942140623,292.92424375,323.50657942140623,292.49754375C323.50657942140623,292.49754375,323.5492539414063,292.12214375,323.5492539414063,292.12214375C323.5492539414063,292.12214375,323.5492539414063,292.12214375,323.5492539414063,292.12214375C323.5764423414063,290.79314375,323.71345544140627,289.46874375,323.95890044140623,288.16244375Z" fill-rule="evenodd" fill="url(#master_svgh_31_01850)" fill-opacity="1"/></g><g style="mix-blend-mode:passthrough"><path d="M350.4979768554688,288.00929234375Q346.99307685546876,287.19045234375,343.42647685546876,286.62523834375Q339.14747685546877,285.94713634375,338.59977685546875,286.25239834375Q338.20887685546876,286.48094034375,336.77637685546875,288.27601234375Q335.30417685546877,290.12079234375,334.52327685546874,290.88274234375Q333.08178685546875,292.28930234375,331.98971685546877,292.28930234375Q330.80674685546876,292.28930234375,328.09150685546877,291.68313234375Q326.1438268554688,291.24832234375,324.17289685546876,290.69175234375L324.44465785546873,289.72939234375Q326.3888268554688,290.27840234375,328.3093968554688,290.70716234375Q330.9170168554688,291.28930234375,331.98971685546877,291.28930234375Q332.67474685546875,291.28930234375,333.82493685546876,290.16700234375Q334.5613768554687,289.44845234375,335.99477685546873,287.65225234375Q337.5434768554687,285.71155864375,338.11297685546873,285.37890334375Q338.96257685546874,284.90535634375,343.58297685546876,285.63756324375Q347.18527685546877,286.20843634375,350.72547685546874,287.03552234375L350.4979768554688,288.00929234375Z" fill="#7AD2F2" fill-opacity="1"/></g><g style="mix-blend-mode:passthrough"><path d="M365.4303447578125,286.388696875Q369.0536267578125,285.242276875,372.4099367578125,284.409860875Q376.9711767578125,283.278611875,377.8551767578125,283.679146875Q378.4392767578125,283.941598875,380.1586767578125,285.747156875Q381.7322767578125,287.399586875,382.5229767578125,288.046506875Q383.7570767578125,289.056116875,384.4317767578125,288.995786875Q385.4935767578125,288.898766875,388.0252767578125,288.092526875Q389.9648767578125,287.474846875,391.7809767578125,286.774386875L392.1408767578125,287.707396875Q390.29687675781247,288.418616875,388.3287767578125,289.045376875Q385.6931767578125,289.884696875,384.5207767578125,289.991806875Q383.4397767578125,290.088486875,381.8897767578125,288.820506875Q381.0509767578125,288.134226875,379.4344767578125,286.436776875Q377.8503767578125,284.773319875,377.4424767578125,284.590010875Q376.8747767578125,284.332808875,372.6506567578125,285.380456875Q369.3250867578125,286.205246875,365.7320087578125,287.342106875L365.4303447578125,286.388696875Z" fill="#7AD2F2" fill-opacity="1"/></g><g style="mix-blend-mode:passthrough"><path d="M344.484130859375,297.50706171875C344.484130859375,305.57116171875,351.021810859375,312.10836171875,359.086430859375,312.10836171875C367.15113085937503,312.10836171875,373.688730859375,305.57116171875,373.688730859375,297.50706171875C373.688730859375,289.44298171875,367.15113085937503,282.90576171875,359.086430859375,282.90576171875C351.021810859375,282.90576171875,344.484130859375,289.44298171875,344.484130859375,297.50706171875Z" fill="url(#master_svgi_31_01847)" fill-opacity="1"/></g><g style="mix-blend-mode:passthrough"><path d="M347.19797234375,296.16698359375C347.10438624375,296.75943359375,347.07007034375,297.35983359375,347.09555068375,297.95903359375C347.09555068375,298.03593359375,347.09555068375,298.12123359375,347.09555068375,298.19803359375C347.31086734375,300.56543359375,348.44015234375,302.75583359375,350.24381234375,304.30443359375C352.04747234375,305.85303359375,354.38357234375,306.63803359375,356.75647234375,306.49283359375C358.31640234375,306.42703359375,359.83680234375,305.98183359375,361.18580234375,305.19573359375C362.51490234375,304.41283359375,363.62680234375,303.30973359375,364.42030234375,301.98703359375C363.79470234375,302.90673359375,362.95390234375,303.65953359375,361.97100234375,304.18023359375C360.70240234375,304.89053359375,359.24890234375,305.20123359375,357.80080234375,305.07183359375C356.35261234375,304.94243359375,354.97728234375,304.37883359375,353.85477234375,303.45483359375C352.51001234375,302.34133359375,351.65520234375,300.74513359375,351.47369234375,299.00873359375C350.99341234375,297.92053359375,350.79386234375,296.72933359375,350.89334234375,295.54403359375C350.99605234375,294.35374359375,351.39188234375,293.20740359375,352.04549234375,292.20731359375C352.71165234375,291.19116359375,353.61342234375,290.35094359375,354.67408234375,289.75812359375C355.74774234375,289.15970359375,356.94537234375,288.81795359375,358.17320234375,288.75965359375C358.17320234375,288.75965359375,358.64260234375,288.75965359375,358.64260234375,288.75965359375C359.47070234375,288.77313359375,360.29160234375,288.91713359375,361.07490234375,289.18634359375C363.25590234375,289.77488359375,365.19590234375,291.03581359375,366.61920234375,292.78995359375C368.04260234375,294.54408359375,368.87680234375,296.70223359375,369.00330234375,298.95753359375C369.06980234375,300.86153359375,368.62230234375,302.74823359375,367.70770234375,304.41953359375C366.79320234375,306.09093359375,365.44540234375,307.48503359375,363.80590234375,308.45563359375C365.98660234375,307.55653359375,367.83990234375,306.01163359375,369.11680234375,304.02843359375C370.39380234375,302.04533359375,371.03320234375,299.71883359375,370.94910234375,297.36173359375C370.75150234375,294.25685359375,369.33070234375,291.35706359375,366.99810234375,289.29820359375C364.66550234375,287.23933359375,361.61160234375,286.18943459375,358.50600234375,286.37872279375C356.10387234375,286.46253459375,353.78284234375,287.26884759375,351.84616234375,288.69233359375C349.90947234375,290.11582359375,348.44717234375,292.09030359375,347.65029334375,294.35782359375C347.43387834375,294.94254359375,347.28220034375,295.54921359375,347.19797234375,296.16698359375C347.19797234375,296.16698359375,347.19797234375,296.16698359375,347.19797234375,296.16698359375Z" fill-rule="evenodd" fill="#04BEFF" fill-opacity="1"/></g><g style="mix-blend-mode:passthrough"><path d="M366.9867955078125,289.28620359375C369.3183955078125,291.33782359375,370.7429955078125,294.22896359375,370.9491955078125,297.32773359375C371.0332955078125,299.68493359375,370.3938955078125,302.01133359375,369.1168955078125,303.99443359375C367.8399955078125,305.97763359375,365.9866955078125,307.52253359375,363.8059955078125,308.42163359375C365.4454955078125,307.45103359375,366.7932955078125,306.05693359375,367.7077955078125,304.38553359375C368.6223955078125,302.71423359375,369.0698955078125,300.82753359375,369.0033955078125,298.92353359375C368.8715955078125,296.67273359375,368.0350955078125,294.52032359375,366.6120955078125,292.77125359375C365.1891955078125,291.02219359375,363.2519955078125,289.76507359375,361.0749955078125,289.17794359375C360.2916955078125,288.90873359375,359.4707955078125,288.76473359375,358.6426955078125,288.75125359375C358.6426955078125,288.75125359375,358.2585955078125,288.75125359375,358.2585955078125,288.75125359375C357.9513955078125,288.75125359375,357.6440955078125,288.75125359375,357.3368955078125,288.75125359375C355.1450055078125,288.82195359375,353.0217655078125,289.53279359375,351.2291655078125,290.79602359375C349.4365555078125,292.05925359375,348.0530255078125,293.81961359375,347.2492742078125,295.85991359375C347.2231375078125,295.94984359375,347.1917913078125,296.03816359375,347.1553955078125,296.12445359375C347.2564345078125,295.51955359375,347.4223925078125,294.92729359375,347.6503915078125,294.35795359375C348.4472755078125,292.09044359375,349.9095655078125,290.11596359375,351.8462555078125,288.69247359375C353.7829455078125,287.26898259375,356.1039755078125,286.46266959375,358.5060955078125,286.37885789375C358.5060955078125,286.37885789375,358.5060955078125,286.37885789375,358.5060955078125,286.37885789375C361.6061955078125,286.18932059375,364.6551955078125,287.23458259375,366.9867955078125,289.28620359375Z" fill="#49C1FB" fill-opacity="1"/></g><g style="mix-blend-mode:passthrough"><path d="M364.420277734375,301.98686640625C363.616377734375,303.29606640625,362.498877734375,304.38416640625,361.168677734375,305.15296640625C359.819677734375,305.93896640625,358.299277734375,306.38426640625,356.739347734375,306.45006640625C354.366227734375,306.60246640625,352.027117734375,305.82416640625,350.21856773437503,304.28016640625C348.410007734375,302.73626640625,347.274411734375,300.54836640625,347.052826074375,298.18083640625C347.052826074375,298.10402640625,347.052826074375,298.01869640625,347.052826074375,297.94188640625C347.027345734375,297.34260640625,347.061661634375,296.74226640625,347.155247734375,296.14978640625C347.155247734375,296.14978640625,347.257655734375,295.88524640625,347.257655734375,295.88524640625C348.059507734375,293.84464640625,349.441167734375,292.08335640625,351.232217734375,290.81864640625C353.023267734375,289.55392840625,355.145357734375,288.84110590625,357.336777734375,288.76806640625C357.336777734375,288.76806640625,358.258477734375,288.76806640625,358.258477734375,288.76806640625C358.258477734375,288.76806640625,358.642477734375,288.76806640625,358.642477734375,288.76806640625C358.642477734375,288.76806640625,358.173077734375,288.76806640625,358.173077734375,288.76806640625C356.945317734375,288.82636340625,355.747687734375,289.16808940625,354.674027734375,289.76650540625C353.613367734375,290.35932640625,352.711607734375,291.19954640625,352.045437734375,292.21569640625C351.391837734375,293.21578640625,350.996007734375,294.36212640625,350.893297734375,295.55241640625C350.793817734375,296.73767640625,350.993357734375,297.92895640625,351.473637734375,299.01716640625C351.655147734375,300.75356640625,352.509957734375,302.34976640625,353.854727734375,303.46326640625C355.223587734375,304.60576640625,356.972627734375,305.19076640625,358.753477734375,305.10176640625C359.891577734375,305.07736640625,361.006977734375,304.77876640625,362.005077734375,304.23126640625003C362.981377734375,303.69166640625,363.810677734375,302.92106640625,364.420277734375,301.98686640625Z" fill="#6BC8F2" fill-opacity="1"/></g><g style="mix-blend-mode:passthrough"><path d="M369.0033259765625,298.974665625C369.06982597656247,300.878665625,368.6223259765625,302.765465625,367.70772597656253,304.436765625C366.7932259765625,306.108065625,365.4454259765625,307.502265625,363.8059259765625,308.472865625C362.4524259765625,309.046165625,361.0072259765625,309.372765625,359.5387259765625,309.437165625C358.0009259765625,309.533165625,356.4592159765625,309.325065625,355.0018359765625,308.824965625C353.5444559765625,308.32486562500003,352.19993597656253,307.542465625,351.0451259765625,306.522465625C349.8903259765625,305.502465625,348.9478759765625,304.264865625,348.2716559765625,302.880465625C347.5954289765625,301.496065625,347.1986961765625,299.991965625,347.1041259765625,298.454135625C347.1041259765625,298.368795625,347.1041259765625,298.283475625,347.1041259765625,298.198135625C347.3152579765625,300.566365625,348.4418359765625,302.758865625,350.2443559765625,304.309465625C352.0468759765625,305.860065625,354.3831659765625,306.646465625,356.7565059765625,306.501565625C358.3171259765625,306.432765625,359.8375259765625,305.984565625,361.1858259765625,305.195865625C362.5149259765625,304.412965625,363.6268259765625,303.309865625,364.4203259765625,301.987165625C364.8474259765625,301.321465625,365.1510259765625,300.584365625,365.3165259765625,299.811065625C365.3677259765625,299.606265625,365.4359259765625,299.401365625,365.4359259765625,299.196565625C365.5570259765625,298.264605625,365.4781259765625,297.317495625,365.2044259765625,296.418405625C364.9307259765625,295.519315625,364.4684259765625,294.688875625,363.8485259765625,293.982435625C363.2168259765625,293.263985625,362.4441259765625,292.683045625,361.57842597656247,292.275685625C360.7022259765625,291.863335625,359.7522259765625,291.631205625,358.7846259765625,291.593095625C357.8170259765625,291.554975625,356.8516159765625,291.711645625,355.9457459765625,292.053795625C355.0442659765625,292.391655625,354.2220859765625,292.911665625,353.5305159765625,293.581345625C352.8485559765625,294.232695625,352.3125959765625,295.021355625,351.9580359765625,295.895175625C351.6034859765625,296.768985625,351.4384159765625,297.708085625,351.4737259765625,298.650425625C351.4737259765625,298.650425625,351.4737259765625,299.008865625,351.4737259765625,299.008865625C350.9934459765625,297.920685625,350.7938959765625,296.729405625,350.8933759765625,295.544135625C350.9960859765625,294.353855625,351.3919159765625,293.207515625,352.0455259765625,292.207425625C352.7116859765625,291.191265625,353.6134559765625,290.351045625,354.6741159765625,289.758230625C355.7477759765625,289.159814625,356.9454059765625,288.818062625,358.1732259765625,288.759765625C358.1732259765625,288.759765625,358.6426259765625,288.759765625,358.6426259765625,288.759765625C359.4708259765625,288.772530225,360.2918259765625,288.916548625,361.0749259765625,289.186454625C363.2579259765625,289.777095625,365.1991259765625,291.040905625,366.6225259765625,292.798185625C368.0459259765625,294.555465625,368.8790259765625,296.716755625,369.0033259765625,298.974665625Z" fill="#95E4FF" fill-opacity="1"/></g><g style="mix-blend-mode:passthrough"><path d="M364.00218251953123,270.79615625C364.00218251953123,270.79615625,389.90398251953127,257.91015625,389.90398251953127,257.91015625C389.90398251953127,257.91015625,323.63458251953125,267.36559625,323.63458251953125,267.36559625C323.63458251953125,267.36559625,352.47228251953123,273.82565625,352.47228251953123,273.82565625C352.47228251953123,273.82565625,358.92418251953126,277.75975625,358.92418251953126,277.75975625C358.92418251953126,277.75975625,364.00218251953123,270.79615625,364.00218251953123,270.79615625Z" fill="url(#master_svgj_31_01906)" fill-opacity="1"/></g><g style="mix-blend-mode:passthrough"><path d="M353.7523853515625,279.7651984375C356.7991853515625,280.8319984375,359.4021853515625,280.1150984375,359.1290853515625,278.2035984375C358.8986853515625,276.5820984375,356.00548535156247,275.5239984375,351.5419853515625,271.2997384375C348.7939853515625,268.7395984375,338.1088853515625,269.3540284375,334.2854853515625,268.7395984375C329.5062853515625,267.9715584375,322.1837453515625,261.6650684375,319.3759363515625,264.4300194375C316.5681253515625,267.1949684375,322.7128753515625,270.5146084375,328.1492753515625,272.0592284375C331.87028535156253,273.1259484375,340.6179853515625,274.4401984375,347.0102853515625,275.3361984375C348.88908535156247,277.3089984375,351.1956853515625,278.8241984375,353.7523853515625,279.7651984375Z" fill="url(#master_svgk_31_01856)" fill-opacity="1"/></g><g style="mix-blend-mode:passthrough"><path d="M362.9780540234375,278.476803125C360.3494740234375,280.345703125,357.6526080234375,280.388403125,357.3795080234375,278.476803125C357.1490800234375,276.863903125,359.6240540234375,275.029103125,362.7305640234375,269.729703125C364.6337340234375,266.486803125,375.0798240234375,264.080303125,378.5789240234375,262.424733125C382.94852402343747,260.351023125,388.2142240234375,252.260983125,391.6877240234375,254.121348125C395.1612240234375,255.981713125,390.1856240234375,260.888623125,385.4064240234375,263.892503125C382.1292240234375,265.957703125,374.0898240234375,269.669903125,368.2096240234375,272.341003125C366.9578040234375,274.759303125,365.1680840234375,276.858303125,362.9780540234375,278.476803125Z" fill="url(#master_svgl_31_01863)" fill-opacity="1"/></g><g style="mix-blend-mode:passthrough" transform="matrix(0.9886146187782288,-0.15057522058486938,0.15056616067886353,0.9885838627815247,-31.965360094207426,48.32673649116987)"><path d="M303.11370849609375,256.0352796875C303.11370849609375,267.5302796875,324.12550849609374,276.8488796875,350.04490849609374,276.8488796875C375.96430849609374,276.8488796875,396.97610849609373,267.5302796875,396.97610849609373,256.0352796875C396.97610849609373,244.5402496875,375.96430849609374,235.2216796875,350.04490849609374,235.2216796875C324.12550849609374,235.2216796875,303.11370849609375,244.5402496875,303.11370849609375,256.0352796875Z" fill="#FFFFFF" fill-opacity="1"/></g><g style="mix-blend-mode:passthrough"><path d="M258.5172953632813,210.54735546875C264.80713236328126,251.82535546875,301.2233223632812,274.22635546875,354.79362236328126,266.06835546875004C408.36342236328124,257.91035546875,436.42542236328126,225.67735546875,430.13542236328124,184.39985546875C423.8114223632813,143.11345546875,379.85042236328127,112.42590546875,332.45062236328124,119.64549546875C285.05062236328126,126.86507546875,252.22746236328126,169.26945546875,258.5172953632813,210.54735546875Z" fill="url(#master_svgm_31_01800)" fill-opacity="0.699999988079071"/></g><g style="mix-blend-mode:passthrough"><path d="M352.3015225585938,262.19385C300.2845225585937,270.12175,267.9562625585937,250.47695,263.82562255859375,223.35665C277.44652255859376,237.46295,303.39102255859376,243.41105,343.78422255859374,239.90365C376.26562255859375,237.13015000000001,421.9586225585938,223.82595,430.2376225585938,200.28125C430.32262255859376,216.41015,427.52362255859373,250.73295000000002,352.3015225585938,262.19385Z" fill="url(#master_svgn_31_01928)" fill-opacity="0.5"/></g><g style="mix-blend-mode:passthrough"><path d="M323.3871466796875,174.78283046875C315.39034667968747,165.48956046875,289.4032066796875,157.22033046875,281.8161466796875,164.77273046875C274.2802966796875,172.27393046875,287.0818566796875,199.47113046875,296.8622466796875,204.87303046875002C296.8622466796875,204.87303046875002,323.3871466796875,174.78283046875,323.3871466796875,174.78283046875Z" fill="url(#master_svgo_31_01880)" fill-opacity="1"/></g><g style="mix-blend-mode:passthrough"><path d="M397.2949380859375,192.54988984375C404.6515380859375,182.73608984375,407.1521380859375,155.59006984375,398.1483380859375,149.79562984375C389.1701380859375,144.04385984375,365.3848580859375,162.39148984375,362.2015380859375,173.12698984375C362.2015380859375,173.12698984375,397.2949380859375,192.54988984375,397.2949380859375,192.54988984375Z" fill="url(#master_svgp_31_01935)" fill-opacity="1"/></g><g style="mix-blend-mode:passthrough"><path d="M391.86696484375,192.41370859375002C398.93346484375,182.55720859375,403.22626484375,159.25992859375,395.99756484375,156.41817359375C388.82876484375,153.58495859375,367.02340484375,174.24520859375,363.43896484375,183.92260859375C363.43896484375,183.92260859375,391.86696484375,192.41370859375002,391.86696484375,192.41370859375002Z" fill="url(#master_svgq_31_01931)" fill-opacity="1"/></g><g style="mix-blend-mode:passthrough"><path d="M299.24330419921876,201.99719609375C289.55680419921873,194.70079609375,278.52185419921875,173.73325609375,284.58126419921877,168.86045609375C290.58946419921875,164.04740609375,317.55810419921875,177.26624609375,323.84790419921876,185.42449609375C323.84790419921876,185.42449609375,299.24330419921876,201.99719609375,299.24330419921876,201.99719609375Z" fill="url(#master_svgr_31_01886)" fill-opacity="1"/></g><g style="mix-blend-mode:passthrough"><path d="M414.6794794921875,225.48175703125C417.49547949218754,243.97445703124998,392.6434794921875,260.29995703125,354.5972794921875,266.09395703125C316.5510794921875,271.88895703125,287.5853594921875,263.76395703125,284.7690164921875,245.28015703124998C284.2372414921875,241.61865703125,284.7213954921875,237.88145703125,286.1686494921875,234.47635703125002C285.4870194921875,232.11275703125,284.9624394921875,229.70665703125002,284.5983314921875,227.27385703125C279.3752894921875,193.01065703125,303.6897794921875,166.07805703125,337.9552794921875,160.85538003125C372.2207794921875,155.63270703125,403.4564794921875,174.09985703125,408.6794794921875,208.36295703125C408.9934794921875,210.42155703125002,409.1984794921875,212.49535703125,409.2944794921875,214.57555703125C409.2944794921875,214.57555703125,409.2944794921875,214.57555703125,409.2944794921875,214.57555703125C412.1354794921875,217.59375703125,414.0104794921875,221.39125703125,414.6794794921875,225.48175703125Z" fill-rule="evenodd" fill="url(#master_svgs_31_01823)" fill-opacity="1"/></g><g style="mix-blend-mode:passthrough"><path d="M367.594771875,238.7506310625Q367.120171875,239.8713040625,365.514871875,240.9237740625Q363.443571875,242.2818040625,360.381571875,242.7451640625Q355.440271875,243.6014740625,350.907771875,241.4301840625L351.123771875,240.9792540625L351.509571875,241.2973640625Q350.614771875,242.3824440625,348.687571875,243.4391240625Q346.131571875,244.8406040625,342.954871875,245.3806640625Q339.752971875,245.9250040625,337.287791875,245.2505340625Q335.390591875,244.7314640625,334.570706875,243.7699340625Q334.538754875,243.73246406250001,334.514726875,243.68948406250001Q334.490698875,243.6464940625,334.475518875,243.5996440625Q334.460338875,243.5527940625,334.454589875,243.5038940625Q334.448841875,243.4549840625,334.452744875,243.4058940625Q334.456647875,243.3568040625,334.470053875,243.3094140625Q334.483458875,243.2620240625,334.505850875,243.2181640625Q334.528243875,243.1743040625,334.558762875,243.1356540625Q334.589280875,243.0970140625,334.626753875,243.0650540625Q334.664225875,243.0331040625,334.707211875,243.0090740625Q334.750197875,242.9850440625,334.797045875,242.9698640625Q334.843893875,242.9546840625,334.892802475,242.9489440625Q334.941711405,242.9431940625,334.990802175,242.9470940625Q335.039892875,242.9509940625,335.087278875,242.9644040625Q335.134664875,242.9778040625,335.178524875,243.0002040625Q335.222384875,243.0225940625,335.261033875,243.0531140625Q335.299682875,243.0836340625,335.331635875,243.1211040625Q335.951631875,243.8482140625,337.551691875,244.2859840625Q339.803481875,244.9020740625,342.787271875,244.3948040625Q345.798171875,243.8829240625,348.206871875,242.5622740625Q349.965571875,241.5979840625,350.738071875,240.6611540625L350.986971875,240.3592940625L351.339871875,240.5283340625Q355.584171875,242.5616240625,360.231971875,241.7564240625Q363.077971875,241.3257440625,364.966571875,240.0874940625Q366.317771875,239.2015990625,366.673871875,238.3606970625Q366.693071875,238.3153490625,366.720771875,238.2746190625Q366.748471875,238.2338890625,366.783571875,238.1993420625Q366.818671875,238.1647950625,366.859771875,238.1377580625Q366.900971875,238.1107220625,366.946571875,238.0922340625Q366.99227187500003,238.0737470625,367.040571875,238.0645200625Q367.08897187499997,238.0552920625,367.138271875,238.0556790625Q367.187471875,238.0560670625,367.235671875,238.0660530625Q367.283971875,238.0760400625,367.329271875,238.0952430625Q367.374571875,238.1144450625,367.415371875,238.1421260625Q367.456071875,238.1698060625,367.490671875,238.2049010625Q367.525171875,238.2399960625,367.552171875,238.2811560625Q367.579271875,238.3223160625,367.597771875,238.3679600625Q367.616171875,238.4136040625,367.625471875,238.4619771625Q367.634671875,238.5103506625,367.634271875,238.5595948425Q367.633871875,238.6088390625,367.623871875,238.6570610625Q367.613971875,238.7052840625,367.594771875,238.7506310625Z" fill="#2B4859" fill-opacity="1"/></g><g style="mix-blend-mode:passthrough"><path d="M355.3397939453125,242.23363359375C353.9037939453125,241.95349359375,352.5038939453125,241.51265559375,351.1664939453125,240.91943359375C349.5693939453125,242.41840359374999,347.6646439453125,243.55124359375,345.5850039453125,244.23907359375C343.5322739453125,244.93349359375,341.3643639453125,245.22330359375,339.2012939453125,245.09245359375C340.9423039453125,250.08472359375,347.4540339453125,259.00253359375,354.2814939453125,257.89313359375C360.5030939453125,256.88613359375,363.2511939453125,246.32985359375,363.0889939453125,241.53386759375C360.5822939453125,242.30142359375,357.9434939453125,242.53971359375,355.3397939453125,242.23363359375Z" fill="#E28080" fill-opacity="1"/><path d="M363.2353939453125,242.01195359375Q359.3338939453125,243.20660359375,355.2813939453125,242.73021359375L355.2625939453125,242.72800359375L355.2440939453125,242.72438359375Q353.0277939453125,242.29202359375,350.9637939453125,241.37648859375L351.1664939453125,240.91943359375L351.5086939453125,241.28401459375Q349.0037239453125,243.63498359375,345.7420139453125,244.71378359375Q342.5441939453125,245.79558359375,339.1711028453125,245.59154359375L339.2012939453125,245.09245359375L339.6734079453125,244.92781359375Q340.3493539453125,246.86605359375,341.7545139453125,249.08738359375Q343.2968639453125,251.52563359375,345.1885639453125,253.42843359375001Q347.3253739453125,255.57773359375,349.5040939453125,256.61133359375Q351.9399939453125,257.76703359375,354.2013939453125,257.39963359375Q356.2290939453125,257.07143359375,357.9402939453125,255.24473359375Q359.4724939453125,253.60933359375,360.6196939453125,250.93713359375Q361.6302939453125,248.58334359375,362.1656939453125,245.87474359375Q362.6522939453125,243.41295359375,362.5892939453125,241.55076259375L363.0889939453125,241.53386759375L363.2353939453125,242.01195359375ZM362.9425939453125,241.05577759375L363.5666939453125,240.86469229375L363.5886939453125,241.51697159375Q363.6555939453125,243.49407359375,363.1466939453125,246.06866359375Q362.5907939453125,248.88082359375,361.5385939453125,251.33163359375Q360.3221939453125,254.16503359375,358.6700939453125,255.92843359375001Q356.7255939453125,258.00403359375,354.3616939453125,258.38663359375Q351.79289394531247,258.80403359375,349.0754139453125,257.51483359375Q346.7391739453125,256.40643359375,344.4793939453125,254.13343359375Q342.5103739453125,252.15283359375,340.9094039453125,249.62198359375Q339.4429089453125,247.30368359375,338.7291799453125,245.25710359375L338.4818949453125,244.54802359375L339.2314840453125,244.59336359375Q342.4091739453125,244.78559359375,345.4279939453125,243.76436359375Q348.4802439453125,242.75484359375,350.8242939453125,240.55485259375L351.0660939453125,240.32792759375L351.3691939453125,240.46237859375Q353.3300939453125,241.33214359375,355.4355939453125,241.74288259375L355.3397939453125,242.23363359375L355.3981939453125,241.73705059375Q359.2419939453125,242.18891359375,362.9425939453125,241.05577759375Z" fill="#2B4859" fill-opacity="1"/></g><g style="mix-blend-mode:passthrough"><path d="M355.134924609375,242.703060625C353.813224609375,242.439228625,352.521044609375,242.044732625,351.277374609375,241.525390625C350.236124609375,242.420572625,349.089774609375,243.185720625,347.863624609375,243.803920625C346.547884609375,244.400730625,345.186584609375,244.891550625,343.792724609375,245.271720625C346.755484609375,246.417980625,349.988104609375,246.675990625,353.09519460937497,246.014170625C357.277024609375,245.246130625,359.367924609375,243.334560625,359.914124609375,242.771330625C358.321224609375,242.848130625,356.725024609375,242.825330625,355.134924609375,242.703060625Z" fill="#FFFFFF" fill-opacity="1"/></g><g style="mix-blend-mode:passthrough"><path d="M358.4036509765625,253.216486875C357.9972109765625,254.187526875,357.3593009765625,255.044366875,356.5455909765625,255.712246875C355.7318709765625,256.380136875,354.7670809765625,256.838766875,353.7353709765625,257.048156875C351.6864009765625,257.185636875,349.6666409765625,256.504236875,348.1197509765625,255.153656875C349.2753909765625,253.583046875,350.9774409765625,252.502221875,352.8904809765625,252.124167875C352.8904809765625,252.124167875,352.8904809765625,252.124167875,352.8904809765625,252.124167875C354.7937609765625,251.973375875,356.7017009765625,252.351393875,358.4036509765625,253.216486875Z" fill="#F39C9C" fill-opacity="1"/></g><g style="mix-blend-mode:passthrough"><path d="M288.7265211171875,237.4188281875C288.6274921171875,237.5066711875,288.5670405771875,237.6299851875,288.5582521671875,237.7620631875C288.5582521671875,237.7620631875,288.5582521671875,237.7620631875,288.5582521671875,237.7620631875C288.5510214371875,237.8960421875,288.5958048171875,238.0276401875,288.6832611171875,238.1294001875C288.7707171171875,238.2311601875,288.8940941171875,238.2952221875,289.0276451171875,238.3082221875C289.0276451171875,238.3082221875,304.8247951171875,239.4261521875,304.8247951171875,239.4261521875C304.89049511718747,239.4307721875,304.9564951171875,239.4222321875,305.0187951171875,239.4010321875C305.0811951171875,239.3798321875,305.1386951171875,239.3463921875,305.1879951171875,239.3026821875C305.2372951171875,239.2589621875,305.2772951171875,239.2058521875,305.3057951171875,239.1464621875C305.3342951171875,239.0870621875,305.3506951171875,239.0225821875,305.3538951171875,238.9567921875C305.3538951171875,238.9567921875,305.3538951171875,238.9567921875,305.3538951171875,238.9567921875C305.3609951171875,238.8237121875,305.3159951171875,238.6931221875,305.2282951171875,238.5927321875C305.1406951171875,238.4923421875,305.0172951171875,238.4300721875,304.8844951171875,238.4191521875C304.8844951171875,238.4191521875,289.0873861171875,237.2927020185,289.0873861171875,237.2927020185C289.0873861171875,237.2927020185,289.0873861171875,237.2927020185,289.0873861171875,237.2927020185C288.9551931171875,237.2856793275,288.8255511171875,237.3309859875,288.7265211171875,237.4188281875Z" fill="url(#master_svgt_31_01877)" fill-opacity="1"/></g><g style="mix-blend-mode:passthrough"><path d="M406.8154349609375,219.9501067125C406.8763349609375,219.9813931125,406.9301349609375,220.0249968125,406.9734349609375,220.0781608125C407.0166349609375,220.1313238125,407.0484349609375,220.1928878125,407.0666349609375,220.2589508125C407.0666349609375,220.2589508125,407.0666349609375,220.2589508125,407.0666349609375,220.2589508125C407.1141349609375,220.3846428125,407.1103349609375,220.5239838125,407.0560349609375,220.6469148125C407.0018349609375,220.7698458125,406.9013349609375,220.8665148125,406.7764349609375,220.91605781250001C406.7764349609375,220.91605781250001,392.0375619609375,226.6422378125,392.0375619609375,226.6422378125C391.9765539609375,226.6670178125,391.9112109609375,226.6793878125,391.8453639609375,226.6786078125C391.7795169609375,226.6778178125,391.7144939609375,226.6638978125,391.6540899609375,226.6376778125C391.5936869609375,226.6114478125,391.5391159609375,226.5734378125,391.4935889609375,226.5258578125C391.4480620609375,226.4782878125,391.4124945609375,226.4221178125,391.3889537609375,226.3606178125C391.3889537609375,226.3606178125,391.3889537609375,226.3606178125,391.3889537609375,226.3606178125C391.3414100609375,226.2349278125,391.3451779609375,226.0955878125,391.3994628609375,225.9726578125C391.4537476609375,225.8497278125,391.5541949609375,225.7530578125,391.6791189609375,225.7035078125C391.6791189609375,225.7035078125,406.4180349609375,219.9261340125,406.4180349609375,219.9261340125C406.4823349609375,219.9024035625,406.5508349609375,219.8922795525,406.6192349609375,219.8964058975C406.6876349609375,219.9005322425,406.7544349609375,219.9188202125,406.8154349609375,219.9501067125Z" fill="url(#master_svgu_31_01810)" fill-opacity="1"/></g><g style="mix-blend-mode:passthrough"><path d="M289.12815800390626,244.5600015625C289.0687600039063,244.5884865625,289.01565100390627,244.6285565625,288.97193500390625,244.6778365625C288.92821810390626,244.7271065625,288.8947733039063,244.7846165625,288.87356980390626,244.8469865625C288.8523662639063,244.9093465625,288.84382636390626,244.9753165625,288.8484495539063,245.0410265625C288.8484495539063,245.0410265625,288.8484495539063,245.0410265625,288.8484495539063,245.0410265625C288.85169651390623,245.1079365625,288.86826780390624,245.1735265625,288.89718600390626,245.2339565625C288.92610410390625,245.2943865625,288.9667900039062,245.3484265625,289.0168620039062,245.3929365625C289.0669350039062,245.43744656249999,289.1253850039063,245.4715165625,289.18879100390626,245.4931465625C289.25219600390625,245.5147865625,289.31928400390626,245.5235365625,289.3861200039062,245.5189165625C289.3861200039062,245.5189165625,305.16622900390627,244.5716665625,305.16622900390627,244.5716665625C305.23192900390626,244.5684265625,305.29642900390627,244.5520805625,305.35582900390625,244.5235935625C305.41522900390623,244.4951065625,305.46832900390626,244.4550515625,305.51212900390624,244.4057745625C305.55582900390624,244.3564975625,305.58922900390627,244.2989915625,305.61042900390623,244.2366245625C305.63162900390626,244.1742585625,305.64022900390626,244.1082875625,305.63552900390624,244.0425775625C305.63552900390624,244.0425775625,305.63552900390624,244.0425775625,305.63552900390624,244.0425775625C305.63232900390625,243.9756665625,305.61572900390627,243.9100655625,305.58682900390625,243.8496375625C305.5579290039062,243.7892105625,305.51722900390627,243.7351635625,305.4671290039063,243.6906585625C305.41712900390627,243.6461524625,305.35862900390623,243.6120896625,305.29522900390623,243.5904575625C305.2318290039062,243.5688254625,305.16472900390625,243.5600545125,305.09792900390624,243.5646749325C305.09792900390624,243.5646749325,289.31784300390626,244.5119255625,289.31784300390626,244.5119255625C289.31784300390626,244.5119255625,289.31784300390626,244.5119255625,289.31784300390626,244.5119255625C289.25204600390623,244.5151705625,289.18755600390625,244.5315145625,289.12815800390626,244.5600015625Z" fill="url(#master_svgv_31_01899)" fill-opacity="1"/></g><g style="mix-blend-mode:passthrough"><path d="M408.561340625,226.8791719575C408.627240625,226.8886647375,408.690540625,226.9111193375,408.747740625,226.9452431375C408.804840625,226.9793674375,408.854640625,227.0244784375,408.894240625,227.0779714375C408.933840625,227.1314644375,408.962440625,227.1922734375,408.978440625,227.2568874375C408.978440625,227.2568874375,408.978440625,227.2568874375,408.978440625,227.2568874375C409.009340625,227.3881104375,408.987240625,227.5262364375,408.916940625,227.6412694375C408.846640625,227.7563034375,408.733740625,227.8389614375,408.602840625,227.8713214375C408.602840625,227.8713214375,393.241005625,231.6688634375,393.241005625,231.6688634375C393.177098625,231.6853834375,393.110532625,231.6889434375,393.045226625,231.6793534375C392.979920625,231.6697534375,392.917183625,231.6472134375,392.860724625,231.6130134375C392.804265625,231.5788234375,392.755217625,231.5336934375,392.716462225,231.4802634375C392.677706925,231.4268334375,392.650030325,231.3661934375,392.635059025,231.3019034375C392.635059025,231.3019034375,392.635059025,231.3019034375,392.635059025,231.3019034375C392.618455871,231.2374634375,392.614796045,231.1703634375,392.624289495,231.1044834375C392.633782925,231.0386134375,392.656239125,230.9752834375,392.690365325,230.9181534375C392.724491625,230.8610134375,392.769606625,230.8112034375,392.823102625,230.7716034375C392.876599625,230.7320134375,392.937425625,230.7034134375,393.002043625,230.6874734375C393.002043625,230.6874734375,408.363940625,226.8899407375,408.363940625,226.8899407375C408.363940625,226.8899407375,408.363940625,226.8899407375,408.363940625,226.8899407375C408.428340625,226.8733387315,408.495440625,226.8696791575,408.561340625,226.8791719575Z" fill="url(#master_svgw_31_01893)" fill-opacity="1"/></g><g style="mix-blend-mode:passthrough"><path d="M290.8131056742188,252.21769765625C290.7428027842187,252.33272765625,290.7207076742188,252.47085765625,290.75161377421875,252.60207765625C290.75161377421875,252.60207765625,290.75161377421875,252.60207765625,290.75161377421875,252.60207765625C290.76667907421876,252.66655765625,290.79431637421874,252.72742765625,290.83293887421877,252.78120765625C290.87156107421873,252.83498765625,290.92040907421875,252.88061765625,290.97669307421876,252.91549765625C291.03297707421876,252.95037765625,291.09558807421877,252.97380765625,291.1609410742187,252.98445765625C291.22629507421874,252.99510765625,291.29310707421877,252.99277765625,291.35755407421874,252.97756765625C291.35755407421874,252.97756765625,306.71947607421873,249.28243865625,306.71947607421873,249.28243865625C306.84847607421875,249.25002465625,306.95987607421876,249.16864765625,307.0299760742188,249.05555165625C307.10007607421875,248.94245565625,307.12337607421875,248.80651965625,307.0949760742187,248.67653365625C307.0949760742187,248.67653365625,307.0949760742187,248.67653365625,307.0949760742187,248.67653365625C307.07987607421876,248.61205965625,307.05227607421875,248.55119065625,307.01357607421875,248.49740965625C306.9749760742188,248.44362865625,306.92617607421874,248.39799665625,306.8698760742187,248.36311885625C306.81357607421876,248.32824115625,306.7509760742187,248.30480715625,306.6855760742188,248.29415689625C306.62027607421874,248.28350667625,306.55347607421874,248.28584217625,306.4889760742187,248.30104525625C306.4889760742187,248.30104525625,291.1271280742188,251.98764765625,291.1271280742188,251.98764765625C291.1271280742188,251.98764765625,291.1271280742188,251.98764765625,291.1271280742188,251.98764765625C290.9962480742187,252.02000765625,290.8834090742188,252.10266765625,290.8131056742188,252.21769765625Z" fill="url(#master_svgx_31_01883)" fill-opacity="1"/></g><g style="mix-blend-mode:passthrough"><path d="M409.046942578125,234.592727275C409.110342578125,234.613382975,409.168842578125,234.646623275,409.219042578125,234.690453375C409.269242578125,234.734284375,409.310142578125,234.787809375,409.339142578125,234.847806375C409.368142578125,234.907802375,409.384742578125,234.973043375,409.387942578125,235.039613375C409.387942578125,235.039613375,409.387942578125,235.039613375,409.387942578125,235.039613375C409.393742578125,235.105326375,409.386442578125,235.171538375,409.366242578125,235.234363375C409.346142578125,235.297187375,409.313642578125,235.355350375,409.270742578125,235.405439375C409.227842578125,235.455528375,409.175242578125,235.496529375,409.116242578125,235.526032375C409.057242578125,235.555534375,408.992942578125,235.572939375,408.927142578125,235.577229375C408.927142578125,235.577229375,393.147042578125,236.635429375,393.147042578125,236.635429375C393.012588578125,236.642449375,392.880777578125,236.596229375,392.780148578125,236.506789375C392.679519778125,236.417349375,392.618165448125,236.291879375,392.609372728125,236.157539375C392.609372728125,236.157539375,392.609372728125,236.157539375,392.609372728125,236.157539375C392.602261388125,236.024469375,392.647314678125,235.893869375,392.734960578125,235.793479375C392.822607578125,235.693089375,392.945943578125,235.630819375,393.078766578125,235.619899375C393.078766578125,235.619899375,408.850342578125,234.570252105,408.850342578125,234.570252105C408.850342578125,234.570252105,408.850342578125,234.570252105,408.850342578125,234.570252105C408.916642578125,234.564430215,408.983542578125,234.572071535,409.046942578125,234.592727275Z" fill="url(#master_svgy_31_01896)" fill-opacity="1"/></g><g style="mix-blend-mode:passthrough"><path d="M333.0992259765625,241.55102140625C326.6387059765625,242.31906140625,321.5778159765625,236.38809140625,320.0416259765625,234.56186140625C322.6019359765625,234.94588140625,328.4053159765625,234.63866140625,331.9897259765625,234.09250140625C336.7348259765625,233.36712440625,340.1998259765625,233.11110340625,341.9749259765625,232.56494140625C341.5824259765625,234.41677140625,339.5597259765625,240.78298140625,333.0992259765625,241.55102140625Z" fill="#C8E5ED" fill-opacity="1"/></g><g style="mix-blend-mode:passthrough"><path d="M368.26945546875,235.84179046875C361.94547546875,237.35228046875,356.67123546875,231.87357046875,354.96435546875,230.23509046875C359.08582546875,230.30736046875,363.20089546875,229.88040046875,367.21975546875,228.96355046875C371.84535546875,227.74322046875,375.25905546875,227.04345346875,376.99155546875,226.29248046875C376.80385546875,228.16138046875,374.59345546875,234.33131046875,368.26945546875,235.84179046875Z" fill="#C9E5EE" fill-opacity="1"/></g><g style="mix-blend-mode:passthrough" transform="matrix(0.9990406036376953,-0.043763794004917145,0.0438237302005291,0.9990406036376953,-11.808752325956448,14.65266971294568)"><path d="M328.7476806640625,279.8574065625C328.7476806640625,281.6248065625,330.0735606640625,283.0575765625,331.7091106640625,283.0575765625C333.3446606640625,283.0575765625,334.6705306640625,281.6248065625,334.6705306640625,279.8574065625C334.6705306640625,278.0899965625,333.3446606640625,276.6572265625,331.7091106640625,276.6572265625C330.0735606640625,276.6572265625,328.7476806640625,278.0899965625,328.7476806640625,279.8574065625Z" fill="url(#master_svgz_31_01200)" fill-opacity="1"/></g><g style="mix-blend-mode:passthrough" transform="matrix(0.9990406036376953,-0.043763794004917145,0.0438237302005291,0.9990406036376953,-11.6593887136587,16.923018418128777)"><path d="M380.6748046875,277.5859221875C380.6748046875,279.3533221875,382.0006846875,280.7860921875,383.6362346875,280.7860921875C385.2717846875,280.7860921875,386.5976546875,279.3533221875,386.5976546875,277.5859221875C386.5976546875,275.8185121875,385.2717846875,274.3857421875,383.6362346875,274.3857421875C382.0006846875,274.3857421875,380.6748046875,275.8185121875,380.6748046875,277.5859221875Z" fill="url(#master_svg10_31_01543)" fill-opacity="1"/></g><g style="mix-blend-mode:passthrough" transform="matrix(0.9990406036376953,-0.043763790279626846,0.0438237339258194,0.9990406036376953,-11.861099261353957,14.688713477976535)"><path d="M329.54473876953125,279.883130625C329.54473876953125,280.995420625,330.30511576953126,281.897090625,331.2430787695312,281.897090625C332.18104876953123,281.897090625,332.9414287695312,280.995420625,332.9414287695312,279.883130625C332.9414287695312,278.770842625,332.18104876953123,277.869140625,331.2430787695312,277.869140625C330.30511576953126,277.869140625,329.54473876953125,278.770842625,329.54473876953125,279.883130625Z" fill="url(#master_svg11_31_01807)" fill-opacity="1"/></g><g style="mix-blend-mode:passthrough" transform="matrix(0.9990406036376953,-0.043763794004917145,0.0438237339258194,0.9990406036376953,-11.708356001829088,17.004829305255043)"><path d="M382.518798828125,277.55744703125C382.518798828125,278.66973703125,383.279162828125,279.57140703125,384.217128828125,279.57140703125C385.155098828125,279.57140703125,385.915468828125,278.66973703125,385.915468828125,277.55744703125C385.915468828125,276.44515903125,385.155098828125,275.54345703125,384.217128828125,275.54345703125C383.279162828125,275.54345703125,382.518798828125,276.44515903125,382.518798828125,277.55744703125Z" fill="url(#master_svg12_31_01924)" fill-opacity="1"/></g><g style="mix-blend-mode:passthrough" transform="matrix(0.12981709837913513,-0.991524338722229,0.9915472269058228,0.129850834608078,-25.471148056294624,635.8724031274178)"><path d="M349.5504150390625,334.0671315625C349.5504150390625,334.9579715625,350.5170410390625,335.6801515625,351.7094350390625,335.6801515625C352.9018350390625,335.6801515625,353.8684550390625,334.9579715625,353.8684550390625,334.0671315625C353.8684550390625,333.1762865625,352.9018350390625,332.4541015625,351.7094350390625,332.4541015625C350.5170410390625,332.4541015625,349.5504150390625,333.1762865625,349.5504150390625,334.0671315625Z" fill="url(#master_svg13_31_01868)" fill-opacity="1"/></g><g style="mix-blend-mode:passthrough"><path d="M352.5404927734375,329.86706809375C352.5006627734375,329.74637809375,352.4301727734375,329.63807409375,352.3359227734375,329.55280709375C352.2416727734375,329.46753959375,352.1268927734375,329.40822479375,352.0028227734375,329.38063642375C351.8754737734375,329.37727071375,351.7493277734375,329.40597119375,351.6359837734375,329.46413049375C351.5226397734375,329.52229009375,351.4257437734375,329.60802609375,351.3542177734375,329.71344109375C351.1369577734375,330.00546609375,351.0014423734375,330.35011909375,350.9616302734375,330.71190109375C350.9069159734375,331.07251109375,350.9511701734375,331.44120109375,351.0896537734375,331.77863109375C351.1199087734375,331.90474109375,351.1877627734375,332.01870109375,351.2842347734375,332.10539109375C351.3807067734375,332.19208109375,351.5012347734375,332.24741109375,351.6298627734375,332.26407109375C351.7584917734375,332.28073109375,351.8891457734375,332.25791109375,352.0045227734375,332.19865109375C352.1198927734375,332.13939109375,352.2145527734375,332.04648109375,352.2759327734375,331.93223109375C352.4965927734375,331.64210109375,352.6324727734375,331.29650109375,352.6685027734375,330.93379109375C352.6685027734375,330.93379109375,352.6685027734375,330.93379109375,352.6685027734375,330.93379109375C352.7268027734375,330.57325109375,352.6824427734375,330.20358209375,352.5404927734375,329.86706809375Z" fill="url(#master_svg14_31_01909)" fill-opacity="1"/><path d="M352.5697927734375,330.91783109375Q352.6544127734375,330.39443109375,352.4483527734375,329.90593409375L352.4467927734375,329.90222709375L352.4455327734375,329.89840709375Q352.3930327734375,329.73932409375,352.2688327734375,329.62696309375Q352.1446527734375,329.51461709375,351.9811227734375,329.47825219375L352.0028227734375,329.38063642375L352.0001827734375,329.48060109375Q351.8316107734375,329.47614639375,351.6816367734375,329.55310109375Q351.5316317734375,329.63007209375,351.4369667734375,329.76958809375L351.4357467734375,329.77138709375L351.4344487734375,329.77313109375Q351.1188607734375,330.19732309375,351.0610297734375,330.72284109375L351.0608057734375,330.72488109375L351.0604987734375,330.72691109375Q350.9810387734375,331.25060109375,351.1821657734375,331.74066109375L351.1850947734375,331.74780109375L351.1868947734375,331.75530109375Q351.2260947734375,331.91870109375,351.3510737734375,332.03101109375Q351.4760587734375,332.14332109375,351.6427047734375,332.16490109375Q351.8093447734375,332.18648109375,351.9588327734375,332.10970109375Q352.1083127734375,332.03292109375,352.1878427734375,331.88490109375L352.1915727734375,331.87796109375L352.1963327734375,331.87169109375Q352.5166827734375,331.45049109375,352.5689927734375,330.92391109375L352.5693027734375,330.92086109375L352.5697927734375,330.91783109375ZM352.7672227734375,330.94975109375L352.6685027734375,330.93379109375L352.7680127734375,330.94368109375Q352.7101127734375,331.52654109375,352.3555227734375,331.99277109375L352.2759327734375,331.93223109375L352.3640227734375,331.97956109375Q352.2550427734375,332.18239109375,352.0502027734375,332.28760109375Q351.8453707734375,332.39281109375,351.6170217734375,332.36324109375Q351.3886657734375,332.33367109375,351.2173957734375,332.17977109375Q351.0461297734375,332.02587109375,350.9924127734375,331.80196109375L351.0896537734375,331.77863109375L350.9971420734375,331.81660109375Q350.7749977734375,331.27533109375,350.8627618734375,330.69690109375L350.9616302734375,330.71190109375L350.8622302734375,330.70097109375Q350.9259977734375,330.12149209375,351.2739857734375,329.65375009375L351.3542177734375,329.71344109375L351.2714677734375,329.65729309375Q351.3948387734375,329.47547079375,351.5903307734375,329.37515963375Q351.7857887734375,329.27486509375,352.0054627734375,329.28067129375L352.0151127734375,329.28092619375L352.0245327734375,329.28302059375Q352.2396527734375,329.33085469375,352.4030127734375,329.47865119375Q352.5664027734375,329.62646509375,352.6354627734375,329.83573009375L352.5404927734375,329.86706809375L352.6326327734375,329.82820209375Q352.8610227734375,330.36963909375,352.7672227734375,330.94975109375Z" fill="#FFFFFF" fill-opacity="1"/></g><g style="mix-blend-mode:passthrough"><path d="M347.197998046875,234.38249328125C347.197998046875,235.55133328125,348.145595046875,236.49886328125,349.314518046875,236.49886328125C350.483448046875,236.49886328125,351.431038046875,235.55133328125,351.431038046875,234.38249328125C351.431038046875,233.21364528125,350.483448046875,232.26611328125,349.314518046875,232.26611328125C348.145595046875,232.26611328125,347.197998046875,233.21364528125,347.197998046875,234.38249328125Z" fill="#ECA38C" fill-opacity="1"/></g><g style="mix-blend-mode:passthrough"><path d="M354.0254453125,170.8402859375C346.7542453125,176.3018859375,337.2895753125,175.7215859375,332.1689453125,174.9108859375C335.4120053125,173.1187859375,343.6818453125,169.2359859375,347.5308453125,165.1567859375C351.0811453125,161.3933959375,355.1434453125,155.9317659375,356.5858453125,152.4755859375C359.6240453125,156.2133859375,361.2967453125,165.3786859375,354.0254453125,170.8402859375Z" fill="url(#master_svg15_31_01833)" fill-opacity="1"/></g><g style="mix-blend-mode:passthrough"><path d="M312.61935685546877,225.9531409375Q315.29699685546876,221.8959809375,319.79379685546877,220.0491889375Q324.29057685546877,218.2024109375,329.04707685546873,219.2064109375Q333.8034768554688,220.2104219375,337.17017685546875,223.7170409375Q340.53677685546876,227.2236709375,341.34607685546877,232.0169109375L338.38787685546873,232.5163109375Q337.7325768554688,228.6345609375,335.00607685546873,225.7947209375Q332.27957685546875,222.9548509375,328.42747685546874,222.1417309375Q324.57527685546876,221.3286149375,320.9334968554688,222.8242709375Q317.29170685546876,224.3199209375,315.12319685546873,227.6056309375L312.61935685546877,225.9531409375Z" fill="#2B4859" fill-opacity="1"/></g><g style="mix-blend-mode:passthrough"><path d="M377.847318359375,218.11387984375Q374.653918359375,215.81397984375,370.719818359375,215.70912984375Q366.785718359375,215.60427984375,363.47425835937497,217.73082984375Q360.162878359375,219.85734984375,358.621788359375,223.47825984375Q357.080693359375,227.09918984375,357.843938359375,230.95958984375L354.900908359375,231.54148984375Q353.958438359375,226.77448984375,355.861397359375,222.30341984375Q357.764338359375,217.83231984375,361.853188359375,215.20651984375Q365.942028359375,212.58072984375,370.799718359375,212.71018984375Q375.657418359375,212.83965984375,379.600518359375,215.67950984375L377.847318359375,218.11387984375Z" fill="#2B4859" fill-opacity="1"/></g><g style="mix-blend-mode:passthrough"><rect x="299" y="40" width="160" height="56" rx="28" fill="#FFFFFF" fill-opacity="1"/></g><g style="mix-blend-mode:passthrough"><path d="M399.6673583984375,93.54931640625C399.6673583984375,93.54931640625,399.6673583984375,118.29731640625,399.6673583984375,118.29731640625C399.6673583984375,118.29731640625,416.9409583984375,93.54931640625,416.9409583984375,93.54931640625C416.9409583984375,93.54931640625,399.6673583984375,93.54931640625,399.6673583984375,93.54931640625Z" fill="#FFFFFF" fill-opacity="1"/></g></g></g></g><g style="mix-blend-mode:passthrough"><path d="M328.05729,60Q330.23438,60,331.4375,61.11979Q332.6406,62.239580000000004,332.776,63.666669999999996L331.26042,63.666669999999996Q331.00521,62.58854,330.23438,61.96354Q329.46354,61.333330000000004,328.07292,61.333330000000004Q326.38021,61.333330000000004,325.33333,62.5625Q324.29167,63.791669999999996,324.29167,66.3333Q324.29167,68.4115,325.23438,69.7083Q326.17708,71,328.04167,71Q329.76042,71,330.66146,69.6042Q331.13542,68.8646,331.36979,67.6667L332.8854,67.6667Q332.6823,69.5417,331.54167,70.8073Q330.17188,72.33330000000001,327.85417,72.33330000000001Q325.85417,72.33330000000001,324.49479,71.099Q322.703125,69.4635,322.703125,66.0521Q322.703125,63.458330000000004,324.04688,61.802080000000004Q325.5,60,328.05729,60ZM338.3408,71Q339.7367,71,340.2575,69.8594Q340.7783,68.7135,340.7783,67.3125Q340.7783,66.0417,340.4033,65.25Q339.8096,64,338.3565,64Q337.0648,64,336.4762,65.06771Q335.8929,66.1302,335.8929,67.6302Q335.8929,69.0729,336.4762,70.0365Q337.0648,71,338.3408,71ZM338.3981,62.666669999999996Q340.0127,62.666669999999996,341.1273,63.83854Q342.2471,65.00521,342.2471,67.276Q342.2471,69.4688,341.2627,70.901Q340.2783,72.33330000000001,338.2106,72.33330000000001Q336.4815,72.33330000000001,335.4658,71.0677Q334.4502,69.8021,334.4502,67.6667Q334.4502,65.38021,335.5179,64.02604Q336.5908,62.666669999999996,338.3981,62.666669999999996ZM344.3379,63L345.7285,63L345.7285,64.10417Q346.2285,63.458330000000004,346.6348,63.166669999999996Q347.3327,62.666669999999996,348.2129,62.666669999999996Q349.2129,62.666669999999996,349.8223,63.177080000000004Q350.166,63.47396,350.4473,64.04167Q350.916,63.34375,351.5463,63.00521Q352.1817,62.666669999999996,352.9733,62.666669999999996Q354.6608,62.666669999999996,355.2702,63.99479Q355.5983,64.71354,355.5983,65.92188L355.5983,72L354.1348,72L354.1348,65.60938Q354.1348,64.6875,353.7181,64.34375Q353.3015,64,352.6973,64Q351.8692,64,351.2702,64.60938Q350.6765,65.21875,350.6765,66.6458L350.6765,72L349.2442,72L349.2442,66.0052Q349.2442,65.07292,349.041,64.64062Q348.7233,64,347.8483,64Q347.0515,64,346.3952,64.67188Q345.7442,65.33854,345.7442,67.1198L345.7442,72L344.3379,72L344.3379,63ZM357.9912,63L359.4235,63L359.4235,72L357.9912,72L357.9912,63ZM357.9912,60.333330000000004L359.4235,60.333330000000004L359.4235,61.666669999999996L357.9912,61.666669999999996L357.9912,60.333330000000004ZM361.9779,63L363.3165,63L363.3165,64.11979Q363.91020000000003,63.34375,364.5717,63.00521Q365.2383,62.666669999999996,366.0508,62.666669999999996Q367.83209999999997,62.666669999999996,368.45709999999997,64.02083Q368.8008,64.76562,368.8008,66.1458L368.8008,72L367.3685,72L367.3685,66.2135Q367.3685,65.36979,367.14459999999997,64.85938Q366.76959999999997,64,365.78520000000003,64Q365.28520000000003,64,364.9623,64.10938Q364.3842,64.30208,363.9467,64.86458Q363.59770000000003,65.31771,363.4883,65.80208Q363.3842,66.2865,363.3842,67.1875L363.3842,72L361.9779,72L361.9779,63ZM374.251,62.666669999999996Q375.2354,62.666669999999996,375.9698,63.1875Q376.37080000000003,63.479169999999996,376.7823,64.04167L376.7823,63L378.0792,63L378.0792,71.151Q378.0792,72.85419999999999,377.6104,73.8438Q376.7354,75.66669999999999,374.30830000000003,75.66669999999999Q372.9542,75.66669999999999,372.0323,75.099Q371.1104,74.5365,371.001,73.33330000000001L372.43330000000003,73.33330000000001Q372.5375,73.7552,372.8396,73.9844Q373.3187,74.33330000000001,374.3396,74.33330000000001Q375.9594,74.33330000000001,376.4594,73.1094Q376.751,72.3906,376.7302,70.5417Q376.30830000000003,71.2812,375.7146,71.6406Q375.12080000000003,72,374.1469,72Q372.7875,72,371.7667,70.9583Q370.74580000000003,69.9115,370.74580000000003,67.5Q370.74580000000003,65.22396,371.7719,63.947919999999996Q372.7979,62.666669999999996,374.251,62.666669999999996ZM376.7823,67.2708Q376.7823,65.60417,376.1417,64.80208Q375.501,64,374.5115,64Q373.0271,64,372.4802,65.48958Q372.1885,66.2812,372.1885,67.5729Q372.1885,69.0833,372.7615,69.875Q373.3396,70.6667,374.30830000000003,70.6667Q375.824,70.6667,376.4385,69.2031Q376.7823,68.375,376.7823,67.2708ZM386.4744,68.3333Q386.5317,69.2865,386.9379,69.8854Q387.7087,71,389.6619,71Q390.5369,71,391.2556,70.7292Q392.6462,70.2135,392.6462,68.8698Q392.6462,67.8646,392.0629,67.4375Q391.4692,67.0729,390.2035,66.8021L388.6515,66.474Q387.1254,66.151,386.49,65.73438Q385.3962,65.00521,385.3962,63.5625Q385.3962,62.00521,386.464,61.00521Q387.5369,60,389.5004,60Q391.3025,60,392.5629,60.875Q393.8285,61.74479,393.8285,63.666669999999996L392.365,63.666669999999996Q392.2504,62.73438,391.865,62.239580000000004Q391.1567,61.333330000000004,389.4535,61.333330000000004Q388.0785,61.333330000000004,387.4744,61.927080000000004Q386.8754,62.51562,386.8754,63.29688Q386.8754,64.16146,387.5785,64.5625Q388.0369,64.81771,389.6619,65.20312L391.2712,65.57812Q392.4379,65.84896,393.0681,66.3229Q394.1619,67.1406,394.1619,68.7083Q394.1619,70.6562,392.7765,71.4948Q391.391,72.33330000000001,389.5525,72.33330000000001Q387.4119,72.33330000000001,386.2035,71.25Q384.99,70.1771,385.016,68.3333L386.4744,68.3333ZM399.5808,71Q400.9767,71,401.4975,69.8594Q402.0183,68.7135,402.0183,67.3125Q402.0183,66.0417,401.6433,65.25Q401.0496,64,399.5965,64Q398.3048,64,397.7162,65.06771Q397.1329,66.1302,397.1329,67.6302Q397.1329,69.0729,397.7162,70.0365Q398.3048,71,399.5808,71ZM399.6381,62.666669999999996Q401.2527,62.666669999999996,402.3673,63.83854Q403.4871,65.00521,403.4871,67.276Q403.4871,69.4688,402.5027,70.901Q401.5183,72.33330000000001,399.4506,72.33330000000001Q397.7215,72.33330000000001,396.7058,71.0677Q395.6902,69.8021,395.6902,67.6667Q395.6902,65.38021,396.7579,64.02604Q397.8308,62.666669999999996,399.6381,62.666669999999996ZM408.9008,71Q410.2967,71,410.8175,69.8594Q411.3383,68.7135,411.3383,67.3125Q411.3383,66.0417,410.9633,65.25Q410.3696,64,408.9165,64Q407.6248,64,407.0362,65.06771Q406.4529,66.1302,406.4529,67.6302Q406.4529,69.0729,407.0362,70.0365Q407.6248,71,408.9008,71ZM408.9581,62.666669999999996Q410.5727,62.666669999999996,411.6873,63.83854Q412.8071,65.00521,412.8071,67.276Q412.8071,69.4688,411.8227,70.901Q410.8383,72.33330000000001,408.7706,72.33330000000001Q407.0415,72.33330000000001,406.0258,71.0677Q405.0102,69.8021,405.0102,67.6667Q405.0102,65.38021,406.0779,64.02604Q407.1508,62.666669999999996,408.9581,62.666669999999996ZM414.8979,63L416.2365,63L416.2365,64.11979Q416.8302,63.34375,417.4917,63.00521Q418.1583,62.666669999999996,418.9708,62.666669999999996Q420.7521,62.666669999999996,421.3771,64.02083Q421.7208,64.76562,421.7208,66.1458L421.7208,72L420.2885,72L420.2885,66.2135Q420.2885,65.36979,420.0646,64.85938Q419.6896,64,418.7052,64Q418.2052,64,417.8823,64.10938Q417.3042,64.30208,416.8667,64.86458Q416.5177,65.31771,416.4083,65.80208Q416.3042,66.2865,416.3042,67.1875L416.3042,72L414.8979,72L414.8979,63ZM424.556,70.6667L426.187,70.6667L426.187,72L424.556,72L424.556,70.6667ZM429.21,70.6667L430.84000000000003,70.6667L430.84000000000003,72L429.21,72L429.21,70.6667ZM433.863,70.6667L435.493,70.6667L435.493,72L433.863,72L433.863,70.6667Z" fill="#00B9E3" fill-opacity="1"/></g></g></svg>