<svg xmlns="http://www.w3.org/2000/svg" xmlns:xlink="http://www.w3.org/1999/xlink" fill="none" version="1.1" width="712" height="400" viewBox="0 0 712 400"><defs><clipPath id="master_svg0_31_6950"><rect x="0" y="0" width="712" height="400" rx="0"/></clipPath></defs><g style="mix-blend-mode:passthrough" clip-path="url(#master_svg0_31_6950)"><rect x="0" y="0" width="712" height="400" rx="0" fill="#FFFFFF" fill-opacity="1"/><g style="mix-blend-mode:passthrough"><g style="mix-blend-mode:passthrough"><path d="M285.916441953125,199.4993078125C285.916441953125,161.0693078125,317.069751953125,129.9160178125,355.499751953125,129.9160178125C393.930251953125,129.9160178125,425.083251953125,161.0693078125,425.083251953125,199.4993078125C425.083251953125,237.9290078125,393.930251953125,269.0830078125,355.499751953125,269.0830078125C317.069751953125,269.0830078125,285.916441953125,237.9290078125,285.916441953125,199.4993078125ZM296.353951953125,199.4993078125C296.353951953125,232.1120078125,322.886951953125,258.6450078125,355.499751953125,258.6450078125C388.112251953125,258.6450078125,414.645251953125,232.1120078125,414.645251953125,199.4993078125C414.645251953125,166.88650781249999,388.112251953125,140.3535078125,355.499751953125,140.3535078125C322.886951953125,140.3535078125,296.353951953125,166.88650781249999,296.353951953125,199.4993078125Z" fill-rule="evenodd" fill="#00B9E3" fill-opacity="0.7799999713897705"/></g><g style="mix-blend-mode:passthrough"><path d="M378.4966233398437,176.884765625C389.04932333984374,176.884765625,397.60412333984374,186.815005625,397.60412333984374,199.064465625C397.60412333984374,211.313965625,389.04932333984374,221.244165625,378.4966233398437,221.244165625C374.50962333984376,221.244165625,370.96122333984374,219.067065625,367.4547233398438,215.984265625C367.4547233398438,215.984265625,366.8707233398437,215.462265625,366.8707233398437,215.462265625C366.67602333984377,215.285665625,366.48142333984373,215.106465625,366.28702333984376,214.924965625C366.28702333984376,214.924965625,365.70322333984376,214.373265625,365.70322333984376,214.373265625C365.70322333984376,214.373265625,365.1189233398437,213.808865625,365.1189233398437,213.808865625C365.1189233398437,213.808865625,364.53392333984374,213.232965625,364.53392333984374,213.232965625C364.53392333984374,213.232965625,363.94752333984377,212.646765625,363.94752333984377,212.646765625C363.94752333984377,212.646765625,363.06472333984374,211.751165625,363.06472333984374,211.751165625C363.06472333984374,211.751165625,339.33952333984377,192.188665625,339.33952333984377,192.188665625C339.33952333984377,192.188665625,338.4332233398437,191.557265625,338.4332233398437,191.557265625C335.71882333984377,189.677365625,333.8483233398438,188.914465625,332.50392333984377,188.914465625C326.94082333984375,188.914465625,322.41868333984377,193.451965625,322.41868333984377,199.064465625C322.41868333984377,204.676965625,326.94082333984375,209.214465625,332.50392333984377,209.214465625C332.61162333984373,209.214465625,332.72132333984376,209.210265625,332.83322333984376,209.201665625C332.83322333984376,209.201665625,333.06022333984373,209.178665625,333.06022333984373,209.178665625C333.06022333984373,209.178665625,333.1762233398438,209.162665625,333.1762233398438,209.162665625C333.1762233398438,209.162665625,333.41332333984377,209.12146562499998,333.41332333984377,209.12146562499998C333.65392333984374,209.074065625,333.90552333984374,209.007865625,334.17022333984374,208.921565625C334.17022333984374,208.921565625,334.43942333984376,208.828365625,334.43942333984376,208.828365625C334.43942333984376,208.828365625,334.71782333984373,208.721365625,334.71782333984373,208.721365625C334.71782333984373,208.721365625,335.15382333984377,208.534165625,335.15382333984377,208.534165625C335.15382333984377,208.534165625,335.5351233398437,208.353065625,335.5351233398437,208.353065625C335.5351233398437,208.353065625,335.93372333984377,208.148365625,335.93372333984377,208.148365625C335.93372333984377,208.148365625,336.26582333984373,207.967165625,336.26582333984373,207.967165625C336.26582333984373,207.967165625,336.61002333984374,207.770365625,336.61002333984374,207.770365625C336.61002333984374,207.770365625,336.78682333984375,207.665865625,336.78682333984375,207.665865625C336.78682333984375,207.665865625,337.33702333984377,207.327765625,337.33702333984377,207.327765625C337.33702333984377,207.327765625,337.72062333984377,207.081365625,337.72062333984377,207.081365625C337.72062333984377,207.081365625,338.11852333984376,206.817965625,338.11852333984376,206.817965625C338.11852333984376,206.817965625,338.11852333984376,206.817965625,338.11852333984376,206.817965625C341.23702333984374,204.465365625,345.5079233398437,204.361465625,348.7371233398437,206.559665625C348.7371233398437,206.559665625,351.98312333984376,208.769365625,351.98312333984376,208.769365625C351.98312333984376,208.769365625,349.59482333984374,211.048865625,349.59482333984374,211.048865625C349.59482333984374,211.048865625,348.64752333984376,211.942765625,348.64752333984376,211.942765625C348.64752333984376,211.942765625,347.70282333984375,212.821165625,347.70282333984375,212.821165625C347.70282333984375,212.821165625,347.0743233398438,213.395965625,347.0743233398438,213.395965625C347.0743233398438,213.395965625,346.44662333984377,213.960665625,346.44662333984377,213.960665625C346.44662333984377,213.960665625,346.1329233398437,214.23886562500002,346.1329233398437,214.23886562500002C346.1329233398437,214.23886562500002,345.50602333984375,214.786065625,345.50602333984375,214.786065625C345.50602333984375,214.786065625,344.87952333984373,215.319865625,344.87952333984373,215.319865625C344.87952333984373,215.319865625,344.56632333984373,215.581365625,344.56632333984373,215.581365625C344.56632333984373,215.581365625,343.94012333984375,216.092865625,343.94012333984375,216.092865625C340.18262333984376,219.113665625,336.42342333984374,221.244165625,332.50392333984377,221.244165625C321.9511233398438,221.244165625,313.39642333984375,211.313865625,313.39642333984375,199.064465625C313.39642333984375,186.814915625,321.9511233398438,176.884765625,332.50392333984377,176.884765625C336.67862333984374,176.884765625,340.60242333984377,179.279905625,344.5489233398437,182.604015625C344.5489233398437,182.604015625,345.2070233398438,183.166395625,345.2070233398438,183.166395625C345.2070233398438,183.166395625,345.8657233398437,183.744465625,345.8657233398437,183.744465625C345.8657233398437,183.744465625,346.52542333984377,184.336715625,346.52542333984377,184.336715625C346.52542333984377,184.336715625,347.18632333984374,184.941645625,347.18632333984374,184.941645625C347.18632333984374,184.941645625,347.84892333984374,185.557745625,347.84892333984374,185.557745625C347.84892333984374,185.557745625,348.51322333984376,186.183535625,348.51322333984376,186.183535625C348.51322333984376,186.183535625,369.9058233398438,204.031665625,369.9058233398438,204.031665625C369.9058233398438,204.031665625,370.88232333984377,204.872265625,370.88232333984377,204.872265625C370.88232333984377,204.872265625,371.3064233398437,205.226465625,371.3064233398437,205.226465625C371.3064233398437,205.226465625,372.00142333984377,205.792165625,372.00142333984377,205.792165625C372.00142333984377,205.792165625,372.50622333984376,206.192565625,372.50622333984376,206.192565625C373.10062333984376,206.656865625,373.65012333984373,207.060065625,374.1603233398437,207.407365625C374.1603233398437,207.407365625,374.58822333984375,207.691365625,374.58822333984375,207.691365625C376.2620233398437,208.773765625,377.49202333984374,209.214465625,378.4966233398437,209.214465625C384.05972333984374,209.214465625,388.58182333984377,204.676965625,388.58182333984377,199.064465625C388.58182333984377,193.451965625,384.05962333984377,188.914465625,378.4966233398437,188.914465625C377.7079233398438,188.914465625,376.76142333984376,189.195265625,375.5652233398437,189.845965625C375.5652233398437,189.845965625,375.1988233398437,190.052365625,375.1988233398437,190.052365625C374.88692333984375,190.233765625,374.55902333984375,190.438765625,374.21352333984373,190.668865625C374.21352333984373,190.668865625,373.79022333984375,190.957065625,373.79022333984375,190.957065625C373.79022333984375,190.957065625,373.79022333984375,190.957065625,373.79022333984375,190.957065625C370.42002333984374,193.301465625,366.11172333984376,193.810665625,362.6524233398437,191.599965625C362.6524233398437,191.599965625,359.71812333984377,189.724865625,359.71812333984377,189.724865625C359.71812333984377,189.724865625,365.9416233398438,183.474335625,365.9416233398438,183.474335625C365.9416233398438,183.474335625,366.52982333984374,182.930785625,366.52982333984374,182.930785625C370.35402333984376,179.443885625,374.2079233398438,176.884765625,378.4966233398437,176.884765625C378.4966233398437,176.884765625,378.4966233398437,176.884765625,378.4966233398437,176.884765625Z" fill-rule="evenodd" fill="#123049" fill-opacity="0.6392157077789307"/></g></g><g style="opacity:0.10000000149011612;mix-blend-mode:passthrough"><g style="mix-blend-mode:passthrough"><path d="M285.916441953125,31.999007812499997C285.916441953125,-6.661092187500003,317.069751953125,-38.0009721875,355.499751953125,-38.0009721875C393.930251953125,-38.0009721875,425.083251953125,-6.661092187500003,425.083251953125,31.999007812499997C425.083251953125,70.6590078125,393.930251953125,101.9990078125,355.499751953125,101.9990078125C317.069751953125,101.9990078125,285.916441953125,70.6590078125,285.916441953125,31.999007812499997ZM296.353951953125,31.999007812499997C296.353951953125,64.8070078125,322.886951953125,91.4990078125,355.499751953125,91.4990078125C388.112251953125,91.4990078125,414.645251953125,64.8070078125,414.645251953125,31.999007812499997C414.645251953125,-0.8090921874999992,388.112251953125,-27.5009921875,355.499751953125,-27.5009921875C322.886951953125,-27.5009921875,296.353951953125,-0.8090921874999992,296.353951953125,31.999007812499997Z" fill-rule="evenodd" fill="#00B9E3" fill-opacity="0.7799999713897705"/></g><g style="mix-blend-mode:passthrough"><path d="M378.4966233398437,9.2490234375C389.04932333984374,9.2490234375,397.60412333984374,19.2387234375,397.60412333984374,31.5615234375C397.60412333984374,43.8844234375,389.04932333984374,53.8740234375,378.4966233398437,53.8740234375C374.50962333984376,53.8740234375,370.96122333984374,51.6839234375,367.4547233398438,48.5826234375C367.4547233398438,48.5826234375,366.8707233398437,48.0575234375,366.8707233398437,48.0575234375C366.67602333984377,47.8798234375,366.48142333984373,47.6996234375,366.28702333984376,47.5169234375C366.28702333984376,47.5169234375,365.70322333984376,46.9620234375,365.70322333984376,46.9620234375C365.70322333984376,46.9620234375,365.1189233398437,46.3942234375,365.1189233398437,46.3942234375C365.1189233398437,46.3942234375,364.53392333984374,45.8148234375,364.53392333984374,45.8148234375C364.53392333984374,45.8148234375,363.94752333984377,45.2252234375,363.94752333984377,45.2252234375C363.94752333984377,45.2252234375,363.06472333984374,44.3242234375,363.06472333984374,44.3242234375C363.06472333984374,44.3242234375,339.33952333984377,24.6445234375,339.33952333984377,24.6445234375C339.33952333984377,24.6445234375,338.4332233398437,24.0094234375,338.4332233398437,24.0094234375C335.71882333984377,22.1182234375,333.8483233398438,21.3507234375,332.50392333984377,21.3507234375C326.94082333984375,21.3507234375,322.41868333984377,25.9154234375,322.41868333984377,31.5615234375C322.41868333984377,37.207623437500004,326.94082333984375,41.7723234375,332.50392333984377,41.7723234375C332.61162333984373,41.7723234375,332.72132333984376,41.7681234375,332.83322333984376,41.7595234375C332.83322333984376,41.7595234375,333.06022333984373,41.7363234375,333.06022333984373,41.7363234375C333.06022333984373,41.7363234375,333.1762233398438,41.7202234375,333.1762233398438,41.7202234375C333.1762233398438,41.7202234375,333.41332333984377,41.6788234375,333.41332333984377,41.6788234375C333.65392333984374,41.6311234375,333.90552333984374,41.5645234375,334.17022333984374,41.4776234375C334.17022333984374,41.4776234375,334.43942333984376,41.3839234375,334.43942333984376,41.3839234375C334.43942333984376,41.3839234375,334.71782333984373,41.2762234375,334.71782333984373,41.2762234375C334.71782333984373,41.2762234375,335.15382333984377,41.087923437499995,335.15382333984377,41.087923437499995C335.15382333984377,41.087923437499995,335.5351233398437,40.9057234375,335.5351233398437,40.9057234375C335.5351233398437,40.9057234375,335.93372333984377,40.6998234375,335.93372333984377,40.6998234375C335.93372333984377,40.6998234375,336.26582333984373,40.5176234375,336.26582333984373,40.5176234375C336.26582333984373,40.5176234375,336.61002333984374,40.3196234375,336.61002333984374,40.3196234375C336.61002333984374,40.3196234375,336.78682333984375,40.2144234375,336.78682333984375,40.2144234375C336.78682333984375,40.2144234375,337.33702333984377,39.874323437499996,337.33702333984377,39.874323437499996C337.33702333984377,39.874323437499996,337.72062333984377,39.6265234375,337.72062333984377,39.6265234375C337.72062333984377,39.6265234375,338.11852333984376,39.3614234375,338.11852333984376,39.3614234375C338.11852333984376,39.3614234375,338.11852333984376,39.3614234375,338.11852333984376,39.3614234375C341.23702333984374,36.9947234375,345.5079233398437,36.8903234375,348.7371233398437,39.101623437499995C348.7371233398437,39.101623437499995,351.98312333984376,41.3246234375,351.98312333984376,41.3246234375C351.98312333984376,41.3246234375,349.59482333984374,43.6177234375,349.59482333984374,43.6177234375C349.59482333984374,43.6177234375,348.64752333984376,44.5169234375,348.64752333984376,44.5169234375C348.64752333984376,44.5169234375,347.70282333984375,45.4006234375,347.70282333984375,45.4006234375C347.70282333984375,45.4006234375,347.0743233398438,45.9789234375,347.0743233398438,45.9789234375C347.0743233398438,45.9789234375,346.44662333984377,46.5469234375,346.44662333984377,46.5469234375C346.44662333984377,46.5469234375,346.1329233398437,46.8268234375,346.1329233398437,46.8268234375C346.1329233398437,46.8268234375,345.50602333984375,47.3772234375,345.50602333984375,47.3772234375C345.50602333984375,47.3772234375,344.87952333984373,47.9142234375,344.87952333984373,47.9142234375C344.87952333984373,47.9142234375,344.56632333984373,48.1773234375,344.56632333984373,48.1773234375C344.56632333984373,48.1773234375,343.94012333984375,48.6919234375,343.94012333984375,48.6919234375C340.18262333984376,51.7308234375,336.42342333984374,53.8740234375,332.50392333984377,53.8740234375C321.9511233398438,53.8740234375,313.39642333984375,43.8843234375,313.39642333984375,31.5615234375C313.39642333984375,19.2386334375,321.9511233398438,9.2490234375,332.50392333984377,9.2490234375C336.67862333984374,9.2490234375,340.60242333984377,11.6585034375,344.5489233398437,15.002523437499999C344.5489233398437,15.002523437499999,345.2070233398438,15.5682634375,345.2070233398438,15.5682634375C345.2070233398438,15.5682634375,345.8657233398437,16.1497934375,345.8657233398437,16.1497934375C345.8657233398437,16.1497934375,346.52542333984377,16.7455934375,346.52542333984377,16.7455934375C346.52542333984377,16.7455934375,347.18632333984374,17.3541434375,347.18632333984374,17.3541434375C347.18632333984374,17.3541434375,347.84892333984374,17.9739334375,347.84892333984374,17.9739334375C347.84892333984374,17.9739334375,348.51322333984376,18.6034734375,348.51322333984376,18.6034734375C348.51322333984376,18.6034734375,369.9058233398438,36.5585234375,369.9058233398438,36.5585234375C369.9058233398438,36.5585234375,370.88232333984377,37.404123437500004,370.88232333984377,37.404123437500004C370.88232333984377,37.404123437500004,371.3064233398437,37.760423437499995,371.3064233398437,37.760423437499995C371.3064233398437,37.760423437499995,372.00142333984377,38.3295234375,372.00142333984377,38.3295234375C372.00142333984377,38.3295234375,372.50622333984376,38.7323234375,372.50622333984376,38.7323234375C373.10062333984376,39.1994234375,373.65012333984373,39.6050234375,374.1603233398437,39.9543234375C374.1603233398437,39.9543234375,374.58822333984375,40.2401234375,374.58822333984375,40.2401234375C376.2620233398437,41.3290234375,377.49202333984374,41.7723234375,378.4966233398437,41.7723234375C384.05972333984374,41.7723234375,388.58182333984377,37.207623437500004,388.58182333984377,31.5615234375C388.58182333984377,25.9154234375,384.05962333984377,21.3507234375,378.4966233398437,21.3507234375C377.7079233398438,21.3507234375,376.76142333984376,21.6332234375,375.5652233398437,22.287823437500002C375.5652233398437,22.287823437500002,375.1988233398437,22.4954234375,375.1988233398437,22.4954234375C374.88692333984375,22.6779234375,374.55902333984375,22.8841234375,374.21352333984373,23.1157234375C374.21352333984373,23.1157234375,373.79022333984375,23.4055234375,373.79022333984375,23.4055234375C373.79022333984375,23.4055234375,373.79022333984375,23.4055234375,373.79022333984375,23.4055234375C370.42002333984374,25.7640234375,366.11172333984376,26.2762234375,362.6524233398437,24.0523234375C362.6524233398437,24.0523234375,359.71812333984377,22.1660234375,359.71812333984377,22.1660234375C359.71812333984377,22.1660234375,365.9416233398438,15.8780534375,365.9416233398438,15.8780534375C365.9416233398438,15.8780534375,366.52982333984374,15.3312434375,366.52982333984374,15.3312434375C370.35402333984376,11.8234634375,374.2079233398438,9.2490234375,378.4966233398437,9.2490234375C378.4966233398437,9.2490234375,378.4966233398437,9.2490234375,378.4966233398437,9.2490234375Z" fill-rule="evenodd" fill="#123049" fill-opacity="0.6392157077789307"/></g></g><g style="opacity:0.10000000149011612;mix-blend-mode:passthrough"><g style="mix-blend-mode:passthrough"><path d="M454.916501953125,-52.50069218749999C454.916501953125,-90.9306921875,486.069851953125,-122.0839821875,524.499851953125,-122.0839821875C562.930251953125,-122.0839821875,594.083251953125,-90.9306921875,594.083251953125,-52.50069218749999C594.083251953125,-14.070992187499996,562.930251953125,17.0830078125,524.499851953125,17.0830078125C486.069851953125,17.0830078125,454.916501953125,-14.070992187499996,454.916501953125,-52.50069218749999ZM465.354051953125,-52.50069218749999C465.354051953125,-19.887992187500004,491.886951953125,6.645007812500012,524.499851953125,6.645007812500012C557.112251953125,6.645007812500012,583.645251953125,-19.887992187500004,583.645251953125,-52.50069218749999C583.645251953125,-85.1134921875,557.112251953125,-111.6464921875,524.499851953125,-111.6464921875C491.886951953125,-111.6464921875,465.354051953125,-85.1134921875,465.354051953125,-52.50069218749999Z" fill-rule="evenodd" fill="#00B9E3" fill-opacity="0.7799999713897705"/></g><g style="mix-blend-mode:passthrough"><path d="M547.496684375,-75.115234375C558.049384375,-75.115234375,566.604184375,-65.184994375,566.604184375,-52.935534375C566.604184375,-40.686034375,558.049384375,-30.755834375,547.496684375,-30.755834375C543.509684375,-30.755834375,539.961284375,-32.932934375,536.454784375,-36.015734375C536.454784375,-36.015734375,535.870784375,-36.537734375,535.870784375,-36.537734375C535.676084375,-36.714334375,535.481484375,-36.893534375,535.287084375,-37.075034375C535.287084375,-37.075034375,534.703284375,-37.626734375,534.703284375,-37.626734375C534.703284375,-37.626734375,534.118984375,-38.191134375,534.118984375,-38.191134375C534.118984375,-38.191134375,533.533984375,-38.767034375,533.533984375,-38.767034375C533.533984375,-38.767034375,532.947584375,-39.353234375,532.947584375,-39.353234375C532.947584375,-39.353234375,532.064784375,-40.248834375,532.064784375,-40.248834375C532.064784375,-40.248834375,508.339584375,-59.811334375,508.339584375,-59.811334375C508.339584375,-59.811334375,507.43328437499997,-60.442734375,507.43328437499997,-60.442734375C504.718884375,-62.322634375,502.848384375,-63.085534375,501.503984375,-63.085534375C495.940884375,-63.085534375,491.418744375,-58.548034375,491.418744375,-52.935534375C491.418744375,-47.323034375,495.940884375,-42.785534375,501.503984375,-42.785534375C501.611684375,-42.785534375,501.721384375,-42.789734375,501.833284375,-42.798334375C501.833284375,-42.798334375,502.060284375,-42.821334375,502.060284375,-42.821334375C502.060284375,-42.821334375,502.176284375,-42.837334375,502.176284375,-42.837334375C502.176284375,-42.837334375,502.413384375,-42.878534375,502.413384375,-42.878534375C502.653984375,-42.925934375,502.905584375,-42.992134375,503.170284375,-43.078434375C503.170284375,-43.078434375,503.439484375,-43.171634375,503.439484375,-43.171634375C503.439484375,-43.171634375,503.717884375,-43.278634374999996,503.717884375,-43.278634374999996C503.717884375,-43.278634374999996,504.153884375,-43.465834375,504.153884375,-43.465834375C504.153884375,-43.465834375,504.535184375,-43.646934375,504.535184375,-43.646934375C504.535184375,-43.646934375,504.933784375,-43.851634375,504.933784375,-43.851634375C504.933784375,-43.851634375,505.265884375,-44.032834375,505.265884375,-44.032834375C505.265884375,-44.032834375,505.610084375,-44.229634375,505.610084375,-44.229634375C505.610084375,-44.229634375,505.786884375,-44.334134375000005,505.786884375,-44.334134375000005C505.786884375,-44.334134375000005,506.337084375,-44.672234375,506.337084375,-44.672234375C506.337084375,-44.672234375,506.720684375,-44.918634374999996,506.720684375,-44.918634374999996C506.720684375,-44.918634374999996,507.118584375,-45.182034375,507.118584375,-45.182034375C507.118584375,-45.182034375,507.118584375,-45.182034375,507.118584375,-45.182034375C510.237084375,-47.534634374999996,514.507984375,-47.638534375,517.737184375,-45.440334375C517.737184375,-45.440334375,520.983184375,-43.230634375,520.983184375,-43.230634375C520.983184375,-43.230634375,518.594884375,-40.951134375,518.594884375,-40.951134375C518.594884375,-40.951134375,517.647584375,-40.057234375,517.647584375,-40.057234375C517.647584375,-40.057234375,516.7028843749999,-39.178834375,516.7028843749999,-39.178834375C516.7028843749999,-39.178834375,516.074384375,-38.604034375,516.074384375,-38.604034375C516.074384375,-38.604034375,515.446684375,-38.039334375,515.446684375,-38.039334375C515.446684375,-38.039334375,515.132984375,-37.761134375,515.132984375,-37.761134375C515.132984375,-37.761134375,514.506084375,-37.213934375,514.506084375,-37.213934375C514.506084375,-37.213934375,513.879584375,-36.680134375,513.879584375,-36.680134375C513.879584375,-36.680134375,513.566384375,-36.418634375,513.566384375,-36.418634375C513.566384375,-36.418634375,512.940184375,-35.907134375,512.940184375,-35.907134375C509.182684375,-32.886334375,505.423484375,-30.755834375,501.503984375,-30.755834375C490.951184375,-30.755834375,482.396484375,-40.686134375,482.396484375,-52.935534375C482.396484375,-65.185084375,490.951184375,-75.115234375,501.503984375,-75.115234375C505.678684375,-75.115234375,509.602484375,-72.720094375,513.548984375,-69.395984375C513.548984375,-69.395984375,514.207084375,-68.833604375,514.207084375,-68.833604375C514.207084375,-68.833604375,514.865784375,-68.255534375,514.865784375,-68.255534375C514.865784375,-68.255534375,515.525484375,-67.663284375,515.525484375,-67.663284375C515.525484375,-67.663284375,516.186384375,-67.058354375,516.186384375,-67.058354375C516.186384375,-67.058354375,516.848984375,-66.442254375,516.848984375,-66.442254375C516.848984375,-66.442254375,517.513284375,-65.816464375,517.513284375,-65.816464375C517.513284375,-65.816464375,538.905884375,-47.968334375,538.905884375,-47.968334375C538.905884375,-47.968334375,539.882384375,-47.127734375,539.882384375,-47.127734375C539.882384375,-47.127734375,540.306484375,-46.773534375,540.306484375,-46.773534375C540.306484375,-46.773534375,541.001484375,-46.207834375000004,541.001484375,-46.207834375000004C541.001484375,-46.207834375000004,541.506284375,-45.807434375,541.506284375,-45.807434375C542.100684375,-45.343134375000005,542.650184375,-44.939934375,543.160384375,-44.592634375C543.160384375,-44.592634375,543.5882843750001,-44.308634375,543.5882843750001,-44.308634375C545.262084375,-43.226234375000004,546.492084375,-42.785534375,547.496684375,-42.785534375C553.059784375,-42.785534375,557.581884375,-47.323034375,557.581884375,-52.935534375C557.581884375,-58.548034375,553.059684375,-63.085534375,547.496684375,-63.085534375C546.707984375,-63.085534375,545.761484375,-62.804734375,544.565284375,-62.154034375C544.565284375,-62.154034375,544.198884375,-61.947634375,544.198884375,-61.947634375C543.886984375,-61.766234374999996,543.559084375,-61.561234375,543.213584375,-61.331134375C543.213584375,-61.331134375,542.790284375,-61.042934375,542.790284375,-61.042934375C542.790284375,-61.042934375,542.790284375,-61.042934375,542.790284375,-61.042934375C539.420084375,-58.698534375,535.111784375,-58.189334375,531.652484375,-60.400034375000004C531.652484375,-60.400034375000004,528.718184375,-62.275134375,528.718184375,-62.275134375C528.718184375,-62.275134375,534.941684375,-68.525664375,534.941684375,-68.525664375C534.941684375,-68.525664375,535.529884375,-69.069214375,535.529884375,-69.069214375C539.354084375,-72.55611437499999,543.207984375,-75.115234375,547.496684375,-75.115234375C547.496684375,-75.115234375,547.496684375,-75.115234375,547.496684375,-75.115234375Z" fill-rule="evenodd" fill="#123049" fill-opacity="0.6392157077789307"/></g></g><g style="opacity:0.10000000149011612;mix-blend-mode:passthrough"><g style="mix-blend-mode:passthrough"><path d="M117.999751953125,-52.50069218749999C117.999751953125,-90.9306921875,149.33965195312499,-122.0839821875,187.99975195312498,-122.0839821875C226.660251953125,-122.0839821875,258.00025195312503,-90.9306921875,258.00025195312503,-52.50069218749999C258.00025195312503,-14.070992187499996,226.660251953125,17.0830078125,187.99975195312498,17.0830078125C149.33965195312499,17.0830078125,117.999751953125,-14.070992187499996,117.999751953125,-52.50069218749999ZM128.49975195312498,-52.50069218749999C128.49975195312498,-19.887992187500004,155.19165195312502,6.645007812500012,187.99975195312498,6.645007812500012C220.808251953125,6.645007812500012,247.500251953125,-19.887992187500004,247.500251953125,-52.50069218749999C247.500251953125,-85.1134921875,220.808251953125,-111.6464921875,187.99975195312498,-111.6464921875C155.19165195312502,-111.6464921875,128.49975195312498,-85.1134921875,128.49975195312498,-52.50069218749999Z" fill-rule="evenodd" fill="#00B9E3" fill-opacity="0.7799999713897705"/></g><g style="mix-blend-mode:passthrough"><path d="M211.134287109375,-75.115234375C221.75018710937502,-75.115234375,230.356187109375,-65.184994375,230.356187109375,-52.935534375C230.356187109375,-40.686034375,221.75018710937502,-30.755834375,211.134287109375,-30.755834375C207.123487109375,-30.755834375,203.553787109375,-32.932934375,200.026287109375,-36.015734375C200.026287109375,-36.015734375,199.438787109375,-36.537734375,199.438787109375,-36.537734375C199.242987109375,-36.714334375,199.047187109375,-36.893534375,198.851587109375,-37.075034375C198.851587109375,-37.075034375,198.264287109375,-37.626734375,198.264287109375,-37.626734375C198.264287109375,-37.626734375,197.676487109375,-38.191134375,197.676487109375,-38.191134375C197.676487109375,-38.191134375,197.087987109375,-38.767034375,197.087987109375,-38.767034375C197.087987109375,-38.767034375,196.498087109375,-39.353234375,196.498087109375,-39.353234375C196.498087109375,-39.353234375,195.609987109375,-40.248834375,195.609987109375,-40.248834375C195.609987109375,-40.248834375,171.742787109375,-59.811334375,171.742787109375,-59.811334375C171.742787109375,-59.811334375,170.830987109375,-60.442734375,170.830987109375,-60.442734375C168.100387109375,-62.322634375,166.218687109375,-63.085534375,164.866187109375,-63.085534375C159.269787109375,-63.085534375,154.720577109375,-58.548034375,154.720577109375,-52.935534375C154.720577109375,-47.323034375,159.269787109375,-42.785534375,164.866187109375,-42.785534375C164.974487109375,-42.785534375,165.084887109375,-42.789734375,165.197487109375,-42.798334375C165.197487109375,-42.798334375,165.425887109375,-42.821334375,165.425887109375,-42.821334375C165.425887109375,-42.821334375,165.542587109375,-42.837334375,165.542587109375,-42.837334375C165.542587109375,-42.837334375,165.780987109375,-42.878534375,165.780987109375,-42.878534375C166.023087109375,-42.925934375,166.276187109375,-42.992134375,166.542487109375,-43.078434375C166.542487109375,-43.078434375,166.813287109375,-43.171634375,166.813287109375,-43.171634375C166.813287109375,-43.171634375,167.093387109375,-43.278634374999996,167.093387109375,-43.278634374999996C167.093387109375,-43.278634374999996,167.531987109375,-43.465834375,167.531987109375,-43.465834375C167.531987109375,-43.465834375,167.915587109375,-43.646934375,167.915587109375,-43.646934375C167.915587109375,-43.646934375,168.316587109375,-43.851634375,168.316587109375,-43.851634375C168.316587109375,-43.851634375,168.65068710937499,-44.032834375,168.65068710937499,-44.032834375C168.65068710937499,-44.032834375,168.996887109375,-44.229634375,168.996887109375,-44.229634375C168.996887109375,-44.229634375,169.174787109375,-44.334134375000005,169.174787109375,-44.334134375000005C169.174787109375,-44.334134375000005,169.728187109375,-44.672234375,169.728187109375,-44.672234375C169.728187109375,-44.672234375,170.114187109375,-44.918634374999996,170.114187109375,-44.918634374999996C170.114187109375,-44.918634374999996,170.514387109375,-45.182034375,170.514387109375,-45.182034375C170.514387109375,-45.182034375,170.514387109375,-45.182034375,170.514387109375,-45.182034375C173.651587109375,-47.534634374999996,177.948087109375,-47.638534375,181.196587109375,-45.440334375C181.196587109375,-45.440334375,184.461987109375,-43.230634375,184.461987109375,-43.230634375C184.461987109375,-43.230634375,182.059387109375,-40.951134375,182.059387109375,-40.951134375C182.059387109375,-40.951134375,181.106487109375,-40.057234375,181.106487109375,-40.057234375C181.106487109375,-40.057234375,180.156087109375,-39.178834375,180.156087109375,-39.178834375C180.156087109375,-39.178834375,179.523887109375,-38.604034375,179.523887109375,-38.604034375C179.523887109375,-38.604034375,178.892387109375,-38.039334375,178.892387109375,-38.039334375C178.892387109375,-38.039334375,178.576887109375,-37.761134375,178.576887109375,-37.761134375C178.576887109375,-37.761134375,177.946187109375,-37.213934375,177.946187109375,-37.213934375C177.946187109375,-37.213934375,177.315887109375,-36.680134375,177.315887109375,-36.680134375C177.315887109375,-36.680134375,177.00088710937501,-36.418634375,177.00088710937501,-36.418634375C177.00088710937501,-36.418634375,176.370887109375,-35.907134375,176.370887109375,-35.907134375C172.590887109375,-32.886334375,168.809187109375,-30.755834375,164.866187109375,-30.755834375C154.250207109375,-30.755834375,145.644287109375,-40.686134375,145.644287109375,-52.935534375C145.644287109375,-65.185084375,154.250207109375,-75.115234375,164.866187109375,-75.115234375C169.065887109375,-75.115234375,173.013287109375,-72.720094375,176.983387109375,-69.395984375C176.983387109375,-69.395984375,177.645387109375,-68.833604375,177.645387109375,-68.833604375C177.645387109375,-68.833604375,178.308087109375,-68.255534375,178.308087109375,-68.255534375C178.308087109375,-68.255534375,178.971687109375,-67.663284375,178.971687109375,-67.663284375C178.971687109375,-67.663284375,179.636587109375,-67.058354375,179.636587109375,-67.058354375C179.636587109375,-67.058354375,180.30308710937499,-66.442254375,180.30308710937499,-66.442254375C180.30308710937499,-66.442254375,180.971387109375,-65.816464375,180.971387109375,-65.816464375C180.971387109375,-65.816464375,202.492087109375,-47.968334375,202.492087109375,-47.968334375C202.492087109375,-47.968334375,203.474487109375,-47.127734375,203.474487109375,-47.127734375C203.474487109375,-47.127734375,203.901087109375,-46.773534375,203.901087109375,-46.773534375C203.901087109375,-46.773534375,204.60018710937499,-46.207834375000004,204.60018710937499,-46.207834375000004C204.60018710937499,-46.207834375000004,205.108087109375,-45.807434375,205.108087109375,-45.807434375C205.705987109375,-45.343134375000005,206.258787109375,-44.939934375,206.772087109375,-44.592634375C206.772087109375,-44.592634375,207.202487109375,-44.308634375,207.202487109375,-44.308634375C208.886287109375,-43.226234375000004,210.123687109375,-42.785534375,211.134287109375,-42.785534375C216.730687109375,-42.785534375,221.279887109375,-47.323034375,221.279887109375,-52.935534375C221.279887109375,-58.548034375,216.730587109375,-63.085534375,211.134287109375,-63.085534375C210.34078710937501,-63.085534375,209.38878710937502,-62.804734375,208.185387109375,-62.154034375C208.185387109375,-62.154034375,207.816687109375,-61.947634375,207.816687109375,-61.947634375C207.502987109375,-61.766234374999996,207.173187109375,-61.561234375,206.825487109375,-61.331134375C206.825487109375,-61.331134375,206.39978710937498,-61.042934375,206.39978710937498,-61.042934375C206.39978710937498,-61.042934375,206.39978710937498,-61.042934375,206.39978710937498,-61.042934375C203.00938710937498,-58.698534375,198.675287109375,-58.189334375,195.195187109375,-60.400034375000004C195.195187109375,-60.400034375000004,192.243387109375,-62.275134375,192.243387109375,-62.275134375C192.243387109375,-62.275134375,198.504187109375,-68.525664375,198.504187109375,-68.525664375C198.504187109375,-68.525664375,199.09588710937498,-69.069214375,199.09588710937498,-69.069214375C202.942987109375,-72.55611437499999,206.819887109375,-75.115234375,211.134287109375,-75.115234375C211.134287109375,-75.115234375,211.134287109375,-75.115234375,211.134287109375,-75.115234375Z" fill-rule="evenodd" fill="#123049" fill-opacity="0.6392157077789307"/></g></g><g style="opacity:0.05999999865889549;mix-blend-mode:passthrough"><g style="mix-blend-mode:passthrough"><path d="M-49.083558046875,197.4993078125C-49.083558046875,159.0693078125,-17.930248046875,127.9160178125,20.499751953125,127.9160178125C58.930251953124994,127.9160178125,90.083251953125,159.0693078125,90.083251953125,197.4993078125C90.083251953125,235.9290078125,58.930251953124994,267.0830078125,20.499751953125,267.0830078125C-17.930248046875,267.0830078125,-49.083558046875,235.9290078125,-49.083558046875,197.4993078125ZM-38.646048046874995,197.4993078125C-38.646048046874995,230.1120078125,-12.113048046875,256.6450078125,20.499751953125,256.6450078125C53.112251953124996,256.6450078125,79.64525195312501,230.1120078125,79.64525195312501,197.4993078125C79.64525195312501,164.88650781249999,53.112251953124996,138.3535078125,20.499751953125,138.3535078125C-12.113048046875,138.3535078125,-38.646048046874995,164.88650781249999,-38.646048046874995,197.4993078125Z" fill-rule="evenodd" fill="#00B9E3" fill-opacity="0.7799999713897705"/></g><g style="mix-blend-mode:passthrough"><path d="M43.49662333984375,174.884765625C54.04932333984375,174.884765625,62.60412333984375,184.815005625,62.60412333984375,197.064465625C62.60412333984375,209.313965625,54.04932333984375,219.244165625,43.49662333984375,219.244165625C39.50962333984375,219.244165625,35.96122333984375,217.067065625,32.45472333984375,213.984265625C32.45472333984375,213.984265625,31.87072333984375,213.462265625,31.87072333984375,213.462265625C31.676023339843752,213.285665625,31.48142333984375,213.106465625,31.28702333984375,212.924965625C31.28702333984375,212.924965625,30.703223339843753,212.373265625,30.703223339843753,212.373265625C30.703223339843753,212.373265625,30.118923339843747,211.808865625,30.118923339843747,211.808865625C30.118923339843747,211.808865625,29.533923339843753,211.232965625,29.533923339843753,211.232965625C29.533923339843753,211.232965625,28.947523339843748,210.646765625,28.947523339843748,210.646765625C28.947523339843748,210.646765625,28.064723339843752,209.751165625,28.064723339843752,209.751165625C28.064723339843752,209.751165625,4.339523339843751,190.188665625,4.339523339843751,190.188665625C4.339523339843751,190.188665625,3.4332233398437495,189.557265625,3.4332233398437495,189.557265625C0.7188233398437482,187.677365625,-1.1516766601562516,186.914465625,-2.4960766601562483,186.914465625C-8.05917666015625,186.914465625,-12.58131666015625,191.451965625,-12.58131666015625,197.064465625C-12.58131666015625,202.676965625,-8.05917666015625,207.214465625,-2.4960766601562483,207.214465625C-2.3883766601562506,207.214465625,-2.2786766601562505,207.210265625,-2.1667766601562484,207.201665625C-2.1667766601562484,207.201665625,-1.9397766601562516,207.178665625,-1.9397766601562516,207.178665625C-1.9397766601562516,207.178665625,-1.8237766601562484,207.162665625,-1.8237766601562484,207.162665625C-1.8237766601562484,207.162665625,-1.5866766601562503,207.12146562499998,-1.5866766601562503,207.12146562499998C-1.3460766601562497,207.074065625,-1.09447666015625,207.007865625,-0.8297766601562486,206.921565625C-0.8297766601562486,206.921565625,-0.5605766601562507,206.828365625,-0.5605766601562507,206.828365625C-0.5605766601562507,206.828365625,-0.2821766601562494,206.721365625,-0.2821766601562494,206.721365625C-0.2821766601562494,206.721365625,0.15382333984375052,206.534165625,0.15382333984375052,206.534165625C0.15382333984375052,206.534165625,0.53512333984375,206.353065625,0.53512333984375,206.353065625C0.53512333984375,206.353065625,0.9337233398437483,206.148365625,0.9337233398437483,206.148365625C0.9337233398437483,206.148365625,1.2658233398437488,205.967165625,1.2658233398437488,205.967165625C1.2658233398437488,205.967165625,1.6100233398437496,205.770365625,1.6100233398437496,205.770365625C1.6100233398437496,205.770365625,1.7868233398437496,205.665865625,1.7868233398437496,205.665865625C1.7868233398437496,205.665865625,2.33702333984375,205.327765625,2.33702333984375,205.327765625C2.33702333984375,205.327765625,2.720623339843751,205.081365625,2.720623339843751,205.081365625C2.720623339843751,205.081365625,3.118523339843751,204.817965625,3.118523339843751,204.817965625C3.118523339843751,204.817965625,3.118523339843751,204.817965625,3.118523339843751,204.817965625C6.2370233398437485,202.465365625,10.50792333984375,202.361465625,13.737123339843748,204.559665625C13.737123339843748,204.559665625,16.98312333984375,206.769365625,16.98312333984375,206.769365625C16.98312333984375,206.769365625,14.59482333984375,209.048865625,14.59482333984375,209.048865625C14.59482333984375,209.048865625,13.647523339843751,209.942765625,13.647523339843751,209.942765625C13.647523339843751,209.942765625,12.702823339843746,210.821165625,12.702823339843746,210.821165625C12.702823339843746,210.821165625,12.074323339843751,211.395965625,12.074323339843751,211.395965625C12.074323339843751,211.395965625,11.446623339843747,211.960665625,11.446623339843747,211.960665625C11.446623339843747,211.960665625,11.13292333984375,212.23886562500002,11.13292333984375,212.23886562500002C11.13292333984375,212.23886562500002,10.50602333984375,212.786065625,10.50602333984375,212.786065625C10.50602333984375,212.786065625,9.87952333984375,213.319865625,9.87952333984375,213.319865625C9.87952333984375,213.319865625,9.566323339843748,213.581365625,9.566323339843748,213.581365625C9.566323339843748,213.581365625,8.940123339843751,214.092865625,8.940123339843751,214.092865625C5.182623339843751,217.113665625,1.423423339843751,219.244165625,-2.4960766601562483,219.244165625C-13.04887666015625,219.244165625,-21.60357666015625,209.313865625,-21.60357666015625,197.064465625C-21.60357666015625,184.814915625,-13.04887666015625,174.884765625,-2.4960766601562483,174.884765625C1.6786233398437496,174.884765625,5.6024233398437495,177.279905625,9.54892333984375,180.604015625C9.54892333984375,180.604015625,10.20702333984375,181.166395625,10.20702333984375,181.166395625C10.20702333984375,181.166395625,10.865723339843747,181.744465625,10.865723339843747,181.744465625C10.865723339843747,181.744465625,11.525423339843748,182.336715625,11.525423339843748,182.336715625C11.525423339843748,182.336715625,12.186323339843753,182.941645625,12.186323339843753,182.941645625C12.186323339843753,182.941645625,12.84892333984375,183.557745625,12.84892333984375,183.557745625C12.84892333984375,183.557745625,13.513223339843748,184.183535625,13.513223339843748,184.183535625C13.513223339843748,184.183535625,34.90582333984375,202.031665625,34.90582333984375,202.031665625C34.90582333984375,202.031665625,35.88232333984375,202.872265625,35.88232333984375,202.872265625C35.88232333984375,202.872265625,36.30642333984375,203.226465625,36.30642333984375,203.226465625C36.30642333984375,203.226465625,37.00142333984375,203.792165625,37.00142333984375,203.792165625C37.00142333984375,203.792165625,37.50622333984375,204.192565625,37.50622333984375,204.192565625C38.10062333984375,204.656865625,38.65012333984375,205.060065625,39.16032333984375,205.407365625C39.16032333984375,205.407365625,39.58822333984375,205.691365625,39.58822333984375,205.691365625C41.26202333984375,206.773765625,42.492023339843755,207.214465625,43.49662333984375,207.214465625C49.05972333984376,207.214465625,53.58182333984375,202.676965625,53.58182333984375,197.064465625C53.58182333984375,191.451965625,49.05962333984375,186.914465625,43.49662333984375,186.914465625C42.707923339843745,186.914465625,41.76142333984375,187.195265625,40.56522333984375,187.845965625C40.56522333984375,187.845965625,40.19882333984375,188.052365625,40.19882333984375,188.052365625C39.88692333984375,188.233765625,39.55902333984375,188.438765625,39.21352333984375,188.668865625C39.21352333984375,188.668865625,38.79022333984375,188.957065625,38.79022333984375,188.957065625C38.79022333984375,188.957065625,38.79022333984375,188.957065625,38.79022333984375,188.957065625C35.42002333984375,191.301465625,31.11172333984375,191.810665625,27.65242333984375,189.599965625C27.65242333984375,189.599965625,24.71812333984375,187.724865625,24.71812333984375,187.724865625C24.71812333984375,187.724865625,30.94162333984375,181.474335625,30.94162333984375,181.474335625C30.94162333984375,181.474335625,31.52982333984375,180.930785625,31.52982333984375,180.930785625C35.35402333984375,177.443885625,39.20792333984375,174.884765625,43.49662333984375,174.884765625C43.49662333984375,174.884765625,43.49662333984375,174.884765625,43.49662333984375,174.884765625Z" fill-rule="evenodd" fill="#123049" fill-opacity="0.6392157077789307"/></g></g><g style="opacity:0.10000000149011612;mix-blend-mode:passthrough"><g style="mix-blend-mode:passthrough"><path d="M-49.083558046875,29.999007812499997C-49.083558046875,-8.661092187500003,-17.930248046875,-40.0009721875,20.499751953125,-40.0009721875C58.930251953124994,-40.0009721875,90.083251953125,-8.661092187500003,90.083251953125,29.999007812499997C90.083251953125,68.6590078125,58.930251953124994,99.9990078125,20.499751953125,99.9990078125C-17.930248046875,99.9990078125,-49.083558046875,68.6590078125,-49.083558046875,29.999007812499997ZM-38.646048046874995,29.999007812499997C-38.646048046874995,62.807007812500004,-12.113048046875,89.4990078125,20.499751953125,89.4990078125C53.112251953124996,89.4990078125,79.64525195312501,62.807007812500004,79.64525195312501,29.999007812499997C79.64525195312501,-2.8090921874999992,53.112251953124996,-29.5009921875,20.499751953125,-29.5009921875C-12.113048046875,-29.5009921875,-38.646048046874995,-2.8090921874999992,-38.646048046874995,29.999007812499997Z" fill-rule="evenodd" fill="#00B9E3" fill-opacity="0.7799999713897705"/></g><g style="mix-blend-mode:passthrough"><path d="M43.49662333984375,7.2490234375C54.04932333984375,7.2490234375,62.60412333984375,17.2387234375,62.60412333984375,29.5615234375C62.60412333984375,41.8844234375,54.04932333984375,51.8740234375,43.49662333984375,51.8740234375C39.50962333984375,51.8740234375,35.96122333984375,49.6839234375,32.45472333984375,46.5826234375C32.45472333984375,46.5826234375,31.87072333984375,46.0575234375,31.87072333984375,46.0575234375C31.676023339843752,45.8798234375,31.48142333984375,45.6996234375,31.28702333984375,45.5169234375C31.28702333984375,45.5169234375,30.703223339843753,44.9620234375,30.703223339843753,44.9620234375C30.703223339843753,44.9620234375,30.118923339843747,44.3942234375,30.118923339843747,44.3942234375C30.118923339843747,44.3942234375,29.533923339843753,43.8148234375,29.533923339843753,43.8148234375C29.533923339843753,43.8148234375,28.947523339843748,43.2252234375,28.947523339843748,43.2252234375C28.947523339843748,43.2252234375,28.064723339843752,42.3242234375,28.064723339843752,42.3242234375C28.064723339843752,42.3242234375,4.339523339843751,22.6445234375,4.339523339843751,22.6445234375C4.339523339843751,22.6445234375,3.4332233398437495,22.0094234375,3.4332233398437495,22.0094234375C0.7188233398437482,20.1182234375,-1.1516766601562516,19.3507234375,-2.4960766601562483,19.3507234375C-8.05917666015625,19.3507234375,-12.58131666015625,23.9154234375,-12.58131666015625,29.5615234375C-12.58131666015625,35.207623437500004,-8.05917666015625,39.7723234375,-2.4960766601562483,39.7723234375C-2.3883766601562506,39.7723234375,-2.2786766601562505,39.7681234375,-2.1667766601562484,39.7595234375C-2.1667766601562484,39.7595234375,-1.9397766601562516,39.7363234375,-1.9397766601562516,39.7363234375C-1.9397766601562516,39.7363234375,-1.8237766601562484,39.7202234375,-1.8237766601562484,39.7202234375C-1.8237766601562484,39.7202234375,-1.5866766601562503,39.6788234375,-1.5866766601562503,39.6788234375C-1.3460766601562497,39.6311234375,-1.09447666015625,39.5645234375,-0.8297766601562486,39.4776234375C-0.8297766601562486,39.4776234375,-0.5605766601562507,39.3839234375,-0.5605766601562507,39.3839234375C-0.5605766601562507,39.3839234375,-0.2821766601562494,39.2762234375,-0.2821766601562494,39.2762234375C-0.2821766601562494,39.2762234375,0.15382333984375052,39.087923437499995,0.15382333984375052,39.087923437499995C0.15382333984375052,39.087923437499995,0.53512333984375,38.9057234375,0.53512333984375,38.9057234375C0.53512333984375,38.9057234375,0.9337233398437483,38.6998234375,0.9337233398437483,38.6998234375C0.9337233398437483,38.6998234375,1.2658233398437488,38.5176234375,1.2658233398437488,38.5176234375C1.2658233398437488,38.5176234375,1.6100233398437496,38.3196234375,1.6100233398437496,38.3196234375C1.6100233398437496,38.3196234375,1.7868233398437496,38.2144234375,1.7868233398437496,38.2144234375C1.7868233398437496,38.2144234375,2.33702333984375,37.874323437499996,2.33702333984375,37.874323437499996C2.33702333984375,37.874323437499996,2.720623339843751,37.6265234375,2.720623339843751,37.6265234375C2.720623339843751,37.6265234375,3.118523339843751,37.3614234375,3.118523339843751,37.3614234375C3.118523339843751,37.3614234375,3.118523339843751,37.3614234375,3.118523339843751,37.3614234375C6.2370233398437485,34.9947234375,10.50792333984375,34.8903234375,13.737123339843748,37.101623437499995C13.737123339843748,37.101623437499995,16.98312333984375,39.3246234375,16.98312333984375,39.3246234375C16.98312333984375,39.3246234375,14.59482333984375,41.6177234375,14.59482333984375,41.6177234375C14.59482333984375,41.6177234375,13.647523339843751,42.5169234375,13.647523339843751,42.5169234375C13.647523339843751,42.5169234375,12.702823339843746,43.4006234375,12.702823339843746,43.4006234375C12.702823339843746,43.4006234375,12.074323339843751,43.9789234375,12.074323339843751,43.9789234375C12.074323339843751,43.9789234375,11.446623339843747,44.5469234375,11.446623339843747,44.5469234375C11.446623339843747,44.5469234375,11.13292333984375,44.8268234375,11.13292333984375,44.8268234375C11.13292333984375,44.8268234375,10.50602333984375,45.3772234375,10.50602333984375,45.3772234375C10.50602333984375,45.3772234375,9.87952333984375,45.9142234375,9.87952333984375,45.9142234375C9.87952333984375,45.9142234375,9.566323339843748,46.1773234375,9.566323339843748,46.1773234375C9.566323339843748,46.1773234375,8.940123339843751,46.6919234375,8.940123339843751,46.6919234375C5.182623339843751,49.7308234375,1.423423339843751,51.8740234375,-2.4960766601562483,51.8740234375C-13.04887666015625,51.8740234375,-21.60357666015625,41.8843234375,-21.60357666015625,29.5615234375C-21.60357666015625,17.2386334375,-13.04887666015625,7.2490234375,-2.4960766601562483,7.2490234375C1.6786233398437496,7.2490234375,5.6024233398437495,9.6585034375,9.54892333984375,13.002523437499999C9.54892333984375,13.002523437499999,10.20702333984375,13.5682634375,10.20702333984375,13.5682634375C10.20702333984375,13.5682634375,10.865723339843747,14.1497934375,10.865723339843747,14.1497934375C10.865723339843747,14.1497934375,11.525423339843748,14.7455934375,11.525423339843748,14.7455934375C11.525423339843748,14.7455934375,12.186323339843753,15.3541434375,12.186323339843753,15.3541434375C12.186323339843753,15.3541434375,12.84892333984375,15.9739334375,12.84892333984375,15.9739334375C12.84892333984375,15.9739334375,13.513223339843748,16.6034734375,13.513223339843748,16.6034734375C13.513223339843748,16.6034734375,34.90582333984375,34.5585234375,34.90582333984375,34.5585234375C34.90582333984375,34.5585234375,35.88232333984375,35.404123437500004,35.88232333984375,35.404123437500004C35.88232333984375,35.404123437500004,36.30642333984375,35.760423437499995,36.30642333984375,35.760423437499995C36.30642333984375,35.760423437499995,37.00142333984375,36.3295234375,37.00142333984375,36.3295234375C37.00142333984375,36.3295234375,37.50622333984375,36.7323234375,37.50622333984375,36.7323234375C38.10062333984375,37.1994234375,38.65012333984375,37.6050234375,39.16032333984375,37.9543234375C39.16032333984375,37.9543234375,39.58822333984375,38.2401234375,39.58822333984375,38.2401234375C41.26202333984375,39.3290234375,42.492023339843755,39.7723234375,43.49662333984375,39.7723234375C49.05972333984376,39.7723234375,53.58182333984375,35.207623437500004,53.58182333984375,29.5615234375C53.58182333984375,23.9154234375,49.05962333984375,19.3507234375,43.49662333984375,19.3507234375C42.707923339843745,19.3507234375,41.76142333984375,19.6332234375,40.56522333984375,20.287823437500002C40.56522333984375,20.287823437500002,40.19882333984375,20.4954234375,40.19882333984375,20.4954234375C39.88692333984375,20.6779234375,39.55902333984375,20.8841234375,39.21352333984375,21.1157234375C39.21352333984375,21.1157234375,38.79022333984375,21.4055234375,38.79022333984375,21.4055234375C38.79022333984375,21.4055234375,38.79022333984375,21.4055234375,38.79022333984375,21.4055234375C35.42002333984375,23.7640234375,31.11172333984375,24.2762234375,27.65242333984375,22.0523234375C27.65242333984375,22.0523234375,24.71812333984375,20.1660234375,24.71812333984375,20.1660234375C24.71812333984375,20.1660234375,30.94162333984375,13.8780534375,30.94162333984375,13.8780534375C30.94162333984375,13.8780534375,31.52982333984375,13.3312434375,31.52982333984375,13.3312434375C35.35402333984375,9.8234634375,39.20792333984375,7.2490234375,43.49662333984375,7.2490234375C43.49662333984375,7.2490234375,43.49662333984375,7.2490234375,43.49662333984375,7.2490234375Z" fill-rule="evenodd" fill="#123049" fill-opacity="0.6392157077789307"/></g></g><g style="opacity:0.05000000074505806;mix-blend-mode:passthrough"><g style="mix-blend-mode:passthrough"><path d="M453.999751953125,283.9990078125C453.999751953125,245.3389078125,485.339651953125,213.9990278125,523.999751953125,213.9990278125C562.660251953125,213.9990278125,594.000251953125,245.3389078125,594.000251953125,283.9990078125C594.000251953125,322.6590078125,562.660251953125,353.9990078125,523.999751953125,353.9990078125C485.339651953125,353.9990078125,453.999751953125,322.6590078125,453.999751953125,283.9990078125ZM464.499751953125,283.9990078125C464.499751953125,316.8070078125,491.191651953125,343.4990078125,523.999751953125,343.4990078125C556.808251953125,343.4990078125,583.500251953125,316.8070078125,583.500251953125,283.9990078125C583.500251953125,251.1909078125,556.808251953125,224.4990078125,523.999751953125,224.4990078125C491.191651953125,224.4990078125,464.499751953125,251.1909078125,464.499751953125,283.9990078125Z" fill-rule="evenodd" fill="#00B9E3" fill-opacity="0.7799999713897705"/></g><g style="mix-blend-mode:passthrough"><path d="M547.134287109375,261.2490234375C557.750187109375,261.2490234375,566.356187109375,271.23872343749997,566.356187109375,283.5615234375C566.356187109375,295.8844234375,557.750187109375,305.8740234375,547.134287109375,305.8740234375C543.123487109375,305.8740234375,539.553787109375,303.68392343749997,536.026287109375,300.5826234375C536.026287109375,300.5826234375,535.438787109375,300.0575234375,535.438787109375,300.0575234375C535.242987109375,299.8798234375,535.047187109375,299.6996234375,534.851587109375,299.5169234375C534.851587109375,299.5169234375,534.264287109375,298.9620234375,534.264287109375,298.9620234375C534.264287109375,298.9620234375,533.676487109375,298.3942234375,533.676487109375,298.3942234375C533.676487109375,298.3942234375,533.087987109375,297.8148234375,533.087987109375,297.8148234375C533.087987109375,297.8148234375,532.498087109375,297.2252234375,532.498087109375,297.2252234375C532.498087109375,297.2252234375,531.609987109375,296.3242234375,531.609987109375,296.3242234375C531.609987109375,296.3242234375,507.742787109375,276.6445234375,507.742787109375,276.6445234375C507.742787109375,276.6445234375,506.830987109375,276.0094234375,506.830987109375,276.0094234375C504.100387109375,274.1182234375,502.218687109375,273.3507234375,500.866187109375,273.3507234375C495.269787109375,273.3507234375,490.720577109375,277.9154234375,490.720577109375,283.5615234375C490.720577109375,289.2076234375,495.269787109375,293.7723234375,500.866187109375,293.7723234375C500.974487109375,293.7723234375,501.084887109375,293.7681234375,501.197487109375,293.7595234375C501.197487109375,293.7595234375,501.425887109375,293.7363234375,501.425887109375,293.7363234375C501.425887109375,293.7363234375,501.542587109375,293.7202234375,501.542587109375,293.7202234375C501.542587109375,293.7202234375,501.780987109375,293.6788234375,501.780987109375,293.6788234375C502.023087109375,293.6311234375,502.276187109375,293.5645234375,502.542487109375,293.47762343750003C502.542487109375,293.47762343750003,502.813287109375,293.3839234375,502.813287109375,293.3839234375C502.813287109375,293.3839234375,503.093387109375,293.2762234375,503.093387109375,293.2762234375C503.093387109375,293.2762234375,503.531987109375,293.0879234375,503.531987109375,293.0879234375C503.531987109375,293.0879234375,503.915587109375,292.9057234375,503.915587109375,292.9057234375C503.915587109375,292.9057234375,504.316587109375,292.6998234375,504.316587109375,292.6998234375C504.316587109375,292.6998234375,504.650687109375,292.5176234375,504.650687109375,292.5176234375C504.650687109375,292.5176234375,504.996887109375,292.3196234375,504.996887109375,292.3196234375C504.996887109375,292.3196234375,505.174787109375,292.2144234375,505.174787109375,292.2144234375C505.174787109375,292.2144234375,505.72818710937497,291.8743234375,505.72818710937497,291.8743234375C505.72818710937497,291.8743234375,506.114187109375,291.6265234375,506.114187109375,291.6265234375C506.114187109375,291.6265234375,506.514387109375,291.3614234375,506.514387109375,291.3614234375C506.514387109375,291.3614234375,506.514387109375,291.3614234375,506.514387109375,291.3614234375C509.651587109375,288.9947234375,513.948087109375,288.8903234375,517.1965871093751,291.1016234375C517.1965871093751,291.1016234375,520.4619871093751,293.3246234375,520.4619871093751,293.3246234375C520.4619871093751,293.3246234375,518.059387109375,295.6177234375,518.059387109375,295.6177234375C518.059387109375,295.6177234375,517.106487109375,296.5169234375,517.106487109375,296.5169234375C517.106487109375,296.5169234375,516.156087109375,297.40062343750003,516.156087109375,297.40062343750003C516.156087109375,297.40062343750003,515.523887109375,297.9789234375,515.523887109375,297.9789234375C515.523887109375,297.9789234375,514.892387109375,298.5469234375,514.892387109375,298.5469234375C514.892387109375,298.5469234375,514.576887109375,298.8268234375,514.576887109375,298.8268234375C514.576887109375,298.8268234375,513.946187109375,299.3772234375,513.946187109375,299.3772234375C513.946187109375,299.3772234375,513.315887109375,299.9142234375,513.315887109375,299.9142234375C513.315887109375,299.9142234375,513.000887109375,300.1773234375,513.000887109375,300.1773234375C513.000887109375,300.1773234375,512.370887109375,300.6919234375,512.370887109375,300.6919234375C508.590887109375,303.7308234375,504.809187109375,305.8740234375,500.866187109375,305.8740234375C490.250207109375,305.8740234375,481.644287109375,295.88432343750003,481.644287109375,283.5615234375C481.644287109375,271.2386334375,490.250207109375,261.2490234375,500.866187109375,261.2490234375C505.065887109375,261.2490234375,509.013287109375,263.6585034375,512.983387109375,267.0025234375C512.983387109375,267.0025234375,513.645387109375,267.5682634375,513.645387109375,267.5682634375C513.645387109375,267.5682634375,514.308087109375,268.1497934375,514.308087109375,268.1497934375C514.308087109375,268.1497934375,514.971687109375,268.7455934375,514.971687109375,268.7455934375C514.971687109375,268.7455934375,515.636587109375,269.3541434375,515.636587109375,269.3541434375C515.636587109375,269.3541434375,516.303087109375,269.9739334375,516.303087109375,269.9739334375C516.303087109375,269.9739334375,516.971387109375,270.6034734375,516.971387109375,270.6034734375C516.971387109375,270.6034734375,538.492087109375,288.5585234375,538.492087109375,288.5585234375C538.492087109375,288.5585234375,539.474487109375,289.4041234375,539.474487109375,289.4041234375C539.474487109375,289.4041234375,539.901087109375,289.7604234375,539.901087109375,289.7604234375C539.901087109375,289.7604234375,540.600187109375,290.32952343750003,540.600187109375,290.32952343750003C540.600187109375,290.32952343750003,541.108087109375,290.7323234375,541.108087109375,290.7323234375C541.705987109375,291.1994234375,542.258787109375,291.6050234375,542.772087109375,291.9543234375C542.772087109375,291.9543234375,543.2024871093749,292.2401234375,543.2024871093749,292.2401234375C544.886287109375,293.3290234375,546.1236871093749,293.7723234375,547.134287109375,293.7723234375C552.730687109375,293.7723234375,557.279887109375,289.2076234375,557.279887109375,283.5615234375C557.279887109375,277.9154234375,552.7305871093749,273.3507234375,547.134287109375,273.3507234375C546.340787109375,273.3507234375,545.388787109375,273.6332234375,544.185387109375,274.2878234375C544.185387109375,274.2878234375,543.816687109375,274.4954234375,543.816687109375,274.4954234375C543.502987109375,274.6779234375,543.173187109375,274.8841234375,542.825487109375,275.1157234375C542.825487109375,275.1157234375,542.399787109375,275.4055234375,542.399787109375,275.4055234375C542.399787109375,275.4055234375,542.399787109375,275.4055234375,542.399787109375,275.4055234375C539.009387109375,277.7640234375,534.675287109375,278.2762234375,531.195187109375,276.0523234375C531.195187109375,276.0523234375,528.243387109375,274.1660234375,528.243387109375,274.1660234375C528.243387109375,274.1660234375,534.504187109375,267.8780534375,534.504187109375,267.8780534375C534.504187109375,267.8780534375,535.095887109375,267.3312434375,535.095887109375,267.3312434375C538.942987109375,263.8234634375,542.819887109375,261.2490234375,547.134287109375,261.2490234375C547.134287109375,261.2490234375,547.134287109375,261.2490234375,547.134287109375,261.2490234375Z" fill-rule="evenodd" fill="#123049" fill-opacity="0.6392157077789307"/></g></g><g style="opacity:0.05000000074505806;mix-blend-mode:passthrough"><g style="mix-blend-mode:passthrough"><path d="M117.999755859375,283.9990234375C117.999755859375,245.3389234375,149.339655859375,213.9990234375,187.999755859375,213.9990234375C226.659755859375,213.9990234375,257.999755859375,245.3389234375,257.999755859375,283.9990234375C257.999755859375,322.65902343749997,226.659755859375,353.9990234375,187.999755859375,353.9990234375C149.339655859375,353.9990234375,117.999755859375,322.65902343749997,117.999755859375,283.9990234375ZM128.499755859375,283.9990234375C128.499755859375,316.8070234375,155.191655859375,343.4990234375,187.999755859375,343.4990234375C220.807755859375,343.4990234375,247.499755859375,316.8070234375,247.499755859375,283.9990234375C247.499755859375,251.1909234375,220.807755859375,224.4990234375,187.999755859375,224.4990234375C155.191655859375,224.4990234375,128.499755859375,251.1909234375,128.499755859375,283.9990234375Z" fill-rule="evenodd" fill="#00B9E3" fill-opacity="0.7799999713897705"/></g><g style="mix-blend-mode:passthrough"><path d="M211.134287109375,261.2490234375C221.75018710937502,261.2490234375,230.356187109375,271.23872343749997,230.356187109375,283.5615234375C230.356187109375,295.8844234375,221.75018710937502,305.8740234375,211.134287109375,305.8740234375C207.123487109375,305.8740234375,203.553787109375,303.68392343749997,200.026287109375,300.5826234375C200.026287109375,300.5826234375,199.438787109375,300.0575234375,199.438787109375,300.0575234375C199.242987109375,299.8798234375,199.047187109375,299.6996234375,198.851587109375,299.5169234375C198.851587109375,299.5169234375,198.264287109375,298.9620234375,198.264287109375,298.9620234375C198.264287109375,298.9620234375,197.676487109375,298.3942234375,197.676487109375,298.3942234375C197.676487109375,298.3942234375,197.087987109375,297.8148234375,197.087987109375,297.8148234375C197.087987109375,297.8148234375,196.498087109375,297.2252234375,196.498087109375,297.2252234375C196.498087109375,297.2252234375,195.609987109375,296.3242234375,195.609987109375,296.3242234375C195.609987109375,296.3242234375,171.742787109375,276.6445234375,171.742787109375,276.6445234375C171.742787109375,276.6445234375,170.830987109375,276.0094234375,170.830987109375,276.0094234375C168.100387109375,274.1182234375,166.218687109375,273.3507234375,164.866187109375,273.3507234375C159.269787109375,273.3507234375,154.720577109375,277.9154234375,154.720577109375,283.5615234375C154.720577109375,289.2076234375,159.269787109375,293.7723234375,164.866187109375,293.7723234375C164.974487109375,293.7723234375,165.084887109375,293.7681234375,165.197487109375,293.7595234375C165.197487109375,293.7595234375,165.425887109375,293.7363234375,165.425887109375,293.7363234375C165.425887109375,293.7363234375,165.542587109375,293.7202234375,165.542587109375,293.7202234375C165.542587109375,293.7202234375,165.780987109375,293.6788234375,165.780987109375,293.6788234375C166.023087109375,293.6311234375,166.276187109375,293.5645234375,166.542487109375,293.47762343750003C166.542487109375,293.47762343750003,166.813287109375,293.3839234375,166.813287109375,293.3839234375C166.813287109375,293.3839234375,167.093387109375,293.2762234375,167.093387109375,293.2762234375C167.093387109375,293.2762234375,167.531987109375,293.0879234375,167.531987109375,293.0879234375C167.531987109375,293.0879234375,167.915587109375,292.9057234375,167.915587109375,292.9057234375C167.915587109375,292.9057234375,168.316587109375,292.6998234375,168.316587109375,292.6998234375C168.316587109375,292.6998234375,168.65068710937499,292.5176234375,168.65068710937499,292.5176234375C168.65068710937499,292.5176234375,168.996887109375,292.3196234375,168.996887109375,292.3196234375C168.996887109375,292.3196234375,169.174787109375,292.2144234375,169.174787109375,292.2144234375C169.174787109375,292.2144234375,169.728187109375,291.8743234375,169.728187109375,291.8743234375C169.728187109375,291.8743234375,170.114187109375,291.6265234375,170.114187109375,291.6265234375C170.114187109375,291.6265234375,170.514387109375,291.3614234375,170.514387109375,291.3614234375C170.514387109375,291.3614234375,170.514387109375,291.3614234375,170.514387109375,291.3614234375C173.651587109375,288.9947234375,177.948087109375,288.8903234375,181.196587109375,291.1016234375C181.196587109375,291.1016234375,184.461987109375,293.3246234375,184.461987109375,293.3246234375C184.461987109375,293.3246234375,182.059387109375,295.6177234375,182.059387109375,295.6177234375C182.059387109375,295.6177234375,181.106487109375,296.5169234375,181.106487109375,296.5169234375C181.106487109375,296.5169234375,180.156087109375,297.40062343750003,180.156087109375,297.40062343750003C180.156087109375,297.40062343750003,179.523887109375,297.9789234375,179.523887109375,297.9789234375C179.523887109375,297.9789234375,178.892387109375,298.5469234375,178.892387109375,298.5469234375C178.892387109375,298.5469234375,178.576887109375,298.8268234375,178.576887109375,298.8268234375C178.576887109375,298.8268234375,177.946187109375,299.3772234375,177.946187109375,299.3772234375C177.946187109375,299.3772234375,177.315887109375,299.9142234375,177.315887109375,299.9142234375C177.315887109375,299.9142234375,177.00088710937501,300.1773234375,177.00088710937501,300.1773234375C177.00088710937501,300.1773234375,176.370887109375,300.6919234375,176.370887109375,300.6919234375C172.590887109375,303.7308234375,168.809187109375,305.8740234375,164.866187109375,305.8740234375C154.250207109375,305.8740234375,145.644287109375,295.88432343750003,145.644287109375,283.5615234375C145.644287109375,271.2386334375,154.250207109375,261.2490234375,164.866187109375,261.2490234375C169.065887109375,261.2490234375,173.013287109375,263.6585034375,176.983387109375,267.0025234375C176.983387109375,267.0025234375,177.645387109375,267.5682634375,177.645387109375,267.5682634375C177.645387109375,267.5682634375,178.308087109375,268.1497934375,178.308087109375,268.1497934375C178.308087109375,268.1497934375,178.971687109375,268.7455934375,178.971687109375,268.7455934375C178.971687109375,268.7455934375,179.636587109375,269.3541434375,179.636587109375,269.3541434375C179.636587109375,269.3541434375,180.30308710937499,269.9739334375,180.30308710937499,269.9739334375C180.30308710937499,269.9739334375,180.971387109375,270.6034734375,180.971387109375,270.6034734375C180.971387109375,270.6034734375,202.492087109375,288.5585234375,202.492087109375,288.5585234375C202.492087109375,288.5585234375,203.474487109375,289.4041234375,203.474487109375,289.4041234375C203.474487109375,289.4041234375,203.901087109375,289.7604234375,203.901087109375,289.7604234375C203.901087109375,289.7604234375,204.60018710937499,290.32952343750003,204.60018710937499,290.32952343750003C204.60018710937499,290.32952343750003,205.108087109375,290.7323234375,205.108087109375,290.7323234375C205.705987109375,291.1994234375,206.258787109375,291.6050234375,206.772087109375,291.9543234375C206.772087109375,291.9543234375,207.202487109375,292.2401234375,207.202487109375,292.2401234375C208.886287109375,293.3290234375,210.123687109375,293.7723234375,211.134287109375,293.7723234375C216.730687109375,293.7723234375,221.279887109375,289.2076234375,221.279887109375,283.5615234375C221.279887109375,277.9154234375,216.730587109375,273.3507234375,211.134287109375,273.3507234375C210.34078710937501,273.3507234375,209.38878710937502,273.6332234375,208.185387109375,274.2878234375C208.185387109375,274.2878234375,207.816687109375,274.4954234375,207.816687109375,274.4954234375C207.502987109375,274.6779234375,207.173187109375,274.8841234375,206.825487109375,275.1157234375C206.825487109375,275.1157234375,206.39978710937498,275.4055234375,206.39978710937498,275.4055234375C206.39978710937498,275.4055234375,206.39978710937498,275.4055234375,206.39978710937498,275.4055234375C203.00938710937498,277.7640234375,198.675287109375,278.2762234375,195.195187109375,276.0523234375C195.195187109375,276.0523234375,192.243387109375,274.1660234375,192.243387109375,274.1660234375C192.243387109375,274.1660234375,198.504187109375,267.8780534375,198.504187109375,267.8780534375C198.504187109375,267.8780534375,199.09588710937498,267.3312434375,199.09588710937498,267.3312434375C202.942987109375,263.8234634375,206.819887109375,261.2490234375,211.134287109375,261.2490234375C211.134287109375,261.2490234375,211.134287109375,261.2490234375,211.134287109375,261.2490234375Z" fill-rule="evenodd" fill="#123049" fill-opacity="0.6392157077789307"/></g></g><g style="opacity:0.07000000029802322;mix-blend-mode:passthrough"><g style="mix-blend-mode:passthrough"><path d="M453.999751953125,116.4993078125C453.999751953125,78.0693078125,485.339651953125,46.9160178125,523.999751953125,46.9160178125C562.660251953125,46.9160178125,594.000251953125,78.0693078125,594.000251953125,116.4993078125C594.000251953125,154.9290078125,562.660251953125,186.0830078125,523.999751953125,186.0830078125C485.339651953125,186.0830078125,453.999751953125,154.9290078125,453.999751953125,116.4993078125ZM464.499751953125,116.4993078125C464.499751953125,149.1120078125,491.191651953125,175.6450078125,523.999751953125,175.6450078125C556.808251953125,175.6450078125,583.500251953125,149.1120078125,583.500251953125,116.4993078125C583.500251953125,83.8865078125,556.808251953125,57.3535078125,523.999751953125,57.3535078125C491.191651953125,57.3535078125,464.499751953125,83.8865078125,464.499751953125,116.4993078125Z" fill-rule="evenodd" fill="#00B9E3" fill-opacity="0.7799999713897705"/></g><g style="mix-blend-mode:passthrough"><path d="M547.134287109375,93.884765625C557.750187109375,93.884765625,566.356187109375,103.815005625,566.356187109375,116.064465625C566.356187109375,128.313965625,557.750187109375,138.244165625,547.134287109375,138.244165625C543.123487109375,138.244165625,539.553787109375,136.067065625,536.026287109375,132.984265625C536.026287109375,132.984265625,535.438787109375,132.462265625,535.438787109375,132.462265625C535.242987109375,132.285665625,535.047187109375,132.106465625,534.851587109375,131.924965625C534.851587109375,131.924965625,534.264287109375,131.373265625,534.264287109375,131.373265625C534.264287109375,131.373265625,533.676487109375,130.808865625,533.676487109375,130.808865625C533.676487109375,130.808865625,533.087987109375,130.232965625,533.087987109375,130.232965625C533.087987109375,130.232965625,532.498087109375,129.646765625,532.498087109375,129.646765625C532.498087109375,129.646765625,531.609987109375,128.751165625,531.609987109375,128.751165625C531.609987109375,128.751165625,507.742787109375,109.188665625,507.742787109375,109.188665625C507.742787109375,109.188665625,506.830987109375,108.557265625,506.830987109375,108.557265625C504.100387109375,106.677365625,502.218687109375,105.914465625,500.866187109375,105.914465625C495.269787109375,105.914465625,490.720577109375,110.451965625,490.720577109375,116.064465625C490.720577109375,121.67696562500001,495.269787109375,126.214465625,500.866187109375,126.214465625C500.974487109375,126.214465625,501.084887109375,126.210265625,501.197487109375,126.201665625C501.197487109375,126.201665625,501.425887109375,126.17866562500001,501.425887109375,126.17866562500001C501.425887109375,126.17866562500001,501.542587109375,126.162665625,501.542587109375,126.162665625C501.542587109375,126.162665625,501.780987109375,126.121465625,501.780987109375,126.121465625C502.023087109375,126.074065625,502.276187109375,126.007865625,502.542487109375,125.921565625C502.542487109375,125.921565625,502.813287109375,125.828365625,502.813287109375,125.828365625C502.813287109375,125.828365625,503.093387109375,125.721365625,503.093387109375,125.721365625C503.093387109375,125.721365625,503.531987109375,125.534165625,503.531987109375,125.534165625C503.531987109375,125.534165625,503.915587109375,125.353065625,503.915587109375,125.353065625C503.915587109375,125.353065625,504.316587109375,125.148365625,504.316587109375,125.148365625C504.316587109375,125.148365625,504.650687109375,124.967165625,504.650687109375,124.967165625C504.650687109375,124.967165625,504.996887109375,124.770365625,504.996887109375,124.770365625C504.996887109375,124.770365625,505.174787109375,124.665865625,505.174787109375,124.665865625C505.174787109375,124.665865625,505.72818710937497,124.327765625,505.72818710937497,124.327765625C505.72818710937497,124.327765625,506.114187109375,124.081365625,506.114187109375,124.081365625C506.114187109375,124.081365625,506.514387109375,123.817965625,506.514387109375,123.817965625C506.514387109375,123.817965625,506.514387109375,123.817965625,506.514387109375,123.817965625C509.651587109375,121.465365625,513.948087109375,121.361465625,517.1965871093751,123.55966562500001C517.1965871093751,123.55966562500001,520.4619871093751,125.769365625,520.4619871093751,125.769365625C520.4619871093751,125.769365625,518.059387109375,128.048865625,518.059387109375,128.048865625C518.059387109375,128.048865625,517.106487109375,128.942765625,517.106487109375,128.942765625C517.106487109375,128.942765625,516.156087109375,129.821165625,516.156087109375,129.821165625C516.156087109375,129.821165625,515.523887109375,130.395965625,515.523887109375,130.395965625C515.523887109375,130.395965625,514.892387109375,130.960665625,514.892387109375,130.960665625C514.892387109375,130.960665625,514.576887109375,131.23886562500002,514.576887109375,131.23886562500002C514.576887109375,131.23886562500002,513.946187109375,131.786065625,513.946187109375,131.786065625C513.946187109375,131.786065625,513.315887109375,132.319865625,513.315887109375,132.319865625C513.315887109375,132.319865625,513.000887109375,132.581365625,513.000887109375,132.581365625C513.000887109375,132.581365625,512.370887109375,133.092865625,512.370887109375,133.092865625C508.590887109375,136.113665625,504.809187109375,138.244165625,500.866187109375,138.244165625C490.250207109375,138.244165625,481.644287109375,128.313865625,481.644287109375,116.064465625C481.644287109375,103.814915625,490.250207109375,93.884765625,500.866187109375,93.884765625C505.065887109375,93.884765625,509.013287109375,96.279905625,512.983387109375,99.604015625C512.983387109375,99.604015625,513.645387109375,100.166395625,513.645387109375,100.166395625C513.645387109375,100.166395625,514.308087109375,100.744465625,514.308087109375,100.744465625C514.308087109375,100.744465625,514.971687109375,101.336715625,514.971687109375,101.336715625C514.971687109375,101.336715625,515.636587109375,101.941645625,515.636587109375,101.941645625C515.636587109375,101.941645625,516.303087109375,102.557745625,516.303087109375,102.557745625C516.303087109375,102.557745625,516.971387109375,103.183535625,516.971387109375,103.183535625C516.971387109375,103.183535625,538.492087109375,121.031665625,538.492087109375,121.031665625C538.492087109375,121.031665625,539.474487109375,121.872265625,539.474487109375,121.872265625C539.474487109375,121.872265625,539.901087109375,122.226465625,539.901087109375,122.226465625C539.901087109375,122.226465625,540.600187109375,122.792165625,540.600187109375,122.792165625C540.600187109375,122.792165625,541.108087109375,123.192565625,541.108087109375,123.192565625C541.705987109375,123.656865625,542.258787109375,124.060065625,542.772087109375,124.407365625C542.772087109375,124.407365625,543.2024871093749,124.691365625,543.2024871093749,124.691365625C544.886287109375,125.773765625,546.1236871093749,126.214465625,547.134287109375,126.214465625C552.730687109375,126.214465625,557.279887109375,121.67696562500001,557.279887109375,116.064465625C557.279887109375,110.451965625,552.7305871093749,105.914465625,547.134287109375,105.914465625C546.340787109375,105.914465625,545.388787109375,106.195265625,544.185387109375,106.845965625C544.185387109375,106.845965625,543.816687109375,107.052365625,543.816687109375,107.052365625C543.502987109375,107.233765625,543.173187109375,107.438765625,542.825487109375,107.668865625C542.825487109375,107.668865625,542.399787109375,107.957065625,542.399787109375,107.957065625C542.399787109375,107.957065625,542.399787109375,107.957065625,542.399787109375,107.957065625C539.009387109375,110.30146562499999,534.675287109375,110.810665625,531.195187109375,108.599965625C531.195187109375,108.599965625,528.243387109375,106.724865625,528.243387109375,106.724865625C528.243387109375,106.724865625,534.504187109375,100.474335625,534.504187109375,100.474335625C534.504187109375,100.474335625,535.095887109375,99.930785625,535.095887109375,99.930785625C538.942987109375,96.44388562500001,542.819887109375,93.884765625,547.134287109375,93.884765625C547.134287109375,93.884765625,547.134287109375,93.884765625,547.134287109375,93.884765625Z" fill-rule="evenodd" fill="#123049" fill-opacity="0.6392157077789307"/></g></g><g style="opacity:0.07000000029802322;mix-blend-mode:passthrough"><g style="mix-blend-mode:passthrough"><path d="M115.916441953125,116.4993078125C115.916441953125,78.0693078125,147.069751953125,46.9160178125,185.49975195312498,46.9160178125C223.93025195312498,46.9160178125,255.083251953125,78.0693078125,255.083251953125,116.4993078125C255.083251953125,154.9290078125,223.93025195312498,186.0830078125,185.49975195312498,186.0830078125C147.069751953125,186.0830078125,115.916441953125,154.9290078125,115.916441953125,116.4993078125ZM126.353951953125,116.4993078125C126.353951953125,149.1120078125,152.886951953125,175.6450078125,185.49975195312498,175.6450078125C218.112251953125,175.6450078125,244.645251953125,149.1120078125,244.645251953125,116.4993078125C244.645251953125,83.8865078125,218.112251953125,57.3535078125,185.49975195312498,57.3535078125C152.886951953125,57.3535078125,126.353951953125,83.8865078125,126.353951953125,116.4993078125Z" fill-rule="evenodd" fill="#00B9E3" fill-opacity="0.7799999713897705"/></g><g style="mix-blend-mode:passthrough"><path d="M208.49662333984375,93.884765625C219.04932333984374,93.884765625,227.60412333984374,103.815005625,227.60412333984374,116.064465625C227.60412333984374,128.313965625,219.04932333984374,138.244165625,208.49662333984375,138.244165625C204.50962333984376,138.244165625,200.96122333984374,136.067065625,197.45472333984375,132.984265625C197.45472333984375,132.984265625,196.87072333984375,132.462265625,196.87072333984375,132.462265625C196.67602333984377,132.285665625,196.48142333984376,132.106465625,196.28702333984376,131.924965625C196.28702333984376,131.924965625,195.70322333984376,131.373265625,195.70322333984376,131.373265625C195.70322333984376,131.373265625,195.11892333984375,130.808865625,195.11892333984375,130.808865625C195.11892333984375,130.808865625,194.53392333984374,130.232965625,194.53392333984374,130.232965625C194.53392333984374,130.232965625,193.94752333984374,129.646765625,193.94752333984374,129.646765625C193.94752333984374,129.646765625,193.06472333984374,128.751165625,193.06472333984374,128.751165625C193.06472333984374,128.751165625,169.33952333984377,109.188665625,169.33952333984377,109.188665625C169.33952333984377,109.188665625,168.43322333984375,108.557265625,168.43322333984375,108.557265625C165.71882333984374,106.677365625,163.84832333984374,105.914465625,162.50392333984377,105.914465625C156.94082333984375,105.914465625,152.41868333984374,110.451965625,152.41868333984374,116.064465625C152.41868333984374,121.67696562500001,156.94082333984375,126.214465625,162.50392333984377,126.214465625C162.61162333984376,126.214465625,162.72132333984376,126.210265625,162.83322333984376,126.201665625C162.83322333984376,126.201665625,163.06022333984376,126.17866562500001,163.06022333984376,126.17866562500001C163.06022333984376,126.17866562500001,163.17622333984374,126.162665625,163.17622333984374,126.162665625C163.17622333984374,126.162665625,163.41332333984374,126.121465625,163.41332333984374,126.121465625C163.65392333984374,126.074065625,163.90552333984374,126.007865625,164.17022333984374,125.921565625C164.17022333984374,125.921565625,164.43942333984376,125.828365625,164.43942333984376,125.828365625C164.43942333984376,125.828365625,164.71782333984376,125.721365625,164.71782333984376,125.721365625C164.71782333984376,125.721365625,165.15382333984374,125.534165625,165.15382333984374,125.534165625C165.15382333984374,125.534165625,165.53512333984375,125.353065625,165.53512333984375,125.353065625C165.53512333984375,125.353065625,165.93372333984374,125.148365625,165.93372333984374,125.148365625C165.93372333984374,125.148365625,166.26582333984373,124.967165625,166.26582333984373,124.967165625C166.26582333984373,124.967165625,166.61002333984374,124.770365625,166.61002333984374,124.770365625C166.61002333984374,124.770365625,166.78682333984375,124.665865625,166.78682333984375,124.665865625C166.78682333984375,124.665865625,167.33702333984374,124.327765625,167.33702333984374,124.327765625C167.33702333984374,124.327765625,167.72062333984374,124.081365625,167.72062333984374,124.081365625C167.72062333984374,124.081365625,168.11852333984376,123.817965625,168.11852333984376,123.817965625C168.11852333984376,123.817965625,168.11852333984376,123.817965625,168.11852333984376,123.817965625C171.23702333984374,121.465365625,175.50792333984376,121.361465625,178.73712333984375,123.55966562500001C178.73712333984375,123.55966562500001,181.98312333984376,125.769365625,181.98312333984376,125.769365625C181.98312333984376,125.769365625,179.59482333984374,128.048865625,179.59482333984374,128.048865625C179.59482333984374,128.048865625,178.64752333984376,128.942765625,178.64752333984376,128.942765625C178.64752333984376,128.942765625,177.70282333984375,129.821165625,177.70282333984375,129.821165625C177.70282333984375,129.821165625,177.07432333984374,130.395965625,177.07432333984374,130.395965625C177.07432333984374,130.395965625,176.44662333984374,130.960665625,176.44662333984374,130.960665625C176.44662333984374,130.960665625,176.13292333984376,131.23886562500002,176.13292333984376,131.23886562500002C176.13292333984376,131.23886562500002,175.50602333984375,131.786065625,175.50602333984375,131.786065625C175.50602333984375,131.786065625,174.87952333984376,132.319865625,174.87952333984376,132.319865625C174.87952333984376,132.319865625,174.56632333984373,132.581365625,174.56632333984373,132.581365625C174.56632333984373,132.581365625,173.94012333984375,133.092865625,173.94012333984375,133.092865625C170.18262333984376,136.113665625,166.42342333984374,138.244165625,162.50392333984377,138.244165625C151.95112333984375,138.244165625,143.39642333984375,128.313865625,143.39642333984375,116.064465625C143.39642333984375,103.814915625,151.95112333984375,93.884765625,162.50392333984377,93.884765625C166.67862333984374,93.884765625,170.60242333984374,96.279905625,174.54892333984375,99.604015625C174.54892333984375,99.604015625,175.20702333984374,100.166395625,175.20702333984374,100.166395625C175.20702333984374,100.166395625,175.86572333984375,100.744465625,175.86572333984375,100.744465625C175.86572333984375,100.744465625,176.52542333984374,101.336715625,176.52542333984374,101.336715625C176.52542333984374,101.336715625,177.18632333984374,101.941645625,177.18632333984374,101.941645625C177.18632333984374,101.941645625,177.84892333984374,102.557745625,177.84892333984374,102.557745625C177.84892333984374,102.557745625,178.51322333984376,103.183535625,178.51322333984376,103.183535625C178.51322333984376,103.183535625,199.90582333984375,121.031665625,199.90582333984375,121.031665625C199.90582333984375,121.031665625,200.88232333984377,121.872265625,200.88232333984377,121.872265625C200.88232333984377,121.872265625,201.30642333984375,122.226465625,201.30642333984375,122.226465625C201.30642333984375,122.226465625,202.00142333984374,122.792165625,202.00142333984374,122.792165625C202.00142333984374,122.792165625,202.50622333984376,123.192565625,202.50622333984376,123.192565625C203.10062333984376,123.656865625,203.65012333984376,124.060065625,204.16032333984376,124.407365625C204.16032333984376,124.407365625,204.58822333984375,124.691365625,204.58822333984375,124.691365625C206.26202333984375,125.773765625,207.49202333984374,126.214465625,208.49662333984375,126.214465625C214.05972333984374,126.214465625,218.58182333984377,121.67696562500001,218.58182333984377,116.064465625C218.58182333984377,110.451965625,214.05962333984377,105.914465625,208.49662333984375,105.914465625C207.70792333984375,105.914465625,206.76142333984376,106.195265625,205.56522333984375,106.845965625C205.56522333984375,106.845965625,205.19882333984376,107.052365625,205.19882333984376,107.052365625C204.88692333984375,107.233765625,204.55902333984375,107.438765625,204.21352333984376,107.668865625C204.21352333984376,107.668865625,203.79022333984375,107.957065625,203.79022333984375,107.957065625C203.79022333984375,107.957065625,203.79022333984375,107.957065625,203.79022333984375,107.957065625C200.42002333984374,110.30146562499999,196.11172333984376,110.810665625,192.65242333984375,108.599965625C192.65242333984375,108.599965625,189.71812333984374,106.724865625,189.71812333984374,106.724865625C189.71812333984374,106.724865625,195.94162333984374,100.474335625,195.94162333984374,100.474335625C195.94162333984374,100.474335625,196.52982333984374,99.930785625,196.52982333984374,99.930785625C200.35402333984376,96.44388562500001,204.20792333984375,93.884765625,208.49662333984375,93.884765625C208.49662333984375,93.884765625,208.49662333984375,93.884765625,208.49662333984375,93.884765625Z" fill-rule="evenodd" fill="#123049" fill-opacity="0.6392157077789307"/></g></g><g style="opacity:0.05999999865889549;mix-blend-mode:passthrough"><g style="mix-blend-mode:passthrough"><path d="M620.916501953125,199.4993078125C620.916501953125,161.0693078125,652.069851953125,129.9160178125,690.499851953125,129.9160178125C728.930251953125,129.9160178125,760.083251953125,161.0693078125,760.083251953125,199.4993078125C760.083251953125,237.9290078125,728.930251953125,269.0830078125,690.499851953125,269.0830078125C652.069851953125,269.0830078125,620.916501953125,237.9290078125,620.916501953125,199.4993078125ZM631.354051953125,199.4993078125C631.354051953125,232.1120078125,657.886951953125,258.6450078125,690.499851953125,258.6450078125C723.112251953125,258.6450078125,749.645251953125,232.1120078125,749.645251953125,199.4993078125C749.645251953125,166.88650781249999,723.112251953125,140.3535078125,690.499851953125,140.3535078125C657.886951953125,140.3535078125,631.354051953125,166.88650781249999,631.354051953125,199.4993078125Z" fill-rule="evenodd" fill="#00B9E3" fill-opacity="0.7799999713897705"/></g><g style="mix-blend-mode:passthrough"><path d="M713.496684375,176.884765625C724.049384375,176.884765625,732.604184375,186.815005625,732.604184375,199.064465625C732.604184375,211.313965625,724.049384375,221.244165625,713.496684375,221.244165625C709.509684375,221.244165625,705.961284375,219.067065625,702.454784375,215.984265625C702.454784375,215.984265625,701.870784375,215.462265625,701.870784375,215.462265625C701.676084375,215.285665625,701.481484375,215.106465625,701.287084375,214.924965625C701.287084375,214.924965625,700.703284375,214.373265625,700.703284375,214.373265625C700.703284375,214.373265625,700.118984375,213.808865625,700.118984375,213.808865625C700.118984375,213.808865625,699.533984375,213.232965625,699.533984375,213.232965625C699.533984375,213.232965625,698.947584375,212.646765625,698.947584375,212.646765625C698.947584375,212.646765625,698.064784375,211.751165625,698.064784375,211.751165625C698.064784375,211.751165625,674.339584375,192.188665625,674.339584375,192.188665625C674.339584375,192.188665625,673.433284375,191.557265625,673.433284375,191.557265625C670.718884375,189.677365625,668.848384375,188.914465625,667.503984375,188.914465625C661.940884375,188.914465625,657.418744375,193.451965625,657.418744375,199.064465625C657.418744375,204.676965625,661.940884375,209.214465625,667.503984375,209.214465625C667.611684375,209.214465625,667.721384375,209.210265625,667.833284375,209.201665625C667.833284375,209.201665625,668.060284375,209.178665625,668.060284375,209.178665625C668.060284375,209.178665625,668.176284375,209.162665625,668.176284375,209.162665625C668.176284375,209.162665625,668.413384375,209.12146562499998,668.413384375,209.12146562499998C668.653984375,209.074065625,668.905584375,209.007865625,669.170284375,208.921565625C669.170284375,208.921565625,669.439484375,208.828365625,669.439484375,208.828365625C669.439484375,208.828365625,669.717884375,208.721365625,669.717884375,208.721365625C669.717884375,208.721365625,670.153884375,208.534165625,670.153884375,208.534165625C670.153884375,208.534165625,670.535184375,208.353065625,670.535184375,208.353065625C670.535184375,208.353065625,670.933784375,208.148365625,670.933784375,208.148365625C670.933784375,208.148365625,671.265884375,207.967165625,671.265884375,207.967165625C671.265884375,207.967165625,671.610084375,207.770365625,671.610084375,207.770365625C671.610084375,207.770365625,671.786884375,207.665865625,671.786884375,207.665865625C671.786884375,207.665865625,672.337084375,207.327765625,672.337084375,207.327765625C672.337084375,207.327765625,672.720684375,207.081365625,672.720684375,207.081365625C672.720684375,207.081365625,673.118584375,206.817965625,673.118584375,206.817965625C673.118584375,206.817965625,673.118584375,206.817965625,673.118584375,206.817965625C676.237084375,204.465365625,680.507984375,204.361465625,683.737184375,206.559665625C683.737184375,206.559665625,686.983184375,208.769365625,686.983184375,208.769365625C686.983184375,208.769365625,684.594884375,211.048865625,684.594884375,211.048865625C684.594884375,211.048865625,683.647584375,211.942765625,683.647584375,211.942765625C683.647584375,211.942765625,682.7028843749999,212.821165625,682.7028843749999,212.821165625C682.7028843749999,212.821165625,682.074384375,213.395965625,682.074384375,213.395965625C682.074384375,213.395965625,681.446684375,213.960665625,681.446684375,213.960665625C681.446684375,213.960665625,681.132984375,214.23886562500002,681.132984375,214.23886562500002C681.132984375,214.23886562500002,680.506084375,214.786065625,680.506084375,214.786065625C680.506084375,214.786065625,679.879584375,215.319865625,679.879584375,215.319865625C679.879584375,215.319865625,679.566384375,215.581365625,679.566384375,215.581365625C679.566384375,215.581365625,678.940184375,216.092865625,678.940184375,216.092865625C675.182684375,219.113665625,671.423484375,221.244165625,667.503984375,221.244165625C656.951184375,221.244165625,648.396484375,211.313865625,648.396484375,199.064465625C648.396484375,186.814915625,656.951184375,176.884765625,667.503984375,176.884765625C671.678684375,176.884765625,675.602484375,179.279905625,679.548984375,182.604015625C679.548984375,182.604015625,680.207084375,183.166395625,680.207084375,183.166395625C680.207084375,183.166395625,680.865784375,183.744465625,680.865784375,183.744465625C680.865784375,183.744465625,681.525484375,184.336715625,681.525484375,184.336715625C681.525484375,184.336715625,682.186384375,184.941645625,682.186384375,184.941645625C682.186384375,184.941645625,682.848984375,185.557745625,682.848984375,185.557745625C682.848984375,185.557745625,683.513284375,186.183535625,683.513284375,186.183535625C683.513284375,186.183535625,704.905884375,204.031665625,704.905884375,204.031665625C704.905884375,204.031665625,705.882384375,204.872265625,705.882384375,204.872265625C705.882384375,204.872265625,706.306484375,205.226465625,706.306484375,205.226465625C706.306484375,205.226465625,707.001484375,205.792165625,707.001484375,205.792165625C707.001484375,205.792165625,707.506284375,206.192565625,707.506284375,206.192565625C708.100684375,206.656865625,708.650184375,207.060065625,709.160384375,207.407365625C709.160384375,207.407365625,709.5882843750001,207.691365625,709.5882843750001,207.691365625C711.262084375,208.773765625,712.492084375,209.214465625,713.496684375,209.214465625C719.059784375,209.214465625,723.581884375,204.676965625,723.581884375,199.064465625C723.581884375,193.451965625,719.059684375,188.914465625,713.496684375,188.914465625C712.707984375,188.914465625,711.761484375,189.195265625,710.565284375,189.845965625C710.565284375,189.845965625,710.198884375,190.052365625,710.198884375,190.052365625C709.886984375,190.233765625,709.559084375,190.438765625,709.213584375,190.668865625C709.213584375,190.668865625,708.790284375,190.957065625,708.790284375,190.957065625C708.790284375,190.957065625,708.790284375,190.957065625,708.790284375,190.957065625C705.420084375,193.301465625,701.111784375,193.810665625,697.652484375,191.599965625C697.652484375,191.599965625,694.718184375,189.724865625,694.718184375,189.724865625C694.718184375,189.724865625,700.941684375,183.474335625,700.941684375,183.474335625C700.941684375,183.474335625,701.529884375,182.930785625,701.529884375,182.930785625C705.354084375,179.443885625,709.207984375,176.884765625,713.496684375,176.884765625C713.496684375,176.884765625,713.496684375,176.884765625,713.496684375,176.884765625Z" fill-rule="evenodd" fill="#123049" fill-opacity="0.6392157077789307"/></g></g><g style="opacity:0.10000000149011612;mix-blend-mode:passthrough"><g style="mix-blend-mode:passthrough"><path d="M620.916501953125,31.999007812499997C620.916501953125,-6.661092187500003,652.069851953125,-38.0009721875,690.499851953125,-38.0009721875C728.930251953125,-38.0009721875,760.083251953125,-6.661092187500003,760.083251953125,31.999007812499997C760.083251953125,70.6590078125,728.930251953125,101.9990078125,690.499851953125,101.9990078125C652.069851953125,101.9990078125,620.916501953125,70.6590078125,620.916501953125,31.999007812499997ZM631.354051953125,31.999007812499997C631.354051953125,64.8070078125,657.886951953125,91.4990078125,690.499851953125,91.4990078125C723.112251953125,91.4990078125,749.645251953125,64.8070078125,749.645251953125,31.999007812499997C749.645251953125,-0.8090921874999992,723.112251953125,-27.5009921875,690.499851953125,-27.5009921875C657.886951953125,-27.5009921875,631.354051953125,-0.8090921874999992,631.354051953125,31.999007812499997Z" fill-rule="evenodd" fill="#00B9E3" fill-opacity="0.7799999713897705"/></g><g style="mix-blend-mode:passthrough"><path d="M713.496684375,9.2490234375C724.049384375,9.2490234375,732.604184375,19.2387234375,732.604184375,31.5615234375C732.604184375,43.8844234375,724.049384375,53.8740234375,713.496684375,53.8740234375C709.509684375,53.8740234375,705.961284375,51.6839234375,702.454784375,48.5826234375C702.454784375,48.5826234375,701.870784375,48.0575234375,701.870784375,48.0575234375C701.676084375,47.8798234375,701.481484375,47.6996234375,701.287084375,47.5169234375C701.287084375,47.5169234375,700.703284375,46.9620234375,700.703284375,46.9620234375C700.703284375,46.9620234375,700.118984375,46.3942234375,700.118984375,46.3942234375C700.118984375,46.3942234375,699.533984375,45.8148234375,699.533984375,45.8148234375C699.533984375,45.8148234375,698.947584375,45.2252234375,698.947584375,45.2252234375C698.947584375,45.2252234375,698.064784375,44.3242234375,698.064784375,44.3242234375C698.064784375,44.3242234375,674.339584375,24.6445234375,674.339584375,24.6445234375C674.339584375,24.6445234375,673.433284375,24.0094234375,673.433284375,24.0094234375C670.718884375,22.1182234375,668.848384375,21.3507234375,667.503984375,21.3507234375C661.940884375,21.3507234375,657.418744375,25.9154234375,657.418744375,31.5615234375C657.418744375,37.207623437500004,661.940884375,41.7723234375,667.503984375,41.7723234375C667.611684375,41.7723234375,667.721384375,41.7681234375,667.833284375,41.7595234375C667.833284375,41.7595234375,668.060284375,41.7363234375,668.060284375,41.7363234375C668.060284375,41.7363234375,668.176284375,41.7202234375,668.176284375,41.7202234375C668.176284375,41.7202234375,668.413384375,41.6788234375,668.413384375,41.6788234375C668.653984375,41.6311234375,668.905584375,41.5645234375,669.170284375,41.4776234375C669.170284375,41.4776234375,669.439484375,41.3839234375,669.439484375,41.3839234375C669.439484375,41.3839234375,669.717884375,41.2762234375,669.717884375,41.2762234375C669.717884375,41.2762234375,670.153884375,41.087923437499995,670.153884375,41.087923437499995C670.153884375,41.087923437499995,670.535184375,40.9057234375,670.535184375,40.9057234375C670.535184375,40.9057234375,670.933784375,40.6998234375,670.933784375,40.6998234375C670.933784375,40.6998234375,671.265884375,40.5176234375,671.265884375,40.5176234375C671.265884375,40.5176234375,671.610084375,40.3196234375,671.610084375,40.3196234375C671.610084375,40.3196234375,671.786884375,40.2144234375,671.786884375,40.2144234375C671.786884375,40.2144234375,672.337084375,39.874323437499996,672.337084375,39.874323437499996C672.337084375,39.874323437499996,672.720684375,39.6265234375,672.720684375,39.6265234375C672.720684375,39.6265234375,673.118584375,39.3614234375,673.118584375,39.3614234375C673.118584375,39.3614234375,673.118584375,39.3614234375,673.118584375,39.3614234375C676.237084375,36.9947234375,680.507984375,36.8903234375,683.737184375,39.101623437499995C683.737184375,39.101623437499995,686.983184375,41.3246234375,686.983184375,41.3246234375C686.983184375,41.3246234375,684.594884375,43.6177234375,684.594884375,43.6177234375C684.594884375,43.6177234375,683.647584375,44.5169234375,683.647584375,44.5169234375C683.647584375,44.5169234375,682.7028843749999,45.4006234375,682.7028843749999,45.4006234375C682.7028843749999,45.4006234375,682.074384375,45.9789234375,682.074384375,45.9789234375C682.074384375,45.9789234375,681.446684375,46.5469234375,681.446684375,46.5469234375C681.446684375,46.5469234375,681.132984375,46.8268234375,681.132984375,46.8268234375C681.132984375,46.8268234375,680.506084375,47.3772234375,680.506084375,47.3772234375C680.506084375,47.3772234375,679.879584375,47.9142234375,679.879584375,47.9142234375C679.879584375,47.9142234375,679.566384375,48.1773234375,679.566384375,48.1773234375C679.566384375,48.1773234375,678.940184375,48.6919234375,678.940184375,48.6919234375C675.182684375,51.7308234375,671.423484375,53.8740234375,667.503984375,53.8740234375C656.951184375,53.8740234375,648.396484375,43.8843234375,648.396484375,31.5615234375C648.396484375,19.2386334375,656.951184375,9.2490234375,667.503984375,9.2490234375C671.678684375,9.2490234375,675.602484375,11.6585034375,679.548984375,15.002523437499999C679.548984375,15.002523437499999,680.207084375,15.5682634375,680.207084375,15.5682634375C680.207084375,15.5682634375,680.865784375,16.1497934375,680.865784375,16.1497934375C680.865784375,16.1497934375,681.525484375,16.7455934375,681.525484375,16.7455934375C681.525484375,16.7455934375,682.186384375,17.3541434375,682.186384375,17.3541434375C682.186384375,17.3541434375,682.848984375,17.9739334375,682.848984375,17.9739334375C682.848984375,17.9739334375,683.513284375,18.6034734375,683.513284375,18.6034734375C683.513284375,18.6034734375,704.905884375,36.5585234375,704.905884375,36.5585234375C704.905884375,36.5585234375,705.882384375,37.404123437500004,705.882384375,37.404123437500004C705.882384375,37.404123437500004,706.306484375,37.760423437499995,706.306484375,37.760423437499995C706.306484375,37.760423437499995,707.001484375,38.3295234375,707.001484375,38.3295234375C707.001484375,38.3295234375,707.506284375,38.7323234375,707.506284375,38.7323234375C708.100684375,39.1994234375,708.650184375,39.6050234375,709.160384375,39.9543234375C709.160384375,39.9543234375,709.5882843750001,40.2401234375,709.5882843750001,40.2401234375C711.262084375,41.3290234375,712.492084375,41.7723234375,713.496684375,41.7723234375C719.059784375,41.7723234375,723.581884375,37.207623437500004,723.581884375,31.5615234375C723.581884375,25.9154234375,719.059684375,21.3507234375,713.496684375,21.3507234375C712.707984375,21.3507234375,711.761484375,21.6332234375,710.565284375,22.287823437500002C710.565284375,22.287823437500002,710.198884375,22.4954234375,710.198884375,22.4954234375C709.886984375,22.6779234375,709.559084375,22.8841234375,709.213584375,23.1157234375C709.213584375,23.1157234375,708.790284375,23.4055234375,708.790284375,23.4055234375C708.790284375,23.4055234375,708.790284375,23.4055234375,708.790284375,23.4055234375C705.420084375,25.7640234375,701.111784375,26.2762234375,697.652484375,24.0523234375C697.652484375,24.0523234375,694.718184375,22.1660234375,694.718184375,22.1660234375C694.718184375,22.1660234375,700.941684375,15.8780534375,700.941684375,15.8780534375C700.941684375,15.8780534375,701.529884375,15.3312434375,701.529884375,15.3312434375C705.354084375,11.8234634375,709.207984375,9.2490234375,713.496684375,9.2490234375C713.496684375,9.2490234375,713.496684375,9.2490234375,713.496684375,9.2490234375Z" fill-rule="evenodd" fill="#123049" fill-opacity="0.6392157077789307"/></g></g></g></svg>