<svg xmlns="http://www.w3.org/2000/svg" xmlns:xlink="http://www.w3.org/1999/xlink" fill="none" version="1.1" width="712" height="400" viewBox="0 0 712 400"><defs><linearGradient x1="0.5" y1="0" x2="0.5" y2="1" id="master_svg0_65_002"><stop offset="0%" stop-color="#FFFFFF" stop-opacity="1"/><stop offset="100%" stop-color="#FCFCFD" stop-opacity="1"/></linearGradient><clipPath id="master_svg1_31_01182"><rect x="0" y="0" width="712" height="400" rx="0"/></clipPath></defs><g style="mix-blend-mode:passthrough" clip-path="url(#master_svg1_31_01182)"><rect x="0" y="0" width="712" height="400" rx="0" fill="url(#master_svg0_65_002)" fill-opacity="1"/><g style="mix-blend-mode:passthrough"><g style="mix-blend-mode:passthrough"><path d="M435.6486337890625,199.99755859375Q435.6486337890625,200.30445859375,435.6336337890625,200.61085859375Q435.6186337890625,200.91735859375,435.5886337890625,201.22275859375Q435.55863378906247,201.52815859375,435.5136337890625,201.83165859375Q435.4686337890625,202.13525859375,435.4086337890625,202.43615859375Q435.3486337890625,202.73715859375,435.2746337890625,203.03485859375Q435.1996337890625,203.33245859375,435.1106337890625,203.62615859375Q435.0216337890625,203.91975859375,434.9186337890625,204.20865859375Q434.8146337890625,204.49755859375,434.6976337890625,204.78105859375Q434.57963378906254,205.06455859375,434.4486337890625,205.34195859375Q434.3176337890625,205.61935859375,434.1726337890625,205.89005859374998Q434.0286337890625,206.16065859375,433.8706337890625,206.42385859375Q433.71263378906247,206.68705859375,433.5426337890625,206.94215859375Q433.3716337890625,207.19735859375,433.18863378906246,207.44375859375Q433.0066337890625,207.69025859375,432.8116337890625,207.92745859375Q432.61663378906246,208.16465859375,432.4106337890625,208.39205859375Q432.20463378906254,208.61945859375,431.9876337890625,208.83635859375Q431.77063378906246,209.05335859375,431.5436337890625,209.25945859375Q431.31563378906253,209.46555859375,431.0786337890625,209.66015859375Q430.8416337890625,209.85485859375,430.5956337890625,210.03765859375Q430.3486337890625,210.22045859375,430.0936337890625,210.39095859374999Q429.8386337890625,210.56135859375001,429.5756337890625,210.71915859375Q429.3116337890625,210.87695859375,429.04163378906253,211.02155859375Q428.77063378906246,211.16625859375,428.4936337890625,211.29745859375Q428.2156337890625,211.42865859375001,427.9326337890625,211.54605859375Q427.6486337890625,211.66345859375,427.3596337890625,211.76685859375Q427.0716337890625,211.87025859375,426.7776337890625,211.95935859375Q426.48363378906254,212.04835859375,426.1866337890625,212.12295859375Q425.8886337890625,212.19745859375,425.58763378906247,212.25735859374998Q425.28663378906253,212.31725859375,424.9826337890625,212.36225859375Q424.6796337890625,212.40725859375,424.3746337890625,212.43735859375Q424.06863378906246,212.46745859375,423.76263378906253,212.48245859375Q423.4556337890625,212.49755859375,423.1486337890625,212.49755859375Q422.8416337890625,212.49755859375,422.5356337890625,212.48245859375Q422.2296337890625,212.46745859375,421.9236337890625,212.43735859375Q421.6186337890625,212.40725859375,421.3146337890625,212.36225859375Q421.0116337890625,212.31725859375,420.7106337890625,212.25735859374998Q420.40963378906247,212.19755859375,420.11163378906247,212.12295859375Q419.81363378906246,212.04835859375,419.52063378906246,211.95935859375Q419.2266337890625,211.87025859375,418.9376337890625,211.76685859375Q418.6486337890625,211.66345859375,418.3656337890625,211.54605859375Q418.0816337890625,211.42865859375001,417.8046337890625,211.29745859375Q417.5276337890625,211.16625859375,417.2566337890625,211.02155859375Q416.9856337890625,210.87695859375,416.7226337890625,210.71915859375Q416.45963378906254,210.56135859375001,416.20463378906254,210.39095859374999Q415.9496337890625,210.22045859375,415.7026337890625,210.03765859375Q415.4566337890625,209.85485859375,415.2186337890625,209.66015859375Q414.98163378906247,209.46555859375,414.7546337890625,209.25945859375Q414.5276337890625,209.05335859375,414.31063378906254,208.83635859375Q414.0936337890625,208.61945859375,413.8866337890625,208.39205859375Q413.68063378906254,208.16465859375,413.48663378906247,207.92745859375Q413.29163378906253,207.69025859375,413.10863378906254,207.44375859375Q412.9256337890625,207.19735859375,412.7556337890625,206.94215859375Q412.5856337890625,206.68705859375,412.4276337890625,206.42385859375Q412.2696337890625,206.16065859375,412.1246337890625,205.89005859374998Q411.9806337890625,205.61935859375,411.8496337890625,205.34195859375Q411.71763378906246,205.06455859375,411.6006337890625,204.78105859375Q411.4826337890625,204.49755859375,411.3796337890625,204.20865859375Q411.2766337890625,203.91975859375,411.1876337890625,203.62615859375Q411.0986337890625,203.33245859375,411.0236337890625,203.03485859375Q410.9486337890625,202.73715859375,410.8896337890625,202.43615859375Q410.82963378906254,202.13525859375,410.78463378906247,201.83165859375Q410.7396337890625,201.52815859375,410.70963378906254,201.22275859375Q410.6796337890625,200.91735859375,410.6636337890625,200.61085859375Q410.6486337890625,200.30445859375,410.6486337890625,199.99755859375Q410.6486337890625,199.69065859375,410.6636337890625,199.38425859375Q410.6796337890625,199.07775859375,410.70963378906254,198.77235859375Q410.7396337890625,198.46695859375,410.78463378906247,198.16345859375Q410.82963378906254,197.85985859375,410.8896337890625,197.55895859375Q410.9486337890625,197.25796859375,411.0236337890625,196.96030859375Q411.0986337890625,196.66264859375,411.1876337890625,196.36899859375Q411.2766337890625,196.07535859375,411.3796337890625,195.78643859375Q411.4826337890625,195.49751859375,411.6006337890625,195.21401859375Q411.71763378906246,194.93051859375,411.8496337890625,194.65311859375Q411.9806337890625,194.37571859375,412.1246337890625,194.10509859375Q412.2696337890625,193.83447859375,412.4276337890625,193.57127859375Q412.5856337890625,193.30806859375,412.7556337890625,193.05292859375Q412.9256337890625,192.79778859375,413.10863378906254,192.55131859375Q413.29163378906253,192.30484859375,413.48663378906247,192.06763859375Q413.68063378906254,191.83043859375,413.8866337890625,191.60306859375Q414.0936337890625,191.37570859375,414.31063378906254,191.15872859375Q414.5276337890625,190.94173859375,414.7546337890625,190.73566859375Q414.98163378906247,190.52959859375,415.2186337890625,190.33492859375Q415.4566337890625,190.14025859375,415.7026337890625,189.95746859375Q415.9496337890625,189.77466859375,416.20463378906254,189.60418859375Q416.45963378906254,189.43370859375,416.7226337890625,189.27594859375Q416.9856337890625,189.11819859375,417.2566337890625,188.97353859375Q417.5276337890625,188.82888859375,417.8046337890625,188.69768859375Q418.0816337890625,188.56649859375,418.3656337890625,188.44906459375Q418.6486337890625,188.33163459375,418.9376337890625,188.22825759375Q419.2266337890625,188.12488059375,419.52063378906246,188.03580459375Q419.81363378906246,187.94672859375,420.11163378906247,187.87216759375Q420.40963378906247,187.79760759375,420.7106337890625,187.73774259375Q421.0116337890625,187.67787759375,421.3146337890625,187.63285259375Q421.6186337890625,187.58782679375,421.9236337890625,187.55774949375Q422.2296337890625,187.52767219375,422.5356337890625,187.51261539375Q422.8416337890625,187.49755859375,423.1486337890625,187.49755859375Q423.4556337890625,187.49755859375,423.76263378906253,187.51261539375Q424.06863378906246,187.52767219375,424.3746337890625,187.55774949375Q424.6796337890625,187.58782679375,424.9826337890625,187.63285259375Q425.28663378906253,187.67787759375,425.58763378906247,187.73774259375Q425.8886337890625,187.79760759375,426.1866337890625,187.87216759375Q426.48363378906254,187.94672859375,426.7776337890625,188.03580459375Q427.0716337890625,188.12488059375,427.3596337890625,188.22825759375Q427.6486337890625,188.33163459375,427.9326337890625,188.44906459375Q428.2156337890625,188.56649859375,428.4936337890625,188.69768859375Q428.77063378906246,188.82888859375,429.04163378906253,188.97353859375Q429.3116337890625,189.11819859375,429.5756337890625,189.27594859375Q429.8386337890625,189.43370859375,430.0936337890625,189.60418859375Q430.3486337890625,189.77466859375,430.5956337890625,189.95746859375Q430.8416337890625,190.14025859375,431.0786337890625,190.33492859375Q431.31563378906253,190.52959859375,431.5436337890625,190.73566859375Q431.77063378906246,190.94173859375,431.9876337890625,191.15872859375Q432.20463378906254,191.37570859375,432.4106337890625,191.60306859375Q432.61663378906246,191.83043859375,432.8116337890625,192.06763859375Q433.0066337890625,192.30484859375,433.18863378906246,192.55131859375Q433.3716337890625,192.79778859375,433.5426337890625,193.05292859375Q433.71263378906247,193.30807859375,433.8706337890625,193.57127859375Q434.0286337890625,193.83447859375,434.1726337890625,194.10509859375Q434.3176337890625,194.37572859375,434.4486337890625,194.65311859375Q434.57963378906254,194.93051859375,434.6976337890625,195.21401859375Q434.8146337890625,195.49751859375,434.9186337890625,195.78643859375Q435.0216337890625,196.07535859375,435.1106337890625,196.36899859375Q435.1996337890625,196.66264859375,435.2746337890625,196.96030859375Q435.3486337890625,197.25796859375,435.4086337890625,197.55895859375Q435.4686337890625,197.85985859375,435.5136337890625,198.16345859375Q435.55863378906247,198.46695859375,435.5886337890625,198.77235859375Q435.6186337890625,199.07775859375,435.6336337890625,199.38425859375Q435.6486337890625,199.69065859375,435.6486337890625,199.99755859375ZM300.9995337890625,199.99755859375Q300.9995337890625,200.30445859375,300.9844337890625,200.61085859375Q300.9693337890625,200.91735859375,300.9393337890625,201.22275859375Q300.9092337890625,201.52815859375,300.8642337890625,201.83165859375Q300.8191337890625,202.13525859375,300.7593337890625,202.43615859375Q300.6994337890625,202.73715859375,300.6249337890625,203.03485859375Q300.5503337890625,203.33245859375,300.4612337890625,203.62615859375Q300.3721337890625,203.91975859375,300.2688337890625,204.20865859375Q300.1654337890625,204.49755859375,300.0480337890625,204.78105859375Q299.9305337890625,205.06455859375,299.79933378906253,205.34195859375Q299.6681337890625,205.61935859375,299.5235337890625,205.89005859374998Q299.3788337890625,206.16065859375,299.2211337890625,206.42385859375Q299.0633337890625,206.68705859375,298.8928337890625,206.94215859375Q298.7224337890625,207.19735859375,298.5396337890625,207.44375859375Q298.3568337890625,207.69025859375,298.1621337890625,207.92745859375Q297.9674337890625,208.16465859375,297.7614337890625,208.39205859375Q297.5553337890625,208.61945859375,297.3383337890625,208.83635859375Q297.1213337890625,209.05335859375,296.8940337890625,209.25945859375Q296.66663378906253,209.46555859375,296.4294337890625,209.66015859375Q296.19223378906247,209.85485859375,295.9457337890625,210.03765859375Q295.6993337890625,210.22045859375,295.4441337890625,210.39095859374999Q295.1890337890625,210.56135859375001,294.9258337890625,210.71915859375Q294.6626337890625,210.87695859375,294.3920337890625,211.02155859375Q294.1213337890625,211.16625859375,293.8439337890625,211.29745859375Q293.5665337890625,211.42865859375001,293.28303378906253,211.54605859375Q292.9995337890625,211.66345859375,292.7106337890625,211.76685859375Q292.4217337890625,211.87025859375,292.1281337890625,211.95935859375Q291.8344337890625,212.04835859375,291.5368337890625,212.12295859375Q291.2391337890625,212.19745859375,290.9381337890625,212.25735859374998Q290.6372337890625,212.31725859375,290.3336337890625,212.36225859375Q290.0301337890625,212.40725859375,289.7247337890625,212.43735859375Q289.4194337890625,212.46745859375,289.1129337890625,212.48245859375Q288.8064337890625,212.49755859375,288.4995337890625,212.49755859375Q288.1927337890625,212.49755859375,287.8862337890625,212.48245859375Q287.5797337890625,212.46745859375,287.2743337890625,212.43735859375Q286.9689337890625,212.40725859375,286.6654337890625,212.36225859375Q286.3619337890625,212.31725859375,286.0609337890625,212.25735859374998Q285.7599937890625,212.19755859375,285.4623337890625,212.12295859375Q285.1646737890625,212.04835859375,284.8710237890625,211.95935859375Q284.5773837890625,211.87025859375,284.2884637890625,211.76685859375Q283.9995437890625,211.66345859375,283.7160437890625,211.54605859375Q283.4325537890625,211.42865859375001,283.1551537890625,211.29745859375Q282.8777637890625,211.16625859375,282.6071337890625,211.02155859375Q282.3365137890625,210.87695859375,282.0733137890625,210.71915859375Q281.8101137890625,210.56135859375001,281.5549737890625,210.39095859374999Q281.2998337890625,210.22045859375,281.0533637890625,210.03765859375Q280.8068937890625,209.85485859375,280.5696937890625,209.66015859375Q280.3324937890625,209.46555859375,280.1051237890625,209.25945859375Q279.8777637890625,209.05335859375,279.6607737890625,208.83635859375Q279.4437937890625,208.61945859375,279.2377237890625,208.39205859375Q279.0316537890625,208.16465859375,278.8369837890625,207.92745859375Q278.6423237890625,207.69025859375,278.4595237890625,207.44375859375Q278.2767337890625,207.19735859375,278.1062537890625,206.94215859375Q277.9357737890625,206.68705859375,277.7780137890625,206.42385859375Q277.6202637890625,206.16065859375,277.4756137890625,205.89005859374998Q277.3309637890625,205.61935859375,277.1997637890625,205.34195859375Q277.0685637890625,205.06455859375,276.9511337890625,204.78105859375Q276.8337057890625,204.49755859375,276.7303287890625,204.20865859375Q276.6269517890625,203.91975859375,276.5378767890625,203.62615859375Q276.4488007890625,203.33245859375,276.3742407890625,203.03485859375Q276.2996807890625,202.73715859375,276.2398167890625,202.43615859375Q276.1799517890625,202.13525859375,276.1349267890625,201.83165859375Q276.0899014890625,201.52815859375,276.0598243890625,201.22275859375Q276.0297471890625,200.91735859375,276.0146904890625,200.61085859375Q275.9996337890625,200.30445859375,275.9996337890625,199.99755859375Q275.9996337890625,199.69065859375,276.0146904890625,199.38425859375Q276.0297471890625,199.07775859375,276.0598243890625,198.77235859375Q276.0899014890625,198.46695859375,276.1349267890625,198.16345859375Q276.1799517890625,197.85985859375,276.2398167890625,197.55895859375Q276.2996807890625,197.25796859375,276.3742407890625,196.96030859375Q276.4488007890625,196.66264859375,276.5378767890625,196.36899859375Q276.6269517890625,196.07535859375,276.7303287890625,195.78643859375Q276.8337057890625,195.49751859375,276.9511337890625,195.21401859375Q277.0685637890625,194.93051859375,277.1997637890625,194.65311859375Q277.3309637890625,194.37571859375,277.4756137890625,194.10509859375Q277.6202637890625,193.83447859375,277.7780137890625,193.57127859375Q277.9357737890625,193.30806859375,278.1062537890625,193.05292859375Q278.2767337890625,192.79778859375,278.4595237890625,192.55131859375Q278.6423237890625,192.30484859375,278.8369837890625,192.06763859375Q279.0316537890625,191.83043859375,279.2377237890625,191.60306859375Q279.4437937890625,191.37570859375,279.6607737890625,191.15872859375Q279.8777637890625,190.94173859375,280.1051237890625,190.73566859375Q280.3324937890625,190.52959859375,280.5696937890625,190.33492859375Q280.8068937890625,190.14025859375,281.0533637890625,189.95746859375Q281.2998337890625,189.77466859375,281.5549737890625,189.60418859375Q281.8101137890625,189.43370859375,282.0733137890625,189.27594859375Q282.3365137890625,189.11819859375,282.6071337890625,188.97353859375Q282.8777637890625,188.82888859375,283.1551537890625,188.69768859375Q283.4325537890625,188.56649859375,283.7160437890625,188.44906459375Q283.9995437890625,188.33163459375,284.2884637890625,188.22825759375Q284.5773837890625,188.12488059375,284.8710237890625,188.03580459375Q285.1646737890625,187.94672859375,285.4623337890625,187.87216759375Q285.7599937890625,187.79760759375,286.0609337890625,187.73774259375Q286.3619337890625,187.67787759375,286.6654337890625,187.63285259375Q286.9689337890625,187.58782679375,287.2743337890625,187.55774949375Q287.5797337890625,187.52767219375,287.8862337890625,187.51261539375Q288.1927337890625,187.49755859375,288.4995337890625,187.49755859375Q288.8064337890625,187.49755859375,289.1129337890625,187.51261539375Q289.4194337890625,187.52767219375,289.7247337890625,187.55774949375Q290.0301337890625,187.58782679375,290.3337337890625,187.63285259375Q290.6372337890625,187.67787759375,290.9381337890625,187.73774259375Q291.2391337890625,187.79760759375,291.5368337890625,187.87216759375Q291.8344337890625,187.94672859375,292.1281337890625,188.03580459375Q292.4217337890625,188.12488059375,292.7106337890625,188.22825759375Q292.9995337890625,188.33163459375,293.28303378906253,188.44906459375Q293.5665337890625,188.56649859375,293.8439337890625,188.69768859375Q294.1213337890625,188.82888859375,294.3920337890625,188.97353859375Q294.6626337890625,189.11819859375,294.9258337890625,189.27594859375Q295.1890337890625,189.43370859375,295.4441337890625,189.60418859375Q295.6993337890625,189.77466859375,295.9457337890625,189.95746859375Q296.19223378906247,190.14025859375,296.4294337890625,190.33492859375Q296.66663378906253,190.52959859375,296.8940337890625,190.73566859375Q297.1213337890625,190.94173859375,297.3383337890625,191.15872859375Q297.5553337890625,191.37570859375,297.7614337890625,191.60306859375Q297.9674337890625,191.83043859375,298.1621337890625,192.06763859375Q298.3568337890625,192.30484859375,298.5396337890625,192.55131859375Q298.7224337890625,192.79778859375,298.8928337890625,193.05292859375Q299.0633337890625,193.30807859375,299.2211337890625,193.57127859375Q299.3788337890625,193.83447859375,299.5235337890625,194.10509859375Q299.6681337890625,194.37572859375,299.79933378906253,194.65311859375Q299.9305337890625,194.93051859375,300.0480337890625,195.21401859375Q300.1654337890625,195.49751859375,300.2688337890625,195.78643859375Q300.3721337890625,196.07535859375,300.4612337890625,196.36899859375Q300.5503337890625,196.66264859375,300.6249337890625,196.96030859375Q300.6994337890625,197.25796859375,300.7593337890625,197.55895859375Q300.8191337890625,197.85985859375,300.8642337890625,198.16345859375Q300.9092337890625,198.46695859375,300.9393337890625,198.77235859375Q300.9693337890625,199.07775859375,300.9844337890625,199.38425859375Q300.9995337890625,199.69065859375,300.9995337890625,199.99755859375ZM368.3243337890625,199.99755859375Q368.3243337890625,200.30445859375,368.3092337890625,200.61085859375Q368.2942337890625,200.91735859375,368.2641337890625,201.22275859375Q368.2340337890625,201.52815859375,368.1890337890625,201.83165859375Q368.1440337890625,202.13525859375,368.0841337890625,202.43615859375Q368.0242337890625,202.73715859375,367.9497337890625,203.03485859375Q367.8751337890625,203.33245859375,367.7860337890625,203.62615859375Q367.6970337890625,203.91975859375,367.5936337890625,204.20865859375Q367.4902337890625,204.49755859375,367.3728337890625,204.78105859375Q367.2553337890625,205.06455859375,367.1241337890625,205.34195859375Q366.9930337890625,205.61935859375,366.8483337890625,205.89005859374998Q366.7036337890625,206.16065859375,366.5459337890625,206.42385859375Q366.3881337890625,206.68705859375,366.2177337890625,206.94215859375Q366.0472337890625,207.19735859375,365.8644337890625,207.44375859375Q365.6816337890625,207.69025859375,365.4869337890625,207.92745859375Q365.29233378906247,208.16465859375,365.0862337890625,208.39205859375Q364.8801337890625,208.61945859375,364.6631337890625,208.83635859375Q364.4462337890625,209.05335859375,364.2188337890625,209.25945859375Q363.9914337890625,209.46555859375,363.7542337890625,209.66015859375Q363.5170337890625,209.85485859375,363.2706337890625,210.03765859375Q363.0241337890625,210.22045859375,362.7689337890625,210.39095859374999Q362.5138337890625,210.56135859375001,362.2506337890625,210.71915859375Q361.9874337890625,210.87695859375,361.7168337890625,211.02155859375Q361.4462337890625,211.16625859375,361.1688337890625,211.29745859375Q360.8914337890625,211.42865859375001,360.6079337890625,211.54605859375Q360.3244337890625,211.66345859375,360.03553378906247,211.76685859375Q359.7465337890625,211.87025859375,359.4529337890625,211.95935859375Q359.1593337890625,212.04835859375,358.86163378906247,212.12295859375Q358.5639337890625,212.19745859375,358.2630337890625,212.25735859374998Q357.9620337890625,212.31725859375,357.6585337890625,212.36225859375Q357.3549337890625,212.40725859375,357.0496337890625,212.43735859375Q356.7442337890625,212.46745859375,356.4377337890625,212.48245859375Q356.1312337890625,212.49755859375,355.8244337890625,212.49755859375Q355.5175337890625,212.49755859375,355.2110337890625,212.48245859375Q354.9045337890625,212.46745859375,354.5992337890625,212.43735859375Q354.2938337890625,212.40725859375,353.9902337890625,212.36225859375Q353.6867337890625,212.31725859375,353.3857337890625,212.25735859374998Q353.0848337890625,212.19755859375,352.7871337890625,212.12295859375Q352.48953378906253,212.04835859375,352.1958337890625,211.95935859375Q351.9022337890625,211.87025859375,351.6133337890625,211.76685859375Q351.3243337890625,211.66345859375,351.0408337890625,211.54605859375Q350.7573337890625,211.42865859375001,350.4799337890625,211.29745859375Q350.2025337890625,211.16625859375,349.9319337890625,211.02155859375Q349.6613337890625,210.87695859375,349.3981337890625,210.71915859375Q349.13493378906253,210.56135859375001,348.8798337890625,210.39095859374999Q348.6246337890625,210.22045859375,348.3782337890625,210.03765859375Q348.1317337890625,209.85485859375,347.8945337890625,209.66015859375Q347.6573337890625,209.46555859375,347.4299337890625,209.25945859375Q347.2025337890625,209.05335859375,346.9856337890625,208.83635859375Q346.7686337890625,208.61945859375,346.5625337890625,208.39205859375Q346.3564337890625,208.16465859375,346.1618337890625,207.92745859375Q345.9671337890625,207.69025859375,345.7843337890625,207.44375859375Q345.6015337890625,207.19735859375,345.4310337890625,206.94215859375Q345.26063378906247,206.68705859375,345.1028337890625,206.42385859375Q344.9450337890625,206.16065859375,344.8004337890625,205.89005859374998Q344.6557337890625,205.61935859375,344.5245337890625,205.34195859375Q344.39333378906247,205.06455859375,344.2759337890625,204.78105859375Q344.1585337890625,204.49755859375,344.0551337890625,204.20865859375Q343.9517337890625,203.91975859375,343.86273378906253,203.62615859375Q343.7736337890625,203.33245859375,343.69903378906247,203.03485859375Q343.6245337890625,202.73715859375,343.5646337890625,202.43615859375Q343.50473378906247,202.13525859375,343.4597337890625,201.83165859375Q343.4147337890625,201.52815859375,343.3846337890625,201.22275859375Q343.3545337890625,200.91735859375,343.3395337890625,200.61085859375Q343.3244337890625,200.30445859375,343.3244337890625,199.99755859375Q343.3244337890625,199.69065859375,343.3395337890625,199.38425859375Q343.3545337890625,199.07775859375,343.3846337890625,198.77235859375Q343.4147337890625,198.46695859375,343.4597337890625,198.16345859375Q343.50473378906247,197.85985859375,343.5646337890625,197.55895859375Q343.6245337890625,197.25796859375,343.69903378906247,196.96030859375Q343.7736337890625,196.66264859375,343.86273378906253,196.36899859375Q343.9517337890625,196.07535859375,344.0551337890625,195.78643859375Q344.1585337890625,195.49751859375,344.2759337890625,195.21401859375Q344.39333378906247,194.93051859375,344.5245337890625,194.65311859375Q344.6557337890625,194.37571859375,344.8004337890625,194.10509859375Q344.9450337890625,193.83447859375,345.1028337890625,193.57127859375Q345.26063378906247,193.30806859375,345.4310337890625,193.05292859375Q345.6015337890625,192.79778859375,345.7843337890625,192.55131859375Q345.9671337890625,192.30484859375,346.1618337890625,192.06763859375Q346.3564337890625,191.83043859375,346.5625337890625,191.60306859375Q346.7686337890625,191.37570859375,346.9856337890625,191.15872859375Q347.2025337890625,190.94173859375,347.4299337890625,190.73566859375Q347.6573337890625,190.52959859375,347.8945337890625,190.33492859375Q348.1317337890625,190.14025859375,348.3782337890625,189.95746859375Q348.6246337890625,189.77466859375,348.8798337890625,189.60418859375Q349.13493378906253,189.43370859375,349.3981337890625,189.27594859375Q349.6613337890625,189.11819859375,349.9319337890625,188.97353859375Q350.2025337890625,188.82888859375,350.4799337890625,188.69768859375Q350.7573337890625,188.56649859375,351.0408337890625,188.44906459375Q351.3243337890625,188.33163459375,351.6133337890625,188.22825759375Q351.9022337890625,188.12488059375,352.1958337890625,188.03580459375Q352.48953378906253,187.94672859375,352.7871337890625,187.87216759375Q353.0848337890625,187.79760759375,353.3857337890625,187.73774259375Q353.6867337890625,187.67787759375,353.9902337890625,187.63285259375Q354.2938337890625,187.58782679375,354.5992337890625,187.55774949375Q354.9045337890625,187.52767219375,355.2110337890625,187.51261539375Q355.5175337890625,187.49755859375,355.8244337890625,187.49755859375Q356.1312337890625,187.49755859375,356.4377337890625,187.51261539375Q356.7442337890625,187.52767219375,357.0496337890625,187.55774949375Q357.3549337890625,187.58782679375,357.6585337890625,187.63285259375Q357.9620337890625,187.67787759375,358.2630337890625,187.73774259375Q358.5639337890625,187.79760759375,358.86163378906247,187.87216759375Q359.1593337890625,187.94672859375,359.4529337890625,188.03580459375Q359.7465337890625,188.12488059375,360.03553378906247,188.22825759375Q360.3244337890625,188.33163459375,360.6079337890625,188.44906459375Q360.8914337890625,188.56649859375,361.1688337890625,188.69768859375Q361.4462337890625,188.82888859375,361.7168337890625,188.97353859375Q361.9874337890625,189.11819859375,362.2506337890625,189.27594859375Q362.5138337890625,189.43370859375,362.7689337890625,189.60418859375Q363.0241337890625,189.77466859375,363.2706337890625,189.95746859375Q363.5170337890625,190.14025859375,363.7542337890625,190.33492859375Q363.9914337890625,190.52959859375,364.2188337890625,190.73566859375Q364.4462337890625,190.94173859375,364.6632337890625,191.15872859375Q364.8801337890625,191.37570859375,365.0862337890625,191.60306859375Q365.29233378906247,191.83043859375,365.4870337890625,192.06763859375Q365.6816337890625,192.30484859375,365.8644337890625,192.55131859375Q366.0472337890625,192.79778859375,366.2177337890625,193.05292859375Q366.3881337890625,193.30807859375,366.5459337890625,193.57127859375Q366.7037337890625,193.83447859375,366.8483337890625,194.10509859375Q366.9930337890625,194.37572859375,367.1241337890625,194.65311859375Q367.2554337890625,194.93051859375,367.3728337890625,195.21401859375Q367.4902337890625,195.49751859375,367.5936337890625,195.78643859375Q367.6970337890625,196.07535859375,367.7860337890625,196.36899859375Q367.8751337890625,196.66264859375,367.9497337890625,196.96030859375Q368.0242337890625,197.25796859375,368.0841337890625,197.55895859375Q368.1440337890625,197.85985859375,368.1890337890625,198.16345859375Q368.2340337890625,198.46695859375,368.2641337890625,198.77235859375Q368.2942337890625,199.07775859375,368.3092337890625,199.38425859375Q368.3243337890625,199.69065859375,368.3243337890625,199.99755859375Z" fill="#123049" fill-opacity="0.6392157077789307"/></g></g></g></svg>