<svg xmlns="http://www.w3.org/2000/svg" xmlns:xlink="http://www.w3.org/1999/xlink" fill="none" version="1.1" width="712" height="400" viewBox="0 0 712 400"><defs><clipPath id="master_svg0_31_6729"><rect x="0" y="0" width="712" height="400" rx="0"/></clipPath></defs><g style="mix-blend-mode:passthrough" clip-path="url(#master_svg0_31_6729)"><rect x="0" y="0" width="712" height="400" rx="0" fill="#FFFFFF" fill-opacity="1"/><g style="mix-blend-mode:passthrough"><g style="mix-blend-mode:passthrough" transform="matrix(0.7071067690849304,0.7071067690849304,-0.7071067690849304,0.7071067690849304,190.5233264323378,-216.4167047105147)"><path d="M467.83574060058595,135.69204063262939C467.8347406005859,128.0059306326294,461.60474060058596,121.7750089626294,453.91814060058596,121.7748910326294L370.41644060058593,121.77360999832939C362.73033060058594,121.7734920816294,356.4995747175859,128.0042306326294,356.4996712535859,135.6903406326294L356.50072001558596,219.1920406326294C356.5008165605859,226.8786406326294,362.73172060058596,233.10864063262937,370.4178406005859,233.1096406326294L453.91954060058595,233.11064063262938C461.60574060058593,233.11064063262938,467.8367406005859,226.8806406326294,467.8367406005859,219.1938406326294L467.83574060058595,135.69204063262939ZM370.4189406005859,132.20994063262938L453.92064060058595,132.2112406326294L454.09464060058593,132.2155406326294C455.93514060058595,132.3060406326294,457.3997406005859,133.82724063262938,457.3997406005859,135.6905406326294L457.40074060058595,219.1922406326294L457.39674060058593,219.3662406326294C457.3057406005859,221.2067406326294,455.78494060058597,222.6716406326294,453.92174060058596,222.6716406326294L370.42004060058593,222.6706406326294L370.2464406005859,222.6656406326294C368.40554060058594,222.57564063262942,366.94084060058594,221.05404063262938,366.9407406005859,219.19084063262937L366.93974060058594,135.6891406326294L366.94394060058596,135.51554063262938C367.0344406005859,133.6746406326294,368.55564060058595,132.20994063262938,370.4189406005859,132.20994063262938Z" fill-rule="evenodd" fill="#00B9E3" fill-opacity="0.7799999713897705"/></g><g style="mix-blend-mode:passthrough"><ellipse cx="356.50013160705566" cy="200.5059814453125" rx="23.484506607055664" ry="23.4852294921875" fill="#123049" fill-opacity="0.6392157077789307"/></g></g><g style="opacity:0.10000000149011612;mix-blend-mode:passthrough"><g style="mix-blend-mode:passthrough" transform="matrix(0.7071067690849304,0.7071067690849304,-0.7071067690849304,0.7071067690849304,70.72931856455261,-265.2087286041765)"><path d="M466.83591607666017,-33.30813198242188C466.83491607666014,-40.994241982421876,460.6049160766602,-47.22516365242188,452.9183160766602,-47.22528158242187L369.41661607666015,-47.22656261672188C361.73050607666016,-47.22668053342188,355.49975019366013,-40.995941982421876,355.49984672966013,-33.309831982421876L355.5008954916602,50.19186801757813C355.50099203666014,57.87846801757813,361.7318960766602,64.10846801757812,369.41801607666014,64.10946801757812L452.91971607666017,64.11046801757813C460.60591607666015,64.11046801757813,466.83691607666015,57.880468017578124,466.83691607666015,50.19366801757812L466.83591607666017,-33.30813198242188ZM369.41911607666015,-36.790331982421876L452.9208160766602,-36.789031982421875L453.09481607666015,-36.78483198242188C454.9353160766602,-36.694231982421876,456.39991607666013,-35.173031982421875,456.39991607666013,-33.30973198242187L456.40091607666017,50.19196801757812L456.39691607666015,50.365968017578126C456.30591607666014,52.20646801757813,454.7851160766602,53.67146801757812,452.9219160766602,53.67146801757812L369.42021607666015,53.669468017578126L369.24661607666013,53.66546801757812C367.40571607666016,53.57546801757813,365.94101607666016,52.05376801757812,365.94091607666013,50.19056801757813L365.93991607666015,-33.31113198242188L365.9441160766602,-33.48483198242187C366.03461607666014,-35.325631982421875,367.55581607666016,-36.790331982421876,369.41911607666015,-36.790331982421876Z" fill-rule="evenodd" fill="#00B9E3" fill-opacity="0.7799999713897705"/></g><g style="mix-blend-mode:passthrough"><ellipse cx="355.50013160705566" cy="31.5059814453125" rx="23.484506607055664" ry="23.4852294921875" fill="#123049" fill-opacity="0.6392157077789307"/></g></g><g style="opacity:0.10000000149011612;mix-blend-mode:passthrough"><g style="mix-blend-mode:passthrough" transform="matrix(0.7071067690849304,0.7071067690849304,-0.7071067690849304,0.7071067690849304,60.830656779421815,-409.3129275174681)"><path d="M648.5437406005859,-128.64416741470336C648.5437406005859,-136.33028741470338,642.3127406005859,-142.56107741470336,634.6267406005859,-142.56107741470336L551.1247406005859,-142.56107741470336C543.438540600586,-142.56107741470336,537.2077406005859,-136.33028741470338,537.2077406005859,-128.64416741470336L537.2077406005859,-45.142477414703365C537.2077406005859,-37.45597741470337,543.438540600586,-31.225377414703374,551.1247406005859,-31.225377414703374L634.6267406005859,-31.225377414703374C642.3127406005859,-31.225377414703374,648.5437406005859,-37.45597741470337,648.5437406005859,-45.142477414703365L648.5437406005859,-128.64416741470336ZM551.1271406005859,-132.12471641470336L634.628740600586,-132.12471641470336L634.8027406005859,-132.12045841470336C636.6437406005859,-132.02997541470336,638.1077406005859,-130.50878441470337,638.1077406005859,-128.64547741470338L638.1077406005859,-45.143777414703365L638.103740600586,-44.96977741470337C638.013740600586,-43.12927741470337,636.4917406005859,-41.66447741470337,634.628740600586,-41.66447741470337L551.1271406005859,-41.66447741470337L550.9535406005859,-41.668877414703374C549.1126406005859,-41.759377414703366,547.6479406005859,-43.28057741470337,547.6479406005859,-45.143777414703365L547.6479406005859,-128.64547741470338L547.652240600586,-128.81912741470336C547.7426406005859,-130.65998341470336,549.2638406005859,-132.12471641470336,551.1271406005859,-132.12471641470336Z" fill-rule="evenodd" fill="#00B9E3" fill-opacity="0.7799999713897705"/></g><g style="mix-blend-mode:passthrough"><ellipse cx="524.5001335144043" cy="-52.4940185546875" rx="23.484508514404297" ry="23.4852294921875" fill="#123049" fill-opacity="0.6392157077789307"/></g></g><g style="opacity:0.10000000149011612;mix-blend-mode:passthrough"><g style="mix-blend-mode:passthrough" transform="matrix(0.7071067690849304,0.7071067690849304,-0.7071067690849304,0.7071067690849304,-38.018196175300744,-171.49185171885964)"><path d="M312.6898779296875,-129.6981532814026C312.71287792968747,-137.4073232814026,306.48187792968747,-143.6382532814026,298.7728779296875,-143.61535328140258L215.0205779296875,-143.3666532814026C207.3113779296875,-143.3437532814026,201.0432779296875,-137.07569328140258,201.0203779296875,-129.36652328140258L200.7714779296875,-45.61445328140259C200.74857792968749,-37.904853281402595,206.9794779296875,-31.67435328140259,214.68867792968751,-31.697153281402592L298.44087792968753,-31.945953281402595C306.1498779296875,-31.968853281402588,312.4178779296875,-38.23645328140259,312.44087792968753,-45.946053281402584L312.6898779296875,-129.6981532814026ZM214.9917779296875,-132.89929328140258L298.7438779296875,-133.1480132814026L298.9178779296875,-133.1442632814026C300.7638779296875,-133.0589932814026,302.2288779296875,-131.5376022814026,302.2228779296875,-129.66871328140257L301.9738779296875,-45.91665328140259L301.9688779296875,-45.742153281402594C301.8728779296875,-43.89575328140259,300.3428779296875,-42.422153281402586,298.4738779296875,-42.416553281402585L214.7220779296875,-42.167853281402586L214.5478779296875,-42.171653281402584C212.7017779296875,-42.25695328140259,211.2371779296875,-43.77845328140259,211.2427779296875,-45.647153281402595L211.4916779296875,-129.3992632814026L211.4964779296875,-129.57344328140258C211.5927779296875,-131.42008628140258,213.1228779296875,-132.89374328140258,214.9917779296875,-132.89929328140258Z" fill-rule="evenodd" fill="#00B9E3" fill-opacity="0.7799999713897705"/></g><g style="mix-blend-mode:passthrough"><ellipse cx="188.0001335144043" cy="-52.4940185546875" rx="23.625133514404297" ry="23.4852294921875" fill="#123049" fill-opacity="0.6392157077789307"/></g></g><g style="opacity:0.05999999865889549;mix-blend-mode:passthrough"><g style="mix-blend-mode:passthrough" transform="matrix(0.7071067690849304,0.7071067690849304,-0.7071067690849304,0.7071067690849304,89.98973921458588,20.292140733076792)"><path d="M131.8360915527344,132.69199540252686C131.83509155273435,125.00583540252686,125.60509155273438,118.77490787252685,117.91849155273438,118.77478994252685L34.416791552734374,118.77350890852685C26.730681552734374,118.77339099252686,20.499925669734374,125.00412540252685,20.500022205734375,132.69029540252686L20.501070967734375,216.19199540252686C20.501167512734376,223.87829540252687,26.732071552734375,230.10929540252687,34.41819155273438,230.10929540252687L117.91989155273437,230.11029540252684C125.60609155273437,230.11029540252684,131.83709155273436,223.88029540252685,131.83709155273436,216.19369540252686L131.8360915527344,132.69199540252686ZM34.418991552734376,129.20959540252684L117.92079155273437,129.21089540252686L118.09469155273437,129.21519540252686C119.93529155273437,129.30569540252685,121.40009155273438,130.82689540252684,121.40009155273438,132.69019540252685L121.40109155273437,216.19189540252685L121.39709155273438,216.36589540252686C121.30609155273437,218.20639540252685,119.78499155273437,219.67129540252685,117.92189155273438,219.67129540252685L34.42019155273437,219.67029540252685L34.246491552734376,219.66529540252685C32.405691552734375,219.57529540252688,30.940891552734374,218.05369540252684,30.940891552734374,216.19049540252684L30.939791552734377,132.68879540252686L30.944091552734378,132.51519540252684C31.034591552734376,130.67429540252687,32.55569155273437,129.20959540252684,34.418991552734376,129.20959540252684Z" fill-rule="evenodd" fill="#00B9E3" fill-opacity="0.7799999713897705"/></g><g style="mix-blend-mode:passthrough"><ellipse cx="20.500131607055664" cy="197.5059814453125" rx="23.484506607055664" ry="23.4852294921875" fill="#123049" fill-opacity="0.6392157077789307"/></g></g><g style="opacity:0.10000000149011612;mix-blend-mode:passthrough"><g style="mix-blend-mode:passthrough" transform="matrix(0.7071067690849304,0.7071067690849304,-0.7071067690849304,0.7071067690849304,-28.80419799168243,-28.913922060654897)"><path d="M131.8360915527344,-35.30800459747314C131.83509155273435,-42.994164597473144,125.60509155273438,-49.22509212747315,117.91849155273438,-49.22521005747314L34.416791552734374,-49.22649109147314C26.730681552734374,-49.226609007473144,20.499925669734374,-42.99587459747315,20.500022205734375,-35.30970459747314L20.501070967734375,48.19199540252686C20.501167512734376,55.87829540252686,26.732071552734375,62.109295402526854,34.41819155273438,62.109295402526854L117.91989155273437,62.11029540252686C125.60609155273437,62.11029540252686,131.83709155273436,55.880295402526855,131.83709155273436,48.193695402526856L131.8360915527344,-35.30800459747314ZM34.418991552734376,-38.79040459747314L117.92079155273437,-38.78910459747314L118.09469155273437,-38.78480459747314C119.93529155273437,-38.69430459747314,121.40009155273438,-37.17310459747314,121.40009155273438,-35.309804597473146L121.40109155273437,48.19189540252685L121.39709155273438,48.36589540252686C121.30609155273437,50.20639540252685,119.78499155273437,51.67129540252685,117.92189155273438,51.67129540252685L34.42019155273437,51.67029540252686L34.246491552734376,51.66529540252685C32.405691552734375,51.57529540252686,30.940891552734374,50.053695402526856,30.940891552734374,48.19049540252685L30.939791552734377,-35.31120459747314L30.944091552734378,-35.48480459747314C31.034591552734376,-37.32570459747315,32.55569155273437,-38.79040459747314,34.418991552734376,-38.79040459747314Z" fill-rule="evenodd" fill="#00B9E3" fill-opacity="0.7799999713897705"/></g><g style="mix-blend-mode:passthrough"><ellipse cx="20.500131607055664" cy="29.5059814453125" rx="23.484506607055664" ry="23.4852294921875" fill="#123049" fill-opacity="0.6392157077789307"/></g></g><g style="opacity:0.05999999865889549;mix-blend-mode:passthrough"><g style="mix-blend-mode:passthrough" transform="matrix(0.7071067690849304,0.7071067690849304,-0.7071067690849304,0.7071067690849304,298.1260798383766,-310.19358797409336)"><path d="M634.8358321533203,218.69170957183837C634.8358321533203,211.00562957183837,628.6048321533203,204.77469997183837,620.9185321533203,204.77458204183839L537.4168321533203,204.77330100783837C529.7306621533203,204.77318309153839,523.4999104110203,211.00391957183837,523.5000069473203,218.69000957183837L523.5010557133203,302.19180957183835C523.5011522533204,309.8782095718384,529.7320621533203,316.1092095718384,537.4182321533203,316.1092095718384L620.9199321533204,316.11020957183837C628.6068321533203,316.11020957183837,634.8368321533203,309.88020957183835,634.8368321533203,302.1935095718384L634.8358321533203,218.69170957183837ZM537.4190321533204,215.20950957183837L620.9207321533203,215.21080957183838L621.0947321533204,215.21510957183838C622.9352321533203,215.30560957183837,624.3998321533203,216.82680957183837,624.3998321533203,218.69010957183838L624.4008321533203,302.19180957183835L624.3968321533204,302.3658095718384C624.3058321533204,304.20630957183835,622.7850321533203,305.6712095718384,620.9219321533203,305.6712095718384L537.4201321533203,305.67020957183837L537.2465321533203,305.6652095718384C535.4056321533203,305.5752095718384,533.9409321533203,304.05360957183836,533.9408321533203,302.19040957183836L533.9398321533204,218.6887095718384L533.9440321533203,218.51510957183837C534.0345321533204,216.6742095718384,535.5557321533203,215.20950957183837,537.4190321533204,215.20950957183837Z" fill-rule="evenodd" fill="#00B9E3" fill-opacity="0.7799999713897705"/></g><g style="mix-blend-mode:passthrough"><ellipse cx="523.5001316070557" cy="283.5059814453125" rx="23.484506607055664" ry="23.4852294921875" fill="#123049" fill-opacity="0.6392157077789307"/></g></g><g style="opacity:0.05999999865889549;mix-blend-mode:passthrough"><g style="mix-blend-mode:passthrough" transform="matrix(0.7071067690849304,0.7071067690849304,-0.7071067690849304,0.7071067690849304,199.1282745614826,-71.19124090329751)"><path d="M296.83557275390626,218.69186801757812C296.83557275390626,211.00575801757813,290.60457275390627,204.77483634757812,282.91827275390625,204.77471841757813L199.41657275390625,204.77343738327812C191.73040275390625,204.77331946657813,185.49965101160626,211.00405801757813,185.49974754790625,218.69016801757812L185.50079631390625,302.19186801757814C185.50089285390624,309.87846801757814,191.73180275390624,316.1084680175781,199.41797275390624,316.10946801757814L282.91967275390624,316.1104680175781C290.6065727539062,316.1104680175781,296.83657275390624,309.8804680175781,296.83657275390624,302.19366801757815L296.83557275390626,218.69186801757812ZM199.41877275390624,215.20926801757813L282.92047275390627,215.2105680175781L283.09447275390625,215.2148680175781C284.93497275390627,215.30536801757813,286.3995727539062,216.82656801757813,286.3995727539062,218.68986801757814L286.40057275390626,302.1915680175781L286.39657275390624,302.36556801757814C286.30557275390623,304.2060680175781,284.7847727539063,305.6704680175781,282.9215727539063,305.6704680175781L199.41987275390625,305.66946801757814L199.24627275390625,305.6654680175781C197.40537275390625,305.5744680175781,195.94067275390626,304.0533680175781,195.94057275390625,302.1901680175781L195.93957275390625,218.68846801757812L195.94377275390625,218.51486801757812C196.03427275390624,216.67396801757812,197.55547275390626,215.20926801757813,199.41877275390624,215.20926801757813Z" fill-rule="evenodd" fill="#00B9E3" fill-opacity="0.7799999713897705"/></g><g style="mix-blend-mode:passthrough"><ellipse cx="185.50013160705566" cy="283.5059814453125" rx="23.484506607055664" ry="23.4852294921875" fill="#123049" fill-opacity="0.6392157077789307"/></g></g><g style="opacity:0.07000000029802322;mix-blend-mode:passthrough"><g style="mix-blend-mode:passthrough" transform="matrix(0.7071067690849304,0.7071067690849304,-0.7071067690849304,0.7071067690849304,180.03928327747786,-359.10666766012406)"><path d="M634.835740600586,51.691695402526854C634.835740600586,44.005585402526854,628.604740600586,37.774663732526854,620.9184406005859,37.77454580252686L537.416740600586,37.77326476822685C529.7305706005859,37.77314685152685,523.499818858286,44.003885402526855,523.499915394586,51.689995402526854L523.5009641605859,135.19169540252688C523.501060700586,142.87829540252687,529.7319706005859,149.10829540252684,537.418140600586,149.10929540252687L620.919840600586,149.11029540252684C628.6067406005859,149.11029540252684,634.8367406005859,142.88029540252685,634.8367406005859,135.19349540252685L634.835740600586,51.691695402526854ZM537.418940600586,48.209495402526855L620.9206406005859,48.210795402526855L621.094640600586,48.21499540252685C622.9351406005859,48.305595402526855,624.3997406005859,49.826795402526855,624.3997406005859,51.69009540252686L624.4007406005859,135.19179540252685L624.396740600586,135.36579540252686C624.305740600586,137.20629540252685,622.784940600586,138.67129540252685,620.921740600586,138.67129540252685L537.4200406005859,138.66929540252687L537.246440600586,138.66529540252685C535.4055406005859,138.57529540252688,533.940840600586,137.05359540252687,533.940740600586,135.19039540252686L533.939740600586,51.688695402526854L533.943940600586,51.51499540252686C534.034440600586,49.674195402526856,535.5556406005859,48.209495402526855,537.418940600586,48.209495402526855Z" fill-rule="evenodd" fill="#00B9E3" fill-opacity="0.7799999713897705"/></g><g style="mix-blend-mode:passthrough"><ellipse cx="523.5001316070557" cy="116.5059814453125" rx="23.484506607055664" ry="23.4852294921875" fill="#123049" fill-opacity="0.6392157077789307"/></g></g><g style="opacity:0.07000000029802322;mix-blend-mode:passthrough"><g style="mix-blend-mode:passthrough" transform="matrix(0.7071067690849304,0.7071067690849304,-0.7071067690849304,0.7071067690849304,81.04143006844419,-120.10458061857202)"><path d="M296.8357711181641,51.69006597442627C296.8357711181641,44.00395597442627,290.6047711181641,37.773121833426266,282.91847111816406,37.773121833426266L199.41677111816406,37.773121833426266C191.73060111816406,37.773121833426266,185.49977111816406,44.00395597442627,185.49977111816406,51.69006597442627L185.49977111816406,135.1917659744263C185.49977111816406,142.8783659744263,191.73060111816406,149.10836597442625,199.41677111816406,149.10836597442625L282.91847111816406,149.10836597442625C290.6047711181641,149.10836597442625,296.8357711181641,142.8783659744263,296.8357711181641,135.1917659744263L296.8357711181641,51.69006597442627ZM199.41897111816405,48.20936597442627L282.9206711181641,48.20936597442627L283.09467111816406,48.21366597442627C284.9351711181641,48.30416597442627,286.39977111816404,49.82536597442627,286.39977111816404,51.68866597442627L286.39977111816404,135.19036597442627L286.3957711181641,135.36436597442628C286.30477111816407,137.20486597442627,284.78377111816405,138.66936597442628,282.9206711181641,138.66936597442628L199.41897111816405,138.66936597442628L199.24527111816406,138.66536597442627C197.40447111816405,138.57436597442626,195.93967111816406,137.05346597442627,195.93967111816406,135.19036597442627L195.93967111816406,51.68866597442627L195.94397111816406,51.51496597442627C196.03447111816405,49.67416597442627,197.55567111816407,48.20936597442627,199.41897111816405,48.20936597442627Z" fill-rule="evenodd" fill="#00B9E3" fill-opacity="0.7799999713897705"/></g><g style="mix-blend-mode:passthrough"><ellipse cx="185.50013160705566" cy="116.5059814453125" rx="23.484506607055664" ry="23.4852294921875" fill="#123049" fill-opacity="0.6392157077789307"/></g></g><g style="opacity:0.05999999865889549;mix-blend-mode:passthrough"><g style="mix-blend-mode:passthrough" transform="matrix(0.7071067690849304,0.7071067690849304,-0.7071067690849304,0.7071067690849304,287.6423146743437,-452.8833599313566)"><path d="M801.835740600586,134.69169540252685C801.835740600586,127.00558540252686,795.604740600586,120.77466373252686,787.9184406005859,120.77454580252686L704.416740600586,120.77326476822685C696.7305706005859,120.77314685152686,690.499818858286,127.00388540252686,690.499915394586,134.68999540252685L690.5009641605859,218.19169540252688C690.501060700586,225.87829540252687,696.7319706005859,232.10829540252684,704.418140600586,232.10929540252687L787.919840600586,232.11029540252684C795.6067406005859,232.11029540252684,801.8367406005859,225.88029540252685,801.8367406005859,218.19349540252685L801.835740600586,134.69169540252685ZM704.418940600586,131.20949540252684L787.9206406005859,131.21079540252686L788.094640600586,131.21499540252685C789.9351406005859,131.30559540252685,791.3997406005859,132.82679540252684,791.3997406005859,134.69009540252685L791.4007406005859,218.19179540252685L791.396740600586,218.36579540252686C791.305740600586,220.20629540252685,789.784940600586,221.67129540252685,787.921740600586,221.67129540252685L704.4200406005859,221.66929540252687L704.246440600586,221.66529540252685C702.4055406005859,221.57529540252688,700.940840600586,220.05359540252687,700.940740600586,218.19039540252686L700.939740600586,134.68869540252686L700.943940600586,134.51499540252686C701.034440600586,132.67419540252686,702.5556406005859,131.20949540252684,704.418940600586,131.20949540252684Z" fill-rule="evenodd" fill="#00B9E3" fill-opacity="0.7799999713897705"/></g><g style="mix-blend-mode:passthrough"><ellipse cx="690.5001316070557" cy="199.5059814453125" rx="23.484506607055664" ry="23.4852294921875" fill="#123049" fill-opacity="0.6392157077789307"/></g></g><g style="opacity:0.10000000149011612;mix-blend-mode:passthrough"><g style="mix-blend-mode:passthrough" transform="matrix(0.7071067690849304,0.7071067690849304,-0.7071067690849304,0.7071067690849304,168.84841425330762,-502.08933796377426)"><path d="M801.8356566772461,-33.30821781311035C801.8356566772461,-40.99432781311035,795.6046566772461,-47.22524948311035,787.918356677246,-47.22536741311035L704.4166566772461,-47.226648447410355C696.7304866772461,-47.226766364110354,690.4997349349461,-40.99602781311035,690.4998314712461,-33.30991781311035L690.5008802372461,50.191782186889654C690.5009767772461,57.87838218688965,696.731886677246,64.10838218688964,704.4180566772461,64.10938218688965L787.9197566772461,64.11038218688965C795.6066566772461,64.11038218688965,801.8366566772461,57.88038218688965,801.8366566772461,50.19358218688964L801.8356566772461,-33.30821781311035ZM704.4188566772461,-36.790517813110355L787.920556677246,-36.789217813110355L788.0945566772461,-36.78501781311035C789.935056677246,-36.69451781311035,791.3996566772461,-35.17331781311035,791.3996566772461,-33.30991781311035L791.400656677246,50.191782186889654L791.3966566772461,50.36568218688964C791.3056566772461,52.20628218688965,789.7848566772461,53.671382186889645,787.9216566772461,53.671382186889645L704.4199566772461,53.66938218688965L704.2463566772461,53.665382186889644C702.4054566772461,53.57438218688965,700.9407566772461,52.05348218688965,700.9406566772461,50.19038218688965L700.9396566772461,-33.31131781311035L700.9438566772461,-33.48501781311035C701.0343566772461,-35.32581781311035,702.555556677246,-36.790517813110355,704.4188566772461,-36.790517813110355Z" fill-rule="evenodd" fill="#00B9E3" fill-opacity="0.7799999713897705"/></g><g style="mix-blend-mode:passthrough"><ellipse cx="690.5001316070557" cy="31.5059814453125" rx="23.484506607055664" ry="23.4852294921875" fill="#123049" fill-opacity="0.6392157077789307"/></g></g></g></svg>