<svg xmlns="http://www.w3.org/2000/svg" xmlns:xlink="http://www.w3.org/1999/xlink" fill="none" version="1.1" width="712" height="400" viewBox="0 0 712 400"><defs><clipPath id="master_svg0_31_6934"><rect x="0" y="0" width="712" height="400" rx="0"/></clipPath></defs><g style="mix-blend-mode:passthrough" clip-path="url(#master_svg0_31_6934)"><rect x="0" y="0" width="712" height="400" rx="0" fill="#FFFFFF" fill-opacity="1"/><g style="mix-blend-mode:passthrough"><g style="mix-blend-mode:passthrough" transform="matrix(0.7071067690849304,0.7071067690849304,-0.7071067690849304,0.7071067690849304,172.35671423497115,-180.44965652813698)"><path d="M453.83036621093754,97.408625C453.83036621093754,89.722625,447.5993662109375,83.49192500000001,439.9133662109375,83.49192500000001L356.4133662109375,83.49192500000001C348.7273662109375,83.49192500000001,342.4966662109375,89.722625,342.4966662109375,97.408625L342.4966662109375,180.908625C342.4966662109375,188.594925,348.7273662109375,194.825225,356.4133662109375,194.825225L439.9133662109375,194.825225C447.5993662109375,194.825225,453.83036621093754,188.594925,453.83036621093754,180.908625L453.83036621093754,97.408625ZM356.4126662109375,93.931525L439.91236621093753,93.931525L440.0863662109375,93.935825C441.9273662109375,94.026225,443.39136621093746,95.547425,443.39136621093746,97.410725L443.39136621093746,180.910625L443.3873662109375,181.08462500000002C443.2973662109375,182.92512499999998,441.7753662109375,184.389825,439.91236621093753,184.389825L356.4126662109375,184.389825L356.2389662109375,184.385525C354.3981662109375,184.295025,352.9334662109375,182.773725,352.9334662109375,180.910625L352.9334662109375,97.410725L352.9377662109375,97.237025C353.0281662109375,95.396225,354.5493662109375,93.931525,356.4126662109375,93.931525Z" fill-rule="evenodd" fill="#00B9E3" fill-opacity="0.7799999713897705"/></g><g style="mix-blend-mode:passthrough"><path d="M355.721241796875,176.888471178125C357.578841796875,176.943799078125,359.374741796875,177.357558078125,361.036641796875,178.098520078125C361.036641796875,178.098520078125,361.402941796875,178.267810078125,361.402941796875,178.267810078125C361.402941796875,178.267810078125,361.431241796875,178.282810078125,361.431241796875,178.282810078125C361.796341796875,178.459470078125,362.160841796875,178.657130078125,362.526341796875,178.876200078125C362.943541796875,179.125570078125,363.349341796875,179.398360078125,363.745041796875,179.694870078125C363.745041796875,179.694870078125,364.200541796875,180.050310078125,364.200541796875,180.050310078125C364.200541796875,180.050310078125,364.357841796875,180.179090078125,364.357841796875,180.179090078125C366.720441796875,182.160110078125,368.384041796875,184.853890078125,369.072441796875,187.862580078125C369.072441796875,187.862580078125,369.166241796875,188.306280078125,369.166241796875,188.306280078125C369.310941796875,189.048780078125,369.396441796875,189.806280078125,369.420841796875,190.573580078125C369.420841796875,190.573580078125,369.425441796875,191.100780078125,369.425441796875,191.100780078125C369.425441796875,191.100780078125,369.373641796875,194.365980078125,369.373641796875,194.365980078125C369.373641796875,194.365980078125,372.608641796875,194.812480078125,372.608641796875,194.812480078125C379.554341796875,195.771080078125,384.794541796875,201.738980078125,384.794541796875,208.828180078125C384.794541796875,212.164280078125,383.642841796875,215.312980078125,381.566841796875,217.830580078125C381.566841796875,217.830580078125,381.272741796875,218.175480078125,381.272741796875,218.175480078125C381.172741796875,218.289180078125,381.070941796875,218.401280078125,380.967241796875,218.512080078125C380.967241796875,218.512080078125,380.639441796875,218.84818007812498,380.639441796875,218.84818007812498C380.079941796875,219.403380078125,379.502541796875,219.889980078125,378.878841796875,220.336980078125C376.493141796875,222.04868007812502,373.649141796875,222.981080078125,370.65774179687503,222.981080078125C370.65774179687503,222.981080078125,339.925241796875,222.981080078125,339.925241796875,222.981080078125C334.191981796875,222.981080078125,329.094031796875,219.533880078125,326.897941796875,214.33718007812502C326.718127796875,213.910880078125,326.559462796875,213.477380078125,326.423032796875,213.038480078125C326.285845796875,212.595880078125,326.168939796875,212.141480078125,326.073908796875,211.679880078125C325.980494796875,211.221080078125,325.908879796875,210.751880078125,325.861186996875,210.280580078125C325.812429796875,209.799480078125,325.787841796875,209.314980078125,325.787841796875,208.828180078125C325.787841796875,208.100080078125,325.842832596875,207.378580078125,325.951419796875,206.666580078125C326.022710796875,206.199680078125,326.116686796875,205.739980078125,326.232779796875,205.289680078125C326.349133796875,204.83628007812501,326.486416796875,204.394080078125,326.645096796875,203.960180078125C327.117171796875,202.670680078125,327.774911796875,201.45868007812498,328.595031796875,200.361480078125C328.865891796875,199.998780078125,329.154561796875,199.648880078125,329.461171796875,199.311180078125C329.615491796875,199.140880078125,329.769621796875,198.979180078125,329.925781796875,198.823280078125C330.248111796875,198.500180078125,330.583311796875,198.195280078125,330.937421796875,197.902380078125C331.284231796875,197.616080078125,331.648331796875,197.343580078125,332.026391796875,197.087580078125C332.845311796875,196.534180078125,333.734351796875,196.06398007812498,334.677461796875,195.686280078125C334.946141796875,195.578380078125,335.220471796875,195.478180078125,335.503591796875,195.384480078125C336.301741796875,195.12138007812501,337.129341796875,194.929080078125,337.973741796875,194.812480078125C337.973741796875,194.812480078125,341.157441796875,194.37308007812499,341.157441796875,194.37308007812499C341.157441796875,194.37308007812499,341.154141796875,191.034980078125,341.154141796875,191.034980078125C341.154141796875,186.007500078125,343.792141796875,181.441840078125,348.021341796875,178.896200078125C350.200641796875,177.584163078125,352.690241796875,176.882080078125,355.291541796875,176.882080078125C355.291541796875,176.882080078125,355.721241796875,176.888471178125,355.721241796875,176.888471178125C355.721241796875,176.888471178125,355.721241796875,176.888471178125,355.721241796875,176.888471178125Z" fill-rule="evenodd" fill="#123049" fill-opacity="0.6392157077789307"/></g></g><g style="opacity:0.10000000149011612;mix-blend-mode:passthrough"><g style="mix-blend-mode:passthrough" transform="matrix(0.7071067690849304,0.7071067690849304,-0.7071067690849304,0.7071067690849304,53.56277702870284,-229.65571932186867)"><path d="M454.2253662109375,-70.195975C454.2023662109375,-77.90497500000001,447.9353662109375,-84.17297500000001,440.2253662109375,-84.195975L356.4753662109375,-84.445975C348.7663662109375,-84.468975,342.5356662109375,-78.238275,342.55866621093753,-70.529275L342.80866621093753,13.221125C342.8316662109375,20.930425,349.09966621093747,27.198125000000005,356.80866621093753,27.221125L440.55936621093747,27.471125C448.26836621093753,27.494124999999997,454.4983662109375,21.263824999999997,454.4753662109375,13.554425000000002L454.2253662109375,-70.195975ZM356.5058662109375,-73.97517500000001L440.2563662109375,-73.72517500000001L440.4303662109375,-73.720375C442.2773662109375,-73.62417500000001,443.7503662109375,-72.093975,443.7563662109375,-70.22517500000001L444.0063662109375,13.525224999999999L444.0023662109375,13.699624999999997C443.91736621093753,15.545424999999994,442.3953662109375,17.009924999999996,440.5273662109375,17.004324999999994L356.7766662109375,16.754324999999994L356.6024662109375,16.749525000000006C354.7558662109375,16.653225000000006,353.2822662109375,15.123024999999998,353.2766662109375,13.254325000000001L353.0266662109375,-70.495975L353.0303662109375,-70.670175C353.1156662109375,-72.516175,354.6369662109375,-73.980775,356.5058662109375,-73.97517500000001Z" fill-rule="evenodd" fill="#00B9E3" fill-opacity="0.7799999713897705"/></g><g style="mix-blend-mode:passthrough"><path d="M355.721241796875,9.25301140125C357.578841796875,9.30867063125,359.374741796875,9.72490703125,361.036641796875,10.47030203125C361.036641796875,10.47030203125,361.402941796875,10.64061203125,361.402941796875,10.64061203125C361.402941796875,10.64061203125,361.431241796875,10.65570203125,361.431241796875,10.65570203125C361.796341796875,10.83342203125,362.160841796875,11.03226203125,362.526341796875,11.25264203125C362.943541796875,11.503502031250001,363.349341796875,11.77793203125,363.745041796875,12.07622203125C363.745041796875,12.07622203125,364.200541796875,12.43378203125,364.200541796875,12.43378203125C364.200541796875,12.43378203125,364.357841796875,12.56334203125,364.357841796875,12.56334203125C366.720441796875,14.55621203125,368.384041796875,17.26612203125,369.072441796875,20.292882031250002C369.072441796875,20.292882031250002,369.166241796875,20.73918203125,369.166241796875,20.73918203125C369.310941796875,21.48618203125,369.396441796875,22.24818203125,369.420841796875,23.02008203125C369.420841796875,23.02008203125,369.425441796875,23.550382031250003,369.425441796875,23.550382031250003C369.425441796875,23.550382031250003,369.373641796875,26.83518203125,369.373641796875,26.83518203125C369.373641796875,26.83518203125,372.608641796875,27.28438203125,372.608641796875,27.28438203125C379.554341796875,28.24868203125,384.794541796875,34.25238203125,384.794541796875,41.38398203125C384.794541796875,44.74008203125,383.642841796875,47.90758203125,381.566841796875,50.44028203125C381.566841796875,50.44028203125,381.272741796875,50.78728203125,381.272741796875,50.78728203125C381.172741796875,50.90168203125,381.070941796875,51.01448203125,380.967241796875,51.12578203125C380.967241796875,51.12578203125,380.639441796875,51.46398203125,380.639441796875,51.46398203125C380.079941796875,52.02258203125,379.502541796875,52.51198203125,378.878841796875,52.96168203125C376.493141796875,54.68368203125,373.649141796875,55.62158203125,370.65774179687503,55.62158203125C370.65774179687503,55.62158203125,339.925241796875,55.62158203125,339.925241796875,55.62158203125C334.191981796875,55.62158203125,329.094031796875,52.15378203125,326.897941796875,46.92588203125C326.718127796875,46.49708203125,326.559462796875,46.06098203125,326.423032796875,45.61948203125C326.285845796875,45.17428203125,326.168939796875,44.71708203125,326.073908796875,44.25278203125C325.980494796875,43.79118203125,325.908879796875,43.31918203125,325.861186996875,42.84508203125C325.812429796875,42.36108203125,325.787841796875,41.87368203125,325.787841796875,41.38398203125C325.787841796875,40.65158203125,325.842832596875,39.92578203125,325.951419796875,39.209482031250005C326.022710796875,38.73978203125,326.116686796875,38.27738203125,326.232779796875,37.82428203125C326.349133796875,37.36818203125,326.486416796875,36.92338203125,326.645096796875,36.48678203125C327.117171796875,35.18968203125,327.774911796875,33.97028203125,328.595031796875,32.866582031250005C328.865891796875,32.50168203125,329.154561796875,32.149682031249995,329.461171796875,31.80998203125C329.615491796875,31.63868203125,329.769621796875,31.47598203125,329.925781796875,31.31918203125C330.248111796875,30.99408203125,330.583311796875,30.68738203125,330.937421796875,30.39278203125C331.284231796875,30.10478203125,331.648331796875,29.83058203125,332.026391796875,29.57308203125C332.845311796875,29.01638203125,333.734351796875,28.54328203125,334.677461796875,28.16338203125C334.946141796875,28.05488203125,335.220471796875,27.95408203125,335.503591796875,27.85978203125C336.301741796875,27.59508203125,337.129341796875,27.40158203125,337.973741796875,27.28438203125C337.973741796875,27.28438203125,341.157441796875,26.84228203125,341.157441796875,26.84228203125C341.157441796875,26.84228203125,341.154141796875,23.48428203125,341.154141796875,23.48428203125C341.154141796875,18.426642031249997,343.792141796875,13.83365203125,348.021341796875,11.27277203125C350.200641796875,9.95286903125,352.690241796875,9.24658203125,355.291541796875,9.24658203125C355.291541796875,9.24658203125,355.721241796875,9.25301140125,355.721241796875,9.25301140125C355.721241796875,9.25301140125,355.721241796875,9.25301140125,355.721241796875,9.25301140125Z" fill-rule="evenodd" fill="#123049" fill-opacity="0.6392157077789307"/></g></g><g style="opacity:0.10000000149011612;mix-blend-mode:passthrough"><g style="mix-blend-mode:passthrough" transform="matrix(0.7071067690849304,0.7071067690849304,-0.7071067690849304,0.7071067690849304,43.66476445021544,-373.75979469408776)"><path d="M622.8303662109375,-154.591375C622.8303662109375,-162.277375,616.5993662109374,-168.508075,608.9133662109375,-168.508075L525.4133662109375,-168.508075C517.7273662109375,-168.508075,511.4966662109375,-162.277375,511.4966662109375,-154.591375L511.4966662109375,-71.091375C511.4966662109375,-63.405075,517.7273662109375,-57.174775,525.4133662109375,-57.174775L608.9133662109375,-57.174775C616.5993662109374,-57.174775,622.8303662109375,-63.405075,622.8303662109375,-71.091375L622.8303662109375,-154.591375ZM525.4126662109375,-158.068575L608.9123662109375,-158.068575L609.0863662109375,-158.06437499999998C610.9273662109375,-157.973875,612.3913662109375,-156.452675,612.3913662109375,-154.589475L612.3913662109375,-71.089475L612.3873662109374,-70.915475C612.2973662109375,-69.074975,610.7753662109375,-67.610275,608.9123662109375,-67.610275L525.4126662109375,-67.610275L525.2389662109375,-67.614675C523.3981662109375,-67.705075,521.9334662109375,-69.226375,521.9334662109375,-71.089475L521.9334662109375,-154.589475L521.9377662109375,-154.76307500000001C522.0281662109375,-156.603875,523.5493662109375,-158.068575,525.4126662109375,-158.068575Z" fill-rule="evenodd" fill="#00B9E3" fill-opacity="0.7799999713897705"/></g><g style="mix-blend-mode:passthrough"><path d="M524.721241796875,-75.111528821875C526.578841796875,-75.056200921875,528.374741796875,-74.642441921875,530.036641796875,-73.901479921875C530.036641796875,-73.901479921875,530.402941796875,-73.732189921875,530.402941796875,-73.732189921875C530.402941796875,-73.732189921875,530.431241796875,-73.717189921875,530.431241796875,-73.717189921875C530.796341796875,-73.540529921875,531.160841796875,-73.342869921875,531.526341796875,-73.123799921875C531.943541796875,-72.874429921875,532.349341796875,-72.601639921875,532.7450417968751,-72.305129921875C532.7450417968751,-72.305129921875,533.200541796875,-71.949689921875,533.200541796875,-71.949689921875C533.200541796875,-71.949689921875,533.357841796875,-71.820909921875,533.357841796875,-71.820909921875C535.720441796875,-69.839889921875,537.384041796875,-67.146109921875,538.072441796875,-64.137419921875C538.072441796875,-64.137419921875,538.166241796875,-63.693719921875,538.166241796875,-63.693719921875C538.310941796875,-62.951219921875,538.396441796875,-62.193719921875,538.420841796875,-61.426419921875C538.420841796875,-61.426419921875,538.425441796875,-60.899219921875,538.425441796875,-60.899219921875C538.425441796875,-60.899219921875,538.373641796875,-57.634019921875,538.373641796875,-57.634019921875C538.373641796875,-57.634019921875,541.608641796875,-57.187519921875,541.608641796875,-57.187519921875C548.554341796875,-56.228919921875004,553.794541796875,-50.261019921875004,553.794541796875,-43.171819921875C553.794541796875,-39.835719921875,552.642841796875,-36.687019921875,550.566841796875,-34.169419921875C550.566841796875,-34.169419921875,550.272741796875,-33.824519921875,550.272741796875,-33.824519921875C550.172741796875,-33.710819921875,550.070941796875,-33.598719921875,549.967241796875,-33.487919921875C549.967241796875,-33.487919921875,549.639441796875,-33.151819921875,549.639441796875,-33.151819921875C549.079941796875,-32.596619921875,548.502541796875,-32.110019921875,547.878841796875,-31.663019921874998C545.493141796875,-29.951319921874997,542.649141796875,-29.018919921875003,539.657741796875,-29.018919921875003C539.657741796875,-29.018919921875003,508.925241796875,-29.018919921875003,508.925241796875,-29.018919921875003C503.191981796875,-29.018919921875003,498.094031796875,-32.466119921875,495.897941796875,-37.662819921875C495.718127796875,-38.089119921875,495.559462796875,-38.522619921875,495.423032796875,-38.961519921875C495.285845796875,-39.404119921875,495.168939796875,-39.858519921875,495.073908796875,-40.320119921875C494.980494796875,-40.778919921875,494.908879796875,-41.248119921875,494.861186996875,-41.719419921875C494.812429796875,-42.200519921875,494.787841796875,-42.685019921875,494.787841796875,-43.171819921875C494.787841796875,-43.899919921875,494.842832596875,-44.621419921875,494.951419796875,-45.333419921875C495.022710796875,-45.800319921875,495.116686796875,-46.260019921875,495.232779796875,-46.710319921875C495.349133796875,-47.163719921875,495.486416796875,-47.605919921875,495.645096796875,-48.039819921875C496.117171796875,-49.329319921875,496.774911796875,-50.541319921875,497.595031796875,-51.638519921875C497.865891796875,-52.001219921875,498.154561796875,-52.351119921875,498.461171796875,-52.688819921875C498.615491796875,-52.859119921875,498.769621796875,-53.020819921875,498.925781796875,-53.176719921875005C499.248111796875,-53.499819921875,499.583311796875,-53.804719921875005,499.937421796875,-54.097619921875C500.284231796875,-54.383919921875,500.648331796875,-54.656419921875,501.026391796875,-54.912419921875C501.845311796875,-55.465819921874996,502.734351796875,-55.936019921875,503.677461796875,-56.313719921875C503.946141796875,-56.421619921875,504.220471796875,-56.521819921875,504.503591796875,-56.615519921875C505.301741796875,-56.878619921875,506.129341796875,-57.070919921875,506.973741796875,-57.187519921875C506.973741796875,-57.187519921875,510.157441796875,-57.626919921875,510.157441796875,-57.626919921875C510.157441796875,-57.626919921875,510.154141796875,-60.965019921875,510.154141796875,-60.965019921875C510.154141796875,-65.992499921875,512.7921417968751,-70.558159921875,517.021341796875,-73.103799921875C519.200641796875,-74.415836921875,521.690241796875,-75.117919921875,524.291541796875,-75.117919921875C524.291541796875,-75.117919921875,524.721241796875,-75.111528821875,524.721241796875,-75.111528821875C524.721241796875,-75.111528821875,524.721241796875,-75.111528821875,524.721241796875,-75.111528821875Z" fill-rule="evenodd" fill="#123049" fill-opacity="0.6392157077789307"/></g></g><g style="opacity:0.10000000149011612;mix-blend-mode:passthrough"><g style="mix-blend-mode:passthrough" transform="matrix(0.7071067690849304,0.7071067690849304,-0.7071067690849304,0.7071067690849304,-55.040254368163005,-135.4648135124662)"><path d="M286.4753662109375,-155.236375C286.4983662109375,-162.945375,280.26836621093753,-169.176175,272.55936621093747,-169.153075L188.8085662109375,-168.903075C181.0995662109375,-168.880075,174.8315662109375,-162.612075,174.8085662109375,-154.903075L174.5585662109375,-71.152675C174.5355662109375,-63.443275,180.7662662109375,-57.212975,188.4752662109375,-57.235974999999996L272.2253662109375,-57.485974999999996C279.9353662109375,-57.50897500000001,286.2023662109375,-63.776675,286.2253662109375,-71.485975L286.4753662109375,-155.236375ZM188.77656621093752,-158.432375L272.5273662109375,-158.682375L272.7013662109375,-158.678675C274.5473662109375,-158.593375,276.01136621093747,-157.072075,276.0063662109375,-155.203275L275.7563662109375,-71.452875L275.7513662109375,-71.278375C275.6553662109375,-69.432075,274.1243662109375,-67.958475,272.2563662109375,-67.952875L188.5057662109375,-67.702875L188.3315662109375,-67.706675C186.4855662109375,-67.791975,185.0209662109375,-69.313375,185.02656621093752,-71.182075L185.27656621093752,-154.932375L185.2813662109375,-155.106575C185.3776662109375,-156.953175,186.9077662109375,-158.426875,188.77656621093752,-158.432375Z" fill-rule="evenodd" fill="#00B9E3" fill-opacity="0.7799999713897705"/></g><g style="mix-blend-mode:passthrough"><path d="M188.22246328125,-75.111528821875C190.09116328125,-75.056200921875,191.89786328125,-74.642441921875,193.56976328125,-73.901479921875C193.56976328125,-73.901479921875,193.93826328125,-73.732189921875,193.93826328125,-73.732189921875C193.93826328125,-73.732189921875,193.96666328125,-73.717189921875,193.96666328125,-73.717189921875C194.33396328125,-73.540529921875,194.70066328125,-73.342869921875,195.06836328125002,-73.123799921875C195.48806328125,-72.874429921875,195.89626328125001,-72.601639921875,196.29436328125,-72.305129921875C196.29436328125,-72.305129921875,196.75256328125,-71.949689921875,196.75256328125,-71.949689921875C196.75256328125,-71.949689921875,196.91086328125,-71.820909921875,196.91086328125,-71.820909921875C199.28756328125002,-69.839889921875,200.96116328125,-67.146109921875,201.65366328125,-64.137419921875C201.65366328125,-64.137419921875,201.74806328124998,-63.693719921875,201.74806328124998,-63.693719921875C201.89356328125,-62.951219921875,201.97956328125,-62.193719921875,202.00416328125,-61.426419921875C202.00416328125,-61.426419921875,202.00876328125,-60.899219921875,202.00876328125,-60.899219921875C202.00876328125,-60.899219921875,201.95666328125,-57.634019921875,201.95666328125,-57.634019921875C201.95666328125,-57.634019921875,205.21106328125,-57.187519921875,205.21106328125,-57.187519921875C212.19836328125,-56.228919921875004,217.46986328125,-50.261019921875004,217.46986328125,-43.171819921875C217.46986328125,-39.835719921875,216.31126328125,-36.687019921875,214.22286328125,-34.169419921875C214.22286328125,-34.169419921875,213.92696328125,-33.824519921875,213.92696328125,-33.824519921875C213.82646328125,-33.710819921875,213.72396328125,-33.598719921875,213.61966328124998,-33.487919921875C213.61966328124998,-33.487919921875,213.28986328125,-33.151819921875,213.28986328125,-33.151819921875C212.72706328125,-32.596619921875,212.14616328124998,-32.110019921875,211.51886328125,-31.663019921874998C209.11876328124998,-29.951319921874997,206.25776328125,-29.018919921875003,203.24846328125,-29.018919921875003C203.24846328125,-29.018919921875003,172.33196328125,-29.018919921875003,172.33196328125,-29.018919921875003C166.56433328125001,-29.018919921875003,161.43585328125,-32.466119921875,159.22661328125,-37.662819921875C159.04571928125,-38.089119921875,158.88610428125,-38.522619921875,158.74885828125,-38.961519921875C158.61084928125,-39.404119921875,158.49324328125,-39.858519921875,158.39764328125,-40.320119921875C158.30366928125,-40.778919921875,158.23162628125,-41.248119921875,158.18364768125,-41.719419921875C158.13459848125,-42.200519921875,158.10986328125,-42.685019921875,158.10986328125,-43.171819921875C158.10986328125,-43.899919921875,158.16518338125,-44.621419921875,158.27442128125,-45.333419921875C158.34613828125,-45.800319921875,158.44067728125,-46.260019921875,158.55746528125,-46.710319921875C158.67451628125,-47.163719921875,158.81262128125,-47.605919921875,158.97225128125,-48.039819921875C159.44715328125,-49.329319921875,160.10883328124999,-50.541319921875,160.93386328125,-51.638519921875C161.20635328125,-52.001219921875,161.49674328125,-52.351119921875,161.80519328125,-52.688819921875C161.96043328125,-52.859119921875,162.11549328125,-53.020819921875,162.27258328125,-53.176719921875005C162.59683328125,-53.499819921875,162.93404328125,-53.804719921875005,163.29027328125,-54.097619921875C163.63916328125,-54.383919921875,164.00544328125,-54.656419921875,164.38577328125,-54.912419921875C165.20959328125,-55.465819921874996,166.10396328125,-55.936019921875,167.05271328125,-56.313719921875C167.32300328125,-56.421619921875,167.59897328125,-56.521819921875,167.88379328125,-56.615519921875C168.68666328125,-56.878619921875,169.51926328125,-57.070919921875,170.36866328125,-57.187519921875C170.36866328125,-57.187519921875,173.57146328125,-57.626919921875,173.57146328125,-57.626919921875C173.57146328125,-57.626919921875,173.56816328125,-60.965019921875,173.56816328125,-60.965019921875C173.56816328125,-65.992499921875,176.22196328125,-70.558159921875,180.47656328125,-73.103799921875C182.66886328125,-74.415836921875,185.17336328125,-75.117919921875,187.79016328125,-75.117919921875C187.79016328125,-75.117919921875,188.22246328125,-75.111528821875,188.22246328125,-75.111528821875C188.22246328125,-75.111528821875,188.22246328125,-75.111528821875,188.22246328125,-75.111528821875Z" fill-rule="evenodd" fill="#123049" fill-opacity="0.6392157077789307"/></g></g><g style="opacity:0.05999999865889549;mix-blend-mode:passthrough"><g style="mix-blend-mode:passthrough" transform="matrix(0.7071067690849304,0.7071067690849304,-0.7071067690849304,0.7071067690849304,72.82326834025298,55.84532465348457)"><path d="M118.83036621093751,95.408725C118.83036621093751,87.722725,112.6003662109375,81.492025,104.91336621093751,81.492025L21.4138662109375,81.492025C13.7278662109375,81.492025,7.4971662109375,87.722725,7.4971662109375,95.408725L7.4971662109375,178.908725C7.4971662109375,186.59502500000002,13.7278662109375,192.825425,21.4138662109375,192.825425L104.91336621093751,192.825425C112.6003662109375,192.825425,118.83036621093751,186.59502500000002,118.83036621093751,178.908725L118.83036621093751,95.408725ZM21.413166210937497,91.931525L104.91336621093751,91.931525L105.08736621093749,91.935825C106.92736621093749,92.026225,108.3923662109375,93.547425,108.3923662109375,95.410725L108.3923662109375,178.910625L108.3883662109375,179.08462500000002C108.2973662109375,180.92512499999998,106.77636621093751,182.389825,104.91336621093751,182.389825L21.413166210937497,182.389825L21.2394662109375,182.385525C19.3986662109375,182.295025,17.9339662109375,180.773725,17.9339662109375,178.910625L17.9339662109375,95.410725L17.9382662109375,95.237025C18.0286662109375,93.396225,19.549866210937502,91.931525,21.413166210937497,91.931525Z" fill-rule="evenodd" fill="#00B9E3" fill-opacity="0.7799999713897705"/></g><g style="mix-blend-mode:passthrough"><path d="M20.721241796875,174.888471178125C22.578841796875,174.943799078125,24.374741796875,175.357558078125,26.036641796875003,176.098520078125C26.036641796875003,176.098520078125,26.402941796874998,176.267810078125,26.402941796874998,176.267810078125C26.402941796874998,176.267810078125,26.431241796875,176.282810078125,26.431241796875,176.282810078125C26.796341796874998,176.459470078125,27.160841796874998,176.657130078125,27.526341796875002,176.876200078125C27.943541796875003,177.125570078125,28.349341796875002,177.398360078125,28.745041796875,177.694870078125C28.745041796875,177.694870078125,29.200541796875,178.050310078125,29.200541796875,178.050310078125C29.200541796875,178.050310078125,29.357841796875,178.179090078125,29.357841796875,178.179090078125C31.720441796875,180.160110078125,33.384041796875,182.853890078125,34.072441796875,185.862580078125C34.072441796875,185.862580078125,34.166241796875,186.306280078125,34.166241796875,186.306280078125C34.310941796875,187.048780078125,34.396441796875,187.806280078125,34.420841796875,188.573580078125C34.420841796875,188.573580078125,34.425441796875,189.100780078125,34.425441796875,189.100780078125C34.425441796875,189.100780078125,34.373641796875,192.365980078125,34.373641796875,192.365980078125C34.373641796875,192.365980078125,37.608641796875,192.812480078125,37.608641796875,192.812480078125C44.554341796875,193.771080078125,49.794541796875,199.738980078125,49.794541796875,206.828180078125C49.794541796875,210.164280078125,48.642841796875,213.312980078125,46.566841796875,215.830580078125C46.566841796875,215.830580078125,46.272741796875,216.175480078125,46.272741796875,216.175480078125C46.172741796875,216.289180078125,46.070941796875,216.401280078125,45.967241796875,216.512080078125C45.967241796875,216.512080078125,45.639441796875,216.84818007812498,45.639441796875,216.84818007812498C45.079941796875,217.403380078125,44.502541796875,217.889980078125,43.878841796875,218.336980078125C41.493141796875,220.04868007812502,38.649141796875,220.981080078125,35.657741796875,220.981080078125C35.657741796875,220.981080078125,4.9252417968749995,220.981080078125,4.9252417968749995,220.981080078125C-0.8080182031250001,220.981080078125,-5.905968203125,217.533880078125,-8.102058203125,212.33718007812502C-8.281872203125,211.910880078125,-8.440537203125,211.477380078125,-8.576967203125,211.038480078125C-8.714154203125,210.595880078125,-8.831060203125,210.141480078125,-8.926091203125,209.679880078125C-9.019505203125,209.221080078125,-9.091120203125,208.751880078125,-9.138813003125,208.280580078125C-9.187570203125,207.799480078125,-9.212158203125,207.314980078125,-9.212158203125,206.828180078125C-9.212158203125,206.100080078125,-9.157167403125,205.378580078125,-9.048580203125,204.666580078125C-8.977289203125,204.199680078125,-8.883313203125,203.739980078125,-8.767220203125,203.289680078125C-8.650866203125,202.83628007812501,-8.513583203125,202.394080078125,-8.354903203125,201.960180078125C-7.882828203125,200.670680078125,-7.225088203125,199.45868007812498,-6.404968203125,198.361480078125C-6.134108203125,197.998780078125,-5.845438203125,197.648880078125,-5.538828203125,197.311180078125C-5.384508203125,197.140880078125,-5.2303782031249995,196.979180078125,-5.074218203125,196.823280078125C-4.751888203125,196.500180078125,-4.416688203125,196.195280078125,-4.062578203125,195.902380078125C-3.715768203125,195.616080078125,-3.3516682031249996,195.343580078125,-2.973608203125,195.087580078125C-2.1546882031249996,194.534180078125,-1.265648203125,194.06398007812498,-0.32253820312499926,193.686280078125C-0.05385820312499945,193.578380078125,0.22047179687499963,193.478180078125,0.5035917968749999,193.384480078125C1.3017417968749996,193.12138007812501,2.129341796875,192.929080078125,2.973741796875,192.812480078125C2.973741796875,192.812480078125,6.157441796875,192.37308007812499,6.157441796875,192.37308007812499C6.157441796875,192.37308007812499,6.154141796875001,189.034980078125,6.154141796875001,189.034980078125C6.154141796875001,184.007500078125,8.792141796875,179.441840078125,13.021341796875,176.896200078125C15.200641796875,175.584163078125,17.690241796875,174.882080078125,20.291541796875,174.882080078125C20.291541796875,174.882080078125,20.721241796875,174.888471178125,20.721241796875,174.888471178125C20.721241796875,174.888471178125,20.721241796875,174.888471178125,20.721241796875,174.888471178125Z" fill-rule="evenodd" fill="#123049" fill-opacity="0.6392157077789307"/></g></g><g style="opacity:0.10000000149011612;mix-blend-mode:passthrough"><g style="mix-blend-mode:passthrough" transform="matrix(0.7071067690849304,0.7071067690849304,-0.7071067690849304,0.7071067690849304,-45.97066886601533,6.639261859752878)"><path d="M119.2263662109375,-72.195975C119.2033662109375,-79.90497500000001,112.9353662109375,-86.17297500000001,105.2263662109375,-86.195975L21.475866210937497,-86.445975C13.7668662109375,-86.468975,7.5360662109374985,-80.238275,7.559166210937498,-72.529275L7.809166210937498,11.221125C7.832166210937501,18.930425,14.100166210937502,25.198125000000005,21.809166210937498,25.221125L105.5593662109375,25.471125C113.2693662109375,25.494124999999997,119.4993662109375,19.263824999999997,119.4763662109375,11.554425000000002L119.2263662109375,-72.195975ZM21.506066210937497,-75.97517500000001L105.2563662109375,-75.72517500000001L105.43136621093751,-75.720375C107.27736621093749,-75.62417500000001,108.7503662109375,-74.093975,108.7563662109375,-72.22517500000001L109.0063662109375,11.525224999999999L109.00236621093751,11.699624999999997C108.9173662109375,13.545424999999994,107.39636621093749,15.009924999999996,105.52736621093749,15.004324999999994L21.7768662109375,14.754324999999994L21.602766210937503,14.749525000000006C19.7561662109375,14.653225000000006,18.2824662109375,13.123024999999998,18.2768662109375,11.254325000000001L18.0268662109375,-72.495975L18.030666210937497,-72.670175C18.115866210937497,-74.516175,19.637266210937497,-75.980775,21.506066210937497,-75.97517500000001Z" fill-rule="evenodd" fill="#00B9E3" fill-opacity="0.7799999713897705"/></g><g style="mix-blend-mode:passthrough"><path d="M20.721241796875,7.25301140125C22.578841796875,7.30867063125,24.374741796875,7.72490703125,26.036641796875003,8.47030203125C26.036641796875003,8.47030203125,26.402941796874998,8.64061203125,26.402941796874998,8.64061203125C26.402941796874998,8.64061203125,26.431241796875,8.65570203125,26.431241796875,8.65570203125C26.796341796874998,8.83342203125,27.160841796874998,9.03226203125,27.526341796875002,9.25264203125C27.943541796875003,9.503502031250001,28.349341796875002,9.77793203125,28.745041796875,10.07622203125C28.745041796875,10.07622203125,29.200541796875,10.43378203125,29.200541796875,10.43378203125C29.200541796875,10.43378203125,29.357841796875,10.56334203125,29.357841796875,10.56334203125C31.720441796875,12.55621203125,33.384041796875,15.26612203125,34.072441796875,18.292882031250002C34.072441796875,18.292882031250002,34.166241796875,18.73918203125,34.166241796875,18.73918203125C34.310941796875,19.48618203125,34.396441796875,20.24818203125,34.420841796875,21.02008203125C34.420841796875,21.02008203125,34.425441796875,21.550382031250003,34.425441796875,21.550382031250003C34.425441796875,21.550382031250003,34.373641796875,24.83518203125,34.373641796875,24.83518203125C34.373641796875,24.83518203125,37.608641796875,25.28438203125,37.608641796875,25.28438203125C44.554341796875,26.24868203125,49.794541796875,32.25238203125,49.794541796875,39.38398203125C49.794541796875,42.74008203125,48.642841796875,45.90758203125,46.566841796875,48.44028203125C46.566841796875,48.44028203125,46.272741796875,48.78728203125,46.272741796875,48.78728203125C46.172741796875,48.90168203125,46.070941796875,49.01448203125,45.967241796875,49.12578203125C45.967241796875,49.12578203125,45.639441796875,49.46398203125,45.639441796875,49.46398203125C45.079941796875,50.02258203125,44.502541796875,50.51198203125,43.878841796875,50.96168203125C41.493141796875,52.68368203125,38.649141796875,53.62158203125,35.657741796875,53.62158203125C35.657741796875,53.62158203125,4.9252417968749995,53.62158203125,4.9252417968749995,53.62158203125C-0.8080182031250001,53.62158203125,-5.905968203125,50.15378203125,-8.102058203125,44.92588203125C-8.281872203125,44.49708203125,-8.440537203125,44.06098203125,-8.576967203125,43.61948203125C-8.714154203125,43.17428203125,-8.831060203125,42.71708203125,-8.926091203125,42.25278203125C-9.019505203125,41.79118203125,-9.091120203125,41.31918203125,-9.138813003125,40.84508203125C-9.187570203125,40.36108203125,-9.212158203125,39.87368203125,-9.212158203125,39.38398203125C-9.212158203125,38.65158203125,-9.157167403125,37.92578203125,-9.048580203125,37.209482031250005C-8.977289203125,36.73978203125,-8.883313203125,36.27738203125,-8.767220203125,35.82428203125C-8.650866203125,35.36818203125,-8.513583203125,34.92338203125,-8.354903203125,34.48678203125C-7.882828203125,33.18968203125,-7.225088203125,31.97028203125,-6.404968203125,30.86658203125C-6.134108203125,30.50168203125,-5.845438203125,30.14968203125,-5.538828203125,29.80998203125C-5.384508203125,29.63868203125,-5.2303782031249995,29.47598203125,-5.074218203125,29.31918203125C-4.751888203125,28.99408203125,-4.416688203125,28.68738203125,-4.062578203125,28.39278203125C-3.715768203125,28.10478203125,-3.3516682031249996,27.83058203125,-2.973608203125,27.57308203125C-2.1546882031249996,27.01638203125,-1.265648203125,26.54328203125,-0.32253820312499926,26.16338203125C-0.05385820312499945,26.05488203125,0.22047179687499963,25.95408203125,0.5035917968749999,25.85978203125C1.3017417968749996,25.59508203125,2.129341796875,25.40158203125,2.973741796875,25.28438203125C2.973741796875,25.28438203125,6.157441796875,24.84228203125,6.157441796875,24.84228203125C6.157441796875,24.84228203125,6.154141796875001,21.48428203125,6.154141796875001,21.48428203125C6.154141796875001,16.426642031249997,8.792141796875,11.83365203125,13.021341796875,9.27277203125C15.200641796875,7.95286903125,17.690241796875,7.24658203125,20.291541796875,7.24658203125C20.291541796875,7.24658203125,20.721241796875,7.25301140125,20.721241796875,7.25301140125C20.721241796875,7.25301140125,20.721241796875,7.25301140125,20.721241796875,7.25301140125Z" fill-rule="evenodd" fill="#123049" fill-opacity="0.6392157077789307"/></g></g><g style="opacity:0.05000000074505806;mix-blend-mode:passthrough"><g style="mix-blend-mode:passthrough" transform="matrix(0.7071067690849304,0.7071067690849304,-0.7071067690849304,0.7071067690849304,280.959745631837,-274.64056233753945)"><path d="M622.8703662109375,181.158525C622.8703662109375,173.426625,616.6023662109375,167.158525,608.8703662109375,167.158525L524.8699662109375,167.158525C517.1379662109375,167.158525,510.8699662109375,173.426625,510.8699662109375,181.158525L510.8699662109375,265.158525C510.8699662109375,272.890925,517.1379662109375,279.158525,524.8699662109375,279.158525L608.8703662109375,279.158525C616.6023662109375,279.158525,622.8703662109375,272.890925,622.8703662109375,265.158525L622.8703662109375,181.158525ZM524.8699662109375,177.660725L608.8703662109375,177.660725L609.0453662109375,177.665025C610.8963662109375,177.756025,612.3703662109375,179.286325,612.3703662109375,181.160725L612.3703662109375,265.160725L612.3653662109375,265.335725C612.2743662109375,267.187225,610.7443662109375,268.660725,608.8703662109375,268.660725L524.8699662109375,268.660725L524.6952662109375,268.656425C522.8434662109375,268.565425,521.3699662109375,267.035025,521.3699662109375,265.160725L521.3699662109375,181.160725L521.3742662109375,180.98612500000002C521.4652662109374,179.13422500000001,522.9955662109375,177.660725,524.8699662109375,177.660725Z" fill-rule="evenodd" fill="#00B9E3" fill-opacity="0.7799999713897705"/></g><g style="mix-blend-mode:passthrough"><path d="M524.22246328125,261.25301140125C526.09116328125,261.30867063125,527.89786328125,261.72490703125,529.56976328125,262.47030203125C529.56976328125,262.47030203125,529.93826328125,262.64061203125,529.93826328125,262.64061203125C529.93826328125,262.64061203125,529.96666328125,262.65570203125,529.96666328125,262.65570203125C530.33396328125,262.83342203125,530.70066328125,263.03226203125,531.06836328125,263.25264203125C531.48806328125,263.50350203125,531.89626328125,263.77793203125,532.29436328125,264.07622203125C532.29436328125,264.07622203125,532.75256328125,264.43378203125,532.75256328125,264.43378203125C532.75256328125,264.43378203125,532.91086328125,264.56334203125,532.91086328125,264.56334203125C535.28756328125,266.55621203125,536.96116328125,269.26612203125,537.65366328125,272.29288203125C537.65366328125,272.29288203125,537.74806328125,272.73918203125,537.74806328125,272.73918203125C537.89356328125,273.48618203125,537.97956328125,274.24818203125,538.00416328125,275.02008203125C538.00416328125,275.02008203125,538.00876328125,275.55038203125,538.00876328125,275.55038203125C538.00876328125,275.55038203125,537.95666328125,278.83518203125,537.95666328125,278.83518203125C537.95666328125,278.83518203125,541.21106328125,279.28438203125,541.21106328125,279.28438203125C548.19836328125,280.24868203125,553.46986328125,286.25238203125,553.46986328125,293.38398203125C553.46986328125,296.74008203125,552.31126328125,299.90758203125,550.22286328125,302.44028203125C550.22286328125,302.44028203125,549.92696328125,302.78728203125,549.92696328125,302.78728203125C549.82646328125,302.90168203125,549.72396328125,303.01448203125,549.61966328125,303.12578203124997C549.61966328125,303.12578203124997,549.28986328125,303.46398203125,549.28986328125,303.46398203125C548.72706328125,304.02258203125,548.14616328125,304.51198203125,547.51886328125,304.96168203125C545.11876328125,306.68368203125,542.25776328125,307.62158203125,539.24846328125,307.62158203125C539.24846328125,307.62158203125,508.33196328125,307.62158203125,508.33196328125,307.62158203125C502.56433328125,307.62158203125,497.43585328125,304.15378203125,495.22661328125,298.92588203125C495.04571928125,298.49708203125,494.88610428125,298.06098203125,494.74885828125,297.61948203125C494.61084928125,297.17428203125,494.49324328125,296.71708203125,494.39764328125,296.25278203125C494.30366928125,295.79118203125,494.23162628125,295.31918203125,494.18364768125,294.84508203125C494.13459848125,294.36108203125,494.10986328125,293.87368203125,494.10986328125,293.38398203125C494.10986328125,292.65158203125,494.16518338125,291.92578203125,494.27442128125,291.20948203125C494.34613828125,290.73978203125,494.44067728125,290.27738203125,494.55746528125,289.82428203125C494.67451628125,289.36818203125,494.81262128125,288.92338203125,494.97225128125,288.48678203125C495.44715328125,287.18968203125,496.10883328125,285.97028203125,496.93386328125,284.86658203125C497.20635328125,284.50168203124997,497.49674328125,284.14968203125,497.80519328125,283.80998203125C497.96043328125,283.63868203125,498.11549328125,283.47598203125,498.27258328125,283.31918203125C498.59683328125,282.99408203125,498.93404328125,282.68738203125,499.29027328125,282.39278203125C499.63916328125,282.10478203125,500.00544328125,281.83058203125,500.38577328125,281.57308203125C501.20959328125,281.01638203125,502.10396328125,280.54328203125,503.05271328125,280.16338203125C503.32300328125,280.05488203125,503.59897328125,279.95408203125,503.88379328125,279.85978203125C504.68666328125,279.59508203125,505.51926328125,279.40158203125,506.36866328125,279.28438203125C506.36866328125,279.28438203125,509.57146328125,278.84228203125,509.57146328125,278.84228203125C509.57146328125,278.84228203125,509.56816328125,275.48428203125,509.56816328125,275.48428203125C509.56816328125,270.42664203125,512.22196328125,265.83365203125,516.47656328125,263.27277203125C518.66886328125,261.95286903125,521.17336328125,261.24658203125,523.79016328125,261.24658203125C523.79016328125,261.24658203125,524.22246328125,261.25301140125,524.22246328125,261.25301140125C524.22246328125,261.25301140125,524.22246328125,261.25301140125,524.22246328125,261.25301140125Z" fill-rule="evenodd" fill="#123049" fill-opacity="0.6392157077789307"/></g></g><g style="opacity:0.05000000074505806;mix-blend-mode:passthrough"><g style="mix-blend-mode:passthrough" transform="matrix(0.7071067690849304,0.7071067690849304,-0.7071067690849304,0.7071067690849304,182.54762004437362,-37.05268792500283)"><path d="M286.8703662109375,181.158725C286.8703662109375,173.426725,280.6023662109375,167.158725,272.8703662109375,167.158725L188.8704662109375,167.158725C181.1384662109375,167.158725,174.8704662109375,173.426725,174.8704662109375,181.158725L174.8704662109375,265.158725C174.8704662109375,272.891025,181.1384662109375,279.158725,188.8704662109375,279.158725L272.8703662109375,279.158725C280.6023662109375,279.158725,286.8703662109375,272.891025,286.8703662109375,265.158725L286.8703662109375,181.158725ZM188.86976621093748,177.660625L272.8693662109375,177.660625L273.0443662109375,177.664925C274.89636621093746,177.755925,276.3693662109375,179.286225,276.3693662109375,181.160625L276.3693662109375,265.160625L276.3653662109375,265.335625C276.2743662109375,267.187125,274.7443662109375,268.660625,272.8693662109375,268.660625L188.86976621093748,268.660625L188.6950662109375,268.656225C186.8432662109375,268.565225,185.36976621093748,267.034825,185.36976621093748,265.160625L185.36976621093748,181.160625L185.37406621093749,180.985925C185.4650662109375,179.134125,186.9953662109375,177.660625,188.86976621093748,177.660625Z" fill-rule="evenodd" fill="#00B9E3" fill-opacity="0.7799999713897705"/></g><g style="mix-blend-mode:passthrough"><path d="M188.22246328125,261.25301140125C190.09116328125,261.30867063125,191.89786328125,261.72490703125,193.56976328125,262.47030203125C193.56976328125,262.47030203125,193.93826328125,262.64061203125,193.93826328125,262.64061203125C193.93826328125,262.64061203125,193.96666328125,262.65570203125,193.96666328125,262.65570203125C194.33396328125,262.83342203125,194.70066328125,263.03226203125,195.06836328125002,263.25264203125C195.48806328125,263.50350203125,195.89626328125001,263.77793203125,196.29436328125,264.07622203125C196.29436328125,264.07622203125,196.75256328125,264.43378203125,196.75256328125,264.43378203125C196.75256328125,264.43378203125,196.91086328125,264.56334203125,196.91086328125,264.56334203125C199.28756328125002,266.55621203125,200.96116328125,269.26612203125,201.65366328125,272.29288203125C201.65366328125,272.29288203125,201.74806328124998,272.73918203125,201.74806328124998,272.73918203125C201.89356328125,273.48618203125,201.97956328125,274.24818203125,202.00416328125,275.02008203125C202.00416328125,275.02008203125,202.00876328125,275.55038203125,202.00876328125,275.55038203125C202.00876328125,275.55038203125,201.95666328125,278.83518203125,201.95666328125,278.83518203125C201.95666328125,278.83518203125,205.21106328125,279.28438203125,205.21106328125,279.28438203125C212.19836328125,280.24868203125,217.46986328125,286.25238203125,217.46986328125,293.38398203125C217.46986328125,296.74008203125,216.31126328125,299.90758203125,214.22286328125,302.44028203125C214.22286328125,302.44028203125,213.92696328125,302.78728203125,213.92696328125,302.78728203125C213.82646328125,302.90168203125,213.72396328125,303.01448203125,213.61966328124998,303.12578203124997C213.61966328124998,303.12578203124997,213.28986328125,303.46398203125,213.28986328125,303.46398203125C212.72706328125,304.02258203125,212.14616328124998,304.51198203125,211.51886328125,304.96168203125C209.11876328124998,306.68368203125,206.25776328125,307.62158203125,203.24846328125,307.62158203125C203.24846328125,307.62158203125,172.33196328125,307.62158203125,172.33196328125,307.62158203125C166.56433328125001,307.62158203125,161.43585328125,304.15378203125,159.22661328125,298.92588203125C159.04571928125,298.49708203125,158.88610428125,298.06098203125,158.74885828125,297.61948203125C158.61084928125,297.17428203125,158.49324328125,296.71708203125,158.39764328125,296.25278203125C158.30366928125,295.79118203125,158.23162628125,295.31918203125,158.18364768125,294.84508203125C158.13459848125,294.36108203125,158.10986328125,293.87368203125,158.10986328125,293.38398203125C158.10986328125,292.65158203125,158.16518338125,291.92578203125,158.27442128125,291.20948203125C158.34613828125,290.73978203125,158.44067728125,290.27738203125,158.55746528125,289.82428203125C158.67451628125,289.36818203125,158.81262128125,288.92338203125,158.97225128125,288.48678203125C159.44715328125,287.18968203125,160.10883328124999,285.97028203125,160.93386328125,284.86658203125C161.20635328125,284.50168203124997,161.49674328125,284.14968203125,161.80519328125,283.80998203125C161.96043328125,283.63868203125,162.11549328125,283.47598203125,162.27258328125,283.31918203125C162.59683328125,282.99408203125,162.93404328125,282.68738203125,163.29027328125,282.39278203125C163.63916328125,282.10478203125,164.00544328125,281.83058203125,164.38577328125,281.57308203125C165.20959328125,281.01638203125,166.10396328125,280.54328203125,167.05271328125,280.16338203125C167.32300328125,280.05488203125,167.59897328125,279.95408203125,167.88379328125,279.85978203125C168.68666328125,279.59508203125,169.51926328125,279.40158203125,170.36866328125,279.28438203125C170.36866328125,279.28438203125,173.57146328125,278.84228203125,173.57146328125,278.84228203125C173.57146328125,278.84228203125,173.56816328125,275.48428203125,173.56816328125,275.48428203125C173.56816328125,270.42664203125,176.22196328125,265.83365203125,180.47656328125,263.27277203125C182.66886328125,261.95286903125,185.17336328125,261.24658203125,187.79016328125,261.24658203125C187.79016328125,261.24658203125,188.22246328125,261.25301140125,188.22246328125,261.25301140125C188.22246328125,261.25301140125,188.22246328125,261.25301140125,188.22246328125,261.25301140125Z" fill-rule="evenodd" fill="#123049" fill-opacity="0.6392157077789307"/></g></g><g style="opacity:0.07000000029802322;mix-blend-mode:passthrough"><g style="mix-blend-mode:passthrough" transform="matrix(0.7071067690849304,0.7071067690849304,-0.7071067690849304,0.7071067690849304,162.87291519465361,-323.55373190035607)"><path d="M622.4763662109375,13.763625000000001C622.4993662109375,6.0546250000000015,616.2683662109375,-0.17617500000000064,608.5593662109375,-0.15307500000000118L524.8088662109375,0.09692499999999882C517.0998662109375,0.11992500000000206,510.83176621093753,6.387924999999999,510.8087662109375,14.096924999999999L510.5587662109375,97.847325C510.5357662109375,105.556725,516.7664662109376,111.787025,524.4755662109375,111.764025L608.2263662109375,111.514025C615.9353662109374,111.491025,622.2033662109375,105.223325,622.2263662109375,97.514025L622.4763662109375,13.763625000000001ZM524.7770662109375,10.567625L608.5273662109375,10.317625L608.7023662109375,10.321325000000002C610.5473662109375,10.406624999999998,612.0123662109374,11.927924999999998,612.0063662109375,13.796724999999999L611.7563662109375,97.547125L611.7513662109375,97.721625C611.6553662109375,99.567925,610.1253662109375,101.041525,608.2563662109375,101.047125L524.5062662109375,101.297125L524.3320662109375,101.293325C522.4860662109375,101.208025,521.0214662109375,99.686625,521.0270662109375,97.817925L521.2770662109375,14.067625L521.2818662109376,13.893425C521.3780662109375,12.046824999999998,522.9082662109375,10.573125000000001,524.7770662109375,10.567625Z" fill-rule="evenodd" fill="#00B9E3" fill-opacity="0.7799999713897705"/></g><g style="mix-blend-mode:passthrough"><path d="M524.22246328125,93.888471178125C526.09116328125,93.943799078125,527.89786328125,94.357558078125,529.56976328125,95.098520078125C529.56976328125,95.098520078125,529.93826328125,95.267810078125,529.93826328125,95.267810078125C529.93826328125,95.267810078125,529.96666328125,95.282810078125,529.96666328125,95.282810078125C530.33396328125,95.459470078125,530.70066328125,95.657130078125,531.06836328125,95.876200078125C531.48806328125,96.125570078125,531.89626328125,96.398360078125,532.29436328125,96.694870078125C532.29436328125,96.694870078125,532.75256328125,97.050310078125,532.75256328125,97.050310078125C532.75256328125,97.050310078125,532.91086328125,97.179090078125,532.91086328125,97.179090078125C535.28756328125,99.160110078125,536.96116328125,101.853890078125,537.65366328125,104.862580078125C537.65366328125,104.862580078125,537.74806328125,105.306280078125,537.74806328125,105.306280078125C537.89356328125,106.048780078125,537.97956328125,106.806280078125,538.00416328125,107.573580078125C538.00416328125,107.573580078125,538.00876328125,108.100780078125,538.00876328125,108.100780078125C538.00876328125,108.100780078125,537.95666328125,111.365980078125,537.95666328125,111.365980078125C537.95666328125,111.365980078125,541.21106328125,111.81248007812499,541.21106328125,111.81248007812499C548.19836328125,112.771080078125,553.46986328125,118.738980078125,553.46986328125,125.828180078125C553.46986328125,129.164280078125,552.31126328125,132.312980078125,550.22286328125,134.830580078125C550.22286328125,134.830580078125,549.92696328125,135.175480078125,549.92696328125,135.175480078125C549.82646328125,135.289180078125,549.72396328125,135.401280078125,549.61966328125,135.512080078125C549.61966328125,135.512080078125,549.28986328125,135.84818007812498,549.28986328125,135.84818007812498C548.72706328125,136.403380078125,548.14616328125,136.889980078125,547.51886328125,137.336980078125C545.11876328125,139.04868007812502,542.25776328125,139.981080078125,539.24846328125,139.981080078125C539.24846328125,139.981080078125,508.33196328125,139.981080078125,508.33196328125,139.981080078125C502.56433328125,139.981080078125,497.43585328125,136.533880078125,495.22661328125,131.33718007812502C495.04571928125,130.910880078125,494.88610428125,130.477380078125,494.74885828125,130.038480078125C494.61084928125,129.595880078125,494.49324328125,129.141480078125,494.39764328125,128.679880078125C494.30366928125,128.221080078125,494.23162628125,127.751880078125,494.18364768125,127.280580078125C494.13459848125,126.799480078125,494.10986328125,126.31498007812499,494.10986328125,125.828180078125C494.10986328125,125.100080078125,494.16518338125,124.378580078125,494.27442128125,123.66658007812501C494.34613828125,123.199680078125,494.44067728125,122.739980078125,494.55746528125,122.289680078125C494.67451628125,121.836280078125,494.81262128125,121.394080078125,494.97225128125,120.960180078125C495.44715328125,119.670680078125,496.10883328125,118.458680078125,496.93386328125,117.361480078125C497.20635328125,116.99878007812501,497.49674328125,116.648880078125,497.80519328125,116.311180078125C497.96043328125,116.14088007812501,498.11549328125,115.979180078125,498.27258328125,115.823280078125C498.59683328125,115.500180078125,498.93404328125,115.195280078125,499.29027328125,114.90238007812499C499.63916328125,114.61608007812501,500.00544328125,114.343580078125,500.38577328125,114.087580078125C501.20959328125,113.534180078125,502.10396328125,113.063980078125,503.05271328125,112.68628007812501C503.32300328125,112.57838007812501,503.59897328125,112.478180078125,503.88379328125,112.384480078125C504.68666328125,112.121380078125,505.51926328125,111.929080078125,506.36866328125,111.81248007812499C506.36866328125,111.81248007812499,509.57146328125,111.373080078125,509.57146328125,111.373080078125C509.57146328125,111.373080078125,509.56816328125,108.034980078125,509.56816328125,108.034980078125C509.56816328125,103.007500078125,512.22196328125,98.441840078125,516.47656328125,95.896200078125C518.66886328125,94.584163078125,521.17336328125,93.882080078125,523.79016328125,93.882080078125C523.79016328125,93.882080078125,524.22246328125,93.888471178125,524.22246328125,93.888471178125C524.22246328125,93.888471178125,524.22246328125,93.888471178125,524.22246328125,93.888471178125Z" fill-rule="evenodd" fill="#123049" fill-opacity="0.6392157077789307"/></g></g><g style="opacity:0.07000000029802322;mix-blend-mode:passthrough"><g style="mix-blend-mode:passthrough" transform="matrix(0.7071067690849304,0.7071067690849304,-0.7071067690849304,0.7071067690849304,63.8750031453601,-84.55164394964959)"><path d="M283.83036621093754,14.408725C283.83036621093754,6.7227250000000005,277.6003662109375,0.49202499999999816,269.9133662109375,0.49202499999999816L186.4138662109375,0.49202499999999816C178.7278662109375,0.49202499999999816,172.4971662109375,6.7227250000000005,172.4971662109375,14.408725L172.4971662109375,97.908725C172.4971662109375,105.595025,178.7278662109375,111.825425,186.4138662109375,111.825425L269.9133662109375,111.825425C277.6003662109375,111.825425,283.83036621093754,105.595025,283.83036621093754,97.908725L283.83036621093754,14.408725ZM186.4131662109375,10.931525L269.9133662109375,10.931525L270.0873662109375,10.935825000000001C271.9273662109375,11.026225,273.3923662109375,12.547425,273.3923662109375,14.410725L273.3923662109375,97.91062500000001L273.38836621093753,98.084625C273.2973662109375,99.925125,271.7763662109375,101.389825,269.9133662109375,101.389825L186.4131662109375,101.389825L186.2394662109375,101.385525C184.3986662109375,101.295025,182.9339662109375,99.773725,182.9339662109375,97.91062500000001L182.9339662109375,14.410725L182.9382662109375,14.237025C183.0286662109375,12.396225000000001,184.5498662109375,10.931525,186.4131662109375,10.931525Z" fill-rule="evenodd" fill="#00B9E3" fill-opacity="0.7799999713897705"/></g><g style="mix-blend-mode:passthrough"><path d="M185.721241796875,93.888471178125C187.578841796875,93.943799078125,189.374741796875,94.357558078125,191.03664179687502,95.098520078125C191.03664179687502,95.098520078125,191.40294179687498,95.267810078125,191.40294179687498,95.267810078125C191.40294179687498,95.267810078125,191.43124179687499,95.282810078125,191.43124179687499,95.282810078125C191.796341796875,95.459470078125,192.160841796875,95.657130078125,192.526341796875,95.876200078125C192.943541796875,96.125570078125,193.349341796875,96.398360078125,193.745041796875,96.694870078125C193.745041796875,96.694870078125,194.200541796875,97.050310078125,194.200541796875,97.050310078125C194.200541796875,97.050310078125,194.357841796875,97.179090078125,194.357841796875,97.179090078125C196.720441796875,99.160110078125,198.384041796875,101.853890078125,199.072441796875,104.862580078125C199.072441796875,104.862580078125,199.166241796875,105.306280078125,199.166241796875,105.306280078125C199.310941796875,106.048780078125,199.396441796875,106.806280078125,199.420841796875,107.573580078125C199.420841796875,107.573580078125,199.425441796875,108.100780078125,199.425441796875,108.100780078125C199.425441796875,108.100780078125,199.373641796875,111.365980078125,199.373641796875,111.365980078125C199.373641796875,111.365980078125,202.608641796875,111.81248007812499,202.608641796875,111.81248007812499C209.554341796875,112.771080078125,214.794541796875,118.738980078125,214.794541796875,125.828180078125C214.794541796875,129.164280078125,213.642841796875,132.312980078125,211.566841796875,134.830580078125C211.566841796875,134.830580078125,211.272741796875,135.175480078125,211.272741796875,135.175480078125C211.17274179687502,135.289180078125,211.070941796875,135.401280078125,210.967241796875,135.512080078125C210.967241796875,135.512080078125,210.639441796875,135.84818007812498,210.639441796875,135.84818007812498C210.079941796875,136.403380078125,209.502541796875,136.889980078125,208.878841796875,137.336980078125C206.493141796875,139.04868007812502,203.649141796875,139.981080078125,200.657741796875,139.981080078125C200.657741796875,139.981080078125,169.925241796875,139.981080078125,169.925241796875,139.981080078125C164.191981796875,139.981080078125,159.094031796875,136.533880078125,156.897941796875,131.33718007812502C156.718127796875,130.910880078125,156.559462796875,130.477380078125,156.423032796875,130.038480078125C156.285845796875,129.595880078125,156.168939796875,129.141480078125,156.073908796875,128.679880078125C155.980494796875,128.221080078125,155.908879796875,127.751880078125,155.861186996875,127.280580078125C155.812429796875,126.799480078125,155.787841796875,126.31498007812499,155.787841796875,125.828180078125C155.787841796875,125.100080078125,155.842832596875,124.378580078125,155.951419796875,123.66658007812501C156.022710796875,123.199680078125,156.116686796875,122.739980078125,156.232779796875,122.289680078125C156.349133796875,121.836280078125,156.486416796875,121.394080078125,156.645096796875,120.960180078125C157.117171796875,119.670680078125,157.774911796875,118.458680078125,158.595031796875,117.361480078125C158.865891796875,116.99878007812501,159.154561796875,116.648880078125,159.461171796875,116.311180078125C159.615491796875,116.14088007812501,159.769621796875,115.979180078125,159.92578179687501,115.823280078125C160.248111796875,115.500180078125,160.583311796875,115.195280078125,160.93742179687501,114.90238007812499C161.284231796875,114.61608007812501,161.648331796875,114.343580078125,162.026391796875,114.087580078125C162.845311796875,113.534180078125,163.734351796875,113.063980078125,164.677461796875,112.68628007812501C164.946141796875,112.57838007812501,165.220471796875,112.478180078125,165.503591796875,112.384480078125C166.301741796875,112.121380078125,167.129341796875,111.929080078125,167.973741796875,111.81248007812499C167.973741796875,111.81248007812499,171.157441796875,111.373080078125,171.157441796875,111.373080078125C171.157441796875,111.373080078125,171.154141796875,108.034980078125,171.154141796875,108.034980078125C171.154141796875,103.007500078125,173.792141796875,98.441840078125,178.021341796875,95.896200078125C180.200641796875,94.584163078125,182.690241796875,93.882080078125,185.291541796875,93.882080078125C185.291541796875,93.882080078125,185.721241796875,93.888471178125,185.721241796875,93.888471178125C185.721241796875,93.888471178125,185.721241796875,93.888471178125,185.721241796875,93.888471178125Z" fill-rule="evenodd" fill="#123049" fill-opacity="0.6392157077789307"/></g></g><g style="opacity:0.05999999865889549;mix-blend-mode:passthrough"><g style="mix-blend-mode:passthrough" transform="matrix(0.7071067690849304,0.7071067690849304,-0.7071067690849304,0.7071067690849304,270.47594659151946,-417.3304241715887)"><path d="M788.8303662109375,97.40882500000001C788.8303662109375,89.722925,782.6003662109375,83.49222499999999,774.9133662109375,83.49222499999999L691.4135662109375,83.49222499999999C683.7276662109375,83.49222499999999,677.4969662109374,89.722925,677.4969662109374,97.40882500000001L677.4969662109374,180.908825C677.4969662109374,188.595225,683.7276662109375,194.825525,691.4135662109375,194.825525L774.9133662109375,194.825525C782.6003662109375,194.825525,788.8303662109375,188.595225,788.8303662109375,180.908825L788.8303662109375,97.40882500000001ZM691.4126662109375,93.931625L774.9123662109375,93.931625L775.0863662109375,93.935925C776.9273662109375,94.026425,778.3913662109375,95.54752500000001,778.3913662109375,97.410825L778.3913662109375,180.910825L778.3873662109374,181.084725C778.2973662109375,182.925225,776.7753662109375,184.389925,774.9123662109375,184.389925L691.4126662109375,184.389925L691.2389662109375,184.385625C689.3981662109375,184.29512499999998,687.9334662109375,182.773825,687.9334662109375,180.910825L687.9334662109375,97.410825L687.9377662109375,97.23712499999999C688.0281662109375,95.396325,689.5493662109375,93.931625,691.4126662109375,93.931625Z" fill-rule="evenodd" fill="#00B9E3" fill-opacity="0.7799999713897705"/></g><g style="mix-blend-mode:passthrough"><path d="M690.721241796875,176.888471178125C692.578841796875,176.943799078125,694.374741796875,177.357558078125,696.036641796875,178.098520078125C696.036641796875,178.098520078125,696.402941796875,178.267810078125,696.402941796875,178.267810078125C696.402941796875,178.267810078125,696.431241796875,178.282810078125,696.431241796875,178.282810078125C696.796341796875,178.459470078125,697.160841796875,178.657130078125,697.526341796875,178.876200078125C697.943541796875,179.125570078125,698.349341796875,179.398360078125,698.7450417968751,179.694870078125C698.7450417968751,179.694870078125,699.200541796875,180.050310078125,699.200541796875,180.050310078125C699.200541796875,180.050310078125,699.357841796875,180.179090078125,699.357841796875,180.179090078125C701.720441796875,182.160110078125,703.384041796875,184.853890078125,704.072441796875,187.862580078125C704.072441796875,187.862580078125,704.166241796875,188.306280078125,704.166241796875,188.306280078125C704.310941796875,189.048780078125,704.396441796875,189.806280078125,704.420841796875,190.573580078125C704.420841796875,190.573580078125,704.425441796875,191.100780078125,704.425441796875,191.100780078125C704.425441796875,191.100780078125,704.373641796875,194.365980078125,704.373641796875,194.365980078125C704.373641796875,194.365980078125,707.608641796875,194.812480078125,707.608641796875,194.812480078125C714.554341796875,195.771080078125,719.794541796875,201.738980078125,719.794541796875,208.828180078125C719.794541796875,212.164280078125,718.642841796875,215.312980078125,716.566841796875,217.830580078125C716.566841796875,217.830580078125,716.272741796875,218.175480078125,716.272741796875,218.175480078125C716.172741796875,218.289180078125,716.070941796875,218.401280078125,715.967241796875,218.512080078125C715.967241796875,218.512080078125,715.639441796875,218.84818007812498,715.639441796875,218.84818007812498C715.079941796875,219.403380078125,714.502541796875,219.889980078125,713.878841796875,220.336980078125C711.493141796875,222.04868007812502,708.649141796875,222.981080078125,705.657741796875,222.981080078125C705.657741796875,222.981080078125,674.925241796875,222.981080078125,674.925241796875,222.981080078125C669.191981796875,222.981080078125,664.094031796875,219.533880078125,661.897941796875,214.33718007812502C661.718127796875,213.910880078125,661.559462796875,213.477380078125,661.423032796875,213.038480078125C661.285845796875,212.595880078125,661.168939796875,212.141480078125,661.073908796875,211.679880078125C660.980494796875,211.221080078125,660.908879796875,210.751880078125,660.861186996875,210.280580078125C660.812429796875,209.799480078125,660.787841796875,209.314980078125,660.787841796875,208.828180078125C660.787841796875,208.100080078125,660.842832596875,207.378580078125,660.951419796875,206.666580078125C661.022710796875,206.199680078125,661.116686796875,205.739980078125,661.232779796875,205.289680078125C661.349133796875,204.83628007812501,661.486416796875,204.394080078125,661.645096796875,203.960180078125C662.117171796875,202.670680078125,662.774911796875,201.45868007812498,663.595031796875,200.361480078125C663.865891796875,199.998780078125,664.154561796875,199.648880078125,664.461171796875,199.311180078125C664.615491796875,199.140880078125,664.769621796875,198.979180078125,664.925781796875,198.823280078125C665.248111796875,198.500180078125,665.583311796875,198.195280078125,665.937421796875,197.902380078125C666.284231796875,197.616080078125,666.648331796875,197.343580078125,667.026391796875,197.087580078125C667.845311796875,196.534180078125,668.734351796875,196.06398007812498,669.677461796875,195.686280078125C669.946141796875,195.578380078125,670.220471796875,195.478180078125,670.503591796875,195.384480078125C671.301741796875,195.12138007812501,672.129341796875,194.929080078125,672.973741796875,194.812480078125C672.973741796875,194.812480078125,676.157441796875,194.37308007812499,676.157441796875,194.37308007812499C676.157441796875,194.37308007812499,676.154141796875,191.034980078125,676.154141796875,191.034980078125C676.154141796875,186.007500078125,678.7921417968751,181.441840078125,683.021341796875,178.896200078125C685.200641796875,177.584163078125,687.690241796875,176.882080078125,690.291541796875,176.882080078125C690.291541796875,176.882080078125,690.721241796875,176.888471178125,690.721241796875,176.888471178125C690.721241796875,176.888471178125,690.721241796875,176.888471178125,690.721241796875,176.888471178125Z" fill-rule="evenodd" fill="#123049" fill-opacity="0.6392157077789307"/></g></g><g style="opacity:0.10000000149011612;mix-blend-mode:passthrough"><g style="mix-blend-mode:passthrough" transform="matrix(0.7071067690849304,0.7071067690849304,-0.7071067690849304,0.7071067690849304,151.68200938525115,-466.53648696532036)"><path d="M789.2253662109375,-70.195975C789.2023662109375,-77.90497500000001,782.9343662109375,-84.17297500000001,775.2253662109375,-84.195975L691.4748662109375,-84.445975C683.7658662109375,-84.468975,677.5351662109375,-78.238275,677.5581662109375,-70.529275L677.8081662109375,13.221125C677.8311662109375,20.930425,684.0991662109375,27.198125000000005,691.8081662109375,27.221125L775.5583662109375,27.471125C783.2683662109375,27.494124999999997,789.4983662109375,21.263824999999997,789.4753662109375,13.554425000000002L789.2253662109375,-70.195975ZM691.5060662109375,-73.97517500000001L775.2563662109375,-73.72517500000001L775.4313662109375,-73.720375C777.2773662109375,-73.62417500000001,778.7503662109375,-72.093975,778.7563662109375,-70.22517500000001L779.0063662109375,13.525224999999999L779.0023662109375,13.699624999999997C778.9173662109375,15.545424999999994,777.3963662109375,17.009924999999996,775.5273662109375,17.004324999999994L691.7768662109374,16.754324999999994L691.6027662109375,16.749525000000006C689.7561662109375,16.653225000000006,688.2824662109375,15.123024999999998,688.2768662109374,13.254325000000001L688.0268662109374,-70.495975L688.0306662109375,-70.670175C688.1158662109375,-72.516175,689.6372662109375,-73.980775,691.5060662109375,-73.97517500000001Z" fill-rule="evenodd" fill="#00B9E3" fill-opacity="0.7799999713897705"/></g><g style="mix-blend-mode:passthrough"><path d="M690.721241796875,9.25301140125C692.578841796875,9.30867063125,694.374741796875,9.72490703125,696.036641796875,10.47030203125C696.036641796875,10.47030203125,696.402941796875,10.64061203125,696.402941796875,10.64061203125C696.402941796875,10.64061203125,696.431241796875,10.65570203125,696.431241796875,10.65570203125C696.796341796875,10.83342203125,697.160841796875,11.03226203125,697.526341796875,11.25264203125C697.943541796875,11.503502031250001,698.349341796875,11.77793203125,698.7450417968751,12.07622203125C698.7450417968751,12.07622203125,699.200541796875,12.43378203125,699.200541796875,12.43378203125C699.200541796875,12.43378203125,699.357841796875,12.56334203125,699.357841796875,12.56334203125C701.720441796875,14.55621203125,703.384041796875,17.26612203125,704.072441796875,20.292882031250002C704.072441796875,20.292882031250002,704.166241796875,20.73918203125,704.166241796875,20.73918203125C704.310941796875,21.48618203125,704.396441796875,22.24818203125,704.420841796875,23.02008203125C704.420841796875,23.02008203125,704.425441796875,23.550382031250003,704.425441796875,23.550382031250003C704.425441796875,23.550382031250003,704.373641796875,26.83518203125,704.373641796875,26.83518203125C704.373641796875,26.83518203125,707.608641796875,27.28438203125,707.608641796875,27.28438203125C714.554341796875,28.24868203125,719.794541796875,34.25238203125,719.794541796875,41.38398203125C719.794541796875,44.74008203125,718.642841796875,47.90758203125,716.566841796875,50.44028203125C716.566841796875,50.44028203125,716.272741796875,50.78728203125,716.272741796875,50.78728203125C716.172741796875,50.90168203125,716.070941796875,51.01448203125,715.967241796875,51.12578203125C715.967241796875,51.12578203125,715.639441796875,51.46398203125,715.639441796875,51.46398203125C715.079941796875,52.02258203125,714.502541796875,52.51198203125,713.878841796875,52.96168203125C711.493141796875,54.68368203125,708.649141796875,55.62158203125,705.657741796875,55.62158203125C705.657741796875,55.62158203125,674.925241796875,55.62158203125,674.925241796875,55.62158203125C669.191981796875,55.62158203125,664.094031796875,52.15378203125,661.897941796875,46.92588203125C661.718127796875,46.49708203125,661.559462796875,46.06098203125,661.423032796875,45.61948203125C661.285845796875,45.17428203125,661.168939796875,44.71708203125,661.073908796875,44.25278203125C660.980494796875,43.79118203125,660.908879796875,43.31918203125,660.861186996875,42.84508203125C660.812429796875,42.36108203125,660.787841796875,41.87368203125,660.787841796875,41.38398203125C660.787841796875,40.65158203125,660.842832596875,39.92578203125,660.951419796875,39.209482031250005C661.022710796875,38.73978203125,661.116686796875,38.27738203125,661.232779796875,37.82428203125C661.349133796875,37.36818203125,661.486416796875,36.92338203125,661.645096796875,36.48678203125C662.117171796875,35.18968203125,662.774911796875,33.97028203125,663.595031796875,32.866582031250005C663.865891796875,32.50168203125,664.154561796875,32.149682031249995,664.461171796875,31.80998203125C664.615491796875,31.63868203125,664.769621796875,31.47598203125,664.925781796875,31.31918203125C665.248111796875,30.99408203125,665.583311796875,30.68738203125,665.937421796875,30.39278203125C666.284231796875,30.10478203125,666.648331796875,29.83058203125,667.026391796875,29.57308203125C667.845311796875,29.01638203125,668.734351796875,28.54328203125,669.677461796875,28.16338203125C669.946141796875,28.05488203125,670.220471796875,27.95408203125,670.503591796875,27.85978203125C671.301741796875,27.59508203125,672.129341796875,27.40158203125,672.973741796875,27.28438203125C672.973741796875,27.28438203125,676.157441796875,26.84228203125,676.157441796875,26.84228203125C676.157441796875,26.84228203125,676.154141796875,23.48428203125,676.154141796875,23.48428203125C676.154141796875,18.426642031249997,678.7921417968751,13.83365203125,683.021341796875,11.27277203125C685.200641796875,9.95286903125,687.690241796875,9.24658203125,690.291541796875,9.24658203125C690.291541796875,9.24658203125,690.721241796875,9.25301140125,690.721241796875,9.25301140125C690.721241796875,9.25301140125,690.721241796875,9.25301140125,690.721241796875,9.25301140125Z" fill-rule="evenodd" fill="#123049" fill-opacity="0.6392157077789307"/></g></g></g></svg>