<svg xmlns="http://www.w3.org/2000/svg" xmlns:xlink="http://www.w3.org/1999/xlink" fill="none" version="1.1" width="712" height="400" viewBox="0 0 712 400"><defs><clipPath id="master_svg0_31_6966"><rect x="0" y="0" width="712" height="400" rx="0"/></clipPath></defs><g style="mix-blend-mode:passthrough" clip-path="url(#master_svg0_31_6966)"><rect x="0" y="0" width="712" height="400" rx="0" fill="#FFFFFF" fill-opacity="1"/><g style="mix-blend-mode:passthrough"><g style="mix-blend-mode:passthrough"><path d="M313.7822,154.2221921875C338.0699,129.9344321875,377.4475,129.9336621875,401.734,154.2203921875C426.02099999999996,178.5071921875,426.02,217.8845921875,401.73199999999997,242.1729921875C385.433,258.4719921875,350.0944,263.5729921875,295.2861,258.4959921875L290.2843,258.0329921875L290.2681,253.0099921875C290.1078,203.1625921875,297.6894,170.3149921875,313.7822,154.2221921875ZM393.964,234.1309921875C413.922,214.1730921875,413.85400000000004,181.74789218749999,393.81399999999996,161.7070921875C373.7732,141.6662921875,341.348,141.59889218749998,321.3902,161.5566921875C308.5223,174.4245921875,301.5917,202.9776921875,301.2797,246.9999921875L301.2765,247.5299921875L302.3637,247.6209921875C350.1317,251.5569921875,380.654,246.8999921875,393.562,234.5239921875L393.964,234.1309921875Z" fill-rule="evenodd" fill="#00B9E3" fill-opacity="0.7799999713897705"/></g><g style="mix-blend-mode:passthrough"><ellipse cx="367.165771484375" cy="189.421875" rx="23.484375" ry="23.484375" fill="#123049" fill-opacity="0.6392157077789307"/></g></g><g style="opacity:0.10000000149011612;mix-blend-mode:passthrough"><g style="mix-blend-mode:passthrough"><path d="M313.7822,-13.548607812499998C338.0699,-37.9818078125,377.4475,-37.9825778125,401.734,-13.550407812500001C426.02099999999996,10.881792187499997,426.02,50.4949921875,401.73199999999997,74.9279921875C385.433,91.32499218749999,350.0944,96.45699218749999,295.2861,91.34999218749999L290.2843,90.88399218750001L290.2681,85.83099218749999C290.1078,35.684792187499994,297.6894,2.6404921875000014,313.7822,-13.548607812499998ZM393.964,66.8379921875C413.922,46.7606921875,413.85400000000004,14.1412921875,393.81399999999996,-6.019507812500002C373.7732,-26.1803078125,341.348,-26.2481078125,321.3902,-6.170807812500001C308.5223,6.774092187500003,301.5917,35.498192187499995,301.2797,79.7839921875L301.2765,80.3169921875L302.3637,80.4089921875C350.1317,84.3679921875,380.654,79.6839921875,393.562,67.2329921875L393.964,66.8379921875Z" fill-rule="evenodd" fill="#00B9E3" fill-opacity="0.7799999713897705"/></g><g style="mix-blend-mode:passthrough"><ellipse cx="367.165771484375" cy="21.861328125" rx="23.484375" ry="23.625" fill="#123049" fill-opacity="0.6392157077789307"/></g></g><g style="opacity:0.10000000149011612;mix-blend-mode:passthrough"><g style="mix-blend-mode:passthrough"><path d="M482.7822,-97.7778078125C507.0699,-122.0655678125,546.4475,-122.0663378125,570.734,-97.7796078125C595.021,-73.49280781249999,595.02,-34.115407812499996,570.732,-9.8270078125C554.433,6.471992187500007,519.0944,11.572992187500006,464.2861,6.495992187500008L459.2843,6.032992187500014L459.2681,1.0099921874999893C459.1078,-48.837407812500004,466.6894,-81.6850078125,482.7822,-97.7778078125ZM562.9639999999999,-17.8690078125C582.922,-37.8269078125,582.854,-70.2521078125,562.814,-90.2929078125C542.7732,-110.3337078125,510.348,-110.4011078125,490.3902,-90.4433078125C477.5223,-77.5754078125,470.5917,-49.0223078125,470.2797,-5.000007812500002L470.2765,-4.4700078125000005L471.3637,-4.3790078125000065C519.1317,-0.44300781249999943,549.654,-5.100007812499996,562.562,-17.4760078125L562.9639999999999,-17.8690078125Z" fill-rule="evenodd" fill="#00B9E3" fill-opacity="0.7799999713897705"/></g><g style="mix-blend-mode:passthrough"><ellipse cx="536.165771484375" cy="-62.578125" rx="23.484375" ry="23.484375" fill="#123049" fill-opacity="0.6392157077789307"/></g></g><g style="opacity:0.10000000149011612;mix-blend-mode:passthrough"><g style="mix-blend-mode:passthrough"><path d="M146.0324,-97.7778078125C170.4655,-122.0655678125,210.0789,-122.0663378125,234.511,-97.7796078125C258.943,-73.49280781249999,258.942,-34.115407812499996,234.50900000000001,-9.8270078125C218.112,6.471992187500007,182.5621,11.572992187500006,127.4256,6.495992187500008L122.3938,6.032992187500014L122.3775,1.0099921874999893C122.2162,-48.837407812500004,129.8432,-81.6850078125,146.0324,-97.7778078125ZM226.69400000000002,-17.8690078125C246.772,-37.8269078125,246.704,-70.2521078125,226.543,-90.2929078125C206.3826,-110.3337078125,173.76319999999998,-110.4011078125,153.686,-90.4433078125C140.74099999999999,-77.5754078125,133.7689,-49.0223078125,133.45499999999998,-5.000007812500002L133.4518,-4.4700078125000005L134.5455,-4.3790078125000065C182.5996,-0.44300781249999943,213.304,-5.100007812499996,226.29000000000002,-17.4760078125L226.69400000000002,-17.8690078125Z" fill-rule="evenodd" fill="#00B9E3" fill-opacity="0.7799999713897705"/></g><g style="mix-blend-mode:passthrough"><ellipse cx="199.735595703125" cy="-62.578125" rx="23.625" ry="23.484375" fill="#123049" fill-opacity="0.6392157077789307"/></g></g><g style="opacity:0.05999999865889549;mix-blend-mode:passthrough"><g style="mix-blend-mode:passthrough"><path d="M-21.217799999999997,152.2221921875C3.069899999999997,127.9344321875,42.447500000000005,127.9336621875,66.734,152.2203921875C91.02099999999999,176.5071921875,91.02000000000001,215.8845921875,66.732,240.1729921875C50.43300000000001,256.4719921875,15.094399999999993,261.5729921875,-39.713899999999995,256.4959921875L-44.7157,256.0329921875L-44.731899999999996,251.0099921875C-44.8922,201.1625921875,-37.3106,168.3149921875,-21.217799999999997,152.2221921875ZM58.964,232.1309921875C78.922,212.1730921875,78.85400000000001,179.74789218749999,58.81399999999999,159.7070921875C38.7732,139.6662921875,6.347999999999999,139.59889218749998,-13.6098,159.5566921875C-26.4777,172.4245921875,-33.4083,200.9776921875,-33.7203,244.9999921875L-33.7235,245.5299921875L-32.6363,245.6209921875C15.131699999999995,249.5569921875,45.653999999999996,244.8999921875,58.562,232.5239921875L58.964,232.1309921875Z" fill-rule="evenodd" fill="#00B9E3" fill-opacity="0.7799999713897705"/></g><g style="mix-blend-mode:passthrough"><ellipse cx="32.165771484375" cy="187.421875" rx="23.484375" ry="23.484375" fill="#123049" fill-opacity="0.6392157077789307"/></g></g><g style="opacity:0.10000000149011612;mix-blend-mode:passthrough"><g style="mix-blend-mode:passthrough"><path d="M-21.217799999999997,-15.548607812499998C3.069899999999997,-39.9818078125,42.447500000000005,-39.9825778125,66.734,-15.550407812500001C91.02099999999999,8.881792187499997,91.02000000000001,48.4949921875,66.732,72.9279921875C50.43300000000001,89.32499218749999,15.094399999999993,94.45699218749999,-39.713899999999995,89.34999218749999L-44.7157,88.88399218750001L-44.731899999999996,83.83099218749999C-44.8922,33.684792187499994,-37.3106,0.6404921875000014,-21.217799999999997,-15.548607812499998ZM58.964,64.8379921875C78.922,44.7606921875,78.85400000000001,12.1412921875,58.81399999999999,-8.019507812500002C38.7732,-28.1803078125,6.347999999999999,-28.2481078125,-13.6098,-8.170807812500001C-26.4777,4.774092187500003,-33.4083,33.498192187499995,-33.7203,77.7839921875L-33.7235,78.3169921875L-32.6363,78.4089921875C15.131699999999995,82.3679921875,45.653999999999996,77.6839921875,58.562,65.2329921875L58.964,64.8379921875Z" fill-rule="evenodd" fill="#00B9E3" fill-opacity="0.7799999713897705"/></g><g style="mix-blend-mode:passthrough"><ellipse cx="32.165771484375" cy="19.861328125" rx="23.484375" ry="23.625" fill="#123049" fill-opacity="0.6392157077789307"/></g></g><g style="opacity:0.05000000074505806;mix-blend-mode:passthrough"><g style="mix-blend-mode:passthrough"><path d="M482.0324,238.4513921875C506.4655,214.0181921875,546.0789,214.0174221875,570.511,238.4495921875C594.943,262.88179218749997,594.942,302.4949921875,570.509,326.92799218749997C554.112,343.3249921875,518.5621,348.45699218749996,463.4256,343.3499921875L458.3938,342.8839921875L458.3775,337.8309921875C458.2162,287.68479218749997,465.8432,254.6404921875,482.0324,238.4513921875ZM562.694,318.8379921875C582.7719999999999,298.7606921875,582.704,266.14129218749997,562.543,245.9804921875C542.3826,225.8196921875,509.7632,225.7518921875,489.686,245.82919218749998C476.741,258.7740921875,469.7689,287.49819218749997,469.455,331.7839921875L469.4518,332.3169921875L470.5455,332.4089921875C518.5996,336.3679921875,549.304,331.6839921875,562.29,319.23299218750003L562.694,318.8379921875Z" fill-rule="evenodd" fill="#00B9E3" fill-opacity="0.7799999713897705"/></g><g style="mix-blend-mode:passthrough"><ellipse cx="535.735595703125" cy="273.861328125" rx="23.625" ry="23.625" fill="#123049" fill-opacity="0.6392157077789307"/></g></g><g style="opacity:0.05000000074505806;mix-blend-mode:passthrough"><g style="mix-blend-mode:passthrough"><path d="M146.0324,238.4513921875C170.4655,214.0181921875,210.0789,214.0174221875,234.511,238.4495921875C258.943,262.88179218749997,258.942,302.4949921875,234.50900000000001,326.92799218749997C218.112,343.3249921875,182.5621,348.45699218749996,127.4256,343.3499921875L122.3938,342.8839921875L122.3775,337.8309921875C122.2162,287.68479218749997,129.8432,254.6404921875,146.0324,238.4513921875ZM226.69400000000002,318.8379921875C246.772,298.7606921875,246.704,266.14129218749997,226.543,245.9804921875C206.3826,225.8196921875,173.76319999999998,225.7518921875,153.686,245.82919218749998C140.74099999999999,258.7740921875,133.7689,287.49819218749997,133.45499999999998,331.7839921875L133.4518,332.3169921875L134.5455,332.4089921875C182.5996,336.3679921875,213.304,331.6839921875,226.29000000000002,319.23299218750003L226.69400000000002,318.8379921875Z" fill-rule="evenodd" fill="#00B9E3" fill-opacity="0.7799999713897705"/></g><g style="mix-blend-mode:passthrough"><ellipse cx="199.735595703125" cy="273.861328125" rx="23.625" ry="23.625" fill="#123049" fill-opacity="0.6392157077789307"/></g></g><g style="opacity:0.07000000029802322;mix-blend-mode:passthrough"><g style="mix-blend-mode:passthrough"><path d="M482.0324,71.2221921875C506.4655,46.9344321875,546.0789,46.9336621875,570.511,71.2203921875C594.943,95.50719218750001,594.942,134.8845921875,570.509,159.1729921875C554.112,175.4719921875,518.5621,180.5729921875,463.4256,175.4959921875L458.3938,175.0329921875L458.3775,170.0099921875C458.2162,120.1625921875,465.8432,87.3149921875,482.0324,71.2221921875ZM562.694,151.1309921875C582.7719999999999,131.1730921875,582.704,98.7478921875,562.543,78.7070921875C542.3826,58.666292187500005,509.7632,58.5988921875,489.686,78.5566921875C476.741,91.4245921875,469.7689,119.9776921875,469.455,163.9999921875L469.4518,164.5299921875L470.5455,164.6209921875C518.5996,168.5569921875,549.304,163.8999921875,562.29,151.5239921875L562.694,151.1309921875Z" fill-rule="evenodd" fill="#00B9E3" fill-opacity="0.7799999713897705"/></g><g style="mix-blend-mode:passthrough"><ellipse cx="535.735595703125" cy="106.421875" rx="23.625" ry="23.484375" fill="#123049" fill-opacity="0.6392157077789307"/></g></g><g style="opacity:0.07000000029802322;mix-blend-mode:passthrough"><g style="mix-blend-mode:passthrough"><path d="M143.7822,71.2221921875C168.0699,46.9344321875,207.4475,46.9336621875,231.73399999999998,71.2203921875C256.02099999999996,95.50719218750001,256.02,134.8845921875,231.732,159.1729921875C215.433,175.4719921875,180.0944,180.5729921875,125.2861,175.4959921875L120.2843,175.0329921875L120.2681,170.0099921875C120.1078,120.1625921875,127.6894,87.3149921875,143.7822,71.2221921875ZM223.964,151.1309921875C243.922,131.1730921875,243.854,98.7478921875,223.814,78.7070921875C203.7732,58.666292187500005,171.348,58.5988921875,151.3902,78.5566921875C138.5223,91.4245921875,131.5917,119.9776921875,131.2797,163.9999921875L131.2765,164.5299921875L132.3637,164.6209921875C180.1317,168.5569921875,210.654,163.8999921875,223.562,151.5239921875L223.964,151.1309921875Z" fill-rule="evenodd" fill="#00B9E3" fill-opacity="0.7799999713897705"/></g><g style="mix-blend-mode:passthrough"><ellipse cx="197.165771484375" cy="106.421875" rx="23.484375" ry="23.484375" fill="#123049" fill-opacity="0.6392157077789307"/></g></g><g style="opacity:0.05999999865889549;mix-blend-mode:passthrough"><g style="mix-blend-mode:passthrough"><path d="M648.7822,154.2221921875C673.0699,129.9344321875,712.4475,129.9336621875,736.734,154.2203921875C761.021,178.5071921875,761.02,217.8845921875,736.732,242.1729921875C720.433,258.4719921875,685.0944,263.5729921875,630.2861,258.4959921875L625.2843,258.0329921875L625.2681,253.0099921875C625.1078,203.1625921875,632.6894,170.3149921875,648.7822,154.2221921875ZM728.9639999999999,234.1309921875C748.922,214.1730921875,748.854,181.74789218749999,728.813,161.7070921875C708.7731,141.6662921875,676.3478,141.59889218749998,656.3901,161.5566921875C643.5222,174.4245921875,636.5916,202.9776921875,636.2796,246.9999921875L636.2764,247.5299921875L637.3636,247.6209921875C685.1316,251.5569921875,715.654,246.8999921875,728.562,234.5239921875L728.9639999999999,234.1309921875Z" fill-rule="evenodd" fill="#00B9E3" fill-opacity="0.7799999713897705"/></g><g style="mix-blend-mode:passthrough"><ellipse cx="702.165771484375" cy="189.421875" rx="23.484375" ry="23.484375" fill="#123049" fill-opacity="0.6392157077789307"/></g></g><g style="opacity:0.10000000149011612;mix-blend-mode:passthrough"><g style="mix-blend-mode:passthrough"><path d="M648.7822,-13.548607812499998C673.0699,-37.9818078125,712.4475,-37.9825778125,736.734,-13.550407812500001C761.021,10.881792187499997,761.02,50.4949921875,736.732,74.9279921875C720.433,91.32499218749999,685.0944,96.45699218749999,630.2861,91.34999218749999L625.2843,90.88399218750001L625.2681,85.83099218749999C625.1078,35.684792187499994,632.6894,2.6404921875000014,648.7822,-13.548607812499998ZM728.9639999999999,66.8379921875C748.922,46.7606921875,748.854,14.1412921875,728.813,-6.019507812500002C708.7731,-26.1803078125,676.3478,-26.2481078125,656.3901,-6.170807812500001C643.5222,6.774092187500003,636.5916,35.498192187499995,636.2796,79.7839921875L636.2764,80.3169921875L637.3636,80.4089921875C685.1316,84.3679921875,715.654,79.6839921875,728.562,67.2329921875L728.9639999999999,66.8379921875Z" fill-rule="evenodd" fill="#00B9E3" fill-opacity="0.7799999713897705"/></g><g style="mix-blend-mode:passthrough"><ellipse cx="702.165771484375" cy="21.861328125" rx="23.484375" ry="23.625" fill="#123049" fill-opacity="0.6392157077789307"/></g></g></g></svg>